<svg width="94" height="88" viewBox="0 0 94 88" fill="none" xmlns="http://www.w3.org/2000/svg">
<path d="M93.2769 57.1712C92.1772 48.7432 90.1537 40.4617 87.2429 32.4762C86.0382 29.0333 84.7257 25.6794 83.3429 22.5012C83.1875 22.1449 82.8969 21.8649 82.5351 21.7228C82.1732 21.5807 81.7698 21.5882 81.4134 21.7436C81.0571 21.899 80.7771 22.1896 80.635 22.5515C80.4929 22.9133 80.5004 23.3168 80.6558 23.6731C82.0105 26.7833 83.2961 30.0716 84.4785 33.4466C87.3127 41.2176 89.2847 49.2765 90.3589 57.4782C91.1523 64.9208 89.9558 67.3794 89.2129 67.6395C88.4699 67.8997 85.9996 66.7208 81.9753 60.4137C77.6965 53.3317 74.2087 45.801 71.575 37.9571C64.9398 19.0149 64.5882 7.03601 66.2406 4.31375C66.3432 4.21634 66.4312 4.10464 66.5019 3.98211C66.5954 3.88437 66.7089 3.80801 66.8347 3.75828C67.5378 3.51688 70.4195 4.68406 75.2828 12.9645C75.4789 13.301 75.8006 13.5457 76.1772 13.645C76.5538 13.7442 76.9543 13.6897 77.2908 13.4936C77.6272 13.2975 77.872 12.9758 77.9712 12.5992C78.0704 12.2226 78.016 11.8221 77.8199 11.4856C73.0773 3.4114 69.0578 -0.115938 65.8773 0.997343C65.2016 1.24398 64.6142 1.68569 64.1898 2.26648L10.1288 46.5634C9.28192 47.2606 8.66888 48.2006 8.37221 49.2567C8.07555 50.3128 8.10949 51.4345 8.46947 52.4708L8.72025 53.1868L3.04955 55.179C2.07919 55.519 1.28358 56.2305 0.837694 57.157C0.391806 58.0835 0.332138 59.1491 0.671815 60.1196L2.34525 64.8962C2.51242 65.3776 2.7731 65.8213 3.1123 66.2016C3.4515 66.582 3.86255 66.8915 4.32179 67.1125C4.78104 67.3335 5.27943 67.4615 5.78831 67.4892C6.2972 67.5169 6.80654 67.4437 7.28705 67.2739L12.9589 65.2817L13.2097 65.9977C13.5745 67.0326 14.2477 67.9308 15.1386 68.5714C16.0295 69.2119 17.0954 69.564 18.1925 69.5802L25.9058 69.6833L30.5933 83.0895C31.1319 84.628 32.2596 85.8895 33.7284 86.5965C35.1971 87.3035 36.8865 87.3981 38.4249 86.8594C39.9634 86.3208 41.2249 85.1931 41.9319 83.7244C42.6389 82.2557 42.7335 80.5663 42.1949 79.0278L40.1054 73.0641C40.0449 72.8788 39.948 72.7073 39.8204 72.5599C39.6928 72.4125 39.537 72.292 39.3622 72.2056C39.1874 72.1191 38.9971 72.0685 38.8025 72.0565C38.6079 72.0446 38.4128 72.0717 38.2288 72.1361C38.0447 72.2005 37.8754 72.3011 37.7307 72.4318C37.5861 72.5625 37.4689 72.7209 37.3863 72.8974C37.3036 73.074 37.257 73.2654 37.2492 73.4602C37.2414 73.6551 37.2726 73.8495 37.341 74.0321L39.4281 79.9899C39.7087 80.7945 39.6588 81.6775 39.2893 82.4453C38.9198 83.2131 38.2608 83.803 37.457 84.0856C36.6528 84.3673 35.7696 84.3179 35.0018 83.9485C34.2339 83.5791 33.6443 82.9198 33.3624 82.1157L29.0207 69.7231L87.9812 70.4696C88.3177 70.5594 88.6642 70.6059 89.0125 70.6079C89.4116 70.6085 89.8078 70.5411 90.1843 70.4087C93.066 69.4008 94.1089 64.9477 93.2769 57.1712ZM6.31205 64.5094C6.19425 64.5503 6.06954 64.5676 5.94506 64.5603C5.82057 64.553 5.69875 64.5212 5.58655 64.4668C5.47435 64.4124 5.37397 64.3364 5.29114 64.2432C5.20832 64.15 5.14468 64.0413 5.10385 63.9235L3.43041 59.147C3.38951 59.0292 3.37223 58.9044 3.37955 58.78C3.38686 58.6555 3.41864 58.5336 3.47305 58.4214C3.52746 58.3092 3.60345 58.2089 3.69667 58.126C3.78989 58.0432 3.89852 57.9796 4.01635 57.9387L9.68705 55.9466L11.9874 62.5091L6.31205 64.5094ZM15.9671 65.0356L11.9605 53.611L11.2269 51.5169C11.0641 51.0478 11.0488 50.54 11.1831 50.0619C11.3173 49.5839 11.5948 49.1584 11.9781 48.8427L62.6312 7.32195C61.9351 15.3305 65.3546 29.0462 68.8152 38.9251C71.5237 46.982 75.1105 54.7164 79.5109 61.9887C80.7192 63.9448 82.108 65.7833 83.6593 67.4802L18.2218 66.6516C17.7259 66.6449 17.2439 66.4864 16.8408 66.1975C16.4377 65.9086 16.1328 65.5031 15.9671 65.0356Z" fill="#0072A3"/>
</svg>
