<svg width="387" height="406" viewBox="0 0 387 406" fill="none" xmlns="http://www.w3.org/2000/svg">
<rect width="387" height="406" fill="#E5E5E5"/>
<g clip-path="url(#clip0)">
<rect width="1440" height="4373" transform="translate(-821 -719)" fill="white"/>
<g clip-path="url(#clip1)">
<path opacity="0.18" d="M137.869 72.3965C107.991 90.5389 70.3063 94.7833 43.6565 117.413C34.2491 125.409 26.6566 135.396 20.5397 146.118C0.658064 181.002 -3.42218 224.541 9.64985 262.525C22.7219 300.509 52.7176 332.286 89.8555 347.502C107.617 354.777 126.661 358.362 145.69 360.866C180.774 365.474 216.231 366.543 251.527 364.056C273.841 362.482 297.401 358.931 314.567 344.575C326.011 335.004 333.465 321.502 339.228 307.735C354.814 270.304 359.632 229.255 353.139 189.227C349.169 165.016 340.96 141.318 327.438 120.86C304.688 86.4264 268.888 63.8385 232.2 46.6531C217.798 39.9398 199.392 28.2193 183.334 35.0019C166.452 42.1452 153.955 62.6317 137.869 72.3965Z" fill="#0072A3"/>
<path opacity="0.52" d="M11.8944 362.669C8.7424 363.272 5.4311 363.973 3.04114 366.137C-1.5171 370.228 -0.581898 378.079 3.42215 382.712C7.42619 387.344 13.5223 389.501 19.3552 391.27C68.0688 405.938 119.803 406.042 170.664 406.021C186.202 406.021 202.149 405.938 216.662 400.376C226.72 396.527 235.65 390.188 245.57 385.978C282.805 370.166 326.371 386.568 365.74 377.267C370.36 376.179 375.494 374.195 377.101 369.722C380.35 360.706 367.215 355.193 357.635 354.721C315.603 352.642 273.49 352.841 231.48 355.318C197.916 357.294 167.339 347.321 133.651 348.688C92.7758 350.329 52.0789 355.002 11.8944 362.669Z" fill="url(#paint0_linear)"/>
<path d="M203.548 354.673H192.395C188.585 354.673 184.929 353.16 182.231 350.466C179.533 347.773 178.011 344.118 178 340.303V14.4113C178.002 10.5898 179.519 6.92526 182.218 4.22301C184.918 1.52076 188.578 0.00183773 192.395 0H203.548C199.73 0 196.069 1.51833 193.369 4.22098C190.67 6.92363 189.153 10.5892 189.153 14.4113V340.303C189.162 344.118 190.683 347.774 193.382 350.468C196.081 353.162 199.737 354.674 203.548 354.673Z" fill="#0072A3"/>
<path d="M203.548 354.673H192.395C188.585 354.673 184.929 353.16 182.231 350.466C179.533 347.773 178.011 344.118 178 340.303V14.4113C178.002 10.5898 179.519 6.92526 182.218 4.22301C184.918 1.52076 188.578 0.00183773 192.395 0H203.548C199.73 0 196.069 1.51833 193.369 4.22098C190.67 6.92363 189.153 10.5892 189.153 14.4113V340.303C189.162 344.118 190.683 347.774 193.382 350.468C196.081 353.162 199.737 354.674 203.548 354.673Z" fill="url(#paint1_linear)"/>
<path d="M98.7434 112.198C98.7434 112.198 67.0643 153.365 70.2925 171.84C73.5207 190.316 81.3001 209.138 81.3001 209.138L102.553 118.287L98.7434 112.198Z" fill="#0072A3"/>
<path d="M98.7434 112.198C98.7434 112.198 67.0643 153.365 70.2925 171.84C73.5207 190.316 81.3001 209.138 81.3001 209.138L102.553 118.287L98.7434 112.198Z" fill="url(#paint2_linear)"/>
<path d="M372.605 0H203.527C195.577 0 189.132 6.45217 189.132 14.4113V340.261C189.132 348.22 195.577 354.673 203.527 354.673H372.605C380.555 354.673 387 348.22 387 340.261V14.4113C387 6.45217 380.555 0 372.605 0Z" fill="#0072A3"/>
<path opacity="0.34" d="M290.099 39.9675H204.85C204.187 39.9675 203.531 39.8367 202.919 39.5825C202.306 39.3284 201.75 38.9559 201.282 38.4863C200.813 38.0167 200.442 37.4594 200.189 36.846C199.936 36.2326 199.806 35.5754 199.807 34.9118C199.807 33.5727 200.338 32.2885 201.284 31.3417C202.23 30.3949 203.513 29.8629 204.85 29.8629H290.099C291.437 29.8629 292.721 30.3947 293.668 31.3413C294.614 32.2879 295.147 33.5721 295.149 34.9118C295.149 36.2526 294.617 37.5386 293.67 38.4867C292.723 39.4349 291.438 39.9675 290.099 39.9675Z" fill="white"/>
<path opacity="0.34" d="M290.099 91.489H204.85C203.519 91.4891 202.241 90.9619 201.296 90.0226C200.352 89.0832 199.816 87.8079 199.807 86.4749C199.806 85.8113 199.936 85.154 200.189 84.5407C200.442 83.9273 200.813 83.3699 201.282 82.9004C201.75 82.4308 202.306 82.0583 202.919 81.8041C203.531 81.55 204.187 81.4192 204.85 81.4192H290.099C291.438 81.4192 292.723 81.9518 293.67 82.9C294.617 83.8481 295.149 85.134 295.149 86.4749C295.138 87.8086 294.601 89.0838 293.655 90.023C292.709 90.9621 291.431 91.4891 290.099 91.489Z" fill="white"/>
<path opacity="0.34" d="M290.099 143.011H204.85C203.513 143.011 202.23 142.479 201.284 141.532C200.338 140.585 199.807 139.301 199.807 137.962C199.806 137.298 199.936 136.641 200.189 136.028C200.442 135.414 200.813 134.857 201.282 134.387C201.75 133.918 202.306 133.545 202.919 133.291C203.531 133.037 204.187 132.906 204.85 132.906H290.099C291.438 132.906 292.723 133.439 293.67 134.387C294.617 135.335 295.149 136.621 295.149 137.962C295.147 139.301 294.614 140.586 293.668 141.532C292.721 142.479 291.437 143.011 290.099 143.011Z" fill="white"/>
<path opacity="0.34" d="M290.099 194.539H204.85C203.512 194.537 202.229 194.004 201.284 193.056C200.338 192.108 199.807 190.823 199.807 189.483C199.806 188.82 199.936 188.162 200.189 187.549C200.442 186.936 200.813 186.378 201.282 185.909C201.75 185.439 202.306 185.067 202.919 184.813C203.531 184.558 204.187 184.428 204.85 184.428H290.099C291.438 184.428 292.723 184.96 293.67 185.908C294.617 186.856 295.149 188.142 295.149 189.483C295.147 190.824 294.615 192.108 293.668 193.056C292.721 194.004 291.438 194.537 290.099 194.539Z" fill="white"/>
<path opacity="0.34" d="M290.099 246.061H204.85C203.512 246.059 202.229 245.525 201.284 244.577C200.338 243.629 199.807 242.345 199.807 241.005C199.806 240.341 199.936 239.684 200.189 239.071C200.442 238.457 200.813 237.9 201.282 237.43C201.75 236.961 202.306 236.588 202.919 236.334C203.531 236.08 204.187 235.949 204.85 235.949H290.099C291.438 235.949 292.723 236.482 293.67 237.43C294.617 238.378 295.149 239.664 295.149 241.005C295.147 242.345 294.615 243.63 293.668 244.578C292.721 245.526 291.438 246.059 290.099 246.061Z" fill="white"/>
<path opacity="0.34" d="M290.099 297.582H204.85C204.187 297.582 203.531 297.451 202.919 297.197C202.306 296.943 201.75 296.571 201.282 296.101C200.813 295.631 200.442 295.074 200.189 294.461C199.936 293.847 199.806 293.19 199.807 292.526C199.807 291.187 200.338 289.902 201.284 288.954C202.229 288.006 203.512 287.473 204.85 287.471H290.099C291.438 287.473 292.721 288.006 293.668 288.954C294.615 289.901 295.147 291.186 295.149 292.526C295.149 293.867 294.617 295.153 293.67 296.101C292.723 297.05 291.438 297.582 290.099 297.582Z" fill="white"/>
<path d="M83.9808 220.699C89.973 209.165 119.151 234.014 122.837 246.359C126.522 258.703 102.553 302.062 90.1115 315.447C77.6699 328.832 54.6085 340.809 39.8739 344.963C39.8739 344.963 34.6784 338.028 35.7175 335.178C36.7566 332.327 67.2926 310.045 70.0567 296.583C72.8207 283.122 77.9886 232.239 83.9808 220.699Z" fill="#302F47"/>
<path d="M224.795 113.335C224.795 113.335 221.109 102.62 221.726 101.441C222.342 100.262 225.924 97.5435 227.614 99.1316C229.304 100.72 232.733 110.568 232.733 110.568L268.721 98.2647C268.721 98.2647 272.739 97.6406 272.317 102.037C271.894 106.434 233.17 121.844 233.17 121.844C233.17 121.844 230.018 125.076 224.795 113.335Z" fill="#0072A3"/>
<path d="M224.795 113.335C224.795 113.335 221.109 102.62 221.726 101.441C222.342 100.262 225.924 97.5435 227.614 99.1316C229.304 100.72 232.733 110.568 232.733 110.568L268.721 98.2647C268.721 98.2647 272.739 97.6406 272.317 102.037C271.894 106.434 233.17 121.844 233.17 121.844C233.17 121.844 230.018 125.076 224.795 113.335Z" fill="url(#paint3_linear)"/>
<path d="M138.638 52.541C138.638 52.541 149.867 72.1676 147.644 84.0615C145.42 95.9553 139.068 93.2853 136.816 99.4368C135.405 103.47 134.497 107.663 134.115 111.92C134.115 111.92 127.596 117.219 115.923 102.8C116.962 96.9309 116.334 90.8873 114.108 85.3583C110.388 76.4744 112.397 44.406 138.638 52.541Z" fill="#A2935F"/>
<path d="M104.029 42.4156C86.8351 58.8382 79.783 48.8792 71.193 53.4218C62.603 57.9643 59.2986 59.5872 62.4159 76.6963C65.5333 93.8054 50.1683 90.109 46.4829 100.463C35.9463 130.056 53.4103 135.222 72.904 134.404C92.3978 133.586 90.562 97.9665 104.929 96.5864C119.297 95.2063 122.248 97.3562 128.06 78.8809C131.482 68.0134 129.044 63.2698 133.692 59.5802C139.629 54.8712 141.7 44.6696 135.5 40.3212C128.677 35.5359 114.967 31.9712 104.029 42.4156Z" fill="#3F3D56"/>
<path d="M102.809 109.486C102.809 109.486 101.376 102.925 106.086 100.671C110.797 98.4173 124.298 97.3285 126.176 100.671C128.053 104.014 130.11 111.587 132.119 111.768C134.128 111.948 142.379 125.083 142.379 125.083C142.379 125.083 144.104 161.576 144.201 175.745C144.36 198.256 130.886 233.397 112.286 230.533C93.6861 227.668 80.1153 222.495 80.4201 212.841C80.7249 203.187 96.4363 130.458 95.314 122.267C94.0948 113.432 102.491 109.181 102.809 109.486Z" fill="#0072A3"/>
<path d="M102.809 109.486C102.809 109.486 101.376 102.925 106.086 100.671C110.797 98.4173 124.298 97.3285 126.176 100.671C128.053 104.014 130.11 111.587 132.119 111.768C134.128 111.948 142.379 125.083 142.379 125.083C142.379 125.083 144.104 161.576 144.201 175.745C144.36 198.256 130.886 233.397 112.286 230.533C93.6861 227.668 80.1153 222.495 80.4201 212.841C80.7249 203.187 96.4363 130.458 95.314 122.267C94.0948 113.432 102.491 109.181 102.809 109.486Z" fill="url(#paint4_linear)"/>
<path d="M119.512 120.867C119.512 120.867 126.674 106.719 136.83 115.318C146.986 123.918 159.448 155.716 168.121 155.896C176.794 156.077 212.457 127.309 215.567 129.91C218.677 132.511 224.081 139.002 221.171 144.543C218.262 150.084 178.388 185.038 161.215 181.764C144.042 178.491 107.437 155.015 119.512 120.867Z" fill="#0072A3"/>
<path d="M119.512 120.867C119.512 120.867 126.674 106.719 136.83 115.318C146.986 123.918 159.448 155.716 168.121 155.896C176.794 156.077 212.457 127.309 215.567 129.91C218.677 132.511 224.081 139.002 221.171 144.543C218.262 150.084 178.388 185.038 161.215 181.764C144.042 178.491 107.437 155.015 119.512 120.867Z" fill="url(#paint5_linear)"/>
<path d="M216.71 130.95C216.71 130.95 223.956 117.441 224.552 114.999C225.148 112.558 226.956 116.227 226.956 116.227C226.956 116.227 233.19 111.303 234.229 109.153C235.269 107.003 244.295 103.674 248.368 104.208C252.442 104.742 245.597 107.246 245.597 107.246C245.597 107.246 242.369 108.723 240.679 116.837C238.989 124.951 237.277 131.893 229.796 135.299C222.314 138.704 221.836 139.46 221.836 139.46C221.836 139.46 220.07 132.317 216.71 130.95Z" fill="#A2935F"/>
<path d="M83.981 220.699C83.981 220.699 75.0585 241.144 91.6496 260.229C108.241 279.315 120.613 294.212 117.115 323.749C113.616 353.286 122.006 368.508 122.006 368.508H131.787C131.787 368.508 146.965 313.79 144.346 290.619C141.728 267.449 130.305 220.768 130.305 220.768C130.305 220.768 107.95 210.088 83.981 220.699Z" fill="#3F3D56"/>
<path d="M122.005 368.495V380.978H148.953C148.953 380.978 132.819 378.058 132.362 374.736C131.905 371.414 131.787 368.495 131.787 368.495H122.005Z" fill="#A2935F"/>
<path d="M124.001 377.143C122.781 376.893 121.264 376.588 120.495 377.566C120.242 377.931 120.081 378.352 120.024 378.793C119.784 380.005 119.696 381.242 119.761 382.476C119.809 383.398 120.024 384.439 120.821 384.896C121.321 385.125 121.874 385.213 122.421 385.153L150.366 384.64C151.433 384.64 152.666 384.522 153.269 383.641C153.542 383.207 153.664 382.695 153.615 382.185C153.538 381.491 153.313 380.822 152.954 380.224C152.595 379.625 152.112 379.112 151.537 378.717C150.379 377.926 149.092 377.341 147.734 376.99C144.27 375.936 138.728 373.966 135.306 375.402C131.572 376.949 128.122 378.01 124.001 377.143Z" fill="#3F3D56"/>
<path d="M35.4476 337.05L24.3638 342.716L37.8584 366.067C37.8584 366.067 32.3164 350.622 34.935 348.57C37.5536 346.517 40.0336 344.956 40.0336 344.956L35.4476 337.05Z" fill="#A2935F"/>
<path d="M28.631 342.543C28.2431 341.357 27.7443 339.894 26.5112 339.713C26.0717 339.673 25.629 339.742 25.2227 339.915C24.0526 340.318 22.936 340.863 21.8975 341.537C21.1286 342.037 20.3389 342.744 20.3389 343.666C20.3922 344.213 20.5907 344.735 20.9138 345.178C25.7261 353.168 30.5383 361.157 35.3506 369.146C35.9048 370.055 36.6114 371.074 37.6713 371.158C38.1834 371.175 38.6871 371.024 39.1052 370.728C39.6736 370.315 40.1458 369.784 40.489 369.171C40.8323 368.558 41.0385 367.877 41.0934 367.177C41.197 365.777 41.0587 364.369 40.6847 363.016C39.8742 359.499 38.7797 353.681 35.8355 351.448C32.5935 349 29.9472 346.545 28.631 342.543Z" fill="#3F3D56"/>
<path opacity="0.34" d="M349.19 16.7069H320.324C318.147 16.7069 316.382 18.4736 316.382 20.653V44.94C316.382 47.1194 318.147 48.8862 320.324 48.8862H349.19C351.367 48.8862 353.132 47.1194 353.132 44.94V20.653C353.132 18.4736 351.367 16.7069 349.19 16.7069Z" fill="white"/>
<path opacity="0.34" d="M349.19 72.6323H320.324C318.147 72.6323 316.382 74.399 316.382 76.5784V100.865C316.382 103.045 318.147 104.812 320.324 104.812H349.19C351.367 104.812 353.132 103.045 353.132 100.865V76.5784C353.132 74.399 351.367 72.6323 349.19 72.6323Z" fill="white"/>
<path opacity="0.34" d="M349.19 123.377H320.324C318.147 123.377 316.382 125.144 316.382 127.323V151.61C316.382 153.79 318.147 155.556 320.324 155.556H349.19C351.367 155.556 353.132 153.79 353.132 151.61V127.323C353.132 125.144 351.367 123.377 349.19 123.377Z" fill="white"/>
<path opacity="0.34" d="M349.19 223.778H320.324C318.147 223.778 316.382 225.545 316.382 227.724V252.011C316.382 254.19 318.147 255.957 320.324 255.957H349.19C351.367 255.957 353.132 254.19 353.132 252.011V227.724C353.132 225.545 351.367 223.778 349.19 223.778Z" fill="white"/>
<path opacity="0.34" d="M349.19 173.387H320.324C318.147 173.387 316.382 175.153 316.382 177.333V201.62C316.382 203.799 318.147 205.566 320.324 205.566H349.19C351.367 205.566 353.132 203.799 353.132 201.62V177.333C353.132 175.153 351.367 173.387 349.19 173.387Z" fill="white"/>
<path opacity="0.34" d="M349.19 276.437H320.324C318.147 276.437 316.382 278.204 316.382 280.383V304.67C316.382 306.849 318.147 308.616 320.324 308.616H349.19C351.367 308.616 353.132 306.849 353.132 304.67V280.383C353.132 278.204 351.367 276.437 349.19 276.437Z" fill="white"/>
<path d="M318.959 28.1014L325.568 39.1977C327.646 42.6653 331.22 43.3588 333.811 40.876L356.18 19.3215C356.18 19.3215 358.258 16.3463 356.048 14.0438C353.838 11.7413 352.01 14.3905 352.01 14.3905L332.197 33.4484C330.943 34.5927 329.232 34.2182 328.262 32.5746L322.998 23.649C322.007 21.9776 320.171 21.8251 319.084 23.3647C318.637 24.0693 318.39 24.8818 318.368 25.7158C318.346 26.5498 318.55 27.3742 318.959 28.1014Z" fill="#0072A3"/>
<path d="M318.959 83.0073L325.568 94.1036C327.646 97.5365 331.221 98.2647 333.811 95.7819L356.18 74.2274C356.18 74.2274 358.258 71.2522 356.049 68.9497C353.839 66.6472 352.01 69.2964 352.01 69.2964L332.197 88.3544C330.944 89.4987 329.233 89.1242 328.263 87.4805L322.998 78.5549C322 76.8697 320.171 76.7171 319.084 78.229C318.63 78.9383 318.378 79.7585 318.356 80.6007C318.334 81.443 318.543 82.2752 318.959 83.0073Z" fill="#0072A3"/>
<path d="M318.959 187.625L325.568 198.721C327.646 202.154 331.221 202.882 333.811 200.399L356.18 178.838C356.18 178.838 358.258 175.863 356.049 173.56C353.839 171.258 352.01 173.907 352.01 173.907L332.197 192.972C330.944 194.116 329.233 193.735 328.263 192.098L322.998 183.172C322 181.487 320.171 181.334 319.084 182.846C318.63 183.556 318.378 184.376 318.356 185.218C318.334 186.06 318.543 186.893 318.959 187.625Z" fill="#0072A3"/>
<path d="M318.959 238.39L325.568 249.487C327.646 252.919 331.221 253.648 333.811 251.165L356.18 229.61C356.18 229.61 358.258 226.628 356.049 224.326C353.839 222.023 352.01 224.672 352.01 224.672L332.197 243.737C330.944 244.882 329.233 244.5 328.263 242.863L322.998 233.938C322 232.253 320.171 232.1 319.084 233.612C318.63 234.321 318.378 235.141 318.356 235.984C318.334 236.826 318.543 237.658 318.959 238.39Z" fill="#0072A3"/>
<path d="M318.959 287.838L325.568 298.934C327.646 302.402 331.22 303.096 333.811 300.62L356.18 279.058C356.18 279.058 358.258 276.083 356.048 273.781C353.838 271.478 352.01 274.127 352.01 274.127L332.197 293.185C330.943 294.336 329.232 293.955 328.262 292.311L322.997 283.434C322 281.749 320.171 281.597 319.084 283.108C318.639 283.812 318.392 284.623 318.37 285.456C318.348 286.289 318.552 287.112 318.959 287.838Z" fill="#0072A3"/>
<path d="M318.959 28.1014L325.568 39.1977C327.646 42.6653 331.22 43.3588 333.811 40.876L356.18 19.3215C356.18 19.3215 358.258 16.3463 356.048 14.0438C353.838 11.7413 352.01 14.3905 352.01 14.3905L332.197 33.4484C330.943 34.5927 329.232 34.2182 328.262 32.5746L322.998 23.649C322.007 21.9776 320.171 21.8251 319.084 23.3647C318.637 24.0693 318.39 24.8818 318.368 25.7158C318.346 26.5498 318.55 27.3742 318.959 28.1014Z" fill="url(#paint6_linear)"/>
<path d="M318.959 83.0073L325.568 94.1036C327.646 97.5365 331.221 98.2647 333.811 95.7819L356.18 74.2274C356.18 74.2274 358.258 71.2522 356.049 68.9497C353.839 66.6472 352.01 69.2964 352.01 69.2964L332.197 88.3544C330.944 89.4987 329.233 89.1242 328.263 87.4805L322.998 78.5549C322 76.8697 320.171 76.7171 319.084 78.229C318.63 78.9383 318.378 79.7585 318.356 80.6007C318.334 81.443 318.543 82.2752 318.959 83.0073Z" fill="url(#paint7_linear)"/>
<path d="M318.959 187.625L325.568 198.721C327.646 202.154 331.221 202.882 333.811 200.399L356.18 178.838C356.18 178.838 358.258 175.863 356.049 173.56C353.839 171.258 352.01 173.907 352.01 173.907L332.197 192.972C330.944 194.116 329.233 193.735 328.263 192.098L322.998 183.172C322 181.487 320.171 181.334 319.084 182.846C318.63 183.556 318.378 184.376 318.356 185.218C318.334 186.06 318.543 186.893 318.959 187.625Z" fill="url(#paint8_linear)"/>
<path d="M318.959 238.39L325.568 249.487C327.646 252.919 331.221 253.648 333.811 251.165L356.18 229.61C356.18 229.61 358.258 226.628 356.049 224.326C353.839 222.023 352.01 224.672 352.01 224.672L332.197 243.737C330.944 244.882 329.233 244.5 328.263 242.863L322.998 233.938C322 232.253 320.171 232.1 319.084 233.612C318.63 234.321 318.378 235.141 318.356 235.984C318.334 236.826 318.543 237.658 318.959 238.39Z" fill="url(#paint9_linear)"/>
<path d="M318.959 287.838L325.568 298.934C327.646 302.402 331.22 303.096 333.811 300.62L356.18 279.058C356.18 279.058 358.258 276.083 356.048 273.781C353.838 271.478 352.01 274.127 352.01 274.127L332.197 293.185C330.943 294.336 329.232 293.955 328.262 292.311L322.997 283.434C322 281.749 320.171 281.597 319.084 283.108C318.639 283.812 318.392 284.623 318.37 285.456C318.348 286.289 318.552 287.112 318.959 287.838Z" fill="url(#paint10_linear)"/>
</g>
</g>
<defs>
<linearGradient id="paint0_linear" x1="190.691" y1="306.688" x2="179.742" y2="676.916" gradientUnits="userSpaceOnUse">
<stop stop-opacity="0"/>
<stop offset="0.98"/>
</linearGradient>
<linearGradient id="paint1_linear" x1="12410" y1="55282.8" x2="-6219.53" y2="56362" gradientUnits="userSpaceOnUse">
<stop stop-opacity="0"/>
<stop offset="0.98"/>
</linearGradient>
<linearGradient id="paint2_linear" x1="5453.98" y1="21841.3" x2="9198.26" y2="22314.8" gradientUnits="userSpaceOnUse">
<stop stop-opacity="0"/>
<stop offset="0.98"/>
</linearGradient>
<linearGradient id="paint3_linear" x1="22228.9" y1="3258.23" x2="21193.1" y2="7369.33" gradientUnits="userSpaceOnUse">
<stop stop-opacity="0"/>
<stop offset="0.98"/>
</linearGradient>
<linearGradient id="paint4_linear" x1="16621.7" y1="32487.2" x2="-12235.8" y2="30451.9" gradientUnits="userSpaceOnUse">
<stop stop-opacity="0"/>
<stop offset="0.98"/>
</linearGradient>
<linearGradient id="paint5_linear" x1="32681.1" y1="14850.8" x2="31739.9" y2="25332.2" gradientUnits="userSpaceOnUse">
<stop stop-opacity="0"/>
<stop offset="0.98"/>
</linearGradient>
<linearGradient id="paint6_linear" x1="22022.8" y1="-2389.18" x2="20564.2" y2="34076.6" gradientUnits="userSpaceOnUse">
<stop stop-opacity="0"/>
<stop offset="0.98"/>
</linearGradient>
<linearGradient id="paint7_linear" x1="22191.5" y1="-2327.02" x2="20734.4" y2="34126.4" gradientUnits="userSpaceOnUse">
<stop stop-opacity="0"/>
<stop offset="0.98"/>
</linearGradient>
<linearGradient id="paint8_linear" x1="22499.6" y1="-2210.4" x2="21041.9" y2="34251.3" gradientUnits="userSpaceOnUse">
<stop stop-opacity="0"/>
<stop offset="0.98"/>
</linearGradient>
<linearGradient id="paint9_linear" x1="22649.1" y1="-2153.78" x2="21191.3" y2="34308.2" gradientUnits="userSpaceOnUse">
<stop stop-opacity="0"/>
<stop offset="0.98"/>
</linearGradient>
<linearGradient id="paint10_linear" x1="22786.7" y1="-2098.85" x2="21327.6" y2="34368.8" gradientUnits="userSpaceOnUse">
<stop stop-opacity="0"/>
<stop offset="0.98"/>
</linearGradient>
<clipPath id="clip0">
<rect width="1440" height="4373" fill="white" transform="translate(-821 -719)"/>
</clipPath>
<clipPath id="clip1">
<rect width="387" height="406" fill="white"/>
</clipPath>
</defs>
</svg>
