<svg width="340" height="56" viewBox="0 0 340 56" fill="none" xmlns="http://www.w3.org/2000/svg">
<rect width="340" height="56" fill="#E5E5E5"/>
<g clip-path="url(#clip0)">
<rect width="1440" height="4373" transform="translate(-549 -238)" fill="white"/>
<path d="M76.772 15.368H93.908V19.04H81.308V26.132H93.152V29.804H81.308V37.328H93.908V41H76.772V15.368ZM97.7887 29.48H108.625V33.08H97.7887V29.48ZM136.182 15.368V41H131.574V29.876H118.434V41H113.862V15.368H118.434V26.096H131.574V15.368H136.182ZM157.329 32.144H144.801C144.897 34.088 145.377 35.528 146.241 36.464C147.129 37.376 148.437 37.832 150.165 37.832C152.157 37.832 154.005 37.184 155.709 35.888L157.005 38.984C156.141 39.68 155.073 40.244 153.801 40.676C152.553 41.084 151.281 41.288 149.985 41.288C147.009 41.288 144.669 40.448 142.965 38.768C141.261 37.088 140.409 34.784 140.409 31.856C140.409 30.008 140.781 28.364 141.525 26.924C142.269 25.484 143.313 24.368 144.657 23.576C146.001 22.76 147.525 22.352 149.229 22.352C151.725 22.352 153.693 23.168 155.133 24.8C156.597 26.408 157.329 28.628 157.329 31.46V32.144ZM149.337 25.592C148.137 25.592 147.153 25.952 146.385 26.672C145.641 27.368 145.161 28.388 144.945 29.732H153.405C153.261 28.364 152.841 27.332 152.145 26.636C151.473 25.94 150.537 25.592 149.337 25.592ZM178.527 22.82V41H174.099V38.084C173.547 39.092 172.755 39.884 171.723 40.46C170.691 41.012 169.515 41.288 168.195 41.288C166.611 41.288 165.207 40.904 163.983 40.136C162.759 39.368 161.811 38.276 161.139 36.86C160.467 35.444 160.131 33.8 160.131 31.928C160.131 30.056 160.467 28.4 161.139 26.96C161.835 25.496 162.795 24.368 164.019 23.576C165.243 22.76 166.635 22.352 168.195 22.352C169.515 22.352 170.691 22.64 171.723 23.216C172.755 23.768 173.547 24.548 174.099 25.556V22.82H178.527ZM169.419 37.76C170.907 37.76 172.059 37.244 172.875 36.212C173.691 35.18 174.099 33.728 174.099 31.856C174.099 29.936 173.691 28.46 172.875 27.428C172.059 26.396 170.895 25.88 169.383 25.88C167.895 25.88 166.731 26.42 165.891 27.5C165.075 28.556 164.667 30.032 164.667 31.928C164.667 33.8 165.075 35.24 165.891 36.248C166.731 37.256 167.907 37.76 169.419 37.76ZM183.428 14.504H187.892V41H183.428V14.504ZM198.539 26.204V34.34C198.539 36.476 199.535 37.544 201.527 37.544C202.079 37.544 202.679 37.448 203.327 37.256V40.82C202.535 41.108 201.575 41.252 200.447 41.252C198.383 41.252 196.799 40.676 195.695 39.524C194.591 38.372 194.039 36.716 194.039 34.556V26.204H190.547V22.82H194.039V18.392L198.539 16.88V22.82H203.363V26.204H198.539ZM216.86 22.352C221.204 22.352 223.376 24.848 223.376 29.84V41H218.876V30.056C218.876 28.616 218.6 27.572 218.048 26.924C217.496 26.252 216.644 25.916 215.492 25.916C214.124 25.916 213.02 26.36 212.18 27.248C211.34 28.112 210.92 29.264 210.92 30.704V41H206.456V14.504H210.92V25.448C211.544 24.464 212.372 23.708 213.404 23.18C214.436 22.628 215.588 22.352 216.86 22.352ZM255.378 34.988H242.85L240.258 41H235.578L247.17 15.368H250.95L262.578 41H257.934L255.378 34.988ZM253.83 31.388L249.114 20.408L244.398 31.388H253.83ZM273.314 18.068C271.37 18.068 270.398 19.136 270.398 21.272V22.82H274.466V26.204H270.398V41H265.898V26.204H262.442V22.82H265.898V21.056C265.898 18.896 266.438 17.24 267.518 16.088C268.622 14.912 270.194 14.324 272.234 14.324C273.362 14.324 274.31 14.468 275.078 14.756V18.32C274.406 18.152 273.818 18.068 273.314 18.068ZM287.72 22.388C288.416 22.388 289.016 22.484 289.52 22.676L289.484 26.78C288.716 26.468 287.924 26.312 287.108 26.312C285.572 26.312 284.396 26.756 283.58 27.644C282.788 28.532 282.392 29.708 282.392 31.172V41H277.928V27.968C277.928 26.048 277.832 24.332 277.64 22.82H281.852L282.212 26.024C282.668 24.848 283.388 23.948 284.372 23.324C285.356 22.7 286.472 22.388 287.72 22.388ZM292.026 22.82H296.49V41H292.026V22.82ZM296.742 14.576V19.004H291.738V14.576H296.742ZM309.657 41.288C307.761 41.288 306.117 40.904 304.725 40.136C303.333 39.368 302.265 38.288 301.521 36.896C300.777 35.48 300.405 33.824 300.405 31.928C300.405 30.032 300.789 28.364 301.557 26.924C302.349 25.484 303.453 24.368 304.869 23.576C306.309 22.76 307.965 22.352 309.837 22.352C311.133 22.352 312.381 22.556 313.581 22.964C314.805 23.372 315.777 23.936 316.497 24.656L315.237 27.824C314.469 27.2 313.653 26.732 312.789 26.42C311.925 26.084 311.073 25.916 310.233 25.916C308.601 25.916 307.329 26.432 306.417 27.464C305.505 28.472 305.049 29.936 305.049 31.856C305.049 33.776 305.493 35.24 306.381 36.248C307.293 37.256 308.577 37.76 310.233 37.76C311.073 37.76 311.925 37.592 312.789 37.256C313.653 36.92 314.469 36.44 315.237 35.816L316.497 38.984C315.729 39.704 314.733 40.268 313.509 40.676C312.285 41.084 311.001 41.288 309.657 41.288ZM336.906 22.82V41H332.478V38.084C331.926 39.092 331.134 39.884 330.102 40.46C329.07 41.012 327.894 41.288 326.574 41.288C324.99 41.288 323.586 40.904 322.362 40.136C321.138 39.368 320.19 38.276 319.518 36.86C318.846 35.444 318.51 33.8 318.51 31.928C318.51 30.056 318.846 28.4 319.518 26.96C320.214 25.496 321.174 24.368 322.398 23.576C323.622 22.76 325.014 22.352 326.574 22.352C327.894 22.352 329.07 22.64 330.102 23.216C331.134 23.768 331.926 24.548 332.478 25.556V22.82H336.906ZM327.798 37.76C329.286 37.76 330.438 37.244 331.254 36.212C332.07 35.18 332.478 33.728 332.478 31.856C332.478 29.936 332.07 28.46 331.254 27.428C330.438 26.396 329.274 25.88 327.762 25.88C326.274 25.88 325.11 26.42 324.27 27.5C323.454 28.556 323.046 30.032 323.046 31.928C323.046 33.8 323.454 35.24 324.27 36.248C325.11 37.256 326.286 37.76 327.798 37.76Z" fill="#212121"/>
<g filter="url(#filter0_d)">
<circle cx="28" cy="27" r="25" fill="white"/>
</g>
<g filter="url(#filter1_d)">
<circle cx="28" cy="27" r="21" fill="#1BB95A"/>
</g>
<path d="M15 26L24 35L42 19" stroke="white" stroke-width="3"/>
</g>
<defs>
<filter id="filter0_d" x="0" y="0" width="56" height="56" filterUnits="userSpaceOnUse" color-interpolation-filters="sRGB">
<feFlood flood-opacity="0" result="BackgroundImageFix"/>
<feColorMatrix in="SourceAlpha" type="matrix" values="0 0 0 0 0 0 0 0 0 0 0 0 0 0 0 0 0 0 127 0"/>
<feOffset dy="1"/>
<feGaussianBlur stdDeviation="1.5"/>
<feColorMatrix type="matrix" values="0 0 0 0 0 0 0 0 0 0 0 0 0 0 0 0 0 0 0.1 0"/>
<feBlend mode="normal" in2="BackgroundImageFix" result="effect1_dropShadow"/>
<feBlend mode="normal" in="SourceGraphic" in2="effect1_dropShadow" result="shape"/>
</filter>
<filter id="filter1_d" x="4" y="4" width="48" height="48" filterUnits="userSpaceOnUse" color-interpolation-filters="sRGB">
<feFlood flood-opacity="0" result="BackgroundImageFix"/>
<feColorMatrix in="SourceAlpha" type="matrix" values="0 0 0 0 0 0 0 0 0 0 0 0 0 0 0 0 0 0 127 0"/>
<feOffset dy="1"/>
<feGaussianBlur stdDeviation="1.5"/>
<feColorMatrix type="matrix" values="0 0 0 0 0 0 0 0 0 0 0 0 0 0 0 0 0 0 0.1 0"/>
<feBlend mode="normal" in2="BackgroundImageFix" result="effect1_dropShadow"/>
<feBlend mode="normal" in="SourceGraphic" in2="effect1_dropShadow" result="shape"/>
</filter>
<clipPath id="clip0">
<rect width="1440" height="4373" fill="white" transform="translate(-549 -238)"/>
</clipPath>
</defs>
</svg>
