<svg width="227" height="65" viewBox="0 0 227 65" fill="none" xmlns="http://www.w3.org/2000/svg">
<rect width="227" height="65" fill="#E5E5E5"/>
<g clip-path="url(#clip0)">
<rect width="1440" height="4373" transform="translate(-607 -157)" fill="white"/>
<path d="M64.689 36.0156H48.3379H48.3061L48.2226 36.1027L48.2663 36.1741L48.0278 36.2573L47.8966 36.4357H47.7058L47.6183 36.4634V36.5149L47.5189 36.6299V36.7131L47.5666 36.7488L47.4474 36.9271L47.3361 37.0698V37.2561L47.2327 37.4781L46.9783 37.8466L46.8272 37.9101H46.7397L46.7755 37.9497V38.0567L46.7278 38.128L46.5767 38.5918L46.4615 38.8851V39.0476L46.6602 39.218L46.8073 39.3845H46.9027L46.9942 39.6421L46.9544 39.7253L46.8948 39.7055L46.8113 39.761L46.7676 39.9314V40.189L46.8709 40.2921V40.4585L46.7755 40.5378L46.7994 40.6924L46.8749 40.8787H46.8351L46.8789 40.9659L46.9067 41.1006L46.9902 41.172L46.9186 41.2869L46.9862 41.3662L47.0578 41.5762L47.0339 41.6832L47.2844 41.921L47.4672 41.9488L47.6183 42.0756V42.1469L47.67 42.1787L47.6461 42.3451L47.6064 42.4284L47.6461 42.4601L47.4991 42.6662V42.7415L47.5269 42.793V42.8366L47.4712 42.8881L47.503 43.1378L47.5825 43.2884L47.5428 43.332V43.5104L47.5825 43.554V43.7284L47.507 43.7997L47.5348 43.986L47.4832 44.3348H47.4553L47.4951 44.3942V44.7073H47.3877V44.747L47.4235 44.7985H47.5627L47.6024 44.8302L47.6342 45.0997L47.5627 45.2027L47.4871 45.2424L47.5309 45.3058V45.3732H47.4394L47.34 45.4762L47.3679 45.5119L47.3997 45.4841H47.4871L47.4235 45.5753V45.718H47.3361L47.181 45.9122V45.9994L47.0419 46.1896H46.9266V46.3204L46.4575 46.5741H46.3899L46.3541 46.6732L45.9049 46.911H45.7339V46.9466L45.5272 47.0418L45.245 47.2281L45.1774 47.1805V47.2677L45.0064 47.4777L44.919 47.5174L44.8713 47.4024L44.8395 47.5848L44.7599 47.6085L44.7321 47.7116L44.4499 47.882V47.9534L44.3783 48.0168L44.3107 48.0366V48.1357H44.1278L43.7303 48.3854V48.5439L43.6071 48.6351H43.4401L43.3685 48.7262L43.2373 48.643H43.1618V48.75L43.2294 48.8293V48.9402L43.1777 49.0116V49.1146L43.1022 49.2256L43.3049 49.4991V49.5942L43.2175 49.6656L43.285 49.6973L43.3606 49.8201V49.9866L43.4441 50.1412L43.4083 50.5771L43.448 50.7317H43.4997V50.6088L43.5792 50.4424V50.589H43.611V50.7793L43.5554 50.8506V51.0409L43.5872 51.0686L43.5037 51.2906V51.4095L43.4401 51.4887V51.6314H43.4003L43.4282 51.7543L43.5355 51.6909L43.5593 51.7701L43.4719 51.9009L43.4282 52.0832L43.1737 52.3527L42.7165 52.5588L42.1003 52.6817L41.8618 52.9076L41.6829 52.9512L41.6273 53.0345L41.5398 53.1058L41.4881 53.2802H41.4166L41.349 53.3238L41.3808 53.3634L41.4484 53.4902V53.6171L41.512 53.5338L41.6114 53.5655L41.6432 53.4467H41.6909V53.5061L41.663 53.7043L41.5915 53.8192V53.9619L41.508 54.0729H41.5478L41.4643 54.3265L41.4404 54.5445L41.3371 54.7546L41.2695 55.0241L41.1661 55.147L41.1343 55.2698L40.9475 55.4878H40.8839L40.8441 55.5473L40.701 55.6146L40.6334 55.6939L40.4624 55.8049L40.379 55.9713L40.2398 56.1299V56.1973L40.1603 56.3479H40.0251L39.9178 56.554L39.6395 57.0732L39.4129 57.2832L39.3771 57.4814L39.246 57.5369L39.1227 57.6835H39.0512L39.0194 57.739L38.2839 58.4604H38.1964V58.496L38.0772 58.6308L37.5961 58.9399L37.4928 59.0509L37.3218 59.1024V59.146L37.0515 59.2174L36.9004 59.3125H36.7414L36.6619 59.2531H36.4472L36.2723 59.3085L36.1968 59.4354L36.3001 59.5226V59.5622H36.0536L35.9105 59.4909H35.7952L35.6958 59.5899L35.7396 59.6771L35.6958 59.7207L35.3579 59.6494L35.2625 59.5741L34.9365 59.4948L34.7258 59.5345V59.586L34.6145 59.6256L34.4515 59.5384H34.0739L33.9625 59.5899L33.9307 59.7088L33.8552 59.6732L33.7677 59.6969L33.6882 59.7604L33.6485 59.8159H33.4815L33.3702 59.8634L33.1635 59.7881L32.9965 59.8476L32.9647 59.8951L32.7937 59.8595L32.6427 60.0299L32.5155 60.0537L32.4717 60.1567L32.3962 60.129L32.3286 60.1607L31.9788 59.9982L31.9072 60.0378V59.8713L31.776 59.8L31.6727 59.8515L31.6091 59.8238L31.6647 59.7762L31.6289 59.6296L31.4659 59.6018L31.3467 59.7049V59.8317L31.2592 59.7643V59.6216L31.3069 59.5027L31.2751 59.3284L31.3705 59.1698L31.2473 58.9479L31.124 58.8369L31.0088 58.6585V58.4762L31.0843 58.4088L31.1519 58.4802H31.2155L31.299 58.389L31.3387 58.175L31.2632 57.9372V57.8302L31.0644 57.4973V57.3427L30.8696 57.089L30.7782 56.6927L30.6112 56.2805V56.0823L30.4601 55.6543L30.2335 55.4878L30.1938 55.2619L29.9553 55.0915L29.9155 54.9924L29.7485 54.8259L29.5776 54.489L29.4504 54.3146V54.0451L29.3391 53.9223V53.7796L29.4146 53.7241L29.351 53.5973L29.2556 53.5457L29.2039 53.1811L29.1204 53.0741L29.2198 53.0107L29.1562 52.8085L29.18 52.5113L28.9693 51.9604V51.4213L28.8699 51.0607L28.9574 51.021V50.7317L28.5877 50.1966V49.9985L28.2339 49.4991L28.1822 49.186L27.8323 48.3933L27.6097 47.997L27.2122 47.5729L27.1724 46.9744V46.903L27.2042 46.6811V46.3402L27.236 46.1183V45.8646L27.4308 45.6308L27.4706 45.3652L27.6415 45.1393V44.5765L27.7051 44.525V44.2912L28.1027 43.9503V43.7799L28.4128 43.546H28.4963L28.7745 43.0268V42.4125L28.6871 42.3055V42.1905L28.4207 41.7546V41.5723L28.3134 41.4018V41.1482L28.1862 41.0848L28.4088 40.7994L28.4406 40.5219L28.2299 40.2247V39.6777L27.8323 39.2418V39.1427L27.7568 39.0515L27.9596 38.9405L27.8284 38.897H27.6256L27.5898 38.8137L27.5541 38.7305L27.6336 38.5838L27.5859 38.3817L27.4984 38.2906L27.4189 38.1994L27.4308 38.0488L27.3195 37.9259V37.7991L27.1088 37.6643L27.0333 37.589L26.8941 37.4543L26.8623 37.4226L26.7391 37.375L26.7311 37.2561L26.4767 37.1332L26.4091 36.9787L26.0911 36.725L25.9003 36.5229L25.9519 36.4872L25.773 36.3366L25.6975 36.1741L25.5902 36.0671V35.8531L25.463 35.6906V35.5796L25.3834 35.5162L25.2364 35.207V35.1357L25.4073 35.1912L25.5425 35.0802L25.5743 34.6838L25.5941 34.4896L25.6737 34.5689L25.9837 34.4936L25.7651 34.4421L25.626 34.2201L25.777 34.1963V34.0299V33.9902L25.6021 33.8991L25.777 33.5662L25.9996 33.3165L25.948 33.1936L25.9758 33.1659L26.0871 33.0588L25.9837 32.9518L26.0792 32.7061L26.0553 32.4366L25.9281 32.2582V32.0601L25.9758 31.9689L25.8685 31.8024L25.6617 31.8896L25.5981 31.8183H25.4749L25.3914 31.3863L25.2801 31.4457L25.1847 31.4021L25.133 31.4338L25.0137 31.311L24.9422 31.5091L24.7633 31.5448L24.648 31.4774L24.322 31.5963L24.2504 31.5527L24.1113 31.636L23.4315 31.6756L23.1771 31.6043L22.9942 31.4418L22.9147 31.196L22.8193 31.1485V30.9146L22.6443 30.5738L22.3581 30.2963L21.8413 30.0229L21.6187 30.114L21.3444 30.0585H21.3165L20.8315 30.221L20.5811 30.1893H20.5055L20.1279 30.4232H20.0682L19.6707 30.4707L19.3367 30.6332L18.971 30.9384L18.5456 30.9781L17.9374 31.2674L17.6631 31.1445L17.2655 31.093L17.2297 31.0296L17.1304 30.8433L16.9952 30.875L16.9634 31.0494L16.6573 30.9146L16.3034 31.0296H15.3732L15.1068 31.0652V31.1366L14.6178 31.311L14.5662 31.3823H14.4111L14.1646 31.5924L14.101 31.5686L13.4053 31.311L12.8686 30.9146H12.7215L12.2842 30.4787H12.2524L11.9901 30.3043H11.8827L11.7038 30.0466L11.5885 29.9951L11.6402 29.896H11.6203L11.5289 29.793H11.2625L10.8888 29.5988L10.7298 29.5591L10.7696 29.472L10.6662 29.361L10.5788 29.2738L10.6384 29.1549V29.1232L10.4953 29.1747L10.3363 29.0043V28.8457L10.2647 28.6238H10.1295L10.0778 28.5128L10.1733 28.3345L10.0739 28.279V28.172L10.1494 28.0412L10.046 27.9579L9.85522 27.8588L9.79956 27.6448H9.65247L9.58886 27.5814V27.4704L9.64452 27.4149L9.54115 27.3476L9.47755 27.4387L9.37021 27.3951H9.21119L9.05217 27.1771L9.11578 26.9195L9.00447 26.7966L8.83749 26.8442L8.80172 26.8046V26.6857L8.50355 26.7174L8.67052 26.539H8.59102L8.63077 26.4756L8.56716 26.4043H8.45187L8.40814 26.3448H8.74606L8.80569 26.3012L8.61884 26.1585L8.4479 26.1942L8.269 26.2576H8.18949L8.14974 26.1585H8.00662L7.8794 26.0317L8.00662 25.9326H7.91121H7.67665L7.61702 25.8256V25.6909L7.55341 25.6155L7.67268 25.6473L7.74821 25.671L7.89928 25.5759L7.66075 25.4927L7.50173 25.5759L7.46595 25.5244L7.53354 25.4491V25.239L7.45403 25.136L7.57727 25.0131L7.72039 25.1954H7.91121L8.01855 25.0963L7.85953 25.1399L7.67665 25.0488L7.64485 24.9418L7.62497 24.8863L7.72039 24.8149L7.55341 24.696H7.60907V24.5534L7.47788 24.5335L7.32284 24.264L7.08431 24.0698L7.52559 23.6735L7.70846 23.3445L7.73629 23.1146L7.77604 22.8293L7.88736 22.3933L8.0583 22.1555L8.10601 21.6521L7.96687 20.9268L7.77207 20.6098L7.85158 20.5503H7.95096L8.00264 20.3125L7.95096 20.1579L8.0424 20.0668L7.83965 19.7655L7.75616 19.8329L7.68858 19.8171L7.62895 19.6466L7.4739 19.8171V19.5476L7.55341 19.3811V19.3534V19.1235L7.62895 18.9729V18.7985L7.72834 18.6915H7.8158L8.03842 18.2951L8.16166 18.2476L8.0742 18.1841V18.1168L8.35646 17.7442V17.6372L8.53138 17.2409L8.63475 17.1854L8.96471 16.8802L8.98856 16.678L9.42189 16.0518L9.31058 15.8537L9.5014 15.7427L9.54911 15.604L10.0381 15.3503H10.1653V15.061L10.4396 14.6646L10.6066 14.4268L11.2943 14.3L11.7833 13.872H12.006L12.2087 13.654L12.2564 13.4598L12.6977 12.9604L12.7454 12.7582L12.6659 12.6591L12.6063 12.5997L12.6977 12.3381L12.5824 12.1043V11.9537L12.7653 11.5811L13.0475 11.3274V11.157L12.9362 10.9152L13.2543 10.6854L13.3536 10.5348L13.5246 10.4793L13.8029 10.293H13.9142L14.109 10.0869L14.3674 9.99969L14.5224 9.89268H14.598L14.916 9.59939L15.0114 9.41707L15.0432 9.12774L15.1943 8.92957L15.2221 8.53323L15.3573 8.38262H15.4686L15.5243 8.3311L15.6634 8.28354L15.7032 8.33506L15.6793 8.37469V8.45396L15.7111 8.56494L15.7866 8.62439L15.9814 8.83049L16.1325 8.8622L16.3472 8.83049L16.4943 8.75122H16.6096L16.8362 8.81463L17.0628 8.76707L17.186 8.63232H17.2377L17.2735 8.76707L17.3609 8.85427L17.7585 8.88598H17.8579H18.0447L18.2594 8.8186L18.3946 8.67195L18.4184 8.58872L18.5059 8.50945L18.6728 8.42226H18.8716L18.9114 8.36677L18.9869 8.31524H19.0823L19.13 8.35884H19.2056L19.293 8.2439V8.13689L19.46 8.03384H19.5594L19.7542 8.0061L20.0961 7.74451L20.2511 7.76829H20.5214L20.6725 7.71677L20.8355 7.80396H20.9428L21.1217 7.62957L21.2569 7.6811H21.404L21.4756 7.53841L21.563 7.5186L21.6902 7.55823H21.7618L21.9089 7.58201L22.0957 7.5503L22.1832 7.57409H22.374L22.4654 7.71677H22.6245L22.7676 7.60579H22.8789L22.9703 7.64146L23.0578 7.53049L23.2009 7.50274V7.40762L23.3639 7.36799L23.4633 7.44329V7.55427L23.7058 7.58201L23.8251 7.46311V7.39177L24.0159 7.45915L24.1709 7.5939L24.4691 7.50671L24.5725 7.53049L24.7712 7.49085L24.807 7.53445L24.9899 7.37592L25.2443 7.24909L25.4312 7.20945L25.5027 7.3125V7.22134L25.6578 7.18963L25.7452 7.2689V7.39177L25.8168 7.41555L25.9201 7.65732L25.9917 7.69695L26.0752 7.60976L26.3256 7.37988L26.3892 7.42744V7.56616L26.2501 7.77226V7.89909L26.0792 8.01799L26.0474 8.2003L26.2183 8.43018L26.425 8.50945V8.73933L26.4767 8.775L26.5045 8.87409L26.429 8.95335L26.4886 9.03658L26.437 9.11585L26.2342 9.31402L25.8844 9.55976L25.8168 9.76585L25.9281 9.96799L26.1507 10.1226L26.2541 10.0988L26.2859 10.2058L26.3813 10.2494L26.433 10.2058V10.1543L26.4767 10.1226L26.584 10.182V10.2811L26.6039 10.3564L26.8146 10.4832H26.8981L27.0571 10.5149L27.1923 10.6418L27.5382 10.7171L28.0311 10.6259L28.2259 10.7012H28.6235L28.862 10.8558L29.3112 10.9192L29.4901 11.153V11.371L29.7088 11.7872L29.9433 11.9061H30.2137L30.2892 11.8625L30.5158 11.8902L31.0406 12.1082L31.3665 12.2747L31.5772 12.4451L31.8476 12.6671L32.1537 12.7899L32.3008 12.7345L32.5393 12.5323L32.5632 12.4649L32.746 12.2826L32.8057 12.1241L32.7182 11.8427L32.591 11.6445L32.6148 11.2838L32.7023 11.2165L32.746 11.0262L32.917 10.8598L33.2151 10.7171L33.561 10.6854L33.7797 10.5744H33.8313L33.9824 10.6497L34.054 10.5863L34.1136 10.618L34.3601 10.6814H34.5112L34.8093 10.8439V10.9311L34.7537 10.9509L34.8093 11.0302L35.0598 11.0976H35.2426L35.3381 11.1848L35.8111 11.2402L35.9423 11.2204L36.0695 11.2402L36.1689 11.3552L36.2325 11.5494H36.3041H36.6539L36.9243 11.6366L37.4729 11.6802L37.6995 11.7277L37.8983 11.8665L37.9818 11.8149H38.0613L38.264 11.9418H38.5025H38.6695L38.9239 12.1003H39.1585L39.1863 12.0369L39.3573 11.8902L39.5401 11.8308L39.6276 11.7832L39.8184 11.6802L39.9019 11.6207H40.1007H40.2398L40.1285 11.6683H39.9933V11.7L40.041 11.7476L40.1961 11.6841H40.3313H40.4624V11.6366L40.3591 11.6168L40.3988 11.5732L40.6374 11.6366L40.7805 11.6841H40.8958L40.9554 11.7436L40.8878 11.7753L40.9196 11.8982L41.0627 11.9774L41.1582 12.1201V12.029L41.027 11.8902L41.0588 11.7713L41.3172 11.9497L41.667 11.8546L42.1162 11.9299L42.3071 11.8546L42.3985 11.7317L42.474 11.7674L42.6132 11.9695L42.6847 12.2311L42.8835 12.5323L43.0386 12.897L42.9789 13.0674L43.0704 13.3052L43.0425 13.3488L42.9352 13.7451V13.8957L42.8517 14.1058L42.9153 14.1692L42.8636 14.4189L42.7682 14.5101L42.7404 14.5933V14.5537L42.5536 14.4506L42.2156 14.0939L42.1759 13.9631L41.989 13.8799L41.9215 13.7412V13.6024L41.6471 13.3726V13.2854L41.5835 13.2101L41.5358 13.0317H41.4682L41.4404 12.9881L41.4086 13.0357V13.1308V13.2259L41.5557 13.4162V13.5747L41.8181 13.8838L41.8499 13.9948L42.2474 14.3396L42.3071 14.4506L42.2792 14.5616V14.6646L42.5178 14.9223V15.0015L42.5893 15.0927L42.6172 15.3622L42.6927 15.4811V15.6277L43.0982 16.25L43.13 16.4482L43.2453 16.5235L43.5236 16.9198L43.5872 17.1061L43.6667 17.2012V17.1537L43.7104 17.1893L43.8257 17.3677H43.8933L43.9728 17.4509H43.7661L43.7144 17.4073V17.4668L43.7621 17.5619V17.7363L43.7303 17.8354L43.8376 18.204L44.0563 18.3427H44.1875L44.2749 18.303L44.3624 18.4893L44.5095 18.5329L44.5532 18.6201L44.7162 18.7866L44.8395 18.8341V18.8936V18.957L44.8752 19.0125V19.0482L44.8991 19.0799V19.1076L44.9269 19.1473L44.9746 19.3415L45.1098 19.504V19.5713H45.078L45.0581 19.5277L45.0024 19.4604L44.9786 19.4841V19.611L45.1495 20.1143L45.1853 20.3918L45.1456 20.6494L45.241 20.9506L45.3682 21.1924L45.4835 21.2162L45.7936 21.4223V21.557H45.9367L46.0878 21.6363V21.7354H46.1156L46.2786 21.9098L46.5728 22.6787L46.6682 23.182H46.7199L46.7596 23.3683V23.4317L46.855 23.4634L46.9147 23.6101L46.9504 23.828L47.0737 23.8598V23.6616H47.0419V23.5189L47.0936 23.4951L47.2208 23.6774L47.1731 23.729L47.2923 23.9073L47.3718 23.9905L47.4434 23.943H47.5468L47.5905 23.9707L47.6819 23.939L47.8091 24.0817L47.8767 24.1649L48.0715 24.2125L48.1152 24.2838L48.3538 24.5494L48.4571 24.7277L48.6003 24.7872L48.7036 24.9101H48.7593V24.8704L48.807 24.9338L48.9223 25.2271L49.0097 25.2509L49.1091 25.3777L49.0853 25.4213L49.1489 25.5601H49.2204L49.2999 25.5997L49.3556 25.5482L49.3795 25.5878H49.4152V25.6393L49.5782 25.7979H49.622V25.8652L49.6458 26.0832L49.5743 26.111L49.4431 26.2576H49.3437L49.2721 26.3646H49.121L49.2006 26.4598H49.2483L49.3556 26.4122H49.5385L49.5623 26.4598L49.6061 26.547H49.6498L50.0911 27.082L50.1427 27.189L50.2143 27.2088L50.3892 27.3674L50.5602 27.407L50.7629 27.3832L50.8265 27.304L51.0094 27.193H51.1247L51.3592 27.0027H51.4308L51.4706 27.0424H51.6614L51.729 27.0186L51.8681 27.082L52.0748 27.0582L52.5002 26.7966L52.6394 26.7689L52.7785 26.8284L52.8819 26.7966H53.0727L53.2675 26.6976H53.4901L53.5577 26.7372H53.6292L53.9711 26.6738L54.0665 26.5549L54.2733 26.5271L54.3329 26.5787V26.5192L54.5476 26.4954L54.6748 26.3726H54.6986L54.7543 26.2735L54.8418 26.1902H54.9014V26.1585L54.9849 26.218L55.1638 26.2814H55.2473H55.2791L55.2035 26.3884L55.1598 26.4994V26.6143L55.12 26.6857L55.1519 26.7451H55.2592V26.7848L55.1837 26.8482L55.124 26.9948L55.1837 27.078L55.2075 27.197L55.1558 27.3079H55.2512V27.2723H55.295L55.3387 27.3555L55.291 27.3793V27.3515H55.1996H55.1399L55.0366 27.5259L55.0922 27.6171L55.0644 27.7835L55.0207 27.8588V28.0412L54.7782 28.378L54.6152 28.7268L54.5118 28.8537H54.4561H64.7288C64.7833 28.8538 64.8354 28.8312 64.8725 28.7913C64.9095 28.7514 64.928 28.6978 64.9236 28.6436C64.9236 28.5524 64.8997 28.4652 64.8878 28.378C64.8202 27.8271 64.7367 27.2802 64.6413 26.7372C64.6135 26.5707 64.5817 26.4003 64.5499 26.2338C64.4267 25.5997 64.2915 24.9695 64.1325 24.3473C64.1325 24.2997 64.1046 24.2561 64.0927 24.2085C63.9416 23.6299 63.7707 23.0552 63.5878 22.4884C63.5361 22.3259 63.4845 22.1634 63.4288 22.0049C63.238 21.45 63.0313 20.903 62.8245 20.3601C62.8007 20.3085 62.7848 20.253 62.7609 20.2015C62.5224 19.6149 62.264 19.0402 61.9937 18.4735C61.9221 18.3229 61.8466 18.1762 61.775 18.0296C61.5391 17.554 61.2926 17.0863 61.0356 16.6265L60.8686 16.3213C60.5585 15.7929 60.2325 15.2644 59.8906 14.736L59.6362 14.3396C59.3526 13.9142 59.0584 13.4981 58.7536 13.0912L58.4396 12.8018C58.0619 12.3104 57.6763 11.8268 57.2708 11.3591L57.0203 11.0777C56.6784 10.6814 56.3286 10.3088 55.9668 9.93628L55.6567 9.59146C55.2194 9.15152 54.7702 8.71951 54.3091 8.30335L54.1302 8.15274C53.7326 7.78415 53.2873 7.4314 52.854 7.08659L52.4565 6.77348C51.9715 6.40091 51.4785 6.03628 50.9736 5.69146L50.9378 5.66372C50.4171 5.31098 49.8843 4.97409 49.3476 4.64909L48.8984 4.39939C48.4253 4.12592 47.9483 3.86037 47.4633 3.60671L47.2088 3.47195C46.6523 3.19055 46.0798 2.92896 45.5034 2.67927L45.0621 2.49695C44.581 2.29482 44.0921 2.10061 43.5991 1.93018L43.2016 1.7875C42.6052 1.5814 42.0089 1.39116 41.3848 1.22073L40.9872 1.10976C40.4784 0.975 39.9655 0.852134 39.4447 0.741159L38.9716 0.63811C38.3395 0.511281 37.7035 0.400305 37.0555 0.31311L36.7374 0.273476C36.1769 0.202134 35.6283 0.146646 35.0637 0.103049L34.539 0.0673781C33.8711 0.0277439 33.2032 0 32.5274 0H32.4081C31.772 0 31.132 0.0277439 30.488 0.0673781L29.8161 0.122866C29.3629 0.158537 28.9097 0.206098 28.4565 0.261585C28.1703 0.297256 27.8761 0.328963 27.5898 0.372561H27.5262C12.9346 2.65128 1.70797 14.4344 0.174921 29.0796C0.174921 29.143 0.174921 29.2064 0.174921 29.2698C0.115289 29.6979 0.0834851 30.122 0.0596322 30.5579C0.0596322 30.6848 0.0596322 30.8116 0.0596322 30.9543C0 31.4338 0 31.9332 0 32.4366C0 32.4762 0 32.5159 0 32.5555C0 33.0192 0 33.475 0.0318039 33.9348L0.0556567 34.3311C0.0795096 34.7274 0.107338 35.1238 0.147093 35.5439L0.170946 35.8253C0.222627 36.3088 0.286235 36.7884 0.357793 37.264C0.357793 37.3829 0.393573 37.4979 0.41345 37.6168C0.473082 38.0131 0.540665 38.3698 0.6162 38.7424C0.640052 38.8692 0.663905 38.996 0.691734 39.1387C0.787145 39.6064 0.894483 40.0741 1.01375 40.5338C1.01375 40.5854 1.04158 40.6409 1.05748 40.6924C1.16482 41.0887 1.28408 41.5128 1.40732 41.9171L1.52658 42.3134C1.64982 42.7098 1.77704 43.0665 1.92413 43.443C1.95196 43.5183 1.97581 43.5976 2.00364 43.6729C2.16664 44.1128 2.34156 44.5488 2.52046 44.9808L2.66357 45.3098C2.81067 45.6466 2.96173 45.9835 3.12075 46.3204L3.27977 46.6534C3.4865 47.0735 3.67732 47.4857 3.91585 47.8939L4.01524 48.0683C4.21003 48.425 4.41278 48.7738 4.62349 49.1226L4.83021 49.4595C5.04091 49.8003 5.25559 50.1372 5.47821 50.4701C5.51797 50.5256 5.55375 50.5851 5.5935 50.6445C5.85191 51.0409 6.12224 51.4015 6.3886 51.7741L6.60725 52.0634C6.82988 52.3527 7.05648 52.6421 7.28706 52.9235C7.36259 53.0186 7.43415 53.1098 7.51366 53.2009C7.80785 53.5537 8.10998 53.9024 8.42007 54.2433L8.57511 54.4137C8.84147 54.703 9.11578 54.9845 9.39009 55.2659L9.66837 55.5433C9.96256 55.8326 10.2607 56.114 10.5629 56.3915L10.6861 56.5064C11.028 56.8195 11.3818 57.1207 11.7356 57.414L12.0258 57.6479C12.3081 57.8777 12.5983 58.1076 12.8925 58.3296L13.1668 58.5357C13.5365 58.8091 13.9142 59.0787 14.2958 59.3284L14.5145 59.4671C14.8365 59.6811 15.1625 59.8912 15.4925 60.0933L15.8304 60.2994C16.1961 60.5174 16.5658 60.7314 16.9395 60.9375L17.0548 61.0009C17.4524 61.2229 17.8817 61.4329 18.3031 61.6351L18.645 61.8015C18.9829 61.9601 19.3248 62.1107 19.6667 62.2613L19.9768 62.396C20.4101 62.5744 20.8474 62.7488 21.2887 62.9073L21.559 63.0064C21.9248 63.1332 22.2905 63.2601 22.6602 63.375L23.0578 63.4979C23.4911 63.6287 23.9284 63.7515 24.3657 63.8665L24.4373 63.8863C24.9024 64.0052 25.3715 64.1122 25.8406 64.2113L26.2382 64.2866C26.6357 64.3619 26.9935 64.4293 27.3791 64.4927L27.7091 64.5442C28.1862 64.6156 28.6672 64.675 29.1482 64.7265L29.4702 64.7543C29.8678 64.7939 30.2653 64.8216 30.6629 64.8454L31.0604 64.8692C31.5574 64.889 32.0583 64.9049 32.5592 64.9049C33.0601 64.9049 33.6008 64.9049 34.1176 64.8692C34.3164 64.8692 34.5151 64.8415 34.702 64.8296C35.024 64.8058 35.342 64.7899 35.6601 64.7622C35.8668 64.7622 36.0576 64.7107 36.2723 64.6869C36.5784 64.6552 36.8805 64.6235 37.1827 64.5799L37.8386 64.4729C38.1209 64.4253 38.3992 64.3857 38.6775 64.3342C38.9557 64.2826 39.1307 64.2351 39.3573 64.1875C39.5839 64.1399 39.89 64.0805 40.1524 64.0171C40.4147 63.9537 40.6095 63.8982 40.8361 63.8387C41.0627 63.7793 41.349 63.7079 41.6034 63.6366C41.8578 63.5652 42.0526 63.4979 42.2753 63.4265C42.4979 63.3552 42.7762 63.2759 43.0227 63.1927C43.2691 63.1095 43.46 63.0341 43.6786 62.9549C43.8973 62.8756 44.1716 62.7805 44.4181 62.6854C44.6645 62.5902 44.8514 62.5031 45.07 62.4119C45.2887 62.3207 45.5431 62.2216 45.7777 62.1186C46.0122 62.0155 46.207 61.9165 46.4177 61.8174C46.6284 61.7183 46.8829 61.6034 47.1095 61.4924C47.3361 61.3814 47.507 61.2744 47.7296 61.1634C47.9523 61.0524 48.1828 60.9296 48.4055 60.8067C48.6281 60.6838 48.803 60.5729 49.0058 60.454C49.2085 60.3351 49.451 60.2003 49.6657 60.0576C49.8804 59.9149 50.0632 59.8079 50.2501 59.6811C50.4369 59.5543 50.6794 59.4076 50.8901 59.2649C51.1008 59.1223 51.2678 58.9954 51.4586 58.8686C51.6495 58.7418 51.8562 58.5793 52.0748 58.4287L52.6274 57.9966C52.8262 57.8421 53.025 57.6915 53.2198 57.5329L53.7485 57.0732C53.9393 56.9107 54.1461 56.7521 54.317 56.5857C54.4879 56.4192 54.6549 56.2686 54.8259 56.1101C54.9968 55.9515 55.1956 55.7692 55.3785 55.5909C55.5613 55.4125 55.7005 55.2579 55.8635 55.0954C56.0265 54.9329 56.2173 54.7348 56.3882 54.5524C56.5592 54.3701 56.7023 54.2037 56.8573 54.0332C57.0124 53.8628 57.1953 53.6607 57.3582 53.4704C57.5212 53.2802 57.6524 53.1098 57.7995 52.9274C57.9466 52.7451 58.1215 52.5311 58.2766 52.3448C58.4316 52.1585 58.5549 51.9485 58.698 51.778C58.8411 51.6076 58.9961 51.3817 59.1432 51.1756C59.2903 50.9695 59.4056 50.7793 59.5408 50.593C59.676 50.4067 59.823 50.1966 59.9383 49.9707C60.0536 49.7448 60.1848 49.5744 60.312 49.3683C60.4392 49.1622 60.5744 48.9442 60.7096 48.7262C60.8447 48.5082 60.9402 48.3299 61.0554 48.1C61.1707 47.8701 61.2979 47.668 61.4132 47.45C61.5285 47.232 61.6319 47.018 61.7392 46.804C61.8466 46.5899 61.9618 46.3601 62.0652 46.1341C62.1686 45.9082 62.26 45.6942 62.3594 45.4723C62.4588 45.2503 62.5621 45.0204 62.6576 44.7906C62.753 44.5607 62.8325 44.3427 62.9199 44.1168C63.0074 43.8909 63.1028 43.6491 63.1903 43.4113C63.2777 43.1735 63.3413 42.9555 63.4209 42.7296C63.5004 42.5037 63.5839 42.246 63.6594 42.0043C63.7349 41.7625 63.7946 41.5406 63.8582 41.3067C63.9218 41.0729 64.0013 40.8192 64.0649 40.5695C64.1285 40.3198 64.1802 40.0939 64.2358 39.8521C64.2915 39.6104 64.3551 39.3607 64.4068 39.111C64.4585 38.8613 64.4982 38.6235 64.5419 38.3817C64.5857 38.1399 64.6413 37.8784 64.6811 37.6247C64.7208 37.371 64.7487 37.1293 64.7844 36.8835C64.8202 36.6378 64.8481 36.4396 64.8719 36.2177C64.8764 36.1119 64.7951 36.0219 64.689 36.0156ZM26.4051 10.079L26.2938 9.99177V9.94024H26.425L26.4767 10.0037L26.4051 10.079ZM10.543 29.4759L10.4476 29.4165L10.4277 29.353L10.4595 29.3015H10.535L10.5907 29.3689V29.464L10.543 29.4759ZM23.8171 34.5927L23.7376 34.6442H23.6819V34.5134L23.7654 34.4262L23.8529 34.4817L23.8171 34.5927ZM25.0098 32.3573V32.2503H25.1012L25.1568 32.0878L25.3039 31.9372L25.3556 31.9848V32.1829L25.2523 32.4564L25.1171 32.4366L25.0098 32.3573Z" fill="#0090FC"/>
<path d="M41.2256 53.8588L41.1581 53.8707L41.1104 53.8826L41.2256 53.8588Z" fill="#0090FC"/>
<path d="M77.9197 52.8759L76.3295 56.6412H74.7075L80.8496 42.7375L86.8367 56.6412H85.1948L83.6245 52.8759H77.9197ZM80.798 46.1857L78.52 51.5006H83.0083L80.798 46.1857Z" fill="#0090FC"/>
<path d="M108.348 44.743V48.7064H112.78V50.0777H108.348V56.661H106.865V43.3677H112.904V44.743H108.348Z" fill="#0090FC"/>
<path d="M134.908 56.6411H133.425V43.3677H135.349C137.877 43.3677 140.223 44.0375 140.223 47.0299C140.223 49.071 138.935 50.5177 136.887 50.6921L141.125 56.6372H139.305L135.281 50.811H134.908V56.6411ZM134.908 49.507H135.369C137.046 49.507 138.74 49.1899 138.74 47.1289C138.74 44.9451 137.15 44.7509 135.349 44.7509H134.908V49.507Z" fill="#0090FC"/>
<path d="M162.927 56.6411H161.444V43.3677H162.927V56.6411Z" fill="#0090FC"/>
<path d="M194.505 46.2729C193.44 45.1603 191.968 44.5254 190.426 44.5131C187.46 44.5131 185.059 47.0854 185.059 50.0064C185.078 52.9952 187.48 55.4256 190.477 55.4878C192 55.4477 193.445 54.8146 194.505 53.7241V55.5552C193.348 56.3925 191.958 56.8484 190.529 56.8592C188.069 56.8592 185.796 55.5508 184.566 53.4268C183.336 51.3029 183.336 48.6861 184.566 46.5622C185.796 44.4383 188.069 43.1299 190.529 43.1299C191.963 43.1085 193.362 43.5662 194.505 44.4299V46.2729ZM217.539 52.8759L215.948 56.6412H214.322L220.468 42.7375L226.452 56.6412H224.81L223.219 52.8759H217.539ZM220.417 46.1857L218.139 51.5006H222.627L220.417 46.1857ZM93.3405 27.1177H78.3171C78.3171 30.011 79.8437 31.5726 82.7856 31.5726C84.3161 31.5726 85.4134 31.0653 86.1965 29.7375H93.0662C92.5605 31.9148 91.1867 33.7925 89.2616 34.9375C87.3125 36.0747 85.0874 36.656 82.8293 36.618C76.1624 36.618 71.1812 32.8647 71.1812 25.9445C71.1812 19.2583 75.7689 15.2433 82.3125 15.2433C89.2934 15.2433 93.3325 19.5436 93.3325 26.3845L93.3405 27.1177ZM86.7134 23.0116C86.3125 21.1204 84.6123 19.7857 82.6743 19.8409C80.5951 19.8409 78.8697 20.9348 78.4364 23.0116H86.7134Z" fill="#0090FC"/>
<path d="M115.388 17.8354V6.47226H123.077V35.9521H115.388V23.8716H104.289V35.9521H96.604V6.47226H104.289V17.8354H115.388Z" fill="#0090FC"/>
<path d="M148.007 27.1177H132.988C132.988 30.011 134.518 31.5726 137.456 31.5726C138.987 31.5726 140.084 31.0653 140.871 29.7375H147.733C147.225 31.9183 145.845 33.7971 143.913 34.9375C141.963 36.0747 139.738 36.656 137.48 36.618C130.813 36.618 125.832 32.8647 125.832 25.9445C125.832 19.2583 130.42 15.2433 136.963 15.2433C143.944 15.2433 147.983 19.5436 147.983 26.3845L148.007 27.1177ZM141.38 23.0116C140.979 21.1204 139.279 19.7857 137.341 19.8409C135.262 19.8409 133.537 20.9348 133.103 23.0116H141.38ZM173.868 35.9522H166.712V33.7247H166.636C165.38 35.7064 162.907 36.618 160.554 36.618C154.591 36.618 150.397 31.6519 150.397 25.9168C150.397 20.1817 154.515 15.2433 160.478 15.2433C162.792 15.2433 165.221 16.1034 166.712 17.8631V15.8933H173.868V35.9522ZM157.787 25.9445C157.787 28.4851 159.473 30.439 162.375 30.439C165.277 30.439 166.97 28.4851 166.97 25.9445C166.97 23.4793 165.277 21.4025 162.375 21.4025C159.473 21.4025 157.787 23.4793 157.787 25.9445Z" fill="#0090FC"/>
<path d="M184.939 35.9522H177.803V3.49973H184.939V35.9522Z" fill="#0090FC"/>
<path d="M212.78 3.49973V18.4378H212.859C214.505 16.2461 216.505 15.2314 219.292 15.2314C224.388 15.2314 226.845 18.5924 226.845 23.6735V35.9601H219.689V25.6711C219.689 23.3247 219.336 20.915 216.473 20.915C213.611 20.915 212.748 23.3406 212.748 25.6711V35.9522H205.592V3.49973H212.78Z" fill="#0090FC"/>
<path d="M202.901 15.8933H198.862V3.49973H191.722V15.8933H187.687V21.7592H191.722V35.9522H198.862V21.7592H202.901V15.8933Z" fill="#0090FC"/>
</g>
<defs>
<clipPath id="clip0">
<rect width="1440" height="4373" fill="white" transform="translate(-607 -157)"/>
</clipPath>
</defs>
</svg>
