<svg width="88" height="88" viewBox="0 0 88 88" fill="none" xmlns="http://www.w3.org/2000/svg">
<path d="M83.7534 26.0564C84.2288 24.3057 84.4751 22.4805 84.4751 20.6174C84.4751 15.1076 82.3294 9.9277 78.4334 6.03177C70.3908 -2.01033 57.3046 -2.01033 49.262 6.03195L44 11.2938L38.738 6.03177C30.6954 -2.01051 17.609 -2.01068 9.56641 6.03177C5.67048 9.9277 3.52477 15.1077 3.52477 20.6174C3.52477 22.4805 3.77107 24.3057 4.24648 26.0566C1.20839 27.8173 -0.526537 31.3559 0.142923 34.965L4.06704 56.1233L21.2551 72.8765V87.9912H66.7451V72.8763L83.9331 56.1232L87.8571 34.9648H87.8573C88.5264 31.3557 86.7916 27.817 83.7534 26.0564ZM61.5887 82.8347H46.578V64.5379C46.578 60.1399 48.2533 55.9685 51.2951 52.792L60.4048 43.6257C61.5163 42.5071 63.3251 42.5043 64.4401 43.6195C65.5542 44.7336 65.5525 46.5404 64.4363 47.6524L57.0226 55.0385L60.6686 58.6845L68.0854 51.2677C69.5988 49.7543 70.4322 47.7421 70.4322 45.6019C70.4322 45.1555 70.3939 44.7154 70.3227 44.2836L76.5051 31.9188C77.2119 30.5055 78.7758 29.786 80.309 30.1693C82.0201 30.5971 83.1087 32.2906 82.7869 34.025H82.7871L79.1615 53.5737L61.5885 70.7019V82.8347H61.5887ZM8.83816 53.5734L5.21277 34.0248C4.89102 32.2906 5.97951 30.5969 7.69054 30.1691C9.22282 29.786 10.7876 30.5051 11.4943 31.9185L17.6805 44.2907C17.2751 46.754 18.0181 49.3715 19.9142 51.2675L27.3311 58.6843L30.9771 55.0383L23.6606 47.7383C22.5458 46.6259 22.5448 44.8202 23.6584 43.7066C24.7741 42.591 26.5839 42.5944 27.6953 43.7142L36.7045 52.7919C39.7462 55.9681 41.4215 60.1396 41.4215 64.5377V82.8345H26.411V70.7016L8.83816 53.5734ZM24.1522 5.154C28.1141 5.154 32.0761 6.66188 35.0922 9.67797L44 18.586L52.908 9.67797C58.94 3.64613 68.7551 3.64596 74.7874 9.6778C77.7095 12.5999 79.3188 16.485 79.3188 20.6174C79.3188 22.1022 79.1077 23.5541 78.7059 24.942C75.8415 25.1993 73.2479 26.9041 71.8937 29.6126L67.1377 39.1249C65.7759 38.1285 64.1397 37.5895 62.4202 37.5895C60.28 37.5895 58.268 38.423 56.7546 39.9363L47.5042 49.1866L47.5578 49.2402C46.1356 50.728 44.9443 52.3833 44 54.1588C43.0557 52.3833 41.8644 50.728 40.4422 49.2402L40.4958 49.1866L31.2456 39.9363C28.4206 37.1115 23.9942 36.8417 20.8627 39.1253L16.1063 29.6126C14.7523 26.9041 12.1583 25.1996 9.29415 24.9422C8.8923 23.5543 8.68124 22.1022 8.68124 20.6172C8.68124 16.4848 10.2905 12.5997 13.2126 9.67762C16.2285 6.6617 20.1903 5.154 24.1522 5.154Z" fill="#0072A3"/>
</svg>
