<svg width="538" height="182" viewBox="0 0 538 182" fill="none" xmlns="http://www.w3.org/2000/svg">
<g clip-path="url(#clip0)">
<path opacity="0.24" d="M533.017 124.352C524.811 141.791 508.293 154.271 490.352 161.449C481.09 165.043 471.485 167.684 461.685 169.329C452.486 170.974 443.104 172.06 433.778 172.978C418.86 174.471 403.87 175.709 388.921 176.723C386.849 176.883 384.818 177.042 382.746 177.17C356.942 178.855 331.138 179.901 305.271 180.54H305.087C303.399 180.54 301.679 180.636 299.991 180.667C275.558 181.2 251.114 181.453 226.659 181.426C210.011 181.426 193.382 181.373 176.772 181.266C164.678 181.202 152.583 181.139 140.465 180.795C115.55 180.061 90.7056 178.216 66.4616 173.106C61.7183 172.156 57.0071 171.006 52.3039 169.769C39.258 166.311 26.1482 161.576 15.8378 152.809C5.52752 144.042 -1.59131 130.564 0.312377 117.206C2.06409 104.886 10.9826 94.6339 21.061 87.32C31.1393 80.0062 42.6575 74.8082 52.8718 67.7259C72.4446 54.2879 86.7942 34.566 105.375 19.8186C120.133 8.0653 140.657 -1.3405 159.902 2.69968C178.043 6.50832 193.601 19.1159 211.894 22.709C235.89 27.4039 258.95 13.2393 282.282 5.86955C311.878 -3.31256 343.786 -1.64482 372.26 10.5725C398.887 22.1341 421.603 42.6225 449.791 49.609C475.819 56.0525 507.062 51.5412 525.962 70.5045C539.536 84.1741 541.296 106.882 533.017 124.352Z" fill="#0072A3"/>
<path d="M218.42 181.225C213.549 181.576 209.038 181.409 204.143 181.449C204.431 177.672 205.654 160.856 205.934 157.08C206.054 155.483 206.262 153.694 207.494 152.656C208.246 152.105 209.128 151.756 210.054 151.642C211.933 151.291 214.405 150.844 216.301 151.275C217.9 151.642 217.844 153.04 217.9 154.421C218.148 158.94 217.428 176.818 218.42 181.225Z" fill="#775339"/>
<path d="M146.663 153.432L146.199 180.867L158.821 181.497C158.821 181.497 158.629 160.155 154.606 157.057C152.283 155.237 149.561 153.995 146.663 153.432Z" fill="#775339"/>
<path d="M162.157 84.0217C160.405 89.0839 160.557 94.5693 160.637 99.9189C160.895 108.628 160.668 117.345 159.957 126.028C159.517 130.691 158.845 135.386 159.413 140.025C159.981 144.664 161.989 149.383 165.812 152.002C168.548 153.871 171.923 154.541 175.219 154.893C178.587 155.215 181.97 155.356 185.353 155.316C188.982 155.445 192.613 155.096 196.151 154.278C199.655 153.336 203.022 151.451 205.102 148.489C207.021 145.75 207.701 142.349 208.221 139.043C210.683 123.473 210.71 107.616 208.301 92.0382C208.064 90.0057 207.559 88.0135 206.797 86.1137C205.63 83.4787 203.598 81.3229 201.606 79.2389C199.615 77.155 197.367 74.8155 194.607 73.6498C192.388 72.7869 190.03 72.335 187.649 72.3163C177.218 71.7574 166.06 72.6677 162.157 84.0217Z" fill="#010101"/>
<path d="M203.574 121.109L202.502 123.377C202.124 121.453 202.032 119.483 202.23 117.532L202.614 110.306C202.912 107.153 202.821 103.975 202.342 100.845C201.726 97.7385 200.255 94.6884 197.703 92.812C194.432 90.4167 190.048 90.2809 185.977 90.3049C182.218 90.3049 178.178 90.4805 175.171 92.7003C173.572 94.0339 172.218 95.6363 171.172 97.4351C169.855 99.2118 168.844 101.195 168.18 103.304C167.853 104.766 167.705 106.262 167.74 107.759C167.62 115.408 168.012 123.201 165.924 130.571C165.236 132.966 164.325 135.362 164.029 137.885C163.941 138.316 164.021 138.764 164.253 139.138C164.517 139.395 164.856 139.563 165.22 139.618C168.123 140.276 171.06 140.766 174.019 141.087L189.816 143.115C191.561 143.433 193.344 143.482 195.104 143.258C196.311 143.051 197.503 142.58 198.679 142.364C202.678 141.638 204.814 139.514 204.214 135.402C203.63 130.661 203.416 125.883 203.574 121.109Z" fill="url(#paint0_linear)"/>
<path d="M165.805 134.636C161.245 135.88 157.05 138.197 153.571 141.392C150.092 144.587 147.43 148.568 145.809 153.001C150.864 156.194 156.463 160.259 156.871 166.223C156.927 166.966 156.951 180.803 157.551 181.234C157.927 181.449 158.357 181.552 158.79 181.529C174.676 182.184 190.564 182.16 206.455 181.458C206.551 178.264 206.639 162.047 206.727 158.829C206.704 158.362 206.794 157.897 206.991 157.472C207.309 157.018 207.754 156.668 208.27 156.466C211.674 154.739 215.21 153.287 218.845 152.122C217.368 148.25 215.368 144.596 212.902 141.263C210.614 138.165 198.568 131.498 178.659 131.738C174.156 131.786 170.157 133.486 165.805 134.636Z" fill="#0072A3"/>
<path d="M140.434 180.794C115.518 180.06 90.6737 178.215 66.4297 173.105C67.0296 169.113 67.1576 165.073 67.7655 161.128C68.5653 155.986 70.501 150.684 74.6683 147.555C79.2196 144.185 85.1386 144.089 90.2898 142.157C95.6969 140.153 102.288 141.774 108.015 142.157C115.174 142.628 122.74 143.267 128.532 147.459C132.531 150.349 135.314 154.733 137.026 159.372C138.738 164.011 139.426 168.953 139.986 173.88C140.05 174.183 140.37 178.311 140.434 180.794Z" fill="#0072A3"/>
<path d="M92.896 136.687C88.2451 136.973 83.619 135.819 79.6502 133.382C78.6361 132.775 77.6989 132.048 76.8587 131.218C75.8932 130.175 75.0281 129.045 74.2751 127.84L69.4759 120.654C68.3814 119.211 67.5452 117.591 67.0043 115.863C66.7464 114.991 66.7177 114.067 66.9208 113.181C67.1239 112.294 67.5521 111.475 68.1641 110.801C66.9163 106.074 66.2924 100.19 68.66 95.91C70.1478 93.2112 72.8353 91.3907 74.811 89.0193C77.1466 86.2008 78.6344 82.472 81.8578 80.7313C85.3853 78.831 89.6886 79.9888 93.6879 80.2523C100.807 80.7074 108.038 78.1364 114.996 79.7173C116.669 80.0708 118.259 80.7373 119.684 81.6815C123.075 84.013 124.811 88.0692 127.53 91.1432C130.25 94.2173 134.137 96.7324 134.905 100.725C135.705 104.964 132.65 108.949 132.138 113.236C131.842 115.672 132.394 118.155 132.002 120.574C131.306 124.854 127.65 128.271 123.499 129.517C120.875 130.315 117.9 130.443 115.892 132.32C114.229 133.917 113.493 136.567 111.317 137.342C110.456 137.579 109.555 137.641 108.669 137.526C103.686 137.206 97.8952 136.368 92.896 136.687Z" fill="#606161"/>
<path d="M92.896 136.687C88.2451 136.973 83.619 135.819 79.6502 133.382C78.6361 132.775 77.6989 132.048 76.8587 131.218C75.8932 130.175 75.0281 129.045 74.2751 127.84L69.4759 120.654C68.3814 119.211 67.5452 117.591 67.0043 115.863C66.7464 114.991 66.7177 114.067 66.9208 113.181C67.1239 112.294 67.5521 111.475 68.1641 110.801C66.9163 106.074 66.2924 100.19 68.66 95.91C70.1478 93.2112 72.8353 91.3907 74.811 89.0193C77.1466 86.2008 78.6344 82.472 81.8578 80.7313C85.3853 78.831 89.6886 79.9888 93.6879 80.2523C100.807 80.7074 108.038 78.1364 114.996 79.7173C116.669 80.0708 118.259 80.7373 119.684 81.6815C123.075 84.013 124.811 88.0692 127.53 91.1432C130.25 94.2173 134.137 96.7324 134.905 100.725C135.705 104.964 132.65 108.949 132.138 113.236C131.842 115.672 132.394 118.155 132.002 120.574C131.306 124.854 127.65 128.271 123.499 129.517C120.875 130.315 117.9 130.443 115.892 132.32C114.229 133.917 113.493 136.567 111.317 137.342C110.456 137.579 109.555 137.641 108.669 137.526C103.686 137.206 97.8952 136.368 92.896 136.687Z" fill="#2B2B2B"/>
<path d="M93.9698 141.35C93.4791 142.232 93.1232 143.182 92.914 144.169C92.7834 145.37 93.0412 146.581 93.6499 147.626C94.3936 148.907 95.4445 149.983 96.708 150.758C97.9715 151.532 99.4081 151.982 100.889 152.065C103.875 152.183 106.787 151.118 108.991 149.103C109.944 148.353 110.619 147.308 110.911 146.133C110.999 145.101 110.885 144.063 110.575 143.075C110.104 141.011 109.878 138.899 109.903 136.783C109.903 135.186 110.063 133.421 109.247 131.992C108.327 130.395 106.456 129.709 104.68 129.357C102.192 128.878 97.6012 128.136 96.7534 131.305C95.8255 134.763 95.5216 138.06 93.9698 141.35Z" fill="#775339"/>
<path d="M94.3845 141.279C94.4213 141.447 94.4777 141.61 94.5525 141.766C95.081 142.704 95.7684 143.544 96.5841 144.249C97.6319 145.06 98.9524 145.438 100.272 145.303C102.571 145.123 104.729 144.122 106.351 142.484C108.886 140.009 111.262 135.474 109.246 132.017C108.326 130.42 106.455 129.733 104.679 129.382C102.191 128.903 97.6 128.16 96.7521 131.33C96.0562 133.909 95.6883 136.568 94.8484 139.107C94.5685 139.977 94.2245 140.536 94.3845 141.279Z" fill="url(#paint1_linear)"/>
<path d="M85.3711 112.91C84.5712 112.559 83.4114 112.495 82.8995 113.237C82.7445 113.502 82.6464 113.795 82.6115 114.1C82.1476 117.006 83.4594 120.256 86.0749 121.613C86.3318 121.772 86.6286 121.855 86.9308 121.853C87.6347 121.789 88.0026 120.998 88.1466 120.312C88.7945 117.365 88.4106 114.155 85.3711 112.91Z" fill="#775339"/>
<path d="M117.052 114.347C117.326 113.899 117.685 113.509 118.108 113.197C118.322 113.044 118.574 112.952 118.837 112.934C119.1 112.916 119.363 112.971 119.596 113.094C119.805 113.275 119.976 113.497 120.1 113.745C120.223 113.993 120.297 114.263 120.316 114.539C120.508 115.585 120.66 116.767 120.052 117.653C119.724 118.091 119.292 118.442 118.796 118.675C118.572 118.824 118.322 118.927 118.058 118.977C117.794 119.028 117.523 119.026 117.26 118.97C116.8 118.765 116.441 118.386 116.26 117.916C116.104 117.628 116.011 117.309 115.988 116.982C116.119 116.029 116.485 115.124 117.052 114.347Z" fill="#775339"/>
<path d="M88.8331 124.551C91.0887 129.214 94.6321 133.734 99.6553 135.011C104.678 136.289 110.398 133.742 113.709 129.606C117.02 125.47 118.34 120.024 118.564 114.754C118.82 108.758 117.524 102.226 113.021 98.2422C109.989 95.7049 106.12 94.3843 102.167 94.5374C98.2242 94.7232 94.3838 95.8513 90.9687 97.827C81.0263 103.241 84.8337 116.287 88.8331 124.551Z" fill="#775339"/>
<path d="M85.3705 112.909C85.3705 112.909 81.5471 103.256 92.5053 95.048C103.464 86.8399 115.518 96.8765 117.349 104.166C119.181 111.456 118.613 112.997 118.613 112.997C118.613 112.997 114.91 100.597 104.959 100.414C95.0089 100.23 89.6898 104.598 85.3705 112.909Z" fill="#0072A3"/>
<path d="M85.3066 117.07C85.3066 116.678 85.3866 116.271 85.3066 115.896C85.2266 115.521 85.0026 115.098 84.6107 115.058C84.455 115.067 84.3058 115.124 84.184 115.221C84.0622 115.318 83.9737 115.451 83.9308 115.601C83.8408 115.9 83.8408 116.219 83.9308 116.519C84.1264 117.262 84.3943 117.984 84.7307 118.675C84.8827 119.002 85.0586 119.377 85.4106 119.473C85.5402 119.51 85.6774 119.511 85.8075 119.476C85.9377 119.441 86.0559 119.372 86.1495 119.275C86.2431 119.178 86.3087 119.058 86.3391 118.927C86.3696 118.796 86.3638 118.659 86.3224 118.531C86.1705 118.004 85.3706 117.916 85.3066 117.07Z" fill="url(#paint2_linear)"/>
<path d="M119.164 115.393C119.117 115.283 119.092 115.165 119.092 115.046C119.092 114.926 119.117 114.808 119.164 114.699C119.304 114.504 119.513 114.37 119.748 114.323C119.831 114.52 119.867 114.733 119.852 114.946C119.852 115.425 119.852 115.896 119.852 116.375C119.862 116.591 119.835 116.807 119.772 117.014C119.723 117.158 119.644 117.29 119.541 117.401C119.437 117.512 119.312 117.601 119.172 117.661C118.94 117.765 118.604 117.741 118.5 117.501C118.316 117.086 118.764 116.759 119.02 116.535C119.396 116.192 119.324 115.88 119.164 115.393Z" fill="url(#paint3_linear)"/>
<path d="M175.06 128.791C173.516 132.217 171.789 135.913 172.66 139.57C173.596 143.563 177.684 146.317 181.763 146.309C185.842 146.301 189.682 143.818 191.889 140.393C193.24 138.53 193.813 136.217 193.489 133.941C193.161 132.344 192.241 130.971 191.889 129.414C191.089 126.164 192.689 122.571 191.449 119.465C190.449 116.934 187.81 115.425 185.178 114.675C183.623 114.183 181.962 114.13 180.379 114.523C177.46 115.409 177.004 117.517 177.18 120.112C177.308 123.194 176.3 126.029 175.06 128.791Z" fill="#775339"/>
<path d="M178.155 128.528C179.323 130.215 181.066 131.421 183.058 131.921C184.056 132.243 185.124 132.285 186.144 132.041C187.164 131.797 188.097 131.278 188.841 130.54C189.849 129.633 190.655 128.524 191.206 127.286C191.757 126.048 192.041 124.709 192.041 123.354C192.086 122.422 191.803 121.504 191.241 120.759C190.758 120.268 190.158 119.908 189.497 119.713C187.748 119.12 185.888 118.927 184.054 119.146C182.219 119.366 180.458 119.994 178.899 120.982C176.139 122.699 176.467 125.997 178.155 128.528Z" fill="url(#paint4_linear)"/>
<path d="M170.22 117.932C172.491 121.924 175.883 125.445 180.194 126.779C182.671 127.491 185.3 127.489 187.777 126.774C190.253 126.059 192.477 124.66 194.192 122.739C195.649 120.977 196.842 119.013 197.735 116.91C199.831 112.383 201.431 107.52 201.511 102.538C201.591 97.5553 200.007 92.4053 196.511 89.0118C193.902 86.6302 190.652 85.0621 187.161 84.5005C182.618 83.6542 177.73 84.0933 173.675 86.4408C171.174 87.8869 169.139 90.0175 167.812 92.5809C166.492 95.1599 166.732 97.196 166.644 99.9187C166.428 106.362 166.996 112.247 170.22 117.932Z" fill="#775339"/>
<path d="M164.437 100.422C164.409 100.698 164.465 100.976 164.597 101.22C164.76 101.394 164.963 101.527 165.189 101.608C165.414 101.688 165.655 101.714 165.892 101.684C168.53 101.728 171.167 101.6 173.787 101.3C174.171 99.7148 174.38 98.0924 174.411 96.4616C174.955 97.8336 175.274 99.2841 175.355 100.757C179.288 100.414 183.238 100.302 187.185 100.422C186.681 98.9766 186.554 97.4266 186.817 95.9187C186.93 97.3383 187.321 98.7218 187.969 99.9908C188.077 100.262 188.26 100.498 188.497 100.67C188.743 100.768 189.007 100.813 189.272 100.801C189.537 100.788 189.797 100.719 190.032 100.598C192.788 99.6856 195.72 99.434 198.591 99.8631L198.743 97.9787C199.325 99.005 199.8 100.089 200.159 101.212C200.694 100.826 201.303 100.552 201.948 100.406C202.593 100.261 203.26 100.247 203.91 100.366L202.814 93.8188C202.743 92.1949 202.278 90.6125 201.459 89.2078C200.639 87.803 199.491 86.6179 198.111 85.7544C196.428 84.2849 194.595 82.9975 192.64 81.9138C189.238 80.2706 185.412 79.713 181.682 80.3169C177.958 80.9294 174.411 82.3375 171.284 84.4449C170.109 85.1421 169.08 86.0583 168.252 87.1437C167.452 88.2615 167.452 89.4911 166.932 90.6888C165.588 93.9226 164.437 96.8449 164.437 100.422Z" fill="#010101"/>
<path d="M382.745 177.169C356.941 178.854 331.105 179.9 305.237 180.539C305.145 180.487 305.07 180.409 305.021 180.315C304.915 180.096 304.86 179.856 304.861 179.613C304.792 175.361 305.089 171.11 305.749 166.909C306.197 164.178 306.797 161.384 308.293 159.068C309.789 156.753 312.908 153.854 315.899 153.703C319.019 153.575 322.298 154.333 325.498 154.302C329.321 154.302 333.137 153.95 336.952 153.575C344.463 152.84 351.91 151.667 359.452 151.219C362.5 151.06 365.619 150.964 368.515 149.918C369.883 149.415 371.346 148.68 372.746 149.159C373.299 149.372 373.815 149.671 374.274 150.046C376.218 151.539 378.185 153.032 379.457 155.1C380.921 157.447 381.369 160.242 381.753 162.973C382.425 167.676 383.064 172.434 382.745 177.169Z" fill="#0072A3"/>
<path d="M382.713 177.169C356.909 178.854 331.105 179.9 305.237 180.539H305.053C305.053 180.539 304.989 180.539 304.957 180.443C304.853 180.224 304.809 179.982 304.829 179.741C304.75 175.489 305.036 171.239 305.685 167.037C306.133 164.274 306.733 161.512 308.261 159.164C309.789 156.817 312.844 153.95 315.836 153.823C318.955 153.671 322.235 154.429 325.434 154.398C329.257 154.398 333.073 154.078 336.888 153.703C344.399 152.904 351.878 151.795 359.388 151.308C362.436 151.116 365.587 151.052 368.451 150.006C369.819 149.495 371.315 148.768 372.682 149.208C373.237 149.432 373.752 149.742 374.21 150.126C376.154 151.587 378.121 153.112 379.401 155.172C380.857 157.496 381.305 160.29 381.721 163.021C382.361 167.74 383.001 172.467 382.713 177.169Z" fill="url(#paint5_linear)"/>
<path d="M328.867 96.8447C324.538 102.079 321.558 108.292 320.187 114.941C318.817 121.589 319.097 128.471 321.004 134.987C321.884 137.893 323.108 140.919 322.388 143.874C321.532 147.395 318.204 149.679 316.061 152.609C315.727 152.985 315.545 153.472 315.549 153.974C315.621 154.613 316.237 155.036 316.813 155.324C318.353 156.099 320.034 156.558 321.756 156.673C323.3 156.777 324.891 156.601 326.355 157.104C327.545 157.605 328.649 158.29 329.627 159.132C334.218 162.55 339.609 164.721 344.928 166.821C346.832 167.58 348.815 168.346 350.863 168.211C352.467 168.037 354.012 167.514 355.39 166.678C361.032 163.572 365.442 158.637 367.892 152.689C368.081 151.999 368.488 151.389 369.052 150.948C370.028 150.373 371.332 150.948 372.372 150.525C374.139 149.766 373.523 146.996 372.1 145.734C370.676 144.473 368.668 143.618 367.972 141.838C367.116 139.634 368.684 137.326 369.628 135.163C371.388 131.13 371.02 126.531 370.564 122.156C369.564 112.63 367.86 102.306 360.774 95.8546C357.91 93.2597 354.375 91.519 350.831 89.994C347.112 88.3971 342.361 86.8002 338.521 88.8682C334.852 90.9302 331.582 93.6317 328.867 96.8447Z" fill="#0072A3"/>
<path d="M326.291 130.436C323.091 122.859 323.891 113.852 329.786 108.079C327.659 109.444 325.267 112.686 324.403 116.423C323.771 119.122 323.771 122.395 323.707 125.166C323.595 131.442 325.776 137.544 329.842 142.333L330.962 140.472C334.495 145.326 338.542 149.786 343.032 153.775C343.552 154.169 343.978 154.674 344.28 155.252C344.489 155.915 344.57 156.611 344.52 157.304C344.558 159.937 345.508 162.476 347.207 164.49C347.451 164.819 347.784 165.071 348.167 165.217C348.563 165.292 348.972 165.259 349.351 165.121C353.994 163.788 358.078 160.986 360.989 157.136C357.908 159.145 354.394 160.396 350.735 160.785C349.955 160.933 349.148 160.85 348.415 160.546C347.673 160.086 347.139 159.356 346.927 158.51C346.312 156.292 346.599 153.921 347.727 151.914C348.844 149.93 350.219 148.102 351.815 146.477L355.686 142.189C356.354 141.504 356.939 140.743 357.43 139.922C357.912 138.9 358.282 137.829 358.534 136.728C359.333 133.933 360.517 131.258 361.365 128.48C362.213 125.701 362.709 122.715 362.045 119.88C361.381 117.046 359.349 114.411 356.542 113.644C355.356 113.379 354.139 113.285 352.926 113.365L341.304 113.541C339.639 113.463 337.974 113.693 336.393 114.219C333.714 115.313 330.626 118.571 328.858 120.822C328.119 121.849 327.657 123.048 327.515 124.304C327.211 125.509 325.811 129.302 326.291 130.436Z" fill="url(#paint6_linear)"/>
<path d="M343.44 106.434C344.01 106.109 344.656 105.943 345.312 105.955C346.024 106.101 346.687 106.426 347.24 106.897C351.327 109.699 356.774 111.192 359.038 115.608C360.35 118.179 360.254 121.197 360.006 124.096C359.606 128.647 358.854 133.262 356.686 137.278C354.519 141.294 350.719 144.664 346.192 145.263C340.257 146.061 334.49 141.989 331.594 136.743C329.107 132.264 326.131 123.377 329.123 118.586C332.378 113.436 337.977 109.005 343.44 106.434Z" fill="#C39E78"/>
<path d="M355.087 109.963C356.078 110.714 360.806 115.8 361.941 116.351C363.077 116.902 363.885 97.0204 349.144 90.5928C348.136 90.1537 346.84 89.6347 346.112 90.465C345.56 91.0878 345.76 92.062 345.944 92.8604C346.417 95.0362 346.671 97.2535 346.704 99.4796C346.752 101.124 346.208 103.616 347.016 105.069C348.448 107.616 352.807 108.255 355.087 109.963Z" fill="url(#paint7_linear)"/>
<path d="M299.959 180.667C275.526 181.199 251.082 181.452 226.627 181.425C226.779 175.964 227.067 168.882 227.963 161.895C228.406 158.62 229.579 155.485 231.395 152.722C233.211 149.958 235.624 147.636 238.457 145.926C238.969 145.638 239.513 145.287 239.633 144.72C239.644 144.315 239.559 143.913 239.385 143.547C238.585 140.912 241.033 137.798 243.84 138.021C243.992 135.442 246.448 133.478 248.991 133.063C254.174 132.264 258.854 136.177 264.189 135.889C267.18 135.762 270.14 135.163 273.131 135.314C275.712 135.511 278.263 135.99 280.738 136.744C281.694 136.953 282.601 137.344 283.41 137.893C285.473 139.45 285.473 142.524 285.281 145.08C290.664 146.285 294.768 150.765 296.991 155.779C299.215 160.793 299.823 166.326 300.399 171.748C300.407 172.083 300.183 176.69 299.959 180.667Z" fill="#0072A3"/>
<path d="M249.526 139.347C248.822 138.301 248.206 136.824 249.046 135.882C249.678 135.179 250.758 135.211 251.694 135.299L274.674 137.423C275.238 137.416 275.787 137.599 276.234 137.942C276.504 138.291 276.637 138.727 276.609 139.168C276.581 139.608 276.394 140.024 276.082 140.337C275.449 140.936 274.757 141.471 274.018 141.934C272.61 143.052 271.73 144.808 270.115 145.599C269.009 146.033 267.821 146.216 266.635 146.134H258.389C256.525 146.134 254.829 145.942 253.589 144.465C252.238 142.804 250.742 141.119 249.526 139.347Z" fill="url(#paint8_linear)"/>
<path d="M243.448 98.6253C243.844 97.6494 244.186 96.6525 244.472 95.6391C245.072 93.084 244.536 90.4092 244.592 87.7823C244.648 85.1553 245.544 82.1931 247.928 81.0912C250.047 80.0931 252.527 80.8836 254.862 81.0034C259.318 81.219 263.661 78.8955 268.076 79.2388C269.753 79.3793 271.377 79.8907 272.832 80.736C274.286 81.5812 275.533 82.739 276.483 84.1253C277.923 86.2652 278.659 88.956 280.674 90.5689C281.29 91.0639 282.002 91.4312 282.642 91.8943C284.585 93.4538 285.902 95.6584 286.353 98.1063C286.786 100.535 286.929 103.006 286.777 105.468C286.705 108.574 286.545 111.936 284.578 114.339C282.61 116.742 279.219 117.605 276.083 118.108C267.728 119.448 259.227 119.626 250.823 118.635C246.64 118.14 243.2 117.038 242.353 112.614C241.463 107.937 241.841 103.108 243.448 98.6253Z" fill="#606161"/>
<path d="M243.448 98.6253C243.844 97.6494 244.186 96.6525 244.472 95.6391C245.072 93.084 244.536 90.4092 244.592 87.7823C244.648 85.1553 245.544 82.1931 247.928 81.0912C250.047 80.0931 252.527 80.8836 254.862 81.0034C259.318 81.219 263.661 78.8955 268.076 79.2388C269.753 79.3793 271.377 79.8907 272.832 80.736C274.286 81.5812 275.533 82.739 276.483 84.1253C277.923 86.2652 278.659 88.956 280.674 90.5689C281.29 91.0639 282.002 91.4312 282.642 91.8943C284.585 93.4538 285.902 95.6584 286.353 98.1063C286.786 100.535 286.929 103.006 286.777 105.468C286.705 108.574 286.545 111.936 284.578 114.339C282.61 116.742 279.219 117.605 276.083 118.108C267.728 119.448 259.227 119.626 250.823 118.635C246.64 118.14 243.2 117.038 242.353 112.614C241.463 107.937 241.841 103.108 243.448 98.6253Z" fill="url(#paint9_linear)"/>
<path d="M254.182 142.453C253.814 143.002 253.668 143.669 253.774 144.321C253.931 144.684 254.175 145.002 254.486 145.247C256.621 147.22 258.925 149.24 261.748 149.934C263.889 150.428 266.134 150.175 268.109 149.216C270.085 148.257 271.671 146.65 272.603 144.665C272.759 144.335 272.859 143.981 272.899 143.619C272.809 142.814 272.535 142.041 272.099 141.359C271.387 139.698 271.499 137.822 271.451 136.009C271.403 134.197 271.091 132.249 269.795 130.995C268.568 129.975 267.007 129.444 265.412 129.502C263.244 129.43 256.949 129.821 255.973 132.113C255.406 133.462 255.821 135.882 255.597 137.383C255.38 139.133 254.903 140.842 254.182 142.453Z" fill="#C39E78"/>
<path d="M255.694 133.693C256.073 135.213 256.559 136.705 257.15 138.156C257.451 138.884 257.901 139.54 258.471 140.083C259.041 140.626 259.719 141.044 260.461 141.31C261.989 141.749 263.613 141.238 265.084 140.64C266.083 140.259 267.04 139.777 267.94 139.202C268.892 138.534 269.769 137.766 270.556 136.911C271.335 136.158 271.996 135.291 272.515 134.34C272.779 133.891 272.95 133.394 273.017 132.878C273.085 132.362 273.048 131.838 272.908 131.336C272.769 130.835 272.53 130.367 272.205 129.96C271.881 129.553 271.477 129.215 271.019 128.966C270.15 128.467 269.212 128.096 268.236 127.864C266.124 127.258 263.929 126.988 261.733 127.066C260.037 127.154 257.302 127.489 256.046 128.782C254.79 130.076 255.23 132.216 255.694 133.693Z" fill="url(#paint10_linear)"/>
<path d="M242.344 112.998C241.776 113.745 241.409 114.626 241.277 115.555C241.145 116.484 241.254 117.432 241.592 118.308C241.93 119.184 242.487 119.959 243.209 120.559C243.931 121.16 244.796 121.567 245.72 121.741C246.099 121.854 246.502 121.862 246.885 121.763C247.269 121.665 247.618 121.464 247.895 121.182C248.072 120.924 248.187 120.629 248.231 120.319C248.408 118.163 247.937 116.003 246.879 114.115C246.048 112.694 243.504 111.441 242.344 112.998Z" fill="#C39E78"/>
<path d="M285.985 110.602C286.969 110.753 287.529 111.823 287.705 112.798C287.884 113.853 287.78 114.938 287.403 115.94C287.027 116.943 286.391 117.828 285.561 118.506C285.192 118.821 284.749 119.038 284.273 119.137C284.036 119.183 283.79 119.175 283.556 119.113C283.322 119.051 283.105 118.936 282.922 118.778C282.568 118.346 282.381 117.802 282.394 117.245C282.29 115.856 282.186 114.003 282.962 112.766C283.538 111.847 284.793 110.426 285.985 110.602Z" fill="#C39E78"/>
<path d="M245.609 111.296C245.569 116.958 246.553 122.746 249.464 127.601C252.376 132.456 257.463 136.232 263.062 136.655C265.561 136.732 268.059 136.464 270.485 135.857C271.775 135.637 273.036 135.273 274.244 134.771C277.548 133.278 279.683 129.98 281.147 126.707C284.848 118.239 285.326 108.713 282.491 99.9185C281.995 98.3855 281.155 96.6768 279.571 96.3574C278.931 96.2613 278.276 96.3271 277.668 96.549C275.268 97.2996 273.204 98.9923 270.813 99.8466C267.797 100.925 264.414 100.581 261.334 99.8466C258.255 99.1121 255.183 97.9862 252.008 97.5311C251.069 97.3427 250.1 97.3755 249.176 97.6269C244.753 99.152 245.633 107.727 245.609 111.296Z" fill="#C39E78"/>
<path d="M260.822 154.732C257.066 154.622 253.324 154.243 249.623 153.599C247.839 153.214 246.024 152.987 244.2 152.92C241.97 152.959 239.787 153.567 237.858 154.685C235.929 155.803 234.318 157.394 233.178 159.308C231.954 157.535 232.25 155.044 233.338 153.183C234.426 151.323 236.17 149.942 237.865 148.608C238.464 148.069 239.162 147.652 239.921 147.379C242.848 146.54 246.632 150.229 249.143 151.371C252.847 153.064 256.783 154.197 260.822 154.732Z" fill="url(#paint11_linear)"/>
<path d="M269.027 155.132C275.778 154.166 282.777 153.208 289.32 155.132C290.174 155.512 291.135 155.577 292.032 155.316C292.494 155.081 292.867 154.703 293.095 154.238C293.373 153.608 293.492 152.92 293.441 152.234C293.391 151.548 293.174 150.884 292.808 150.302C292.063 149.145 291.078 148.162 289.92 147.419C288.528 146.437 285.921 144.832 284.113 145.631C282.745 146.237 281.537 148.481 280.362 149.511C277.136 152.335 273.23 154.272 269.027 155.132Z" fill="url(#paint12_linear)"/>
<path d="M461.684 169.329C452.486 170.974 443.103 172.06 433.777 172.978C418.859 174.471 403.87 175.709 388.92 176.723C388.248 166.59 387.712 145.886 388.984 141.591C390.402 136.285 393.534 131.596 397.895 128.248C398.695 128.248 400.974 126.38 401.806 125.965C403.276 125.309 404.785 124.746 406.325 124.28C409.07 123.401 411.864 122.681 414.692 122.124C420.987 120.823 428.434 122.22 434.865 122.499C438.808 122.659 442.863 122.851 446.415 124.599C449.498 126.279 452.111 128.703 454.014 131.65C457.677 136.864 460.636 156.37 461.684 169.329Z" fill="#0072A3"/>
<path d="M415.237 120.982C414.677 122.339 413.965 123.705 413.997 125.174C414.11 126.706 414.782 128.143 415.885 129.214C416.969 130.396 418.312 131.313 419.809 131.893C421.305 132.474 422.916 132.701 424.515 132.559C426.112 132.38 427.631 131.776 428.913 130.809C430.195 129.843 431.193 128.55 431.802 127.066C432.019 126.544 432.136 125.986 432.146 125.421C432.089 124.702 431.928 123.994 431.666 123.321C430.69 120.308 430.275 117.142 430.442 113.979C430.546 112.007 430.722 109.66 429.155 108.454C428.673 108.113 428.13 107.869 427.555 107.735C424.792 106.949 421.863 106.949 419.1 107.735C415.965 108.622 416.845 110.291 416.829 112.933C416.815 115.693 416.275 118.424 415.237 120.982Z" fill="#775339"/>
<path d="M422.06 118.994C424.067 119.833 426.603 119.753 428.195 118.276C429.786 116.799 430.026 114.579 430.242 112.503L430.538 109.636C430.581 109.503 430.588 109.36 430.558 109.223C430.527 109.086 430.462 108.959 430.367 108.855C430.272 108.751 430.151 108.675 430.017 108.632C429.883 108.59 429.74 108.584 429.602 108.614C427.127 108.342 424.633 108.28 422.148 108.431C420.492 108.527 418.148 108.431 417.268 110.163C415.717 113.405 419.268 117.829 422.06 118.994Z" fill="url(#paint13_linear)"/>
<path d="M407.437 101.971C408.422 104.404 409.794 106.664 411.5 108.662C415.7 113.253 422.698 114.794 428.69 113.077C434.681 111.36 439.592 106.689 442.335 101.1C445.079 95.5111 445.791 89.0755 445.135 82.8875C444.775 79.4701 443.951 75.9728 441.831 73.306C440.092 71.2024 437.814 69.6077 435.24 68.6909C430.631 66.918 425.547 66.7965 420.858 68.3472C416.168 69.898 412.163 73.0249 409.525 77.1945C404.518 85.1072 403.654 93.4351 407.437 101.971Z" fill="#775339"/>
<path d="M401.766 91.9983C401.465 92.4288 401.263 92.9208 401.176 93.4387C401.089 93.9566 401.118 94.4874 401.262 94.9926C401.559 95.9999 402.066 96.9332 402.75 97.7313C402.946 98.0405 403.204 98.3055 403.508 98.509C403.813 98.7125 404.157 98.8501 404.518 98.913C404.866 98.8959 405.206 98.7947 405.506 98.6181C405.807 98.4415 406.061 98.1947 406.245 97.8989C408.453 94.8888 404.582 88.3334 401.766 91.9983Z" fill="#775339"/>
<path d="M446.112 89.8978C446.632 89.8769 447.147 90.002 447.6 90.2588C448.052 90.5157 448.424 90.8941 448.671 91.3509C449.156 92.2789 449.257 93.3599 448.951 94.3611C448.648 95.3529 448.138 96.2698 447.456 97.0519C446.882 97.8457 446.094 98.4604 445.184 98.8245C444.725 98.9951 444.224 99.0176 443.752 98.8886C443.28 98.7597 442.86 98.4859 442.552 98.1059C442.342 97.776 442.193 97.4108 442.112 97.028C441.529 94.6326 443.144 90.1692 446.112 89.8978Z" fill="#775339"/>
<path d="M406.413 93.1161C407.213 92.9085 407.301 91.8146 407.213 90.9922C406.974 86.8117 407.884 82.6454 409.844 78.9435C411.268 80.245 413.508 79.5025 415.339 78.8797C423.146 76.2048 431.665 77.0672 439.895 77.7858C440.234 77.784 440.566 77.8841 440.847 78.0732C441.013 78.2287 441.142 78.4198 441.223 78.6321C443.148 82.6234 444.198 86.9788 444.303 91.4074C445.114 90.7359 446.026 90.1969 447.006 89.8105C447.438 87.6627 446.862 85.4589 446.278 83.343C445.078 78.9515 443.783 74.3764 440.735 70.9829C436.576 66.3519 429.865 64.8109 423.642 65.1063C416.835 65.4337 409.636 68.0845 406.045 73.8893C404.053 77.139 403.445 80.9716 403.381 84.7243C403.381 86.2574 403.069 88.6288 403.645 90.082C403.949 90.7607 405.885 93.2439 406.413 93.1161Z" fill="#606161"/>
<path d="M406.413 93.2838C407.213 93.0841 407.301 91.9903 407.213 91.1679C406.973 86.9872 407.883 82.8208 409.844 79.1192C411.268 80.4127 413.508 79.6781 415.339 79.0473C423.146 76.3804 431.665 77.2348 439.895 77.9614C440.234 77.9596 440.566 78.0598 440.847 78.2488C441.011 78.4029 441.139 78.5909 441.223 78.7998C443.146 82.7919 444.196 87.1468 444.303 91.5751C445.115 90.906 446.027 90.3673 447.006 89.9782C447.438 87.8303 446.862 85.6186 446.278 83.5107C445.078 79.1112 443.783 74.544 440.735 71.1506C436.576 66.5195 429.865 64.9705 423.642 65.2739C416.835 65.6013 409.636 68.2522 406.045 74.0569C404.053 77.3067 403.445 81.1472 403.381 84.9C403.381 86.433 403.069 88.8044 403.645 90.2576C403.949 90.9363 405.885 93.4195 406.413 93.2838Z" fill="url(#paint14_linear)"/>
<path d="M408.566 105.564C408.938 106.799 409.476 107.978 410.165 109.069C411.588 110.957 413.475 112.445 415.644 113.389C416.764 113.96 417.941 114.412 419.156 114.738C420.872 115.097 422.627 115.242 424.379 115.169C428.114 115.169 431.842 114.922 435.577 114.682C436.396 114.695 437.204 114.503 437.929 114.123C438.555 113.655 439.051 113.033 439.369 112.319C441.468 108.68 442.774 104.639 443.2 100.462C443.233 98.9933 443.343 97.5275 443.528 96.0703C443.92 93.9145 444.952 91.8066 444.656 89.6348C443.728 89.8823 443.216 90.8564 442.832 91.7427C442.032 93.5312 441.32 95.3437 440.432 97.0844C439.934 98.1748 439.271 99.1821 438.465 100.071C436.497 102.107 433.498 102.761 430.666 102.993C428.506 103.161 426.339 103.137 424.171 103.097C420.756 103.033 417.116 102.857 414.325 100.901C410.917 98.5056 409.734 93.7867 406.182 91.6628C405.79 92.3176 406.382 93.4354 406.438 94.162C406.526 95.4874 406.646 96.8049 406.838 98.1543C407.2 100.669 407.778 103.148 408.566 105.564Z" fill="#606161"/>
<path d="M408.566 105.564C408.938 106.799 409.476 107.978 410.165 109.069C411.588 110.957 413.475 112.445 415.644 113.389C416.764 113.96 417.941 114.412 419.156 114.738C420.872 115.097 422.627 115.242 424.379 115.169C428.114 115.169 431.842 114.922 435.577 114.682C436.396 114.695 437.204 114.503 437.929 114.123C438.555 113.655 439.051 113.033 439.369 112.319C441.468 108.68 442.774 104.639 443.2 100.462C443.233 98.9933 443.343 97.5275 443.528 96.0703C443.92 93.9145 444.952 91.8066 444.656 89.6348C443.728 89.8823 443.216 90.8564 442.832 91.7427C442.032 93.5312 441.32 95.3437 440.432 97.0844C439.934 98.1748 439.271 99.1821 438.465 100.071C436.497 102.107 433.498 102.761 430.666 102.993C428.506 103.161 426.339 103.137 424.171 103.097C420.756 103.033 417.116 102.857 414.325 100.901C410.917 98.5056 409.734 93.7867 406.182 91.6628C405.79 92.3176 406.382 93.4354 406.438 94.162C406.526 95.4874 406.646 96.8049 406.838 98.1543C407.2 100.669 407.778 103.148 408.566 105.564Z" fill="url(#paint15_linear)"/>
<path d="M427.634 105.684L423.202 105.532C422.517 105.467 421.824 105.532 421.163 105.724C420.832 105.824 420.536 106.015 420.308 106.274C420.081 106.534 419.93 106.852 419.875 107.193C419.886 107.746 420.08 108.279 420.427 108.71C420.61 109.001 420.843 109.257 421.115 109.468C421.683 109.771 422.331 109.891 422.97 109.812L430.969 109.644C431.185 109.655 431.399 109.611 431.593 109.516C431.782 109.384 431.918 109.189 431.977 108.965C432.165 108.399 432.183 107.789 432.03 107.212C431.876 106.635 431.558 106.115 431.113 105.716C430.249 105.077 428.682 105.716 427.634 105.684Z" fill="#775339"/>
</g>
<defs>
<linearGradient id="paint0_linear" x1="185.105" y1="64.6665" x2="183.168" y2="217.834" gradientUnits="userSpaceOnUse">
<stop stop-color="#010101" stop-opacity="0"/>
<stop offset="0.95" stop-color="#010101"/>
</linearGradient>
<linearGradient id="paint1_linear" x1="2124.62" y1="5302.82" x2="2249.6" y2="4571.34" gradientUnits="userSpaceOnUse">
<stop stop-color="#010101" stop-opacity="0"/>
<stop offset="0.95" stop-color="#010101"/>
</linearGradient>
<linearGradient id="paint2_linear" x1="350.016" y1="1348.82" x2="391.096" y2="1336.05" gradientUnits="userSpaceOnUse">
<stop stop-color="#010101" stop-opacity="0"/>
<stop offset="0.95" stop-color="#010101"/>
</linearGradient>
<linearGradient id="paint3_linear" x1="327.436" y1="1037.12" x2="352.275" y2="1042.62" gradientUnits="userSpaceOnUse">
<stop stop-color="#010101" stop-opacity="0"/>
<stop offset="0.95" stop-color="#010101"/>
</linearGradient>
<linearGradient id="paint4_linear" x1="3719.59" y1="4065.65" x2="3878.29" y2="2206.81" gradientUnits="userSpaceOnUse">
<stop stop-color="#010101" stop-opacity="0"/>
<stop offset="0.95" stop-color="#010101"/>
</linearGradient>
<linearGradient id="paint5_linear" x1="34140.2" y1="11711.2" x2="34153.6" y2="6800.63" gradientUnits="userSpaceOnUse">
<stop stop-color="#010101" stop-opacity="0"/>
<stop offset="0.95" stop-color="#010101"/>
</linearGradient>
<linearGradient id="paint6_linear" x1="16233.3" y1="19321.3" x2="23927.9" y2="10173.3" gradientUnits="userSpaceOnUse">
<stop stop-color="#010101" stop-opacity="0"/>
<stop offset="0.95" stop-color="#010101"/>
</linearGradient>
<linearGradient id="paint7_linear" x1="7624.85" y1="5197.98" x2="8568.05" y2="8446.42" gradientUnits="userSpaceOnUse">
<stop stop-color="#010101" stop-opacity="0"/>
<stop offset="0.95" stop-color="#010101"/>
</linearGradient>
<linearGradient id="paint8_linear" x1="9562.27" y1="3324.22" x2="9553.39" y2="3894.73" gradientUnits="userSpaceOnUse">
<stop stop-color="#010101" stop-opacity="0"/>
<stop offset="0.95" stop-color="#010101"/>
</linearGradient>
<linearGradient id="paint9_linear" x1="15096.1" y1="10924.2" x2="15702" y2="8666.17" gradientUnits="userSpaceOnUse">
<stop stop-color="#010101" stop-opacity="0"/>
<stop offset="0.95" stop-color="#010101"/>
</linearGradient>
<linearGradient id="paint10_linear" x1="6135.14" y1="4553.6" x2="6384.01" y2="3651.34" gradientUnits="userSpaceOnUse">
<stop stop-color="#010101" stop-opacity="0"/>
<stop offset="0.95" stop-color="#010101"/>
</linearGradient>
<linearGradient id="paint11_linear" x1="9118.91" y1="4045.39" x2="9180.4" y2="3356.37" gradientUnits="userSpaceOnUse">
<stop stop-color="#010101" stop-opacity="0"/>
<stop offset="0.95" stop-color="#010101"/>
</linearGradient>
<linearGradient id="paint12_linear" x1="8963.48" y1="3378.57" x2="8917.94" y2="2748.75" gradientUnits="userSpaceOnUse">
<stop stop-color="#010101" stop-opacity="0"/>
<stop offset="0.95" stop-color="#010101"/>
</linearGradient>
<linearGradient id="paint13_linear" x1="7680.04" y1="3222.24" x2="7782.17" y2="2859.3" gradientUnits="userSpaceOnUse">
<stop stop-color="#010101" stop-opacity="0"/>
<stop offset="0.95" stop-color="#010101"/>
</linearGradient>
<linearGradient id="paint14_linear" x1="23934.1" y1="5702.81" x2="23923.2" y2="6865.71" gradientUnits="userSpaceOnUse">
<stop stop-color="#010101" stop-opacity="0"/>
<stop offset="0.95" stop-color="#010101"/>
</linearGradient>
<linearGradient id="paint15_linear" x1="20194.7" y1="6649.84" x2="22063.1" y2="6649.84" gradientUnits="userSpaceOnUse">
<stop stop-color="#010101" stop-opacity="0"/>
<stop offset="0.95" stop-color="#010101"/>
</linearGradient>
<clipPath id="clip0">
<rect width="538" height="182" fill="white"/>
</clipPath>
</defs>
</svg>
