<svg width="544" height="461" viewBox="0 0 544 461" fill="none" xmlns="http://www.w3.org/2000/svg">
<rect width="544" height="461" fill="#E5E5E5"/>
<g clip-path="url(#clip0)">
<rect width="1440" height="3774" transform="translate(-762 -1101)" fill="white"/>
<g clip-path="url(#clip1)">
<path opacity="0.24" d="M543.99 334.181C544.858 389.34 501.361 441.791 447.126 451.04C421.744 455.387 395.849 451.198 370.072 450.051C314.003 447.601 258.061 459.656 202.091 460.921C190.76 461.178 179.41 460.921 168.05 460.121C130.701 457.287 94.2269 447.375 60.5659 430.911C46.2083 423.895 32.1959 415.516 21.7433 403.46C-0.680574 377.63 -2.84013 339.824 2.34674 306.029C7.53361 272.234 18.9428 239.201 19.5246 204.991C19.9387 181.108 15.0477 157.481 13.7953 133.627C12.543 109.773 15.4322 84.4768 29.4447 65.1684C43.4571 45.86 66.7783 35.277 90.139 30.6722C113.5 26.0675 137.472 26.6702 161.266 25.188C210.482 22.1643 258.673 10.1385 307.603 4.14049C380.574 -4.822 497.92 -7.71727 505.996 87.9847C506.616 95.9001 506.787 103.844 506.508 111.779C505.798 138.212 501.746 164.744 505.098 190.979C511.37 240.278 543.201 284.507 543.99 334.181Z" fill="#0072A3"/>
<path opacity="0.24" d="M543.99 334.181C544.857 389.339 501.361 441.79 447.125 451.039C421.743 455.387 395.848 451.197 370.072 450.051C314.002 447.601 258.061 459.656 202.09 460.921C188.384 447.966 174.706 435.002 161.838 421.267C157.893 416.988 153.732 412.245 152.963 406.444C152.411 402.126 153.801 397.798 155.182 393.677C179.13 323.339 212.505 256.589 254.393 195.258C273.957 166.601 295.316 139.329 317.187 112.441C332.048 94.1999 351.287 58.7057 377.665 56.9665C399.162 55.5436 424.09 75.3065 442.747 83.7552C463.889 93.3303 485.208 102.53 506.508 111.799C505.798 138.232 501.745 164.763 505.098 190.999C511.37 240.278 543.201 284.507 543.99 334.181Z" fill="#0072A3"/>
<path d="M297.564 66.9571L285.258 63.0835L288.621 34.0617H289.607C290.829 33.0735 294.399 28.7949 293.443 25.6229C292.585 22.7178 287.97 21.5517 284.232 21.0675C278.927 20.3956 275.456 20.9984 274.184 22.7968C272.478 25.2276 274.726 29.7929 275.742 31.3443L276.008 31.7494L274.155 59.8029L260.497 56.0282L261.266 53.2515L271.157 56.0282L272.715 32.3127C271.729 30.702 268.77 24.9806 271.423 21.1565C273.395 18.3501 277.773 17.3521 284.459 18.192C294.902 19.526 296.904 23.8541 296.756 27.2533C296.608 30.6526 293.738 34.8225 291.579 36.3739L288.709 61.0776L298.452 64.1409L297.564 66.9571Z" fill="url(#paint0_linear)"/>
<path d="M398.177 411.879H150.597L135.194 399.172L150.597 64.5459L382.774 51.8384L398.177 64.5459V411.879Z" fill="#0072A3"/>
<path d="M398.177 411.879H150.597L135.194 399.172L150.597 64.5459L382.774 51.8384L398.177 64.5459V411.879Z" fill="url(#paint1_linear)"/>
<path d="M390.021 405.822L146.673 406.435L135.194 399.172L143.349 63.3404L375.526 50.6328L390.929 63.3404L390.021 405.822Z" fill="url(#paint2_linear)"/>
<path d="M382.774 51.8384H135.194V399.172H382.774V51.8384Z" fill="white"/>
<path d="M213.214 76.0081C213.086 76.8875 213.027 77.9844 213.737 78.4784C214.124 78.712 214.567 78.835 215.019 78.8342C237.826 80.8118 260.798 79.5342 283.247 75.0397C286.945 74.2986 291.421 72.599 291.688 68.8341C291.934 65.4942 288.729 61.4132 291.313 59.3183C292.282 58.7366 293.388 58.4261 294.518 58.4191C296.566 58.1194 298.522 57.3685 300.246 56.2203C301.97 55.0721 303.419 53.5552 304.487 51.7787L239.75 51.255C233.459 51.2056 222 48.5574 217.504 54.2194C214.023 58.5574 213.214 70.85 213.214 76.0081Z" fill="url(#paint3_linear)"/>
<path d="M284.953 67.1149H217.928L213.392 25.3657L280.87 24.9111L284.953 67.1149Z" fill="#0072A3"/>
<path d="M280.87 24.9111L305.789 37.3223L302.16 51.8381H283.74L280.87 24.9111Z" fill="#0072A3"/>
<path d="M280.87 24.9111L305.789 37.3223L302.16 51.8381H283.74L280.87 24.9111Z" fill="url(#paint4_linear)"/>
<path d="M265.871 66.4628L252.973 65.9588L248.516 33.6859L249.443 33.4488C250.36 32.0061 252.667 26.3539 250.902 23.2116C249.304 20.346 244.542 20.4546 240.824 21.0574C235.529 21.9072 232.334 23.5871 231.594 25.9092C230.608 29.0318 233.971 33.2808 235.351 34.6543L235.716 35.01L241.366 65.7809H227.206V62.5596H237.511L232.738 36.5713C231.397 35.1187 226.969 29.8618 228.537 24.931C229.681 21.3242 233.645 18.9527 240.37 17.8756C250.784 16.2056 253.86 20.2669 254.629 23.9823C255.399 27.6978 253.722 33.0338 252.056 35.346L255.842 62.8363L266.048 63.2414L265.871 66.4628Z" fill="url(#paint5_linear)"/>
<path d="M248.723 104.783H172.636V200.999H248.723V104.783Z" fill="#0072A3"/>
<path d="M349.266 118.103H276.196C274.029 118.103 272.271 119.864 272.271 122.036C272.271 124.208 274.029 125.969 276.196 125.969H349.266C351.433 125.969 353.191 124.208 353.191 122.036C353.191 119.864 351.433 118.103 349.266 118.103Z" fill="#0072A3"/>
<path d="M349.266 135.346H276.196C274.029 135.346 272.271 137.107 272.271 139.279C272.271 141.451 274.029 143.212 276.196 143.212H349.266C351.433 143.212 353.191 141.451 353.191 139.279C353.191 137.107 351.433 135.346 349.266 135.346Z" fill="#0072A3"/>
<path d="M349.266 160.455H276.196C274.029 160.455 272.271 162.216 272.271 164.388C272.271 166.56 274.029 168.321 276.196 168.321H349.266C351.433 168.321 353.191 166.56 353.191 164.388C353.191 162.216 351.433 160.455 349.266 160.455Z" fill="#0072A3"/>
<path d="M349.266 177.698H276.196C274.029 177.698 272.271 179.459 272.271 181.631C272.271 183.803 274.029 185.564 276.196 185.564H349.266C351.433 185.564 353.191 183.803 353.191 181.631C353.191 179.459 351.433 177.698 349.266 177.698Z" fill="#0072A3"/>
<path d="M303.067 257.58H229.997C227.829 257.58 226.072 259.341 226.072 261.513C226.072 263.685 227.829 265.446 229.997 265.446H303.067C305.234 265.446 306.991 263.685 306.991 261.513C306.991 259.341 305.234 257.58 303.067 257.58Z" fill="#0072A3"/>
<path d="M303.067 274.823H229.997C227.829 274.823 226.072 276.584 226.072 278.756C226.072 280.928 227.829 282.689 229.997 282.689H303.067C305.234 282.689 306.991 280.928 306.991 278.756C306.991 276.584 305.234 274.823 303.067 274.823Z" fill="#0072A3"/>
<path d="M303.067 315.664H229.997C227.829 315.664 226.072 317.424 226.072 319.596C226.072 321.768 227.829 323.529 229.997 323.529H303.067C305.234 323.529 306.991 321.768 306.991 319.596C306.991 317.424 305.234 315.664 303.067 315.664Z" fill="#0072A3"/>
<path d="M303.067 332.907H229.997C227.829 332.907 226.072 334.668 226.072 336.84C226.072 339.012 227.829 340.772 229.997 340.772H303.067C305.234 340.772 306.991 339.012 306.991 336.84C306.991 334.668 305.234 332.907 303.067 332.907Z" fill="#0072A3"/>
<path d="M349.256 214.013H174.746C172.578 214.013 170.821 215.773 170.821 217.946C170.821 220.118 172.578 221.878 174.746 221.878H349.256C351.423 221.878 353.18 220.118 353.18 217.946C353.18 215.773 351.423 214.013 349.256 214.013Z" fill="#0072A3"/>
<path d="M349.256 231.256H174.746C172.578 231.256 170.821 233.017 170.821 235.189C170.821 237.361 172.578 239.122 174.746 239.122H349.256C351.423 239.122 353.18 237.361 353.18 235.189C353.18 233.017 351.423 231.256 349.256 231.256Z" fill="#0072A3"/>
<path d="M211.587 252.738H179.884V280.871H211.587V252.738Z" fill="#0072A3"/>
<path d="M211.587 314.458H179.884V342.591H211.587V314.458Z" fill="#0072A3"/>
<path d="M188.502 184.033C183.916 187.402 179.804 193.46 180.613 199.112C203.066 198.005 224.376 199.299 243.891 199.013C243.496 193.875 241.435 187.343 237.866 183.637C236.006 181.916 233.865 180.529 231.535 179.537C226.782 177.195 221.96 174.863 216.744 173.776C206.33 171.572 196.696 178.025 188.502 184.033Z" fill="white"/>
<path d="M227.947 149.664C228.033 150.49 227.942 151.324 227.68 152.112C227.418 152.899 226.991 153.621 226.428 154.23C226.166 154.543 225.826 154.781 225.442 154.921C223.47 155.564 223.381 151.572 223.943 150.435C224.614 149.141 227.651 147.095 227.947 149.664Z" fill="#B59D6D"/>
<path d="M192.91 147.431C192.823 148.256 192.913 149.09 193.173 149.877C193.433 150.664 193.858 151.387 194.419 151.997C194.687 152.303 195.025 152.541 195.405 152.688C197.377 153.331 197.466 149.329 196.894 148.202C196.243 146.937 193.206 144.862 192.91 147.431Z" fill="#B59D6D"/>
<path d="M207.929 116.404C209.763 114.142 212.413 112.697 215.305 112.382C218.105 112.086 221.221 113.054 222.72 115.425C223.688 117.244 224.132 119.297 224.002 121.354C224.176 123.262 223.878 125.183 223.134 126.947C222.224 128.61 220.742 129.885 218.963 130.534C214.861 132.155 210.019 130.841 206.844 127.916C203.669 124.991 205.444 119.427 207.929 116.404Z" fill="#606161"/>
<path d="M207.929 116.404C209.763 114.142 212.413 112.697 215.305 112.382C218.105 112.086 221.221 113.054 222.72 115.425C223.688 117.244 224.132 119.297 224.002 121.354C224.176 123.262 223.878 125.183 223.134 126.947C222.224 128.61 220.742 129.885 218.963 130.534C214.861 132.155 210.019 130.841 206.844 127.916C203.669 124.991 205.444 119.427 207.929 116.404Z" fill="url(#paint6_linear)"/>
<path d="M217.79 160.831C217.79 160.831 217.908 173.894 220.876 176.641C223.844 179.388 208.984 192.224 202.692 177.896C202.692 177.896 206.351 171.71 205.098 161.285C203.846 150.86 217.79 160.831 217.79 160.831Z" fill="#B59D6D"/>
<path d="M218.224 163.923V166.789C218.224 166.789 210.68 177.659 207.594 174.012C204.507 170.366 205.414 169.546 205.414 169.546L205.079 161.295L218.224 163.923Z" fill="url(#paint7_linear)"/>
<path d="M224.978 142.155C224.978 142.155 227.147 162.095 216.507 166.048C205.867 170 199.527 164.329 196.608 154.704C193.689 145.079 198.156 125.652 209.427 127.54C220.698 129.427 224.978 142.155 224.978 142.155Z" fill="url(#paint8_linear)"/>
<path d="M226.664 148.855C227.149 148.164 227.464 147.368 227.581 146.532C228.273 142.79 227.972 138.931 226.709 135.341C225.446 131.752 223.264 128.557 220.382 126.078C219.212 125.044 217.857 124.243 216.389 123.716C214.925 123.282 213.395 123.114 211.872 123.222C207.069 123.371 202.436 125.042 198.639 127.995C196.765 129.489 195.22 131.356 194.104 133.479C192.987 135.601 192.322 137.933 192.15 140.327C192.018 141.745 192.249 143.173 192.821 144.477C193.11 145.126 193.547 145.698 194.097 146.148C194.647 146.598 195.294 146.912 195.986 147.066C198.442 147.491 199.112 145.218 201.104 143.706C204.063 141.424 205.049 138.034 211.853 138.608C222.917 139.536 223.706 152.501 226.664 148.855Z" fill="#606161"/>
<path d="M194.882 148.854C194.752 148.735 194.648 148.591 194.576 148.43C194.531 148.242 194.504 148.05 194.498 147.856C194.471 147.667 194.381 147.493 194.241 147.362C194.166 147.301 194.078 147.26 193.983 147.243C193.888 147.226 193.79 147.233 193.699 147.264C193.621 147.3 193.552 147.352 193.496 147.417C193.44 147.481 193.398 147.557 193.373 147.639C193.33 147.804 193.307 147.973 193.304 148.143C193.238 148.799 193.336 149.462 193.59 150.07C193.832 150.488 194.142 150.862 194.507 151.177C194.571 151.254 194.648 151.319 194.736 151.366C194.824 151.414 194.921 151.443 195.02 151.453C195.148 151.445 195.271 151.4 195.375 151.325C195.424 151.3 195.467 151.267 195.503 151.226C195.513 151.177 195.513 151.127 195.503 151.078C195.587 150.627 195.587 150.165 195.503 149.714C195.387 149.371 195.171 149.072 194.882 148.854Z" fill="#A69064"/>
<path d="M225.678 150.999C225.808 150.88 225.912 150.735 225.984 150.574C226.03 150.39 226.057 150.201 226.063 150.011C226.086 149.818 226.182 149.642 226.329 149.517C226.399 149.451 226.486 149.407 226.58 149.387C226.674 149.368 226.771 149.375 226.862 149.408C226.938 149.446 227.006 149.498 227.062 149.563C227.118 149.627 227.16 149.702 227.187 149.783C227.23 149.951 227.253 150.124 227.256 150.297C227.323 150.953 227.224 151.616 226.97 152.224C226.728 152.639 226.418 153.01 226.053 153.321C225.923 153.477 225.741 153.579 225.54 153.608C225.411 153.596 225.288 153.548 225.185 153.469C225.133 153.451 225.088 153.416 225.057 153.37C225.047 153.322 225.047 153.271 225.057 153.222C224.973 152.775 224.973 152.316 225.057 151.868C225.173 151.523 225.389 151.22 225.678 150.999Z" fill="#9F8A60"/>
</g>
</g>
<defs>
<linearGradient id="paint0_linear" x1="272.771" y1="83.8283" x2="290.595" y2="17" gradientUnits="userSpaceOnUse">
<stop stop-color="#010101" stop-opacity="0"/>
<stop offset="0.95" stop-color="#010101"/>
</linearGradient>
<linearGradient id="paint1_linear" x1="142453" y1="197412" x2="-49404.5" y2="35121.3" gradientUnits="userSpaceOnUse">
<stop stop-color="#010101" stop-opacity="0"/>
<stop offset="0.95" stop-color="#010101"/>
</linearGradient>
<linearGradient id="paint2_linear" x1="119371" y1="77391.3" x2="36268.9" y2="83500.5" gradientUnits="userSpaceOnUse">
<stop stop-color="#010101" stop-opacity="0"/>
<stop offset="0.95" stop-color="#010101"/>
</linearGradient>
<linearGradient id="paint3_linear" x1="23779.3" y1="3339.63" x2="24201.5" y2="-3884.55" gradientUnits="userSpaceOnUse">
<stop stop-color="#010101" stop-opacity="0"/>
<stop offset="0.95" stop-color="#010101"/>
</linearGradient>
<linearGradient id="paint4_linear" x1="7893.28" y1="575.568" x2="7416.76" y2="1398.09" gradientUnits="userSpaceOnUse">
<stop stop-color="#010101" stop-opacity="0"/>
<stop offset="0.95" stop-color="#010101"/>
</linearGradient>
<linearGradient id="paint5_linear" x1="10118.4" y1="4768.9" x2="10042.5" y2="930.913" gradientUnits="userSpaceOnUse">
<stop stop-color="#010101" stop-opacity="0"/>
<stop offset="0.95" stop-color="#010101"/>
</linearGradient>
<linearGradient id="paint6_linear" x1="6542.49" y1="2428.52" x2="6461.97" y2="2642.18" gradientUnits="userSpaceOnUse">
<stop stop-color="#010101" stop-opacity="0"/>
<stop offset="0.95" stop-color="#010101"/>
</linearGradient>
<linearGradient id="paint7_linear" x1="213.806" y1="177.165" x2="205.193" y2="134.711" gradientUnits="userSpaceOnUse">
<stop offset="0.12" stop-color="#010101" stop-opacity="0"/>
<stop offset="0.95" stop-color="#010101"/>
</linearGradient>
<linearGradient id="paint8_linear" x1="-10771.8" y1="6250.88" x2="-9894.14" y2="6250.88" gradientUnits="userSpaceOnUse">
<stop stop-color="#9B8966"/>
<stop offset="0.42" stop-color="#E9D3CF"/>
<stop offset="1" stop-color="#B69D6E"/>
</linearGradient>
<clipPath id="clip0">
<rect width="1440" height="3774" fill="white" transform="translate(-762 -1101)"/>
</clipPath>
<clipPath id="clip1">
<rect width="544" height="461" fill="white"/>
</clipPath>
</defs>
</svg>
