<svg width="193" height="30" viewBox="0 0 193 30" fill="none" xmlns="http://www.w3.org/2000/svg">
<rect width="193" height="30" fill="#E5E5E5"/>
<g clip-path="url(#clip0)">
<rect width="1440" height="3774" transform="translate(-166 -2224)" fill="white"/>
<g filter="url(#filter0_dd)">
<rect x="-45" y="-246" width="283" height="300" rx="10" fill="white"/>
</g>
<path d="M52.584 21V8.184H57.678C59.058 8.184 60.114 8.49 60.846 9.102C61.59 9.714 61.962 10.596 61.962 11.748C61.962 12.852 61.584 13.722 60.828 14.358C60.084 14.982 59.034 15.294 57.678 15.294L59.01 15.042C59.478 15.042 59.88 15.174 60.216 15.438C60.552 15.69 60.822 16.098 61.026 16.662L62.646 21H61.08L59.496 16.734C59.292 16.194 59.01 15.84 58.65 15.672C58.302 15.492 57.834 15.402 57.246 15.402H54.042V21H52.584ZM54.042 14.178H57.552C58.548 14.178 59.286 13.974 59.766 13.566C60.258 13.158 60.504 12.558 60.504 11.766C60.504 10.974 60.264 10.386 59.784 10.002C59.304 9.606 58.56 9.408 57.552 9.408H54.042V14.178ZM72.3005 19.92C71.9045 20.292 71.3945 20.586 70.7705 20.802C70.1585 21.018 69.5285 21.126 68.8805 21.126C67.9445 21.126 67.1345 20.94 66.4505 20.568C65.7785 20.196 65.2565 19.662 64.8845 18.966C64.5245 18.258 64.3445 17.418 64.3445 16.446C64.3445 15.51 64.5245 14.688 64.8845 13.98C65.2445 13.272 65.7425 12.72 66.3785 12.324C67.0265 11.928 67.7705 11.73 68.6105 11.73C69.4145 11.73 70.1045 11.91 70.6805 12.27C71.2565 12.618 71.6945 13.122 71.9945 13.782C72.3065 14.442 72.4625 15.234 72.4625 16.158V16.428H65.6225V15.474H71.6345L71.1665 16.14C71.1905 15.084 70.9805 14.274 70.5365 13.71C70.1045 13.146 69.4685 12.864 68.6285 12.864C67.7525 12.864 67.0625 13.176 66.5585 13.8C66.0665 14.412 65.8205 15.264 65.8205 16.356C65.8205 17.532 66.0785 18.42 66.5945 19.02C67.1225 19.62 67.8905 19.92 68.8985 19.92C69.4265 19.92 69.9305 19.836 70.4105 19.668C70.9025 19.488 71.3705 19.218 71.8145 18.858L72.3005 19.92ZM74.6755 24.888V14.484C74.6755 14.064 74.6635 13.644 74.6395 13.224C74.6275 12.792 74.5915 12.366 74.5315 11.946H75.9175L76.0795 13.818L75.9355 14.088C76.1395 13.332 76.5295 12.75 77.1055 12.342C77.6815 11.934 78.3775 11.73 79.1935 11.73C79.9855 11.73 80.6815 11.928 81.2815 12.324C81.8935 12.72 82.3675 13.272 82.7035 13.98C83.0515 14.688 83.2255 15.516 83.2255 16.464C83.2255 17.412 83.0515 18.24 82.7035 18.948C82.3675 19.644 81.8995 20.184 81.2995 20.568C80.6995 20.94 79.9975 21.126 79.1935 21.126C78.3775 21.126 77.6815 20.922 77.1055 20.514C76.5295 20.106 76.1395 19.524 75.9355 18.768L76.1335 18.588V24.888H74.6755ZM78.9235 19.92C79.7995 19.92 80.4835 19.62 80.9755 19.02C81.4675 18.42 81.7135 17.568 81.7135 16.464C81.7135 15.36 81.4675 14.502 80.9755 13.89C80.4835 13.266 79.7995 12.954 78.9235 12.954C78.0235 12.954 77.3335 13.254 76.8535 13.854C76.3735 14.454 76.1335 15.312 76.1335 16.428C76.1335 17.544 76.3735 18.408 76.8535 19.02C77.3335 19.62 78.0235 19.92 78.9235 19.92ZM89.2125 21.126C88.3485 21.126 87.5925 20.934 86.9445 20.55C86.3085 20.166 85.8105 19.626 85.4505 18.93C85.1025 18.222 84.9285 17.388 84.9285 16.428C84.9285 15.48 85.1025 14.652 85.4505 13.944C85.8105 13.236 86.3085 12.69 86.9445 12.306C87.5925 11.922 88.3485 11.73 89.2125 11.73C90.0765 11.73 90.8265 11.922 91.4625 12.306C92.1105 12.69 92.6085 13.236 92.9565 13.944C93.3165 14.652 93.4965 15.48 93.4965 16.428C93.4965 17.388 93.3165 18.222 92.9565 18.93C92.6085 19.626 92.1105 20.166 91.4625 20.55C90.8265 20.934 90.0765 21.126 89.2125 21.126ZM89.2125 19.92C90.1005 19.92 90.7845 19.626 91.2645 19.038C91.7565 18.438 92.0025 17.568 92.0025 16.428C92.0025 15.312 91.7565 14.454 91.2645 13.854C90.7725 13.254 90.0885 12.954 89.2125 12.954C88.3365 12.954 87.6465 13.254 87.1425 13.854C86.6505 14.454 86.4045 15.312 86.4045 16.428C86.4045 17.568 86.6445 18.438 87.1245 19.038C87.6165 19.626 88.3125 19.92 89.2125 19.92ZM95.7692 21V14.484C95.7692 14.064 95.7572 13.644 95.7332 13.224C95.7212 12.792 95.6852 12.366 95.6252 11.946H97.0112L97.2092 14.178L97.0112 14.124C97.1792 13.332 97.5392 12.738 98.0912 12.342C98.6552 11.934 99.2852 11.73 99.9812 11.73C100.137 11.73 100.281 11.742 100.413 11.766C100.557 11.778 100.689 11.802 100.809 11.838L100.773 13.17C100.497 13.074 100.179 13.026 99.8192 13.026C99.1952 13.026 98.6912 13.164 98.3072 13.44C97.9352 13.716 97.6592 14.07 97.4792 14.502C97.3112 14.922 97.2272 15.366 97.2272 15.834V21H95.7692ZM101.733 13.098V11.946H107.547V13.098H101.733ZM107.511 19.704V20.946C107.307 21.006 107.103 21.048 106.899 21.072C106.707 21.108 106.491 21.126 106.251 21.126C105.411 21.126 104.739 20.886 104.235 20.406C103.743 19.926 103.497 19.206 103.497 18.246V9.624L104.955 9.102V18.048C104.955 18.528 105.021 18.9 105.153 19.164C105.297 19.428 105.489 19.614 105.729 19.722C105.969 19.818 106.239 19.866 106.539 19.866C106.719 19.866 106.881 19.854 107.025 19.83C107.169 19.806 107.331 19.764 107.511 19.704ZM118.228 21L112.63 8.184H114.196L119.182 19.812H118.588L123.592 8.184H125.122L119.524 21H118.228ZM129.273 21.126C128.409 21.126 127.653 20.934 127.005 20.55C126.369 20.166 125.871 19.626 125.511 18.93C125.163 18.222 124.989 17.388 124.989 16.428C124.989 15.48 125.163 14.652 125.511 13.944C125.871 13.236 126.369 12.69 127.005 12.306C127.653 11.922 128.409 11.73 129.273 11.73C130.137 11.73 130.887 11.922 131.523 12.306C132.171 12.69 132.669 13.236 133.017 13.944C133.377 14.652 133.557 15.48 133.557 16.428C133.557 17.388 133.377 18.222 133.017 18.93C132.669 19.626 132.171 20.166 131.523 20.55C130.887 20.934 130.137 21.126 129.273 21.126ZM129.273 19.92C130.161 19.92 130.845 19.626 131.325 19.038C131.817 18.438 132.063 17.568 132.063 16.428C132.063 15.312 131.817 14.454 131.325 13.854C130.833 13.254 130.149 12.954 129.273 12.954C128.397 12.954 127.707 13.254 127.203 13.854C126.711 14.454 126.465 15.312 126.465 16.428C126.465 17.568 126.705 18.438 127.185 19.038C127.677 19.626 128.373 19.92 129.273 19.92ZM135.83 21V7.752H137.288V21H135.83ZM143.323 21.126C142.243 21.126 141.427 20.826 140.875 20.226C140.335 19.626 140.065 18.738 140.065 17.562V11.946H141.523V17.526C141.523 18.342 141.691 18.942 142.027 19.326C142.363 19.71 142.873 19.902 143.557 19.902C144.361 19.902 145.009 19.644 145.501 19.128C145.993 18.612 146.239 17.922 146.239 17.058V11.946H147.697V21H146.275V19.038L146.491 18.93C146.251 19.65 145.843 20.196 145.267 20.568C144.703 20.94 144.055 21.126 143.323 21.126ZM150.508 21V14.484C150.508 14.064 150.496 13.644 150.472 13.224C150.46 12.792 150.424 12.366 150.364 11.946H151.75L151.912 13.818L151.732 13.962C151.984 13.23 152.404 12.678 152.992 12.306C153.58 11.922 154.258 11.73 155.026 11.73C157.198 11.73 158.284 12.924 158.284 15.312V21H156.826V15.384C156.826 14.544 156.658 13.932 156.322 13.548C155.986 13.152 155.458 12.954 154.738 12.954C153.898 12.954 153.226 13.212 152.722 13.728C152.218 14.244 151.966 14.94 151.966 15.816V21H150.508ZM159.759 13.098V11.946H165.573V13.098H159.759ZM165.537 19.704V20.946C165.333 21.006 165.129 21.048 164.925 21.072C164.733 21.108 164.517 21.126 164.277 21.126C163.437 21.126 162.765 20.886 162.261 20.406C161.769 19.926 161.523 19.206 161.523 18.246V9.624L162.981 9.102V18.048C162.981 18.528 163.047 18.9 163.179 19.164C163.323 19.428 163.515 19.614 163.755 19.722C163.995 19.818 164.265 19.866 164.565 19.866C164.745 19.866 164.907 19.854 165.051 19.83C165.195 19.806 165.357 19.764 165.537 19.704ZM174.746 19.92C174.35 20.292 173.84 20.586 173.216 20.802C172.604 21.018 171.974 21.126 171.326 21.126C170.39 21.126 169.58 20.94 168.896 20.568C168.224 20.196 167.702 19.662 167.33 18.966C166.97 18.258 166.79 17.418 166.79 16.446C166.79 15.51 166.97 14.688 167.33 13.98C167.69 13.272 168.188 12.72 168.824 12.324C169.472 11.928 170.216 11.73 171.056 11.73C171.86 11.73 172.55 11.91 173.126 12.27C173.702 12.618 174.14 13.122 174.44 13.782C174.752 14.442 174.908 15.234 174.908 16.158V16.428H168.068V15.474H174.08L173.612 16.14C173.636 15.084 173.426 14.274 172.982 13.71C172.55 13.146 171.914 12.864 171.074 12.864C170.198 12.864 169.508 13.176 169.004 13.8C168.512 14.412 168.266 15.264 168.266 16.356C168.266 17.532 168.524 18.42 169.04 19.02C169.568 19.62 170.336 19.92 171.344 19.92C171.872 19.92 172.376 19.836 172.856 19.668C173.348 19.488 173.816 19.218 174.26 18.858L174.746 19.92ZM184.537 19.92C184.141 20.292 183.631 20.586 183.007 20.802C182.395 21.018 181.765 21.126 181.117 21.126C180.181 21.126 179.371 20.94 178.687 20.568C178.015 20.196 177.493 19.662 177.121 18.966C176.761 18.258 176.581 17.418 176.581 16.446C176.581 15.51 176.761 14.688 177.121 13.98C177.481 13.272 177.979 12.72 178.615 12.324C179.263 11.928 180.007 11.73 180.847 11.73C181.651 11.73 182.341 11.91 182.917 12.27C183.493 12.618 183.931 13.122 184.231 13.782C184.543 14.442 184.699 15.234 184.699 16.158V16.428H177.859V15.474H183.871L183.403 16.14C183.427 15.084 183.217 14.274 182.773 13.71C182.341 13.146 181.705 12.864 180.865 12.864C179.989 12.864 179.299 13.176 178.795 13.8C178.303 14.412 178.057 15.264 178.057 16.356C178.057 17.532 178.315 18.42 178.831 19.02C179.359 19.62 180.127 19.92 181.135 19.92C181.663 19.92 182.167 19.836 182.647 19.668C183.139 19.488 183.607 19.218 184.051 18.858L184.537 19.92ZM186.912 21V14.484C186.912 14.064 186.9 13.644 186.876 13.224C186.864 12.792 186.828 12.366 186.768 11.946H188.154L188.352 14.178L188.154 14.124C188.322 13.332 188.682 12.738 189.234 12.342C189.798 11.934 190.428 11.73 191.124 11.73C191.28 11.73 191.424 11.742 191.556 11.766C191.7 11.778 191.832 11.802 191.952 11.838L191.916 13.17C191.64 13.074 191.322 13.026 190.962 13.026C190.338 13.026 189.834 13.164 189.45 13.44C189.078 13.716 188.802 14.07 188.622 14.502C188.454 14.922 188.37 15.366 188.37 15.834V21H186.912Z" fill="#B00101"/>
<g clip-path="url(#clip1)">
<path d="M29.6403 24.3977L17.4563 2.76877C16.4174 0.87981 13.5839 0.87981 12.5449 2.76877L0.360915 24.3977C-0.678002 26.2867 0.644286 28.648 2.81662 28.648H27.0902C29.3569 28.5535 30.6792 26.2867 29.6403 24.3977Z" fill="#E24C4B"/>
<path d="M15.0004 4.18555L27.1844 25.8145H2.81641L15.0004 4.18555Z" fill="white"/>
<path d="M13.0169 14.1027L13.7725 19.1086C13.867 19.6752 14.3392 20.1475 15.0004 20.1475C15.5671 20.1475 16.1338 19.6752 16.2283 19.1086L16.9839 14.1027C17.1727 12.8749 16.2283 11.8359 15.0004 11.8359C13.7725 11.8359 12.9224 12.8749 13.0169 14.1027Z" fill="#3F4448"/>
<path d="M15.0006 23.4534C15.6266 23.4534 16.134 22.9459 16.134 22.3199C16.134 21.694 15.6266 21.1865 15.0006 21.1865C14.3746 21.1865 13.8672 21.694 13.8672 22.3199C13.8672 22.9459 14.3746 23.4534 15.0006 23.4534Z" fill="#3F4448"/>
</g>
</g>
<defs>
<filter id="filter0_dd" x="-53" y="-252" width="299" height="316" filterUnits="userSpaceOnUse" color-interpolation-filters="sRGB">
<feFlood flood-opacity="0" result="BackgroundImageFix"/>
<feColorMatrix in="SourceAlpha" type="matrix" values="0 0 0 0 0 0 0 0 0 0 0 0 0 0 0 0 0 0 127 0"/>
<feOffset dy="1"/>
<feGaussianBlur stdDeviation="1"/>
<feColorMatrix type="matrix" values="0 0 0 0 0 0 0 0 0 0 0 0 0 0 0 0 0 0 0.3 0"/>
<feBlend mode="normal" in2="BackgroundImageFix" result="effect1_dropShadow"/>
<feColorMatrix in="SourceAlpha" type="matrix" values="0 0 0 0 0 0 0 0 0 0 0 0 0 0 0 0 0 0 127 0"/>
<feOffset dy="2"/>
<feGaussianBlur stdDeviation="4"/>
<feColorMatrix type="matrix" values="0 0 0 0 0 0 0 0 0 0 0 0 0 0 0 0 0 0 0.05 0"/>
<feBlend mode="normal" in2="effect1_dropShadow" result="effect2_dropShadow"/>
<feBlend mode="normal" in="SourceGraphic" in2="effect2_dropShadow" result="shape"/>
</filter>
<clipPath id="clip0">
<rect width="1440" height="3774" fill="white" transform="translate(-166 -2224)"/>
</clipPath>
<clipPath id="clip1">
<rect width="30" height="30" fill="white"/>
</clipPath>
</defs>
</svg>
