<svg width="256" height="30" viewBox="0 0 256 30" fill="none" xmlns="http://www.w3.org/2000/svg">
<rect width="256" height="30" fill="#E5E5E5"/>
<g clip-path="url(#clip0)">
<rect width="1440" height="4373" transform="translate(-1074 -347)" fill="white"/>
<g filter="url(#filter0_d)">
<rect x="-964" y="46" width="1220" height="495" fill="white"/>
</g>
<path d="M52.584 21V8.184H57.678C59.058 8.184 60.114 8.49 60.846 9.102C61.59 9.714 61.962 10.596 61.962 11.748C61.962 12.852 61.584 13.722 60.828 14.358C60.084 14.982 59.034 15.294 57.678 15.294L59.01 15.042C59.478 15.042 59.88 15.174 60.216 15.438C60.552 15.69 60.822 16.098 61.026 16.662L62.646 21H61.08L59.496 16.734C59.292 16.194 59.01 15.84 58.65 15.672C58.302 15.492 57.834 15.402 57.246 15.402H54.042V21H52.584ZM54.042 14.178H57.552C58.548 14.178 59.286 13.974 59.766 13.566C60.258 13.158 60.504 12.558 60.504 11.766C60.504 10.974 60.264 10.386 59.784 10.002C59.304 9.606 58.56 9.408 57.552 9.408H54.042V14.178ZM72.3005 19.92C71.9045 20.292 71.3945 20.586 70.7705 20.802C70.1585 21.018 69.5285 21.126 68.8805 21.126C67.9445 21.126 67.1345 20.94 66.4505 20.568C65.7785 20.196 65.2565 19.662 64.8845 18.966C64.5245 18.258 64.3445 17.418 64.3445 16.446C64.3445 15.51 64.5245 14.688 64.8845 13.98C65.2445 13.272 65.7425 12.72 66.3785 12.324C67.0265 11.928 67.7705 11.73 68.6105 11.73C69.4145 11.73 70.1045 11.91 70.6805 12.27C71.2565 12.618 71.6945 13.122 71.9945 13.782C72.3065 14.442 72.4625 15.234 72.4625 16.158V16.428H65.6225V15.474H71.6345L71.1665 16.14C71.1905 15.084 70.9805 14.274 70.5365 13.71C70.1045 13.146 69.4685 12.864 68.6285 12.864C67.7525 12.864 67.0625 13.176 66.5585 13.8C66.0665 14.412 65.8205 15.264 65.8205 16.356C65.8205 17.532 66.0785 18.42 66.5945 19.02C67.1225 19.62 67.8905 19.92 68.8985 19.92C69.4265 19.92 69.9305 19.836 70.4105 19.668C70.9025 19.488 71.3705 19.218 71.8145 18.858L72.3005 19.92ZM74.6755 24.888V14.484C74.6755 14.064 74.6635 13.644 74.6395 13.224C74.6275 12.792 74.5915 12.366 74.5315 11.946H75.9175L76.0795 13.818L75.9355 14.088C76.1395 13.332 76.5295 12.75 77.1055 12.342C77.6815 11.934 78.3775 11.73 79.1935 11.73C79.9855 11.73 80.6815 11.928 81.2815 12.324C81.8935 12.72 82.3675 13.272 82.7035 13.98C83.0515 14.688 83.2255 15.516 83.2255 16.464C83.2255 17.412 83.0515 18.24 82.7035 18.948C82.3675 19.644 81.8995 20.184 81.2995 20.568C80.6995 20.94 79.9975 21.126 79.1935 21.126C78.3775 21.126 77.6815 20.922 77.1055 20.514C76.5295 20.106 76.1395 19.524 75.9355 18.768L76.1335 18.588V24.888H74.6755ZM78.9235 19.92C79.7995 19.92 80.4835 19.62 80.9755 19.02C81.4675 18.42 81.7135 17.568 81.7135 16.464C81.7135 15.36 81.4675 14.502 80.9755 13.89C80.4835 13.266 79.7995 12.954 78.9235 12.954C78.0235 12.954 77.3335 13.254 76.8535 13.854C76.3735 14.454 76.1335 15.312 76.1335 16.428C76.1335 17.544 76.3735 18.408 76.8535 19.02C77.3335 19.62 78.0235 19.92 78.9235 19.92ZM89.2125 21.126C88.3485 21.126 87.5925 20.934 86.9445 20.55C86.3085 20.166 85.8105 19.626 85.4505 18.93C85.1025 18.222 84.9285 17.388 84.9285 16.428C84.9285 15.48 85.1025 14.652 85.4505 13.944C85.8105 13.236 86.3085 12.69 86.9445 12.306C87.5925 11.922 88.3485 11.73 89.2125 11.73C90.0765 11.73 90.8265 11.922 91.4625 12.306C92.1105 12.69 92.6085 13.236 92.9565 13.944C93.3165 14.652 93.4965 15.48 93.4965 16.428C93.4965 17.388 93.3165 18.222 92.9565 18.93C92.6085 19.626 92.1105 20.166 91.4625 20.55C90.8265 20.934 90.0765 21.126 89.2125 21.126ZM89.2125 19.92C90.1005 19.92 90.7845 19.626 91.2645 19.038C91.7565 18.438 92.0025 17.568 92.0025 16.428C92.0025 15.312 91.7565 14.454 91.2645 13.854C90.7725 13.254 90.0885 12.954 89.2125 12.954C88.3365 12.954 87.6465 13.254 87.1425 13.854C86.6505 14.454 86.4045 15.312 86.4045 16.428C86.4045 17.568 86.6445 18.438 87.1245 19.038C87.6165 19.626 88.3125 19.92 89.2125 19.92ZM95.7692 21V14.484C95.7692 14.064 95.7572 13.644 95.7332 13.224C95.7212 12.792 95.6852 12.366 95.6252 11.946H97.0112L97.2092 14.178L97.0112 14.124C97.1792 13.332 97.5392 12.738 98.0912 12.342C98.6552 11.934 99.2852 11.73 99.9812 11.73C100.137 11.73 100.281 11.742 100.413 11.766C100.557 11.778 100.689 11.802 100.809 11.838L100.773 13.17C100.497 13.074 100.179 13.026 99.8192 13.026C99.1952 13.026 98.6912 13.164 98.3072 13.44C97.9352 13.716 97.6592 14.07 97.4792 14.502C97.3112 14.922 97.2272 15.366 97.2272 15.834V21H95.7692ZM101.733 13.098V11.946H107.547V13.098H101.733ZM107.511 19.704V20.946C107.307 21.006 107.103 21.048 106.899 21.072C106.707 21.108 106.491 21.126 106.251 21.126C105.411 21.126 104.739 20.886 104.235 20.406C103.743 19.926 103.497 19.206 103.497 18.246V9.624L104.955 9.102V18.048C104.955 18.528 105.021 18.9 105.153 19.164C105.297 19.428 105.489 19.614 105.729 19.722C105.969 19.818 106.239 19.866 106.539 19.866C106.719 19.866 106.881 19.854 107.025 19.83C107.169 19.806 107.331 19.764 107.511 19.704ZM112.72 13.098V11.946H118.534V13.098H112.72ZM118.498 19.704V20.946C118.294 21.006 118.09 21.048 117.886 21.072C117.694 21.108 117.478 21.126 117.238 21.126C116.398 21.126 115.726 20.886 115.222 20.406C114.73 19.926 114.484 19.206 114.484 18.246V9.624L115.942 9.102V18.048C115.942 18.528 116.008 18.9 116.14 19.164C116.284 19.428 116.476 19.614 116.716 19.722C116.956 19.818 117.226 19.866 117.526 19.866C117.706 19.866 117.868 19.854 118.012 19.83C118.156 19.806 118.318 19.764 118.498 19.704ZM120.291 21V7.752H121.749V13.782L121.515 13.962C121.767 13.23 122.187 12.678 122.775 12.306C123.363 11.922 124.041 11.73 124.809 11.73C126.981 11.73 128.067 12.924 128.067 15.312V21H126.609V15.384C126.609 14.544 126.441 13.932 126.105 13.548C125.769 13.152 125.241 12.954 124.521 12.954C123.681 12.954 123.009 13.212 122.505 13.728C122.001 14.244 121.749 14.94 121.749 15.816V21H120.291ZM130.82 21V11.946H132.278V21H130.82ZM130.676 8.112H132.458V9.768H130.676V8.112ZM138.169 21.126C136.645 21.126 135.439 20.736 134.551 19.956L135.037 18.876C135.517 19.248 136.009 19.524 136.513 19.704C137.029 19.872 137.599 19.956 138.223 19.956C138.907 19.956 139.423 19.842 139.771 19.614C140.131 19.374 140.311 19.032 140.311 18.588C140.311 18.228 140.191 17.946 139.951 17.742C139.711 17.526 139.315 17.352 138.763 17.22L137.233 16.86C136.477 16.692 135.889 16.392 135.469 15.96C135.061 15.528 134.857 15.012 134.857 14.412C134.857 13.884 135.001 13.422 135.289 13.026C135.577 12.618 135.979 12.3 136.495 12.072C137.011 11.844 137.623 11.73 138.331 11.73C138.967 11.73 139.567 11.832 140.131 12.036C140.695 12.24 141.169 12.534 141.553 12.918L141.067 13.98C140.635 13.62 140.191 13.356 139.735 13.188C139.291 13.008 138.823 12.918 138.331 12.918C137.683 12.918 137.179 13.044 136.819 13.296C136.471 13.548 136.297 13.89 136.297 14.322C136.297 14.694 136.405 14.988 136.621 15.204C136.849 15.42 137.209 15.588 137.701 15.708L139.231 16.086C140.083 16.266 140.707 16.566 141.103 16.986C141.511 17.394 141.715 17.916 141.715 18.552C141.715 19.332 141.397 19.956 140.761 20.424C140.125 20.892 139.261 21.126 138.169 21.126ZM154.276 21.144C153.076 21.144 152.038 20.88 151.162 20.352C150.298 19.824 149.626 19.068 149.146 18.084C148.678 17.1 148.444 15.936 148.444 14.592C148.444 13.236 148.678 12.072 149.146 11.1C149.614 10.116 150.28 9.36 151.144 8.832C152.02 8.304 153.064 8.04 154.276 8.04C155.476 8.04 156.514 8.304 157.39 8.832C158.266 9.36 158.938 10.116 159.406 11.1C159.874 12.072 160.108 13.23 160.108 14.574C160.108 15.93 159.868 17.1 159.388 18.084C158.92 19.068 158.248 19.824 157.372 20.352C156.508 20.88 155.476 21.144 154.276 21.144ZM154.276 19.884C155.632 19.884 156.688 19.428 157.444 18.516C158.2 17.592 158.578 16.278 158.578 14.574C158.578 12.87 158.2 11.568 157.444 10.668C156.688 9.756 155.632 9.3 154.276 9.3C152.92 9.3 151.858 9.756 151.09 10.668C150.334 11.58 149.956 12.882 149.956 14.574C149.956 16.266 150.334 17.574 151.09 18.498C151.858 19.422 152.92 19.884 154.276 19.884ZM162.636 21V14.484C162.636 14.064 162.624 13.644 162.6 13.224C162.588 12.792 162.552 12.366 162.492 11.946H163.878L164.076 14.178L163.878 14.124C164.046 13.332 164.406 12.738 164.958 12.342C165.522 11.934 166.152 11.73 166.848 11.73C167.004 11.73 167.148 11.742 167.28 11.766C167.424 11.778 167.556 11.802 167.676 11.838L167.64 13.17C167.364 13.074 167.046 13.026 166.686 13.026C166.062 13.026 165.558 13.164 165.174 13.44C164.802 13.716 164.526 14.07 164.346 14.502C164.178 14.922 164.094 15.366 164.094 15.834V21H162.636ZM172.96 25.014C171.592 25.014 170.404 24.702 169.396 24.078L169.648 22.89C170.212 23.214 170.746 23.448 171.25 23.592C171.754 23.736 172.324 23.808 172.96 23.808C173.824 23.808 174.478 23.574 174.922 23.106C175.378 22.65 175.606 21.966 175.606 21.054V18.606L175.804 18.372C175.66 18.852 175.432 19.272 175.12 19.632C174.82 19.98 174.448 20.25 174.004 20.442C173.56 20.634 173.056 20.73 172.492 20.73C171.688 20.73 170.98 20.544 170.368 20.172C169.768 19.788 169.294 19.26 168.946 18.588C168.61 17.916 168.442 17.13 168.442 16.23C168.442 15.33 168.61 14.544 168.946 13.872C169.294 13.2 169.768 12.678 170.368 12.306C170.98 11.922 171.688 11.73 172.492 11.73C173.332 11.73 174.04 11.94 174.616 12.36C175.204 12.768 175.6 13.344 175.804 14.088L175.588 13.89V11.946H177.046V20.928C177.046 22.284 176.698 23.304 176.002 23.988C175.318 24.672 174.304 25.014 172.96 25.014ZM172.78 19.506C173.656 19.506 174.34 19.218 174.832 18.642C175.336 18.054 175.588 17.25 175.588 16.23C175.588 15.21 175.336 14.412 174.832 13.836C174.34 13.248 173.656 12.954 172.78 12.954C171.892 12.954 171.19 13.248 170.674 13.836C170.17 14.412 169.918 15.21 169.918 16.23C169.918 17.262 170.17 18.066 170.674 18.642C171.19 19.218 171.892 19.506 172.78 19.506ZM183.319 21.126C182.515 21.126 181.807 20.94 181.195 20.568C180.595 20.184 180.127 19.644 179.791 18.948C179.467 18.24 179.305 17.412 179.305 16.464C179.305 15.516 179.473 14.688 179.809 13.98C180.145 13.272 180.613 12.72 181.213 12.324C181.825 11.928 182.527 11.73 183.319 11.73C184.147 11.73 184.849 11.934 185.425 12.342C186.001 12.75 186.391 13.332 186.595 14.088L186.379 14.232V11.946H187.819V21H186.379V18.66L186.595 18.768C186.391 19.524 186.001 20.106 185.425 20.514C184.849 20.922 184.147 21.126 183.319 21.126ZM183.607 19.92C184.495 19.92 185.179 19.62 185.659 19.02C186.139 18.408 186.379 17.544 186.379 16.428C186.379 15.312 186.133 14.454 185.641 13.854C185.161 13.254 184.483 12.954 183.607 12.954C182.719 12.954 182.023 13.266 181.519 13.89C181.027 14.502 180.781 15.36 180.781 16.464C180.781 17.568 181.027 18.42 181.519 19.02C182.023 19.62 182.719 19.92 183.607 19.92ZM190.638 21V14.484C190.638 14.064 190.626 13.644 190.602 13.224C190.59 12.792 190.554 12.366 190.494 11.946H191.88L192.042 13.818L191.862 13.962C192.114 13.23 192.534 12.678 193.122 12.306C193.71 11.922 194.388 11.73 195.156 11.73C197.328 11.73 198.414 12.924 198.414 15.312V21H196.956V15.384C196.956 14.544 196.788 13.932 196.452 13.548C196.116 13.152 195.588 12.954 194.868 12.954C194.028 12.954 193.356 13.212 192.852 13.728C192.348 14.244 192.096 14.94 192.096 15.816V21H190.638ZM201.168 21V11.946H202.626V21H201.168ZM201.024 8.112H202.806V9.768H201.024V8.112ZM208.517 21.126C206.993 21.126 205.787 20.736 204.899 19.956L205.385 18.876C205.865 19.248 206.357 19.524 206.861 19.704C207.377 19.872 207.947 19.956 208.571 19.956C209.255 19.956 209.771 19.842 210.119 19.614C210.479 19.374 210.659 19.032 210.659 18.588C210.659 18.228 210.539 17.946 210.299 17.742C210.059 17.526 209.663 17.352 209.111 17.22L207.581 16.86C206.825 16.692 206.237 16.392 205.817 15.96C205.409 15.528 205.205 15.012 205.205 14.412C205.205 13.884 205.349 13.422 205.637 13.026C205.925 12.618 206.327 12.3 206.843 12.072C207.359 11.844 207.971 11.73 208.679 11.73C209.315 11.73 209.915 11.832 210.479 12.036C211.043 12.24 211.517 12.534 211.901 12.918L211.415 13.98C210.983 13.62 210.539 13.356 210.083 13.188C209.639 13.008 209.171 12.918 208.679 12.918C208.031 12.918 207.527 13.044 207.167 13.296C206.819 13.548 206.645 13.89 206.645 14.322C206.645 14.694 206.753 14.988 206.969 15.204C207.197 15.42 207.557 15.588 208.049 15.708L209.579 16.086C210.431 16.266 211.055 16.566 211.451 16.986C211.859 17.394 212.063 17.916 212.063 18.552C212.063 19.332 211.745 19.956 211.109 20.424C210.473 20.892 209.609 21.126 208.517 21.126ZM217.86 21.126C217.056 21.126 216.348 20.94 215.736 20.568C215.136 20.184 214.668 19.644 214.332 18.948C214.008 18.24 213.846 17.412 213.846 16.464C213.846 15.516 214.014 14.688 214.35 13.98C214.686 13.272 215.154 12.72 215.754 12.324C216.366 11.928 217.068 11.73 217.86 11.73C218.688 11.73 219.39 11.934 219.966 12.342C220.542 12.75 220.932 13.332 221.136 14.088L220.92 14.232V11.946H222.36V21H220.92V18.66L221.136 18.768C220.932 19.524 220.542 20.106 219.966 20.514C219.39 20.922 218.688 21.126 217.86 21.126ZM218.148 19.92C219.036 19.92 219.72 19.62 220.2 19.02C220.68 18.408 220.92 17.544 220.92 16.428C220.92 15.312 220.674 14.454 220.182 13.854C219.702 13.254 219.024 12.954 218.148 12.954C217.26 12.954 216.564 13.266 216.06 13.89C215.568 14.502 215.322 15.36 215.322 16.464C215.322 17.568 215.568 18.42 216.06 19.02C216.564 19.62 217.26 19.92 218.148 19.92ZM223.901 13.098V11.946H229.715V13.098H223.901ZM229.679 19.704V20.946C229.475 21.006 229.271 21.048 229.067 21.072C228.875 21.108 228.659 21.126 228.419 21.126C227.579 21.126 226.907 20.886 226.403 20.406C225.911 19.926 225.665 19.206 225.665 18.246V9.624L227.123 9.102V18.048C227.123 18.528 227.189 18.9 227.321 19.164C227.465 19.428 227.657 19.614 227.897 19.722C228.137 19.818 228.407 19.866 228.707 19.866C228.887 19.866 229.049 19.854 229.193 19.83C229.337 19.806 229.499 19.764 229.679 19.704ZM231.472 21V11.946H232.93V21H231.472ZM231.328 8.112H233.11V9.768H231.328V8.112ZM239.505 21.126C238.641 21.126 237.885 20.934 237.237 20.55C236.601 20.166 236.103 19.626 235.743 18.93C235.395 18.222 235.221 17.388 235.221 16.428C235.221 15.48 235.395 14.652 235.743 13.944C236.103 13.236 236.601 12.69 237.237 12.306C237.885 11.922 238.641 11.73 239.505 11.73C240.369 11.73 241.119 11.922 241.755 12.306C242.403 12.69 242.901 13.236 243.249 13.944C243.609 14.652 243.789 15.48 243.789 16.428C243.789 17.388 243.609 18.222 243.249 18.93C242.901 19.626 242.403 20.166 241.755 20.55C241.119 20.934 240.369 21.126 239.505 21.126ZM239.505 19.92C240.393 19.92 241.077 19.626 241.557 19.038C242.049 18.438 242.295 17.568 242.295 16.428C242.295 15.312 242.049 14.454 241.557 13.854C241.065 13.254 240.381 12.954 239.505 12.954C238.629 12.954 237.939 13.254 237.435 13.854C236.943 14.454 236.697 15.312 236.697 16.428C236.697 17.568 236.937 18.438 237.417 19.038C237.909 19.626 238.605 19.92 239.505 19.92ZM246.062 21V14.484C246.062 14.064 246.05 13.644 246.026 13.224C246.014 12.792 245.978 12.366 245.918 11.946H247.304L247.466 13.818L247.286 13.962C247.538 13.23 247.958 12.678 248.546 12.306C249.134 11.922 249.812 11.73 250.58 11.73C252.752 11.73 253.838 12.924 253.838 15.312V21H252.38V15.384C252.38 14.544 252.212 13.932 251.876 13.548C251.54 13.152 251.012 12.954 250.292 12.954C249.452 12.954 248.78 13.212 248.276 13.728C247.772 14.244 247.52 14.94 247.52 15.816V21H246.062Z" fill="#B00101"/>
<g clip-path="url(#clip1)">
<path d="M29.6408 24.3977L17.4568 2.76876C16.4179 0.879795 13.5843 0.879795 12.5454 2.76876L0.361403 24.3977C-0.677513 26.2867 0.644774 28.648 2.81711 28.648H27.0907C29.3574 28.5535 30.6797 26.2867 29.6408 24.3977Z" fill="#E24C4B"/>
<path d="M15.0004 4.18548L27.1844 25.8144H2.81641L15.0004 4.18548Z" fill="white"/>
<path d="M13.0169 14.1027L13.7725 19.1086C13.867 19.6753 14.3392 20.1475 15.0004 20.1475C15.5671 20.1475 16.1338 19.6753 16.2283 19.1086L16.9839 14.1027C17.1727 12.8749 16.2283 11.836 15.0004 11.836C13.7725 11.8359 12.9224 12.8749 13.0169 14.1027Z" fill="#3F4448"/>
<path d="M15.0001 23.4533C15.6261 23.4533 16.1335 22.9458 16.1335 22.3198C16.1335 21.6939 15.6261 21.1864 15.0001 21.1864C14.3741 21.1864 13.8667 21.6939 13.8667 22.3198C13.8667 22.9458 14.3741 23.4533 15.0001 23.4533Z" fill="#3F4448"/>
</g>
</g>
<defs>
<filter id="filter0_d" x="-984" y="27" width="1260" height="535" filterUnits="userSpaceOnUse" color-interpolation-filters="sRGB">
<feFlood flood-opacity="0" result="BackgroundImageFix"/>
<feColorMatrix in="SourceAlpha" type="matrix" values="0 0 0 0 0 0 0 0 0 0 0 0 0 0 0 0 0 0 127 0"/>
<feOffset dy="1"/>
<feGaussianBlur stdDeviation="10"/>
<feColorMatrix type="matrix" values="0 0 0 0 0 0 0 0 0 0 0 0 0 0 0 0 0 0 0.05 0"/>
<feBlend mode="normal" in2="BackgroundImageFix" result="effect1_dropShadow"/>
<feBlend mode="normal" in="SourceGraphic" in2="effect1_dropShadow" result="shape"/>
</filter>
<clipPath id="clip0">
<rect width="1440" height="4373" fill="white" transform="translate(-1074 -347)"/>
</clipPath>
<clipPath id="clip1">
<rect width="30" height="30" fill="white"/>
</clipPath>
</defs>
</svg>
