<svg width="376" height="275" viewBox="0 0 376 275" fill="none" xmlns="http://www.w3.org/2000/svg">
<g clip-path="url(#clip0)">
<path opacity="0.18" d="M1.59479 196.474C-0.47256 171.472 -2.32896 145.145 8.26939 122.412C14.2689 109.544 23.8716 98.7852 31.9638 87.1153C41.7014 73.0994 49.338 57.6829 59.4469 43.9118C69.5558 30.1407 82.7869 17.7535 99.2582 13.2391C133.078 3.95707 168.401 30.1154 202.811 23.3649C218.068 20.3693 231.307 11.197 245.846 5.6447C261.263 -0.262016 278.603 -2.03403 294.391 2.80104C310.179 7.63611 324.102 19.5677 329.392 35.2036C335.434 53.0419 330.025 72.9391 334.455 91.2415C338.953 109.932 353.019 124.614 362.301 141.449C372.868 160.728 377.201 182.808 374.705 204.651C373.398 215.789 370.166 227.012 363.255 235.872C355.72 245.517 344.497 251.525 333.249 256.351C286.891 276.091 235.392 280.307 186.441 268.367C169.008 264.064 151.912 257.718 133.998 256.554C115.932 255.364 98.0009 259.516 79.9939 261.566C62.5943 263.557 36.8157 263.895 21.4751 253.854C4.95319 242.977 3.04616 213.907 1.59479 196.474Z" fill="#0072A3"/>
<path d="M86.7867 130.834C86.9866 130.77 87.1975 130.748 87.4064 130.768C87.6153 130.788 87.8179 130.851 88.0018 130.952C88.2376 131.177 88.392 131.474 88.4405 131.796C88.7463 132.977 88.9189 134.188 88.9553 135.408C89.0057 135.939 88.9246 136.476 88.719 136.969C88.4235 137.474 88.0094 137.9 87.5123 138.209C81.4571 142.676 75.1023 146.722 68.4927 150.318C68.2143 150.47 65.6828 141.88 65.6406 141.036C65.5056 138.774 66.2228 137.753 68.1721 136.732C73.7497 133.847 80.6774 132.007 86.7867 130.834Z" fill="#0072A3"/>
<path d="M86.7867 130.901C86.9863 130.835 87.1974 130.812 87.4067 130.832C87.6159 130.853 87.8186 130.916 88.0018 131.02C88.2376 131.244 88.392 131.541 88.4405 131.863C88.7463 133.044 88.9189 134.256 88.9553 135.475C89.005 136.007 88.9239 136.543 88.719 137.036C88.423 137.539 88.0088 137.962 87.5123 138.268C81.4593 142.741 75.1043 146.789 68.4927 150.385C68.2143 150.537 65.6828 141.947 65.6406 141.103C65.5056 138.842 66.2228 137.821 68.1721 136.8C73.7497 133.905 80.6774 132.074 86.7867 130.901Z" fill="url(#paint0_linear)"/>
<path d="M133.745 210.473C134.535 210.619 135.292 210.905 135.981 211.317C136.323 211.529 136.597 211.833 136.773 212.194C136.949 212.556 137.02 212.959 136.977 213.359C136.724 214.667 135.061 215.046 133.737 215.122C128.476 215.413 123.2 215.161 117.991 214.371C117.51 214.295 116.928 214.253 116.624 214.633C116.32 215.013 116.422 215.308 116.312 215.645C115.949 216.785 114.219 216.852 113.342 216.042C112.572 215.127 112.098 214 111.983 212.81C111.029 208.279 109.414 203.912 107.19 199.849C106.611 198.908 106.157 197.896 105.84 196.837C105.131 193.892 108.177 191.436 110.726 193.327C113.013 195.014 114.557 198.482 116.633 200.55C121.381 205.283 127.278 208.702 133.745 210.473Z" fill="#3E3E54"/>
<path d="M103.444 243.543C103.307 244.67 103.369 245.812 103.629 246.918C103.77 247.469 104.087 247.959 104.532 248.314C104.976 248.669 105.524 248.869 106.093 248.884C107.595 248.749 108.304 246.994 108.692 245.509C114.101 249.922 121.797 250.209 128.699 249.129C129.016 249.125 129.318 248.998 129.543 248.774C129.99 248.209 129.214 247.483 128.564 247.171L117.215 241.779C114.54 240.505 111.755 239.138 110.034 236.716C108.76 234.936 106.321 225.915 102.971 230.809C100.735 234.075 103.57 239.999 103.444 243.543Z" fill="#3E3E54"/>
<path d="M65.4802 187.682L82.6266 193.782C83.6961 194.053 84.6674 194.62 85.4281 195.419C85.9285 196.18 86.2462 197.047 86.3563 197.951C88.5604 209.304 90.1686 220.765 91.1745 232.286C96.5145 233.597 102.082 233.683 107.46 232.539C107.701 232.518 107.935 232.448 108.147 232.331C108.359 232.215 108.545 232.056 108.692 231.864C108.809 231.599 108.855 231.308 108.827 231.02C108.608 217.705 107.139 204.22 102.077 191.884C101.375 189.801 100.196 187.911 98.6338 186.365C96.9462 184.914 94.7776 184.256 92.7271 183.42C89.3518 182.02 86.0356 180.045 82.3566 179.733C76.9393 179.311 71.9439 182.703 68.1214 186.568C67.3451 186.5 66.1637 187.31 65.4802 187.682Z" fill="#0072A3"/>
<path d="M65.3452 187.555L82.4916 193.647C83.5599 193.921 84.5304 194.488 85.2931 195.284C85.7991 196.042 86.1173 196.91 86.2213 197.816C88.424 209.167 90.0351 220.624 91.0479 232.142C96.3845 233.456 101.949 233.545 107.325 232.404C107.567 232.386 107.802 232.317 108.015 232.201C108.227 232.084 108.412 231.923 108.557 231.729C108.671 231.463 108.72 231.174 108.701 230.885C108.481 217.578 106.962 204.085 101.95 191.757C101.251 189.669 100.068 187.775 98.4988 186.23C96.8112 184.787 94.651 184.129 92.5921 183.294C89.2168 181.893 85.9006 179.918 82.2216 179.606C76.8043 179.176 71.8089 182.576 67.9864 186.441C67.21 186.348 66.0371 187.192 65.3452 187.555Z" fill="url(#paint1_linear)"/>
<path d="M51.7513 201.048H48.4014V239.695H51.7513V201.048Z" fill="#0072A3"/>
<path d="M60.375 240.016H36.7566V244.741H60.375V240.016Z" fill="#0072A3"/>
<path d="M155.271 186.34H151.921V224.987H155.271V186.34Z" fill="#0072A3"/>
<path d="M163.886 225.308H140.268V230.033H163.886V225.308Z" fill="#0072A3"/>
<path d="M141.668 171.447C141.271 172.359 140.957 173.305 140.732 174.274C140.626 174.76 140.665 175.266 140.845 175.73C141.025 176.194 141.338 176.594 141.744 176.881C142.044 177.032 142.372 177.118 142.706 177.134C143.188 177.16 143.669 177.079 144.116 176.896C144.562 176.714 144.963 176.435 145.288 176.079C145.929 175.257 146.336 174.278 146.47 173.244C146.949 170.797 147.071 168.293 146.833 165.81C146.647 163.878 144.689 161.591 143.145 163.776C141.778 165.743 142.436 169.194 141.668 171.447Z" fill="#3E3E54"/>
<path d="M134.639 169.692C132.462 171.666 135.627 179.455 137.348 181.834C139.069 184.214 140.42 186.897 143.255 187.648C146.746 188.441 150.308 188.885 153.887 188.973C161.591 189.395 169.32 189.614 177.033 189.302C180.442 189.25 183.835 188.839 187.159 188.079C189.302 187.53 191.597 186.534 192.441 184.492C193.226 182.594 192.441 180.332 191.015 178.873C189.491 177.485 187.647 176.496 185.648 175.995C178.619 173.81 171.185 173.649 163.878 173.531C160.283 173.481 156.646 173.531 153.06 173.151C150.79 172.924 148.596 172.409 146.309 172.569C143.28 172.789 137.011 167.557 134.639 169.692Z" fill="#3E3E54"/>
<path d="M148.461 182.88C151.279 184.753 154.672 184.728 157.903 184.669L176.4 184.289C178.518 184.247 180.703 184.188 182.644 183.167C185.918 181.479 187.96 176.729 186.922 172.653C186.745 171.714 186.254 170.863 185.53 170.24C184.748 169.802 183.84 169.645 182.956 169.792C173.362 170.332 161.144 167.008 151.549 167.548C149.305 167.674 145.989 170.662 144.394 173.32C142.529 176.433 146.335 181.471 148.461 182.88Z" fill="#3E3E54"/>
<path d="M157.6 223.139C157.676 224.27 157.887 225.586 158.933 226.101C159.407 226.291 159.916 226.378 160.426 226.354L166.789 226.548C167.151 226.597 167.52 226.523 167.835 226.337C168.1 226.091 168.263 225.753 168.291 225.392C169.708 217.882 169.649 181.404 170.822 172.105C171.371 167.566 167.202 166.089 161.751 165.203C157.043 164.435 155.98 167.557 156.072 171.354C156.368 182.518 156.165 193.673 156.629 204.837C156.849 210.941 157.172 217.041 157.6 223.139Z" fill="#3E3E54"/>
<path d="M174.771 230.109C174.856 231.282 175.058 232.641 176.113 233.206C176.585 233.406 177.095 233.498 177.607 233.476L183.961 233.67C184.326 233.728 184.7 233.653 185.015 233.459C185.276 233.193 185.435 232.843 185.463 232.472C186.889 224.599 186.83 186.382 187.994 176.645C188.542 171.886 184.374 170.333 178.931 169.405C174.214 168.603 173.151 171.877 173.253 175.852C173.548 187.547 173.345 199.234 173.801 210.929C174.026 217.325 174.349 223.719 174.771 230.109Z" fill="#3E3E54"/>
<path d="M287.151 151.752C285.742 171.599 274.494 190.458 276.831 210.22C277.489 215.865 279.27 221.46 278.755 227.097C278.207 233.054 278.586 239.062 278.586 245.045C278.543 245.569 278.627 246.096 278.831 246.58C279.112 247.023 279.513 247.377 279.987 247.601C281.694 248.518 283.676 248.785 285.565 248.352C287.082 238.157 287.953 227.875 288.172 217.57C288.24 214.304 288.248 210.988 289.134 207.849C289.83 205.662 290.737 203.548 291.843 201.537C294.655 196.03 297.44 190.509 300.196 184.973L302.939 179.514C303.783 177.826 304.627 176.138 305.47 174.451C307.504 170.181 309.352 165.658 309.284 160.95C309.234 157.642 308.036 154.123 305.302 152.267C303.327 150.925 300.846 150.579 298.467 150.503C295.108 150.335 290.467 151.339 287.151 151.752Z" fill="#3E3E54"/>
<path d="M307.124 177.336C306.601 181.994 305.487 186.568 304.964 191.225C304.593 194.601 304.525 197.976 304.483 201.351C304.281 215.977 304.413 230.604 304.88 245.23C304.88 246.318 304.88 247.525 304.196 248.343C303.099 249.584 301.108 249.187 299.53 248.715C298.686 236.328 295.1 222.008 294.281 209.629C293.809 202.583 290.442 195.504 290.661 188.449C290.881 181.699 297.412 176.855 299.986 170.603C300.762 168.704 303.791 162.164 306.829 164.957C308.938 166.94 307.42 174.712 307.124 177.336Z" fill="#3E3E54"/>
<path d="M278.147 254.124C277.582 254.63 276.772 255.069 276.755 255.811C276.775 256.143 276.883 256.463 277.067 256.74C277.191 257.059 277.432 257.319 277.742 257.465C277.964 257.524 278.196 257.524 278.417 257.465L281.793 256.723C282.345 256.632 282.875 256.438 283.354 256.149C284.442 255.373 284.544 253.828 284.552 252.495V250.419C284.552 249.052 284.51 247.28 283.16 246.504C282.737 246.225 282.221 246.124 281.724 246.222C281.227 246.32 280.788 246.609 280.502 247.027C279.118 249.145 280.249 252.208 278.147 254.124Z" fill="#B69D6E"/>
<path d="M273.498 256.183C273.168 256.374 272.912 256.672 272.772 257.027C272.726 257.251 272.745 257.484 272.828 257.698C272.91 257.912 273.052 258.098 273.236 258.234C273.608 258.5 274.04 258.671 274.494 258.731C275.476 258.886 276.47 258.957 277.464 258.942L282.848 259.01C283.266 259.066 283.691 258.97 284.046 258.74C284.327 258.445 284.492 258.058 284.51 257.651C284.621 256.852 284.644 256.042 284.577 255.238C284.578 255.166 284.565 255.094 284.537 255.027C284.51 254.961 284.469 254.9 284.417 254.85C284.361 254.816 284.297 254.794 284.232 254.787C284.166 254.78 284.1 254.787 284.037 254.808C282.299 255.103 279.734 256.715 278.131 255.491C277.582 255.069 277.287 254.757 276.519 254.867C275.429 255.082 274.398 255.532 273.498 256.183Z" fill="#3E3E54"/>
<path d="M294.813 254.335C294.509 254.513 294.197 254.808 294.247 255.179C294.298 255.55 294.838 255.77 295.277 255.812C296.925 255.984 298.59 255.902 300.213 255.567C300.9 255.464 301.556 255.214 302.137 254.833C303.31 253.989 303.622 252.369 303.757 250.918C304.009 249.595 303.8 248.225 303.167 247.036C301.901 245.146 299.622 248.505 299.302 249.745C299.154 250.859 298.685 251.906 297.952 252.757C297.074 253.559 295.817 253.736 294.813 254.335Z" fill="#B69D6E"/>
<path d="M300.019 252.226C299.64 251.981 299.31 251.593 298.855 251.567C298.521 251.576 298.199 251.692 297.935 251.896C296.501 252.74 295.091 253.711 293.716 254.689C293.287 254.955 292.914 255.302 292.619 255.711C292.47 255.914 292.379 256.155 292.357 256.406C292.335 256.657 292.382 256.91 292.492 257.137C292.688 257.437 292.989 257.653 293.336 257.744C294.011 257.9 294.712 257.9 295.387 257.744C298.492 257.229 302.095 256.9 305.032 255.753C307.234 254.909 306.086 252.31 304.036 252.285C302.677 252.259 301.344 253.069 300.019 252.226Z" fill="#3E3E54"/>
<path d="M133.424 133.281L133.028 149.161C132.808 157.743 132.623 166.586 135.078 174.594C135.479 176.328 136.326 177.928 137.534 179.235C138.836 180.262 140.458 180.799 142.116 180.754C146.335 180.998 150.908 180.256 153.929 176.611C156.604 173.429 157.608 168.637 158.055 164.046C158.525 157.694 158.573 151.318 158.199 144.959C157.996 139.365 157.693 133.39 155.009 128.927C153.755 126.996 152.229 125.257 150.478 123.762C142.706 116.506 133.762 120.919 133.424 133.281Z" fill="#3E3E54"/>
<path d="M179.944 167.523C234.502 167.523 278.73 162.872 278.73 157.135C278.73 151.399 234.502 146.748 179.944 146.748C125.386 146.748 81.1584 151.399 81.1584 157.135C81.1584 162.872 125.386 167.523 179.944 167.523Z" fill="#0072A3"/>
<path d="M278.721 160.351C278.721 166.089 234.497 170.738 179.936 170.738C125.374 170.738 81.1499 166.097 81.1499 160.351C81.1499 159.802 81.5549 159.262 82.3312 158.739C89.6809 163.718 130.581 167.523 179.936 167.523C229.29 167.523 270.224 163.718 277.548 158.739C278.325 159.262 278.721 159.802 278.721 160.351Z" fill="#0072A3"/>
<path d="M278.721 160.351C278.721 166.089 234.497 170.738 179.936 170.738C125.374 170.738 81.1499 166.097 81.1499 160.351C81.1499 159.802 81.5549 159.262 82.3312 158.739C89.6809 163.718 130.581 167.523 179.936 167.523C229.29 167.523 270.224 163.718 277.548 158.739C278.325 159.262 278.721 159.802 278.721 160.351Z" fill="url(#paint2_linear)"/>
<path d="M277.548 158.739C270.199 163.717 229.29 167.523 179.936 167.523C130.581 167.523 89.6472 163.717 82.3313 158.739C89.6809 153.769 130.581 149.963 179.936 149.963C229.29 149.963 270.199 153.769 277.548 158.739Z" fill="#0072A3"/>
<path d="M278.721 157.136C278.721 157.685 278.325 158.216 277.548 158.739C270.199 163.718 229.29 167.523 179.936 167.523C130.581 167.523 89.6471 163.718 82.3312 158.739C81.5549 158.216 81.1499 157.685 81.1499 157.136C81.1499 151.398 125.383 146.74 179.936 146.74C234.488 146.74 278.721 151.398 278.721 157.136Z" fill="url(#paint3_linear)"/>
<path d="M309.554 112.329C310.542 114.192 311.168 116.225 311.402 118.32C311.407 120.257 311.019 122.174 310.263 123.957C308.682 127.998 306.83 131.928 304.719 135.72C305.242 134.733 304.432 131.501 304.356 130.379C304.238 128.516 304.129 126.649 304.027 124.776C303.819 120.95 303.642 117.122 303.496 113.291C303.428 111.477 302.247 105.874 304.972 105.148C307.251 104.541 308.753 110.557 309.554 112.329Z" fill="#B69D6E"/>
<path d="M283.295 133.854C283.584 131.846 283.689 129.815 283.607 127.787C283.616 126.042 283.464 124.299 283.151 122.581C282.417 119.088 280.468 115.831 280.62 112.236C280.755 108.253 283.413 104.861 285.953 101.781C286.93 100.501 288.045 99.3328 289.277 98.296C290.529 97.2679 292.081 96.6755 293.699 96.6084C296.635 96.6084 299.8 95.6971 302.188 97.41C304.576 99.123 305.411 102.287 305.867 105.215C307.74 117.341 306.044 129.787 307.554 141.964C308.137 146.681 309.242 151.33 309.655 156.064C309.716 156.322 309.72 156.59 309.666 156.849C309.612 157.109 309.502 157.353 309.343 157.566C309.031 157.805 308.648 157.932 308.255 157.929C300.86 158.692 293.393 158.38 286.088 157C285.81 156.976 285.547 156.864 285.337 156.68C285.191 156.48 285.103 156.243 285.084 155.996C283.852 148.773 282.08 141.044 283.295 133.854Z" fill="#0072A3"/>
<path d="M73.2686 102.237C73.4378 102.738 73.4378 103.28 73.2686 103.781C72.9902 104.363 72.3067 104.625 71.8257 105.055C70.6275 106.127 70.83 108.034 70.2225 109.519C69.7771 110.503 68.977 111.282 67.9821 111.701C66.9872 112.12 65.8707 112.149 64.8558 111.78C64.5983 111.638 64.3059 111.571 64.012 111.586C63.7788 111.664 63.5792 111.818 63.4466 112.025C62.6028 113.173 62.6028 114.894 61.5902 115.873C61.1705 116.221 60.6608 116.443 60.1202 116.513C59.5796 116.583 59.0302 116.499 58.5356 116.27C57.5514 115.79 56.7512 115.002 56.2573 114.025C54.5696 111.055 55 107.418 55.4135 104.051C55.8269 100.684 56.2573 97.5031 57.523 94.4822C57.8561 93.5511 58.4056 92.7123 59.1263 92.0351C60.3245 91.0225 61.9952 90.8622 63.5563 90.7694C65.0664 90.6039 66.5933 90.6809 68.0792 90.9972C72.6695 92.2123 72.4248 98.3891 73.2686 102.237Z" fill="#9B8966"/>
<path d="M73.0324 88.0607C73.3443 88.2283 73.6104 88.4697 73.8075 88.7639C74.0046 89.0581 74.1267 89.3961 74.1631 89.7483C74.178 90.2631 74.0504 90.7719 73.7943 91.2187C73.5381 91.6654 73.1635 92.0326 72.7117 92.2798C71.7967 92.7641 70.7767 93.0161 69.7415 93.0139C68.7132 93.0091 67.6862 93.0852 66.67 93.2417C65.653 93.4071 64.7429 93.9684 64.1385 94.8028C63.396 95.9588 63.6069 97.4608 63.6154 98.8362C63.6469 99.2315 63.5711 99.628 63.396 99.9838C63.3068 100.163 63.1569 100.305 62.9729 100.383C62.789 100.462 62.583 100.473 62.3918 100.414C62.1884 100.305 62.019 100.141 61.9024 99.9416C61.5848 99.3956 61.2355 98.8687 60.8561 98.3637C60.6697 98.1154 60.431 97.911 60.1568 97.7652C59.8827 97.6194 59.5798 97.5356 59.2697 97.5199C58.9865 97.5425 58.7111 97.624 58.4612 97.7591C58.2113 97.8943 57.9924 98.0801 57.8183 98.3046C57.4684 98.6906 57.242 99.1726 57.1686 99.6885C57.0251 100.819 57.7593 101.866 58.4512 102.768C57.7482 104.052 56.679 105.098 55.3797 105.772C55.0222 105.992 54.6097 106.107 54.1899 106.101C53.4558 106.034 52.9411 105.359 52.5023 104.751L49.397 100.178C48.8367 99.4716 48.4625 98.636 48.3085 97.7477C48.2891 96.8003 48.5159 95.8641 48.9667 95.0306C49.6198 93.318 50.5272 91.7136 51.6585 90.2715C52.5139 89.0903 53.2596 87.8335 53.8861 86.5165C54.2116 85.8431 54.675 85.2457 55.2463 84.7631C55.8176 84.2804 56.4841 83.9234 57.2023 83.715C58.7381 83.4197 60.2485 84.2466 61.7843 84.5589C63.32 84.8711 64.9655 84.6939 66.5265 84.9976C68.6108 85.4364 71.1506 87.0819 73.0324 88.0607Z" fill="#3E3E54"/>
<path d="M59.1685 113.695C60.2002 114.328 61.0676 115.195 61.7 116.227C62.5944 117.915 62.2822 119.94 61.9447 121.805C58.2679 119.875 55.0323 117.203 52.4433 113.957C51.4813 112.683 51.8442 110.354 53.8525 110.481C55.6076 110.573 57.8522 112.759 59.1685 113.695Z" fill="white"/>
<path d="M60.5861 120.64C61.2641 121.376 61.8532 122.189 62.3413 123.062C63.0163 124.353 69.7922 146.182 69.9862 147.533C70.1212 148.81 70.1042 150.099 69.9356 151.372L68.0286 172.003C68.0305 172.377 67.925 172.743 67.7248 173.058C67.4939 173.301 67.2028 173.479 66.881 173.573L53.3209 178.636C51.3165 179.454 49.2402 180.084 47.1188 180.517C45.4872 180.782 43.9407 181.426 42.6044 182.399C40.2754 184.087 39.5245 189.209 37.4993 189.242C35.9551 184.855 40.9505 167.033 41.8112 163.768C44.8489 152.182 40.8746 140.023 40.7058 128.04C40.6324 126.058 40.8024 124.074 41.2121 122.134C42.174 118.033 45.1696 113.695 49.1186 111.915C50.4181 111.341 50.2409 111.274 51.591 112.253C52.6542 113.037 53.6921 113.89 54.6963 114.784C56.7949 116.595 58.7631 118.552 60.5861 120.64Z" fill="#0072A3"/>
<path d="M46.6125 138.251L58.907 163.144L59.1685 176.831C59.1685 176.831 67.8177 174.055 68.2396 169.827C68.6615 165.599 69.0412 156.495 69.0412 156.495L49.7094 133.188L46.6125 138.251Z" fill="url(#paint4_linear)"/>
<path d="M45.6674 123.223C45.049 127.149 44.7667 131.121 44.8236 135.095C44.8064 136.013 44.9085 136.929 45.1273 137.821C45.5133 138.953 46.0835 140.014 46.815 140.96C51.554 147.776 56.9216 154.132 62.8475 159.946C63.3522 160.542 64.0124 160.986 64.7545 161.228C65.2732 161.325 65.8053 161.325 66.324 161.228L87.9342 158.073C88.1586 158.104 88.3872 158.078 88.599 157.997C88.8107 157.917 88.9988 157.784 89.1459 157.612C89.293 157.439 89.3944 157.233 89.4407 157.011C89.487 156.789 89.4767 156.56 89.4109 156.343L88.8624 149.795C81.9281 150.42 74.9389 149.979 68.1382 148.487C67.3874 148.381 66.6744 148.091 66.0624 147.643C65.5756 147.131 65.2095 146.517 64.9908 145.846C61.9362 138.715 58.9238 131.577 55.8438 124.463C55 122.438 54.0634 120.084 51.6247 119.552C48.8486 118.911 46.1484 120.362 45.6674 123.223Z" fill="#0072A3"/>
<path d="M89.8834 150.765C90.6091 150.638 91.512 150.587 91.9254 151.195C92.0713 151.453 92.1551 151.742 92.1701 152.039C92.2798 152.883 92.3642 153.794 92.4149 154.68C92.5346 155.54 92.4149 156.415 92.0689 157.211C90.7525 157.211 89.4277 157.169 88.1114 157.085C87.9246 157.085 87.741 157.036 87.5798 156.941C87.461 156.823 87.3715 156.678 87.3182 156.519C86.8878 155.406 85.9596 153.144 86.3984 151.963C86.8372 150.781 88.913 150.908 89.8834 150.765Z" fill="white"/>
<path d="M95.0981 149.625C95.9257 149.038 96.8474 148.595 97.8236 148.318C99.2862 148.125 100.767 148.503 101.958 149.372C103.182 150.165 104.245 151.178 105.486 151.954C106.726 152.731 108.219 153.321 109.333 154.342C109.412 154.4 109.479 154.474 109.53 154.558C109.581 154.642 109.614 154.735 109.629 154.832C109.629 155.102 109.392 155.296 109.148 155.414C107.722 156.114 106.026 155.667 104.481 155.287C103.241 154.984 101.857 154.747 100.769 155.397C99.8404 155.946 99.2919 157.085 98.2371 157.414C97.5839 157.578 96.8981 157.561 96.2541 157.363C94.495 156.962 92.7774 156.397 91.1237 155.676C90.871 155.58 90.6389 155.437 90.4402 155.254C89.5964 154.41 89.8496 152.174 90.8706 151.541C91.4129 151.273 91.9776 151.053 92.5582 150.883C93.4353 150.528 94.2843 150.108 95.0981 149.625Z" fill="#9B8966"/>
<path d="M88.4657 164.882C89.2878 164.363 90.2818 164.191 91.2304 164.403C92.179 164.615 93.0052 165.193 93.5286 166.012C100.252 173.563 106.359 181.642 111.789 190.171C111.95 190.385 112.06 190.633 112.109 190.897C112.091 191.183 112.005 191.46 111.858 191.707C111.711 191.953 111.508 192.161 111.266 192.314L105.207 197.883C104.936 198.194 104.561 198.396 104.152 198.449C103.815 198.4 103.5 198.25 103.249 198.018L87.1156 185.682C86.7328 185.323 86.2505 185.087 85.7318 185.007C85.3644 185.016 85.0038 185.109 84.677 185.277C81.9177 186.483 79.4453 188.264 76.7114 189.547C70.6781 192.373 63.7756 192.584 57.1095 192.466C50.5699 192.348 43.9206 191.935 37.8114 189.614C36.5625 189.142 41.5917 180.104 44.005 179.885C48.0775 179.507 52.0646 178.488 55.8184 176.864C58.7296 175.598 61.5058 173.911 64.5857 173.058C66.5349 172.518 66.3662 170.527 68.2816 169.827C74.3571 167.692 82.3565 166.941 88.4657 164.882Z" fill="#0072A3"/>
<path d="M88.4657 164.882C89.2878 164.363 90.2818 164.191 91.2304 164.403C92.179 164.615 93.0052 165.193 93.5286 166.012C100.252 173.563 106.359 181.642 111.789 190.171C111.95 190.385 112.06 190.633 112.109 190.897C112.091 191.183 112.005 191.46 111.858 191.707C111.711 191.953 111.508 192.161 111.266 192.314L105.207 197.883C104.936 198.194 104.561 198.396 104.152 198.449C103.815 198.4 103.5 198.25 103.249 198.018L87.1156 185.682C86.7328 185.323 86.2505 185.087 85.7318 185.007C85.3644 185.016 85.0038 185.109 84.677 185.277C81.9177 186.483 79.4453 188.264 76.7114 189.547C70.6781 192.373 63.7756 192.584 57.1095 192.466C50.5699 192.348 43.9206 191.935 37.8114 189.614C36.5625 189.142 41.5917 180.104 44.005 179.885C48.0775 179.507 52.0646 178.488 55.8184 176.864C58.7296 175.598 61.5058 173.911 64.5857 173.058C66.5349 172.518 66.3662 170.527 68.2816 169.827C74.3571 167.692 82.3565 166.941 88.4657 164.882Z" fill="url(#paint5_linear)"/>
<path d="M33.6598 139.094C35.2968 143.6 35.4234 148.495 35.5246 153.287L36.1828 184.07C36.1501 184.952 36.2788 185.833 36.5625 186.669C37.6342 189.344 41.1782 189.757 44.0556 189.757H67.2606C69.8933 189.757 72.661 189.757 74.9647 191.057C77.2683 192.356 78.9053 195.276 77.7999 197.647C76.551 200.372 72.9058 200.761 69.9102 200.761H31.6262C30.6057 200.845 29.5806 200.668 28.6475 200.246C26.9599 199.318 26.6308 197.141 26.4452 195.251L21.0363 140.107C20.7325 136.976 20.1925 129.812 24.4116 129.348C28.4113 128.969 32.605 136.2 33.6598 139.094Z" fill="#3E3E54"/>
<path d="M85.3267 133.931C87.6952 130.557 90.6781 127.66 94.1192 125.391L93.6889 128.606C97.2355 126.715 101.057 125.391 105.013 124.682C105.705 124.564 106.616 124.581 106.852 125.239C107.038 125.762 106.625 126.286 106.245 126.691C104.251 128.937 102.054 130.993 99.68 132.834C97.287 134.676 94.4308 135.821 91.4275 136.141C90.2959 136.282 89.1485 136.067 88.145 135.525C87.654 135.241 87.2679 134.806 87.0444 134.284C86.8209 133.763 86.7718 133.183 86.9046 132.631" fill="#9B8966"/>
<path d="M145.339 112.287C144.343 112.535 143.422 113.021 142.656 113.704C141.949 114.626 141.529 115.735 141.449 116.894L136.437 147.854C136.209 149.263 136.006 150.799 136.774 152.022C137.686 153.482 139.635 153.955 141.398 154.25C147.187 155.231 153.054 155.683 158.925 155.6C159.221 155.625 159.518 155.551 159.768 155.389C159.981 155.16 160.099 154.858 160.097 154.545C160.366 152.235 160.318 149.898 159.954 147.601L149.094 146.234C148.157 146.116 148.2 146.234 147.778 145.432C147.595 145.01 147.528 144.547 147.584 144.09C147.769 139.719 147.533 135.053 149.086 130.935C150.419 135.078 151.237 142.943 151.313 147.272C161.81 146.833 172.24 146.512 182.746 146.985C182.649 140.712 183.027 134.442 183.876 128.227L188.003 137.028C188.736 138.317 189.147 139.764 189.201 141.247C189.133 143.052 188.003 144.808 188.416 146.571L201.748 146.141L199.951 136.969C199.505 133.945 198.47 131.038 196.905 128.412L190.391 116.219C189.91 115.178 189.254 114.227 188.45 113.409C187.662 112.755 186.777 112.228 185.825 111.848C178.989 108.816 171.617 107.178 164.139 107.03C157.769 106.946 151.212 110.295 145.339 112.287Z" fill="#0072A3"/>
<path d="M166.856 143.728C171.21 139.559 172.476 133.357 173.531 127.552L175.396 117.291C175.928 114.863 176.186 112.384 176.164 109.899C176.178 109.631 176.094 109.367 175.927 109.156C175.666 108.962 175.339 108.877 175.016 108.92C170.189 108.92 162.46 107.081 161.65 113.283C160.877 119.866 161.369 126.537 163.101 132.935C163.397 134.032 167.177 143.39 166.856 143.728Z" fill="white"/>
<path d="M163.296 106.186C163.115 107.063 163.072 107.963 163.169 108.853C163.3 109.488 163.552 110.093 163.912 110.633C164.295 111.344 164.825 111.965 165.466 112.455C166.108 112.945 166.846 113.294 167.633 113.477C169.017 113.679 170.384 113.046 171.683 112.397C172.279 112.149 172.81 111.768 173.236 111.283C173.763 110.542 174.057 109.66 174.08 108.751C174.137 107.543 174.063 106.332 173.86 105.14L173.269 100.71C173.256 100.519 173.198 100.334 173.101 100.17C172.992 100.047 172.842 99.9691 172.679 99.9504C170.426 99.4103 167.321 98.4146 165.042 99.2247C162.764 100.035 163.599 103.975 163.296 106.186Z" fill="url(#paint6_linear)"/>
<path d="M173.252 100.76C173.252 100.76 169.497 108.354 165.726 107.687C161.954 107.021 163.591 101.291 163.591 101.291L173.252 100.76Z" fill="url(#paint7_linear)"/>
<path d="M174.873 92.6087C175.371 91.8578 176.13 91.0055 177.024 91.2333C177.21 91.3067 177.379 91.4162 177.523 91.5554C177.666 91.6947 177.78 91.8609 177.858 92.0445C177.937 92.2282 177.978 92.4255 177.98 92.6252C177.981 92.8249 177.944 93.0229 177.868 93.2079C177.524 93.9378 177.069 94.6097 176.518 95.1993C174.898 97.3594 174.611 100.338 172.611 102.186C171.014 103.479 169.003 104.15 166.949 104.076C166.136 104.124 165.322 104.024 164.544 103.781C162.722 103.14 161.625 101.368 160.975 99.6293C160.257 97.5942 159.82 95.4708 159.676 93.3176C159.44 91.4059 159.589 89.4664 160.114 87.6133C160.398 86.6767 160.884 85.8135 161.537 85.0846C162.19 84.3557 162.995 83.7787 163.895 83.3943C166.806 82.272 170.265 83.8752 172.071 86.3307C173.877 88.7863 174.409 91.8746 174.78 94.8617" fill="url(#paint8_linear)"/>
<path d="M159.692 89.1328C159.692 89.4619 159.515 89.7994 159.692 90.0948C159.784 90.2394 159.925 90.3467 160.089 90.3976C160.252 90.4486 160.429 90.44 160.587 90.3732C160.9 90.2267 161.164 89.9922 161.346 89.6982C162.089 88.6856 162.637 87.5042 163.65 86.7364C164.662 85.9685 166.401 85.8925 167.093 86.8882C167.135 86.9685 167.196 87.0378 167.27 87.0908C167.395 87.1366 167.533 87.1366 167.658 87.0908C168.445 86.8959 169.27 86.9135 170.049 87.1418C170.827 87.3701 171.531 87.8009 172.088 88.3902C173.147 89.5687 173.725 91.1013 173.708 92.6853C173.708 93.1578 174.299 94.8201 174.771 94.6767C174.906 94.6345 174.949 93.2759 175.041 93.1747C175.37 92.8034 175.387 92.6853 175.716 92.3309C175.814 92.1959 175.945 92.0884 176.096 92.0187C176.459 91.8836 176.83 92.1705 177.218 92.2549C177.563 92.2957 177.911 92.2117 178.199 92.0182C178.486 91.8247 178.696 91.5345 178.788 91.2002C178.932 90.5374 178.903 89.8485 178.704 89.2003C178.503 88.5542 178.483 87.8657 178.644 87.2089C178.965 86.2469 180.037 85.5213 180.003 84.534C179.973 84.238 179.884 83.9511 179.741 83.6902C179.221 82.5973 178.456 81.6388 177.505 80.8887C177.185 80.1842 176.755 79.5349 176.231 78.9648C175.96 78.675 175.628 78.449 175.259 78.3031C174.889 78.1572 174.492 78.095 174.096 78.121C173.742 78.1716 173.396 78.3151 173.042 78.3404C171.632 78.4332 170.51 76.7456 169.126 77.0493C168.679 77.1506 168.282 77.4544 167.852 77.5303C167.05 77.6738 166.291 77.0831 165.481 77.1C164.671 77.1168 164.046 77.6991 163.321 78.0113C162.595 78.3235 161.549 78.4669 161.194 79.1926C161.042 79.4964 161 79.893 160.688 80.0364C160.437 80.1075 160.171 80.1075 159.92 80.0364C159.55 79.9965 159.176 80.0532 158.834 80.2011C158.493 80.349 158.195 80.583 157.971 80.8803C156.983 82.326 156.538 84.0744 156.714 85.8166C156.699 86.2326 156.801 86.6444 157.006 87.0063C157.212 87.3683 157.514 87.6662 157.878 87.8671C158.477 88.1287 159.642 88.2299 159.692 89.1328Z" fill="#3E3E54"/>
<path d="M167.818 111.983C166.66 112.31 165.68 113.084 165.093 114.134C164.541 115.159 164.132 116.255 163.878 117.392C163.97 117.037 163.034 115.653 162.857 115.265C162.519 114.489 162.224 113.696 161.937 112.902C161.566 111.865 160.401 109.822 160.95 108.742C162.257 106.186 166.848 110.953 167.818 111.983Z" fill="white"/>
<path d="M169.396 112.312C171.194 113.004 172.265 114.743 173.776 115.907C173.851 115.968 173.941 116.009 174.037 116.025C174.142 116.016 174.24 115.971 174.316 115.899C175.209 115.146 175.872 114.158 176.231 113.046C176.636 111.958 177.193 107.714 174.822 108.726C173.935 109.248 173.101 109.856 172.333 110.54C171.392 111.192 170.411 111.784 169.396 112.312Z" fill="white"/>
<path d="M167.008 127.121C166.739 124.208 166.813 121.274 167.228 118.379C167.344 117.824 167.362 117.252 167.278 116.691C167.042 115.552 165.937 114.632 165.97 113.476C166.021 111.957 167.962 111.097 169.481 111.535C169.848 111.645 170.188 111.831 170.477 112.083C170.766 112.334 170.998 112.644 171.158 112.993C171.318 113.341 171.401 113.719 171.403 114.102C171.405 114.485 171.325 114.865 171.168 115.214C170.974 115.577 170.687 115.906 170.527 116.286C170.301 117.133 170.394 118.034 170.789 118.817C171.582 121.037 172.544 132.597 172.476 133.55C172.476 134.259 170.974 137.449 170.73 138.116C169.278 142.014 167.565 143.356 166.873 143.676C166.333 138.9 167.464 131.956 167.008 127.121Z" fill="#0072A3"/>
<path d="M167.008 127.121C166.739 124.208 166.813 121.274 167.228 118.379C167.344 117.824 167.362 117.252 167.278 116.691C167.042 115.552 165.937 114.632 165.97 113.476C166.021 111.957 167.962 111.097 169.481 111.535C169.848 111.645 170.188 111.831 170.477 112.083C170.766 112.334 170.998 112.644 171.158 112.993C171.318 113.341 171.401 113.719 171.403 114.102C171.405 114.485 171.325 114.865 171.168 115.214C170.974 115.577 170.687 115.906 170.527 116.286C170.301 117.133 170.394 118.034 170.789 118.817C171.582 121.037 172.544 132.597 172.476 133.55C172.476 134.259 170.974 137.449 170.73 138.116C169.278 142.014 167.565 143.356 166.873 143.676C166.333 138.9 167.464 131.956 167.008 127.121Z" fill="url(#paint9_linear)"/>
<path d="M162.468 148.58C162.62 148.554 162.776 148.566 162.923 148.613C163.07 148.66 163.203 148.741 163.312 148.85C163.384 148.97 163.425 149.106 163.43 149.246C163.574 150.527 163.54 151.822 163.329 153.094C163.301 153.49 163.133 153.864 162.857 154.149C162.445 154.409 161.953 154.508 161.473 154.427L159.481 154.351C159.335 154.355 159.191 154.323 159.059 154.258C158.927 154.166 158.83 154.032 158.781 153.879C158.283 152.723 157.743 150.605 158.334 149.398C158.924 148.191 161.338 148.563 162.468 148.58Z" fill="white"/>
<path d="M168.207 148.528C168.231 148.715 168.191 148.905 168.095 149.067C167.999 149.229 167.851 149.355 167.675 149.423C168.376 149.763 169.134 149.969 169.911 150.03C171.426 150.276 172.894 150.752 174.265 151.439C175.252 151.937 176.265 152.655 176.442 153.701C176.484 153.833 176.484 153.974 176.442 154.106C176.376 154.214 176.287 154.307 176.181 154.376C175.144 154.919 173.967 155.133 172.805 154.992C169.43 154.933 165.869 154.933 162.68 153.692C162.423 153.608 162.187 153.47 161.988 153.287C161.805 153.075 161.688 152.814 161.65 152.536C161.372 151.203 161.65 150.157 162.907 149.575C164.568 148.816 166.383 148.458 168.207 148.528Z" fill="url(#paint10_linear)"/>
<path d="M157.634 233.366C157.926 233.954 158.354 234.463 158.882 234.851C160.218 236.141 161.761 237.196 163.447 237.974C165.582 238.817 167.962 238.817 170.274 238.758C171.118 238.758 172.063 238.657 172.493 237.982C172.924 237.307 172.561 236.438 172.164 235.746C170.595 233.003 168.51 230.438 167.81 227.384C167.582 226.422 167.464 225.35 166.696 224.683C165.008 223.24 160.739 223.764 159.355 225.443C158.739 226.346 158.34 227.38 158.19 228.464C157.895 229.864 157.051 231.966 157.634 233.366Z" fill="#3E3E54"/>
<path d="M176.4 233.974C177.193 234.354 178.003 234.708 178.822 235.029C179.034 235.14 179.282 235.167 179.514 235.105C179.673 235.019 179.802 234.886 179.885 234.725L180.99 233.037C183.032 235.29 186.543 235.569 189.665 235.51C191.15 235.51 192.626 235.451 194.103 235.383C194.753 235.383 195.546 235.214 195.791 234.624C196.035 234.033 195.487 233.527 195.006 233.172C192.424 231.274 188.812 230.751 186.72 228.371C185.876 227.392 185.285 226.126 184.188 225.443C183.142 224.924 181.979 224.686 180.813 224.751C178.923 224.7 176.813 224.515 176.594 226.607C176.345 229.055 176.28 231.517 176.4 233.974Z" fill="#3E3E54"/>
<path d="M188.45 149.862L196.28 118.919H229.771L218.819 149.195L218.498 152.579L177.387 153.701V151.127L188.45 149.862Z" fill="#3E3E54"/>
<path d="M282.966 83.7402C282.51 84.3393 281.877 84.9806 282.071 85.7063C282.215 86.2801 282.805 86.5501 283.193 87.0226C284.138 88.0859 283.835 89.7904 284.535 91.0223C284.838 91.4773 285.233 91.863 285.696 92.1539C286.158 92.4448 286.677 92.6344 287.218 92.71C288.306 92.8563 289.404 92.9184 290.501 92.8956C290.883 92.8659 291.267 92.9158 291.628 93.0422C291.99 93.1685 292.322 93.3686 292.602 93.6297C293.446 94.6086 292.923 96.4987 294.087 97.0472C294.389 97.1704 294.716 97.2196 295.041 97.1906C296.303 97.1826 297.563 97.0868 298.812 96.9037C299.259 96.8809 299.687 96.7186 300.036 96.4396C300.371 96.0375 300.551 95.5285 300.542 95.0052C301.095 89.0736 300.176 83.0974 297.867 77.6056C297.495 76.6043 296.949 75.6761 296.256 74.8632C295.41 74.0181 294.378 73.3824 293.243 73.0068C291.891 72.5032 290.466 72.2184 289.024 72.163C287.805 72.0269 286.577 72.3257 285.556 73.0068C282.316 75.5974 285.43 80.4999 282.966 83.7402Z" fill="#B69D6E"/>
<path d="M280.603 71.0834C280.581 71.7204 280.667 72.3565 280.856 72.9651C281.346 74.3743 282.713 75.3447 283.219 76.7538C283.599 75.5207 284.411 74.4661 285.506 73.7836C285.738 74.5072 286.2 75.1353 286.822 75.5725C287.077 75.7117 287.298 75.9046 287.472 76.1379C287.606 76.4635 287.644 76.8207 287.581 77.1673C287.562 77.9138 287.731 78.6532 288.073 79.3169C288.415 79.9807 288.92 80.5473 289.539 80.9645C290.071 81.3105 290.678 81.5298 291.227 81.8927C292.038 82.5327 292.715 83.3271 293.218 84.2301C294.543 86.2721 295.901 88.4491 296.121 90.8456C296.273 92.5332 295.851 94.3052 296.349 95.9085C296.702 96.9509 297.4 97.8413 298.329 98.4322C299.257 99.023 300.36 99.2788 301.454 99.1572C301.536 100.424 301.94 101.648 302.626 102.715C303.313 103.783 304.259 104.658 305.377 105.258C306.508 105.838 307.762 106.137 309.032 106.13C310.303 106.122 311.553 105.809 312.676 105.216C313.71 104.715 314.548 103.883 315.056 102.853C315.379 102.003 315.512 101.093 315.444 100.187C315.368 97.3683 314.491 94.4318 312.364 92.5923C312.087 92.39 311.85 92.1383 311.664 91.8497C311.284 91.1325 311.664 90.2887 312.027 89.5461C312.791 87.6857 312.964 85.6353 312.523 83.6731C312.082 81.7108 311.049 79.9315 309.563 78.5765C309.169 78.2885 308.834 77.9276 308.576 77.5133C308.407 77.1012 308.327 76.6587 308.339 76.2138C308.221 73.3954 308.086 70.4252 306.593 68.0203C305.122 65.8621 302.903 64.3259 300.365 63.7084C297.844 63.1069 295.246 62.8991 292.661 63.0924C287.472 63.3034 280.611 64.7126 280.603 71.0834Z" fill="black"/>
<path d="M277.152 116.615C276.467 117.247 275.672 117.748 274.806 118.092C273.877 118.359 272.909 118.459 271.945 118.387C264.064 118.202 255.913 116.311 249.837 111.324C248.648 110.354 247.458 109.223 245.939 108.996L247.34 111.924H241.635C241.025 111.877 240.412 111.975 239.846 112.211C239.568 112.335 239.34 112.551 239.2 112.822C239.06 113.094 239.018 113.405 239.079 113.704C239.227 114.046 239.47 114.339 239.779 114.548C241.467 115.915 243.247 117.29 245.374 117.678C246.428 117.873 247.517 117.805 248.588 117.906C251.019 118.143 253.263 119.248 255.474 120.286C259.507 122.187 263.6 123.951 267.752 125.577C269.81 126.42 272.03 127.171 274.19 126.674C275.267 126.375 276.294 125.917 277.236 125.315C283.143 121.94 289.142 118.522 293.783 113.561C295.589 111.628 297.243 109.342 297.336 106.658C297.412 104.498 296.019 102.034 293.826 101.469C291.632 100.903 289.606 103.291 288.079 104.768C284.248 108.574 281.278 113.147 277.152 116.615Z" fill="#B69D6E"/>
<path d="M84.8626 130.926C84.537 130.943 84.2221 131.048 83.9513 131.23C83.7874 131.392 83.6604 131.587 83.5789 131.803C83.4973 132.018 83.4632 132.249 83.4788 132.479C83.5114 133.557 83.7731 134.615 84.2467 135.584C84.5144 136.271 84.9258 136.892 85.4533 137.407C85.7182 137.663 86.0437 137.847 86.3994 137.943C86.755 138.039 87.1292 138.043 87.4869 137.955C88.2268 137.626 88.8084 137.02 89.107 136.268C89.1963 136.129 89.2433 135.968 89.242 135.804C89.242 135.534 88.9889 135.348 88.7948 135.162C87.5122 133.964 88.432 132.724 87.8076 131.483C87.1831 130.243 85.9849 130.774 84.8626 130.926Z" fill="white"/>
<path d="M184.712 240.016H161.093V244.741H184.712V240.016Z" fill="#0072A3"/>
<path d="M175.058 170.771H170.409V242.783H175.058V170.771Z" fill="#0072A3"/>
<path d="M175.86 93.8658C175.877 93.8079 175.877 93.7465 175.86 93.6886C175.774 93.4139 175.774 93.1196 175.86 92.8448C175.923 92.736 176.013 92.6457 176.122 92.5832C176.285 92.4831 176.47 92.4251 176.662 92.4145C176.714 92.4009 176.769 92.4009 176.822 92.4145C176.884 92.4526 176.929 92.513 176.949 92.5832C177.058 92.9004 177.058 93.2449 176.949 93.5621C176.83 93.9321 176.628 94.27 176.358 94.5493C176.143 94.7977 175.841 94.9546 175.514 94.9881C175.472 94.9963 175.429 94.9963 175.387 94.9881C175.352 94.9675 175.325 94.9345 175.312 94.8953C175.252 94.81 175.219 94.7084 175.219 94.6042C175.219 94.5 175.252 94.3983 175.312 94.3131C175.489 94.1696 175.767 94.0852 175.86 93.8658Z" fill="url(#paint11_linear)"/>
</g>
<defs>
<linearGradient id="paint0_linear" x1="81.5381" y1="130.378" x2="61.3962" y2="166.401" gradientUnits="userSpaceOnUse">
<stop stop-opacity="0"/>
<stop offset="0.99"/>
</linearGradient>
<linearGradient id="paint1_linear" x1="6517.69" y1="16273.1" x2="3168.57" y2="12796.2" gradientUnits="userSpaceOnUse">
<stop stop-opacity="0"/>
<stop offset="0.99"/>
</linearGradient>
<linearGradient id="paint2_linear" x1="21033.6" y1="2719.23" x2="67292.9" y2="2719.23" gradientUnits="userSpaceOnUse">
<stop stop-opacity="0"/>
<stop offset="0.99"/>
</linearGradient>
<linearGradient id="paint3_linear" x1="43908.4" y1="4849.16" x2="43916.5" y2="3556.55" gradientUnits="userSpaceOnUse">
<stop stop-opacity="0"/>
<stop offset="0.99"/>
</linearGradient>
<linearGradient id="paint4_linear" x1="1537.89" y1="9101.23" x2="2542.84" y2="8868.72" gradientUnits="userSpaceOnUse">
<stop stop-opacity="0"/>
<stop offset="0.99"/>
</linearGradient>
<linearGradient id="paint5_linear" x1="8856.99" y1="8731.7" x2="6634.1" y2="5214.16" gradientUnits="userSpaceOnUse">
<stop stop-opacity="0"/>
<stop offset="0.99"/>
</linearGradient>
<linearGradient id="paint6_linear" x1="163.101" y1="106.245" x2="174.096" y2="106.245" gradientUnits="userSpaceOnUse">
<stop stop-color="#867580"/>
<stop offset="0.57" stop-color="#9B8F8E"/>
</linearGradient>
<linearGradient id="paint7_linear" x1="2234.17" y1="1137.29" x2="2258.27" y2="997.702" gradientUnits="userSpaceOnUse">
<stop stop-opacity="0"/>
<stop offset="0.99"/>
</linearGradient>
<linearGradient id="paint8_linear" x1="3823.74" y1="2799.98" x2="4224.59" y2="2799.98" gradientUnits="userSpaceOnUse">
<stop stop-color="#867580"/>
<stop offset="0.57" stop-color="#9B8F8E"/>
</linearGradient>
<linearGradient id="paint9_linear" x1="1493.22" y1="5100.04" x2="2173.06" y2="5442.08" gradientUnits="userSpaceOnUse">
<stop stop-opacity="0"/>
<stop offset="0.99"/>
</linearGradient>
<linearGradient id="paint10_linear" x1="3166.29" y1="1438.51" x2="3429.52" y2="1438.51" gradientUnits="userSpaceOnUse">
<stop stop-color="#867580"/>
<stop offset="0.57" stop-color="#9B8F8E"/>
</linearGradient>
<linearGradient id="paint11_linear" x1="575.86" y1="427.675" x2="562.093" y2="426.951" gradientUnits="userSpaceOnUse">
<stop stop-opacity="0"/>
<stop offset="0.99"/>
</linearGradient>
<clipPath id="clip0">
<rect width="375.321" height="275" fill="white"/>
</clipPath>
</defs>
</svg>
