<svg width="275" height="275" viewBox="0 0 275 275" fill="none" xmlns="http://www.w3.org/2000/svg">
<g clip-path="url(#clip0)">
<path d="M153.632 21.8142C173.024 3.77604 204.713 -8.1396 226.271 1.28405C247.877 10.6654 259.399 41.3436 257.74 68.0538C256.08 94.7641 285.006 124.804 267.944 136.495C250.835 148.229 234.528 166.805 224.948 190.378C215.278 213.947 168.522 235.258 152.485 255.236C136.496 275.171 104.432 268.673 75.0098 254.272C45.6349 239.828 18.854 217.524 12.0474 190.21C5.24086 162.896 18.319 130.567 39.5889 112.723C60.9062 94.8362 90.3727 91.3867 108.672 77.6501C127.018 63.8712 134.198 39.8051 153.632 21.8142Z" fill="#CCE2EC"/>
<path opacity="0.05" d="M132.976 270.038C156.506 270.038 175.58 267.729 175.58 264.881C175.58 262.033 156.506 259.724 132.976 259.724C109.447 259.724 90.3722 262.033 90.3722 264.881C90.3722 267.729 109.447 270.038 132.976 270.038Z" fill="#000405"/>
<path d="M118.085 252.971C118.085 253.89 108.394 259.318 98.9324 259.318C89.4708 259.318 93.9258 250.299 97.1541 250.396H100.382L102.192 249.508L109.137 246.015L110.172 243.824C110.172 243.824 115.693 245.041 116.629 243.629L117.533 249.763V250.871C117.891 251.515 118.081 252.237 118.085 252.971Z" fill="#3F3D56"/>
<path d="M117.533 250.871C117.879 251.518 118.055 252.24 118.047 252.971C118.047 253.89 108.363 259.318 98.9012 259.318C89.4397 259.318 93.8947 250.299 97.1229 250.396H100.351L102.16 249.508L117.403 249.763L117.533 250.871Z" fill="#3F3D56"/>
<path d="M104.069 255.892C101.738 256.481 99.2929 256.481 96.962 255.892C94.8305 254.748 94.1551 253.89 94.248 253.001C94.341 252.113 95.605 249.569 100.711 250.78C105.816 251.991 106.876 254.65 106.876 254.65L104.069 255.892Z" fill="#3F3D56"/>
<path d="M141.853 253.445C139.703 256.126 137 258.33 133.921 259.912C130.843 261.494 127.458 262.418 123.99 262.623C114.305 262.623 118.989 253.701 122.218 253.701C123.117 253.719 124.015 253.634 124.894 253.445L128.866 249.952L141.11 250.171V251.346C141.533 251.973 141.789 252.695 141.853 253.445Z" fill="#3F3D56"/>
<path d="M129.449 258.746C127.121 259.342 124.676 259.342 122.348 258.746C120.216 257.602 119.535 256.749 119.634 255.855C119.733 254.96 120.991 252.429 126.09 253.634C131.19 254.839 132.131 257.541 132.131 257.541L129.449 258.746Z" fill="#3F3D56"/>
<path d="M98.1578 149.342L107.842 243.538C107.842 243.538 114.305 245.82 117.18 243.538L121.183 169.352L132.516 244.171C132.516 244.171 137.813 247.536 141.072 243.726L145.304 148.867C145.304 148.867 111.622 155.921 98.1578 149.342Z" fill="#0072A3"/>
<path d="M98.1578 149.342L107.842 243.538C107.842 243.538 114.305 245.82 117.18 243.538L121.183 169.352L132.516 244.171C132.516 244.171 137.813 247.536 141.072 243.726L145.304 148.867C145.304 148.867 111.622 155.921 98.1578 149.342Z" fill="url(#paint0_linear)"/>
<path d="M155.41 127.81C148.334 133.561 145.106 130.798 145.106 130.798L145.335 148.867C145.335 148.867 108.258 157.728 98.1516 149.341L99.6697 111.427L101.956 94.3075L85.3937 106.163C83.9316 107.237 82.2458 107.981 80.457 108.34C78.6682 108.7 76.8205 108.667 75.0461 108.244C72.5366 107.605 70.1635 106.09 69.4138 102.767C67.6045 94.8552 68.7942 63.0752 68.7942 63.0752L79.2905 59.8984L83.1383 85.3005C83.1383 85.3005 98.4057 72.703 105.172 70.2504V70.1226L120.867 62.9109L132.138 60.2758C133.4 61.2427 134.751 62.0942 136.171 62.8196C139.562 64.7833 143.262 66.1778 147.12 66.9458C152.195 67.4874 154.32 76.823 155.001 81.2413C155.683 85.6596 160.367 107.514 160.367 107.514C160.367 107.514 162.486 122.065 155.41 127.81Z" fill="#0072A3"/>
<path d="M132.224 59.5029C131.676 60.6688 130.893 61.7134 129.922 62.5734C128.951 63.4333 127.812 64.0909 126.575 64.5062C125.338 64.9215 124.027 65.086 122.724 64.9896C121.42 64.8932 120.149 64.5381 118.989 63.9456C118.989 63.9456 110.978 77.6386 122.441 76.0137C128.513 75.1556 132.807 67.8283 133.451 61.1826L132.224 59.5029Z" fill="#3F3D56"/>
<path opacity="0.05" d="M131.71 110.472C132.119 110.04 133.68 110.088 134.269 110.235C136.902 110.892 144.183 112.669 145.05 112.127C146.079 111.488 142.206 85.4775 142.206 85.4775C142.206 85.4775 141.333 99.8643 122.571 106.778C113.431 110.143 128.835 114.744 128.835 114.744L131.71 110.472Z" fill="#000405"/>
<path opacity="0.05" d="M131.549 122.85C135.267 124.932 143.111 129.344 145.081 130.762V142.672C145.081 142.672 110.383 137.59 110.383 135.113C110.383 132.636 99.2731 116.405 99.2731 116.405L99.5023 114.373L129.504 110.879C129.504 110.879 130.936 109.206 128.742 119.752C128.482 121.055 130.372 122.205 131.549 122.85Z" fill="#000405"/>
<path d="M125.024 108.566L122.602 96.6562L95.7662 99.2305L101.615 134.954L128.451 132.958L125.024 108.566Z" fill="white"/>
<path d="M132.807 48.5186C132.807 48.5186 132.689 50.539 132.547 53.1742C132.429 55.3955 132.28 58.0428 132.156 60.2946C131.949 64.0649 130.295 67.6182 127.528 70.2387C125.917 71.8576 122.081 74.87 119.144 73.7989C117.731 73.2816 117.676 71.5167 117.973 70.4639C119.163 66.962 119.377 63.2113 118.593 59.6008C116.796 55.0912 132.807 48.5186 132.807 48.5186Z" fill="#9B8966"/>
<path d="M132.807 48.5186C132.807 48.5186 132.689 50.539 132.547 53.1742C131.425 55.6389 130.372 57.6472 129.796 58.6514C128.637 60.6719 123.86 63.8547 119.076 64.4938C119.127 62.8592 118.977 61.2245 118.63 59.6251C116.796 55.0912 132.807 48.5186 132.807 48.5186Z" fill="url(#paint1_linear)"/>
<path d="M118.853 21.7103C116.755 21.837 114.705 22.3865 112.832 23.3245C110.959 24.2626 109.303 25.5691 107.966 27.1629C106.63 28.7567 105.641 30.6036 105.062 32.5887C104.483 34.5738 104.327 36.6547 104.602 38.7019C105.08 44.8155 106.677 50.7942 109.317 56.3507C114.324 64.7369 126.951 57.8478 128.953 54.385C130.954 50.9222 138.681 35.3364 135.422 30.9181C133.197 27.9118 127.026 21.3939 118.853 21.7103Z" fill="url(#paint2_linear)"/>
<path d="M105.519 15.8678L108.041 17.1702C106.52 17.1299 105.011 17.4424 103.636 18.0821C102.261 18.7218 101.06 19.6708 100.128 20.8521C97.7848 23.1932 96.4529 26.3329 96.4104 29.6156L100.834 27.5525C100.834 27.5525 100.512 32.8898 108.846 33.3036C117.18 33.7174 126.022 34.0339 126.022 34.0339L123.184 30.1877C123.184 30.1877 128.445 32.2569 129.287 34.1252C130.102 37.1389 130.684 40.2088 131.028 43.3087C131.028 43.3087 133.129 38.0688 133.934 39.2068C134.74 40.3449 133.03 45.1161 131.933 46.1933C130.836 47.2705 131.028 50.3864 130.935 50.642C130.842 50.8976 136.103 46.6072 136.357 45.1648C136.611 43.7225 141.884 28.7332 138.458 25.6355L140.539 25.4773C139.308 24.6629 137.906 24.1305 136.438 23.9193C136.438 23.9193 122.701 6.24618 105.519 15.8678Z" fill="#3F3D56"/>
<path d="M100.382 250.427C100.382 250.427 103.617 252.046 103.809 254.553L104.069 255.922C104.069 255.922 116.207 253.664 117.564 250.902L116.982 246.715C116.293 247.474 115.422 248.051 114.448 248.394C113.474 248.738 112.428 248.836 111.405 248.68C108.53 247.822 109.082 246.015 109.082 246.015L100.382 250.427Z" fill="#0072A3"/>
<path d="M126.028 254.017L124.962 253.476L132.875 246.52C132.875 246.52 134.585 250.585 140.589 247.317L141.333 251.473C137.882 255.059 133.508 257.66 128.674 259.001C128.653 258.027 128.404 257.07 127.945 256.205C127.486 255.341 126.83 254.592 126.028 254.017Z" fill="#0072A3"/>
<path opacity="0.61" d="M100.382 250.427C100.382 250.427 103.617 252.046 103.809 254.553L104.069 255.922C104.069 255.922 116.207 253.664 117.564 250.902L116.982 246.715C116.293 247.474 115.422 248.051 114.448 248.394C113.474 248.738 112.428 248.836 111.405 248.68C108.53 247.822 109.082 246.015 109.082 246.015L100.382 250.427Z" fill="url(#paint3_linear)"/>
<path opacity="0.61" d="M126.028 254.017L124.962 253.476L132.875 246.52C132.875 246.52 134.585 250.585 140.589 247.317L141.333 251.473C137.882 255.059 133.508 257.66 128.674 259.001C128.653 258.027 128.404 257.07 127.945 256.205C127.486 255.341 126.83 254.592 126.028 254.017Z" fill="url(#paint4_linear)"/>
<path d="M116.207 154.009C116.207 154.009 117.793 166.716 121.313 169.351L120.216 154.423L116.207 154.009Z" fill="#3F3D56"/>
<path d="M138.984 150.2L140.496 244.104L145.304 148.867L138.984 150.2Z" fill="#3F3D56"/>
<path d="M126.48 121.025C123.087 121.027 119.719 120.446 116.529 119.309C116.013 119.159 115.534 118.905 115.123 118.564C114.712 118.223 114.378 117.801 114.141 117.326C113.905 116.851 113.771 116.333 113.749 115.805C113.727 115.277 113.817 114.75 114.014 114.257C114.698 112.769 115.726 111.457 117.017 110.427C118.308 109.397 119.825 108.677 121.449 108.324C124.989 108.285 128.494 109.01 131.716 110.448C132.297 110.662 132.815 111.012 133.226 111.469C133.636 111.926 133.926 112.475 134.07 113.067C134.214 113.66 134.207 114.278 134.051 114.868C133.894 115.457 133.592 116 133.172 116.448C131.388 118.523 129.08 120.101 126.48 121.025Z" fill="#9B8966"/>
<path d="M79.2966 59.9166C79.2966 59.9166 78.4911 51.9746 78.299 49.5708C78.1069 47.1669 79.0054 42.5173 76.4897 41.0506C75.5054 41.7435 74.4159 42.2795 73.2615 42.639C72.0656 42.8277 67.8027 37.0827 64.8967 42.639C61.9907 48.1954 62.8891 53.1492 64.5063 54.9628C66.2214 57.526 67.6742 60.2494 68.8436 63.0934L79.2966 59.9166Z" fill="#9B8966"/>
<path d="M133.451 244.566L132.875 246.501C132.875 246.501 135.298 251.424 140.589 247.298V244.377C139.528 245.04 138.304 245.408 137.047 245.441C135.79 245.474 134.547 245.172 133.451 244.566Z" fill="#3F3D56"/>
<path d="M124.38 105.39C125.142 105.561 125.83 105.961 126.35 106.534C127.229 107.64 128.166 108.7 129.157 109.711L125.049 108.566L124.38 105.39Z" fill="url(#paint5_linear)"/>
</g>
<defs>
<linearGradient id="paint0_linear" x1="49.9888" y1="194.541" x2="165.37" y2="198.036" gradientUnits="userSpaceOnUse">
<stop stop-color="#68E1FD" stop-opacity="0"/>
<stop offset="0.02" stop-color="#66DAF6" stop-opacity="0.04"/>
<stop offset="0.18" stop-color="#58A1BC" stop-opacity="0.39"/>
<stop offset="0.35" stop-color="#4D758F" stop-opacity="0.66"/>
<stop offset="0.53" stop-color="#45566F" stop-opacity="0.85"/>
<stop offset="0.73" stop-color="#40435C" stop-opacity="0.96"/>
<stop offset="0.99" stop-color="#3F3D56"/>
</linearGradient>
<linearGradient id="paint1_linear" x1="6523.39" y1="3057.93" x2="6434.82" y2="3948.27" gradientUnits="userSpaceOnUse">
<stop stop-color="#968160"/>
<stop offset="0.42" stop-color="#EFD4D1"/>
<stop offset="1" stop-color="#F2EAC9"/>
</linearGradient>
<linearGradient id="paint2_linear" x1="13208.4" y1="6535.34" x2="14833.7" y2="6535.34" gradientUnits="userSpaceOnUse">
<stop stop-color="#9B8966"/>
<stop offset="0.42" stop-color="#7D5E2F"/>
<stop offset="1" stop-color="#716639"/>
</linearGradient>
<linearGradient id="paint3_linear" x1="111.666" y1="258.217" x2="107.733" y2="245.026" gradientUnits="userSpaceOnUse">
<stop offset="0.36" stop-color="#00272E"/>
<stop offset="1" stop-color="#69B9EB" stop-opacity="0"/>
</linearGradient>
<linearGradient id="paint4_linear" x1="7780.69" y1="6847.09" x2="7648.59" y2="6541.02" gradientUnits="userSpaceOnUse">
<stop offset="0.36" stop-color="#00272E"/>
<stop offset="1" stop-color="#69B9EB" stop-opacity="0"/>
</linearGradient>
<linearGradient id="paint5_linear" x1="2249.87" y1="1305.99" x2="2286.71" y2="1305.99" gradientUnits="userSpaceOnUse">
<stop stop-color="#ECC4D7"/>
<stop offset="0.42" stop-color="#EFD4D1"/>
<stop offset="1" stop-color="#F2EAC9"/>
</linearGradient>
<clipPath id="clip0">
<rect width="275" height="275" fill="white"/>
</clipPath>
</defs>
</svg>
