<svg width="100" height="100" viewBox="0 0 100 100" fill="none" xmlns="http://www.w3.org/2000/svg">
<path d="M86.2342 26.2919L99.1404 13.4013C99.9791 12.5636 100.23 11.3032 99.7772 10.2081C99.3238 9.1128 98.2553 8.39855 97.0701 8.39855H91.2108V2.92981C91.2108 1.73625 90.4867 0.662036 89.3805 0.214186C88.2737 -0.233665 87.0067 0.0343033 86.1764 0.891724L73.6764 13.7999C73.1473 14.3464 72.8514 15.0772 72.8514 15.838V22.6241C64.8749 15.72 54.7561 11.9521 44.0237 11.9521C19.5853 11.9522 0 31.5299 0 55.9762C0 80.4146 19.5775 99.9999 44.0237 99.9999C68.4622 99.9999 88.0477 80.4224 88.0477 55.9762C88.0477 45.2438 84.2797 35.1253 77.3756 27.1485H84.1637C84.9403 27.1485 85.685 26.8405 86.2342 26.2919ZM71.0524 83.0046C63.8712 90.1857 54.2722 94.1406 44.0237 94.1406C22.8238 94.1406 5.85936 77.1838 5.85936 55.9762C5.85936 34.4903 23.1699 17.77 44.0237 17.77C52.897 17.77 61.7704 20.8319 68.903 26.9555L64.7436 31.1149C58.9634 26.293 51.711 23.6661 44.0237 23.6661C26.0675 23.6661 11.7138 38.0141 11.7138 55.976C11.7138 73.9316 26.0613 88.2859 44.0237 88.2859C61.98 88.2859 76.3336 73.9379 76.3336 55.976C76.3336 48.2897 73.7075 41.0381 68.8866 35.2583L73.0462 31.0987C85.9231 46.0998 85.2584 68.7982 71.0524 83.0046ZM44.1214 47.0924C39.2599 47.0924 35.3357 51.016 35.3357 55.8783C35.3357 60.74 39.2593 64.6641 44.1214 64.6641C48.9831 64.6641 52.9073 60.7406 52.9073 55.8783C52.9073 54.5447 52.6124 53.2572 52.0548 52.0899L56.3413 47.8034C57.9157 50.1905 58.762 53.0086 58.762 55.9762C58.762 69.4699 42.5177 75.3808 33.5681 66.4318C24.6398 57.5035 30.4927 41.2379 44.0237 41.2379C46.9923 41.2379 49.8114 42.0846 52.1987 43.6598L47.9124 47.9461C46.7442 47.3877 45.456 47.0924 44.1214 47.0924ZM47.0482 55.8785C47.0482 57.5018 45.745 58.8049 44.1216 58.8049C43.337 58.8049 42.6013 58.5014 42.0501 57.95C41.4987 57.3988 41.1952 56.6631 41.1952 55.8785C41.1952 54.2555 42.4982 52.952 44.1216 52.952C45.7446 52.952 47.0482 54.2549 47.0482 55.8785ZM56.4036 39.4551C52.8698 36.81 48.5685 35.3786 44.0237 35.3786C32.5531 35.3786 23.4263 44.4995 23.4263 55.976C23.4263 67.4467 32.5474 76.5734 44.0237 76.5734C55.4944 76.5734 64.6212 67.4525 64.6212 55.976C64.6212 51.4323 63.1903 47.1317 60.5464 43.5983L64.7223 39.4223C68.4491 44.0817 70.4743 49.8584 70.4743 55.9758C70.4743 70.693 58.7475 82.4263 44.0237 82.4263C29.3058 82.4263 17.5732 70.699 17.5732 55.9758C17.5732 41.2551 29.3037 29.5253 44.0237 29.5253C50.1421 29.5253 55.9196 31.551 60.5794 35.2788L56.4036 39.4551ZM78.7108 21.2891V17.0241L85.3514 10.1667V11.3282C85.3514 12.9462 86.6631 14.2579 88.2811 14.2579H89.9912L82.9514 21.2891H78.7108Z" fill="#0072A3"/>
</svg>
