<svg width="24" height="20" viewBox="0 0 24 20" fill="none" xmlns="http://www.w3.org/2000/svg">
<path d="M23.6183 2.3406C23.085 2.57706 22.5315 2.7636 21.9635 2.89865C22.5894 2.30391 23.0599 1.56002 23.3254 0.729697C23.4012 0.492654 23.1437 0.287678 22.9297 0.414596C22.1395 0.883297 21.2884 1.23491 20.3998 1.45978C20.3483 1.47283 20.2951 1.47944 20.2417 1.47944C20.0799 1.47944 19.9225 1.41935 19.7988 1.31028C18.8534 0.477089 17.6375 0.018219 16.3752 0.018219C15.829 0.018219 15.2775 0.103358 14.736 0.271294C13.0582 0.791663 11.7637 2.17559 11.3576 3.88304C11.2052 4.52348 11.164 5.16451 11.2349 5.78827C11.243 5.85995 11.2091 5.90998 11.1882 5.93345C11.1515 5.97458 11.0995 5.99816 11.0455 5.99816C11.0395 5.99816 11.0333 5.99787 11.0271 5.99729C7.35466 5.65609 4.04298 3.88679 1.70211 1.01536C1.58274 0.868902 1.35383 0.886866 1.25868 1.05006C0.800282 1.8365 0.558032 2.73598 0.558032 3.65127C0.558032 5.05397 1.12158 6.37587 2.10047 7.33955C1.68882 7.24195 1.2904 7.08823 0.920295 6.88267C0.741241 6.78319 0.520934 6.91105 0.518418 7.11585C0.492788 9.19967 1.71281 11.0539 3.54046 11.8888C3.50365 11.8897 3.46684 11.8901 3.42998 11.8901C3.14027 11.8901 2.84694 11.8621 2.55823 11.807C2.35659 11.7685 2.18719 11.9597 2.2498 12.1552C2.84302 14.0073 4.43766 15.3724 6.34593 15.6824C4.76218 16.7455 2.91786 17.3063 0.998295 17.3063L0.399867 17.306C0.215488 17.306 0.0595472 17.4262 0.0125601 17.6047C-0.0337248 17.7806 0.0515308 17.9662 0.208759 18.0576C2.3718 19.3165 4.83907 19.9818 7.34489 19.9818C9.5383 19.9818 11.5901 19.5465 13.4432 18.6881C15.1421 17.9011 16.6433 16.7762 17.9052 15.3445C19.0808 14.0108 20 12.4713 20.6374 10.7686C21.2449 9.1456 21.5661 7.4138 21.5661 5.76042V5.68166C21.566 5.41618 21.6861 5.16638 21.8956 4.99634C22.6905 4.35092 23.3827 3.59117 23.9529 2.73821C24.1035 2.51298 23.866 2.23071 23.6183 2.3406Z" fill="white"/>
</svg>
