<svg width="126" height="130" viewBox="0 0 126 130" fill="none" xmlns="http://www.w3.org/2000/svg">
<rect width="126" height="130" fill="#E5E5E5"/>
<g clip-path="url(#clip0)">
<rect width="1440" height="900" transform="translate(-203 -293)" fill="#F9FAFC"/>
<g clip-path="url(#clip1)">
<path opacity="0.18" d="M125.39 62.6896C125.39 73.7225 122.479 84.5601 116.952 94.1083C111.424 103.657 103.475 111.577 93.9073 117.071C84.3396 122.565 73.4918 125.438 62.459 125.399C51.4262 125.36 40.5989 122.411 31.0702 116.85L33.6302 119.17L2.86024 129.73L13.2502 101.25C7.10929 93.3762 2.93754 84.15 1.08217 74.3389C-0.773203 64.5277 -0.258539 54.4153 2.58333 44.8431C5.4252 35.271 10.5121 26.516 17.4207 19.3068C24.3292 12.0975 32.8597 6.64251 42.3021 3.39567C51.7446 0.14883 61.8259 -0.795916 71.7072 0.640047C81.5885 2.07601 90.9839 5.85115 99.1116 11.6513C107.239 17.4515 113.864 25.1089 118.435 33.9864C123.006 42.8638 125.39 52.7046 125.39 62.6896Z" fill="#0072A3"/>
<path d="M52.0302 83.8098C52.0302 83.8098 34.7902 84.1597 26.0302 98.5497C26.0302 98.5497 21.4602 119 22.0302 123.36L33.3302 118.24C33.6702 119.17 50.2702 125.73 64.7402 125.08C91.4302 123.89 103.52 110.37 103.52 110.37C103.52 110.37 100.69 91.1797 84.8702 86.8197C69.0502 82.4597 52.0302 83.8098 52.0302 83.8098Z" fill="#0072A3"/>
<path d="M51.9102 82.9502C51.9102 82.9502 48.1802 83.5202 48.3002 86.2202C48.4202 88.9202 48.8702 97.0502 53.0602 95.1002C57.2502 93.1502 60.8002 87.2502 60.8002 87.2502L51.9102 82.9502Z" fill="white"/>
<path d="M71.2799 82.9502C71.2799 82.9502 75.0099 83.5202 74.8999 86.2202C74.7899 88.9202 74.3199 97.0502 70.1399 95.1002C65.9599 93.1502 62.3999 87.2502 62.3999 87.2502L71.2799 82.9502Z" fill="white"/>
<path d="M37.8098 44.03C37.8098 44.03 33.5698 70.86 44.2298 74.29C45.3925 74.9812 46.6845 75.4266 48.0262 75.5986C49.3678 75.7706 50.7304 75.6656 52.0298 75.29V83.77C52.0298 83.77 62.7998 91.91 71.6298 83.2V61.37C71.6298 61.37 70.6298 48.02 67.9598 49.44C67.3498 49.78 61.9598 49.22 61.0798 39.44C61.0798 39.44 48.6998 33.94 42.9698 37.72C37.2398 41.5 37.8098 44.03 37.8098 44.03Z" fill="#855032"/>
<path d="M35.2002 43.1301C35.8483 44.307 36.7268 45.3413 37.7835 46.1712C38.8401 47.001 40.0532 47.6094 41.3502 47.9601C42.6575 48.2718 44.0299 48.1621 45.271 47.6466C46.5121 47.1311 47.5584 46.2362 48.2602 45.0901C49.3311 46.5934 50.9174 47.6504 52.7172 48.0598C54.517 48.4691 56.4044 48.2023 58.0202 47.3101C59.4402 49.3101 62.1502 49.8601 64.5802 49.7101C67.6955 49.57 70.6621 48.338 72.9602 46.2301C74.0771 45.1625 74.9298 43.8493 75.4506 42.3946C75.9714 40.94 76.1458 39.384 75.9602 37.8501C75.4302 34.2601 72.7202 31.3701 69.8202 29.2001C65.236 25.7068 59.8022 23.5008 54.0802 22.8101C48.9102 22.2301 40.6502 22.8101 36.6902 26.7101C32.7302 30.6101 32.3702 38.3701 35.2002 43.1301Z" fill="#58372C"/>
<path d="M52.0298 75.3699C52.0298 75.3699 58.5598 73.6499 60.9698 70.6699C60.9698 70.6699 57.6398 83.7399 52.0298 83.8499V75.3699Z" fill="url(#paint0_linear)"/>
<path d="M65.2802 45.9499L65.7502 55.1999L67.6102 52.6599C67.8902 52.2699 68.2702 51.8499 68.7402 51.9299C69.2102 52.0099 69.3202 52.3399 69.4802 52.6599C70.2054 54.1505 70.4635 55.8254 70.2209 57.4652C69.9782 59.1049 69.246 60.6332 68.1202 61.8499C67.7238 62.1916 67.4007 62.61 67.1702 63.0799C67.0585 63.4868 67.0313 63.9122 67.0902 64.3299C67.2802 67.0299 71.2602 70.1999 71.9402 68.2399C72.6202 66.2799 72.7502 64.1499 73.3902 62.1699C74.4029 59.6228 75.8249 57.2583 77.6002 55.1699C79.3928 53.0743 80.7524 50.6441 81.6002 48.0199C82.2602 45.3599 81.7402 42.2299 79.6002 40.4799C79.1983 40.223 78.8571 39.8818 78.6002 39.4799C78.4782 39.1604 78.4139 38.8219 78.4102 38.4799C78.173 35.1578 76.7994 32.0185 74.5202 29.5899C73.3737 28.3904 71.9859 27.4476 70.4483 26.8236C68.9108 26.1996 67.2584 25.9087 65.6002 25.9699C65.0385 25.9733 64.4848 26.1032 63.9802 26.3499C63.5206 26.6679 63.1328 27.0788 62.8417 27.5559C62.5506 28.033 62.3628 28.5658 62.2902 29.1199C61.2202 34.1199 63.5402 39.1199 64.4102 44.1999" fill="#58372C"/>
</g>
</g>
<defs>
<linearGradient id="paint0_linear" x1="58.8098" y1="86.5599" x2="51.3598" y2="56.5199" gradientUnits="userSpaceOnUse">
<stop stop-opacity="0"/>
<stop offset="0.99"/>
</linearGradient>
<clipPath id="clip0">
<rect width="1440" height="900" fill="white" transform="translate(-203 -293)"/>
</clipPath>
<clipPath id="clip1">
<rect width="401.62" height="129.72" fill="white"/>
</clipPath>
</defs>
</svg>
