<svg width="127" height="130" viewBox="0 0 127 130" fill="none" xmlns="http://www.w3.org/2000/svg">
<rect width="127" height="130" fill="#E5E5E5"/>
<g clip-path="url(#clip0)">
<rect width="1440" height="900" transform="translate(-341 -293)" fill="#F9FAFC"/>
<g clip-path="url(#clip1)">
<path opacity="0.18" d="M126.09 62.6905C126.088 73.7236 123.175 84.561 117.646 94.1088C112.117 103.657 104.168 111.577 94.5994 117.071C85.0312 122.564 74.1832 125.437 63.1501 125.398C52.117 125.359 41.2894 122.411 31.7599 116.85L34.3199 119.17L3.5199 129.73L13.8999 101.25C7.76176 93.3764 3.59266 84.1505 1.73949 74.3401C-0.113673 64.5298 0.402661 54.4187 3.24555 44.8482C6.08844 35.2777 11.1757 26.5244 18.084 19.3166C24.9924 12.1088 33.522 6.65496 42.9634 3.40878C52.4048 0.162603 62.4848 -0.782041 72.365 0.653443C82.2451 2.08893 91.6395 5.86303 99.7668 11.6618C107.894 17.4605 114.519 25.1162 119.091 33.9919C123.662 42.8676 126.048 52.7066 126.05 62.6905H126.09Z" fill="#0072A3"/>
<path d="M52.4402 83.8101C52.4402 83.8101 35.2002 84.1601 26.4402 98.5501C26.4402 98.5501 20.4402 119.17 21.0402 123.55L34.3602 119.19C41.0002 122.9 50.9702 125.74 65.1502 125.1C91.8902 123.91 103.93 110.36 103.93 110.36C103.93 110.36 101.1 91.1701 85.2802 86.8101C69.4602 82.4501 52.4402 83.8101 52.4402 83.8101Z" fill="#0072A3"/>
<path d="M89.92 60.87C92.09 49.79 94.04 32.69 86.41 29.19L81.41 28.96C81.41 28.96 77.74 20.46 63.04 21.84C48.34 23.22 33.52 35.61 40.22 55.74C43.7 66.18 37.52 81.37 37.52 81.37L59.14 81.29L92.52 80.23C89.5326 74.2429 88.6181 67.4332 89.92 60.87Z" fill="#404040"/>
<path d="M86.6398 43.8196C86.6398 43.8196 90.8798 70.6496 80.2198 74.0896C79.0576 74.782 77.7655 75.228 76.4237 75.4C75.0819 75.572 73.7191 75.4664 72.4198 75.0896V83.5797C72.4198 83.5797 61.6498 91.7197 52.8198 82.9996V61.0996C52.8198 61.0996 53.8198 47.7596 56.4898 49.1796C57.0998 49.5096 62.4898 48.9496 63.3698 39.1796C63.3698 39.1796 75.7498 33.6696 81.4798 37.4596C87.2098 41.2496 86.6398 43.8196 86.6398 43.8196Z" fill="#855032"/>
<path d="M72.42 75.1199C72.42 75.1199 65.89 73.3999 63.48 70.4199C63.48 70.4199 66.8 83.4899 72.42 83.6099V75.1199Z" fill="url(#paint0_linear)"/>
<path d="M77.7702 36.0399C74.4602 36.0399 70.8602 36.5099 68.5302 38.8499C65.6502 41.7399 65.7202 46.3399 64.4602 50.2199C63.5298 53.176 61.6668 55.7513 59.1502 57.5599C57.89 58.4483 56.4653 59.0765 54.9595 59.4079C53.4537 59.7393 51.8969 59.7671 50.3802 59.4899C50.0686 59.4571 49.767 59.3613 49.4937 59.2083C49.2204 59.0553 48.981 58.8483 48.7902 58.5999C48.5795 58.1511 48.5064 57.6501 48.5802 57.1599C48.8702 51.6599 49.5202 45.9699 52.3602 41.2599C53.945 38.6554 56.1332 36.4706 58.7402 34.8899C60.2545 33.9229 61.9603 33.2952 63.7402 33.0499C67.2402 32.6499 70.6402 34.2099 73.8102 35.7399" fill="#404040"/>
<path d="M52.3301 82.9502C52.3301 82.9502 48.6001 83.5202 48.7201 86.2202C48.8401 88.9202 49.2901 97.0502 53.4801 95.1002C57.6701 93.1502 61.2201 87.2502 61.2201 87.2502L52.3301 82.9502Z" fill="white"/>
<path d="M71.6998 82.9502C71.6998 82.9502 75.4298 83.5202 75.3198 86.2202C75.2098 88.9202 74.7398 97.0502 70.5598 95.1002C66.3798 93.1502 62.8198 87.2502 62.8198 87.2502L71.6998 82.9502Z" fill="white"/>
<path d="M61.8102 100.05C62.9535 100.05 63.8802 99.1234 63.8802 97.9802C63.8802 96.8369 62.9535 95.9102 61.8102 95.9102C60.667 95.9102 59.7402 96.8369 59.7402 97.9802C59.7402 99.1234 60.667 100.05 61.8102 100.05Z" fill="white"/>
<path d="M61.8102 107.37C62.9535 107.37 63.8802 106.444 63.8802 105.3C63.8802 104.157 62.9535 103.23 61.8102 103.23C60.667 103.23 59.7402 104.157 59.7402 105.3C59.7402 106.444 60.667 107.37 61.8102 107.37Z" fill="white"/>
<path d="M61.8102 114.69C62.9535 114.69 63.8802 113.763 63.8802 112.62C63.8802 111.477 62.9535 110.55 61.8102 110.55C60.667 110.55 59.7402 111.477 59.7402 112.62C59.7402 113.763 60.667 114.69 61.8102 114.69Z" fill="white"/>
</g>
</g>
<defs>
<linearGradient id="paint0_linear" x1="10279.1" y1="2734.54" x2="10414.8" y2="2363.6" gradientUnits="userSpaceOnUse">
<stop stop-opacity="0"/>
<stop offset="0.99"/>
</linearGradient>
<clipPath id="clip0">
<rect width="1440" height="900" fill="white" transform="translate(-341 -293)"/>
</clipPath>
<clipPath id="clip1">
<rect width="401.62" height="129.72" fill="white" transform="translate(-138)"/>
</clipPath>
</defs>
</svg>
