<svg width="126" height="130" viewBox="0 0 126 130" fill="none" xmlns="http://www.w3.org/2000/svg">
<rect width="126" height="130" fill="#E5E5E5"/>
<g clip-path="url(#clip0)">
<rect width="1440" height="900" transform="translate(-479 -293)" fill="#F9FAFC"/>
<g clip-path="url(#clip1)">
<path opacity="0.18" d="M125.63 62.6905C125.63 73.7233 122.719 84.5609 117.191 94.1091C111.664 103.657 103.715 111.578 94.1471 117.072C84.5794 122.566 73.7316 125.439 62.6988 125.4C51.666 125.361 40.8387 122.412 31.31 116.85L33.86 119.17L3.1 129.73L13.52 101.25C7.38186 93.3764 3.21278 84.1505 1.35962 74.3401C-0.493551 64.5298 0.0227678 54.4187 2.86566 44.8482C5.70855 35.2777 10.7958 26.5244 17.7041 19.3166C24.6125 12.1088 33.1422 6.65496 42.5835 3.40878C52.0249 0.162603 62.105 -0.782041 71.9851 0.653443C81.8652 2.08893 91.2596 5.86303 99.3869 11.6618C107.514 17.4605 114.139 25.1162 118.711 33.9919C123.282 42.8676 125.668 52.7066 125.67 62.6905H125.63Z" fill="#0072A3"/>
<path d="M51.9902 83.8101C51.9902 83.8101 34.7502 84.1601 25.9402 98.5501C25.9402 98.5501 19.9402 119.17 20.5402 123.55L33.8602 119.19C40.5002 122.9 50.4702 125.74 64.6602 125.1C91.3902 123.91 103.43 110.36 103.43 110.36C103.43 110.36 100.6 91.1701 84.7802 86.8101C68.9602 82.4501 51.9902 83.8101 51.9902 83.8101Z" fill="#0072A3"/>
<path d="M53.29 69.1305C53.29 69.1305 53.07 81.3205 51.99 83.8105C50.91 86.3005 60.46 93.9105 70.24 86.9605L70.89 83.9105C70.89 83.9105 69.16 75.4405 70.24 68.0505C71.32 60.6605 53.29 69.1305 53.29 69.1305Z" fill="#855032"/>
<path d="M53.1401 70.7303C53.1401 70.7303 54.8501 78.9203 62.0901 79.4903C69.3301 80.0603 69.9201 77.6104 69.9201 77.6104L70.1001 67.1104L53.1401 70.7303Z" fill="url(#paint0_linear)"/>
<path d="M42.2798 44.3704C41.8637 44.069 41.3865 43.8627 40.882 43.7659C40.3775 43.6692 39.8578 43.6844 39.3598 43.8104C38.9737 43.9717 38.6311 44.2218 38.3598 44.5404C36.8398 46.1504 36.9198 48.6904 37.3598 50.8604C37.6306 52.0778 37.9985 53.2716 38.4598 54.4304C38.6453 54.9686 38.919 55.4721 39.2698 55.9204C40.3398 57.2104 42.2698 57.3804 43.9198 57.1904C44.4159 57.1905 44.9049 57.0727 45.3465 56.8467C45.7882 56.6206 46.1697 56.2929 46.4598 55.8904C46.6107 55.5455 46.6988 55.1763 46.7198 54.8004C47.1398 50.4304 46.1098 46.6904 42.2798 44.3704Z" fill="#AD6841"/>
<path d="M83.6101 46.1504C84.8401 45.2904 86.44 44.6304 87.82 45.2204C88.3604 45.493 88.8201 45.9023 89.1534 46.4075C89.4867 46.9127 89.682 47.4963 89.7201 48.1004C89.7888 49.3124 89.5766 50.5239 89.1 51.6404C88.6291 53.0758 87.8855 54.4068 86.9101 55.5604C85.9145 56.7023 84.5183 57.4182 83.01 57.5604C82.2569 57.6169 81.5032 57.4591 80.836 57.1051C80.1689 56.7512 79.6156 56.2156 79.2401 55.5604C78.8729 54.6812 78.7022 53.7324 78.7401 52.7804C78.671 52.0442 78.7561 51.3018 78.9901 50.6004C79.5801 49.1504 82.3501 47.0204 83.6101 46.1504Z" fill="#AD6841"/>
<path d="M82.3402 50.2598C80.7802 63.3298 73.5102 74.0898 62.6302 74.0898C51.7502 74.0898 42.9302 63.4198 42.9302 50.2598C42.9302 37.0998 49.9302 22.2598 60.8102 22.2598C71.6902 22.2598 85.5202 23.5298 82.3402 50.2598Z" fill="#855032"/>
<path d="M42.9401 44.2504L43.1201 47.1704C43.1201 47.6304 43.2701 48.1704 43.7201 48.3004C44.1701 48.4304 44.6101 47.6204 44.6201 47.0204C44.6201 44.6204 43.8701 41.9104 45.3601 40.0204C45.733 39.6515 46.068 39.2462 46.3601 38.8104C46.9801 37.5604 46.0401 35.9704 46.6001 34.6904C46.9301 33.9604 47.6601 33.5104 48.1901 32.9004C48.8402 31.9473 49.3363 30.8978 49.6601 29.7904C49.7806 29.4179 50.0149 29.0927 50.3301 28.8604C50.6308 28.7352 50.947 28.6511 51.2701 28.6104C52.4901 28.3004 53.2101 27.0504 54.2701 26.4004C55.2295 25.923 56.303 25.7221 57.3701 25.8204C61.5401 25.9504 65.8801 27.4304 69.7401 25.8204C71.3262 28.0747 73.7372 29.6126 76.4501 30.1004C76.6765 30.1138 76.8946 30.19 77.0801 30.3204C77.2586 30.5355 77.376 30.7945 77.4201 31.0704C77.8184 31.9496 78.3819 32.744 79.0801 33.4104C81.4901 36.4104 81.4401 40.5604 81.2601 44.4104L80.9801 50.5204L83.1101 46.9404C83.3293 46.5225 83.6166 46.144 83.9601 45.8204C84.3501 45.4904 84.8701 45.2904 85.1101 44.8204C85.2113 44.5861 85.2689 44.3354 85.2801 44.0804L85.8001 38.8404C85.9526 37.8963 85.9186 36.9315 85.7001 36.0004C85.5201 35.4204 85.2001 34.8904 85.0201 34.3104C84.8197 33.2453 84.7893 32.1551 84.9301 31.0804C84.9992 30.5422 84.951 29.9953 84.7887 29.4775C84.6264 28.9596 84.354 28.483 83.9901 28.0804C84.6901 25.7404 85.3501 23.2604 84.8001 20.8804C84.2501 18.5004 82.0401 16.3304 79.6301 16.6904C79.2651 16.7874 78.8851 16.8145 78.5101 16.7704C78.1941 16.662 77.9045 16.4882 77.6601 16.2604C75.9789 14.9362 73.9275 14.1674 71.7901 14.0604C69.2726 13.9004 66.7476 13.9004 64.2301 14.0604C58.5701 14.5304 52.6301 13.3604 47.3401 15.4004C46.0663 15.8701 44.8924 16.5758 43.8801 17.4804C42.8355 18.5465 41.9376 19.7471 41.2101 21.0504C40.804 21.6301 40.5028 22.2766 40.3201 22.9604C40.2347 23.7113 40.2347 24.4695 40.3201 25.2204C40.3201 27.7304 39.0401 30.2204 39.4601 32.6704C39.6101 33.5804 39.9801 34.4304 40.1101 35.3404C40.1801 36.169 40.1801 37.0019 40.1101 37.8304C40.0411 39.9266 40.4089 42.0141 41.1901 43.9604C41.3201 44.2904 41.5301 44.6704 41.8901 44.7004C42.2501 44.7304 42.6201 43.8604 42.9401 44.2504Z" fill="#404040"/>
<path d="M45.8098 66.2101C46.0799 67.4195 46.4963 68.5914 47.0498 69.7001C48.4707 72.1108 50.7098 73.9312 53.3598 74.8301C55.9942 75.7062 58.7535 76.1487 61.5298 76.1401C65.2552 76.2406 68.9823 76.0198 72.6698 75.4801C73.9898 75.2901 73.8898 75.0001 74.9498 74.2101C76.6598 72.9301 78.6198 70.6501 78.9498 68.5401C80.0098 62.2701 81.7798 53.5401 81.5198 47.1801C79.8198 50.3201 79.8398 57.0401 77.3698 59.6201C76.0298 61.0101 74.0298 61.4901 72.1298 61.8001C66.017 62.8125 59.7728 62.7278 53.6898 61.5501C51.8496 61.3416 50.1111 60.5975 48.6898 59.4101C46.5298 57.2801 46.6898 53.8501 46.2198 50.8501C46.0298 49.5301 45.5198 47.5601 44.0698 47.1201C43.6298 49.7501 44.2298 52.6301 44.2898 55.2801C44.379 58.9694 44.889 62.6365 45.8098 66.2101Z" fill="#404040"/>
<path d="M40.9301 48.5596C40.9342 48.2593 40.8972 47.9599 40.8201 47.6696C40.7794 47.5252 40.6951 47.3968 40.5788 47.302C40.4625 47.2071 40.3198 47.1505 40.1701 47.1396C39.8501 47.1396 39.6201 47.4397 39.4701 47.7197C38.9324 48.9056 38.8786 50.2546 39.3201 51.4796C39.6479 52.7293 40.4192 53.817 41.4901 54.5396C41.7519 54.7347 42.0632 54.8523 42.3886 54.8788C42.714 54.9053 43.0402 54.8398 43.3301 54.6897C44.3301 53.9997 43.9401 51.9796 43.0401 51.4196C42.4901 51.0796 42.0401 51.1196 41.6101 50.5196C41.1986 49.9458 40.9624 49.265 40.9301 48.5596Z" fill="#AD6841"/>
<path d="M85.4101 48.5596C85.406 48.2593 85.4429 47.9599 85.5201 47.6696C85.5608 47.5252 85.6451 47.3968 85.7614 47.302C85.8777 47.2071 86.0204 47.1505 86.1701 47.1396C86.4901 47.1396 86.7201 47.4397 86.8701 47.7197C87.4078 48.9056 87.4616 50.2546 87.0201 51.4796C86.6923 52.7293 85.9209 53.817 84.85 54.5396C84.5883 54.7347 84.277 54.8523 83.9516 54.8788C83.6262 54.9053 83.2999 54.8398 83.0101 54.6897C82.0101 53.9997 82.4101 51.9796 83.3001 51.4196C83.8501 51.0796 84.3001 51.1196 84.7301 50.5196C85.1415 49.9458 85.3778 49.265 85.4101 48.5596Z" fill="url(#paint1_linear)"/>
<path d="M74.2499 78.8198C73.2481 78.3662 72.1438 78.1868 71.0499 78.2998C64.2999 78.4798 57.3199 79.8798 50.9699 77.5898C49.8814 78.6468 49.0826 79.9656 48.6499 81.4198C47.9999 84.4898 50.5899 87.3398 53.3899 88.7398C58.1199 91.1198 63.6599 91.0698 68.9399 90.7398C71.0099 90.6198 73.2499 90.4098 74.7899 89.0098C77.2399 86.8298 77.3699 80.5698 74.2499 78.8198Z" fill="#0072A3"/>
<path d="M48.52 83.7002C48.52 83.7002 46.34 88.9102 57.21 89.1302C57.21 89.1302 46.34 89.3502 43.3 91.7402C40.26 94.1302 32.65 97.8202 32.22 102.61C31.79 107.4 29.17 120.21 29.17 120.21L20.52 123.53L25.92 98.5302C28.4796 94.6504 31.8042 91.3339 35.6902 88.7839C39.5763 86.2339 43.942 84.504 48.52 83.7002Z" fill="url(#paint2_linear)"/>
</g>
</g>
<defs>
<linearGradient id="paint0_linear" x1="5946.57" y1="2719" x2="5986.23" y2="1905.58" gradientUnits="userSpaceOnUse">
<stop stop-opacity="0"/>
<stop offset="0.99"/>
</linearGradient>
<linearGradient id="paint1_linear" x1="4649.34" y1="1342.16" x2="4599.8" y2="1337.62" gradientUnits="userSpaceOnUse">
<stop stop-opacity="0"/>
<stop offset="0.99"/>
</linearGradient>
<linearGradient id="paint2_linear" x1="12213" y1="9742.48" x2="10729.7" y2="5029.29" gradientUnits="userSpaceOnUse">
<stop stop-opacity="0"/>
<stop offset="0.99"/>
</linearGradient>
<clipPath id="clip0">
<rect width="1440" height="900" fill="white" transform="translate(-479 -293)"/>
</clipPath>
<clipPath id="clip1">
<rect width="401.62" height="129.72" fill="white" transform="translate(-276)"/>
</clipPath>
</defs>
</svg>
