<svg width="170" height="160" viewBox="0 0 170 160" fill="none" xmlns="http://www.w3.org/2000/svg">
<rect width="170" height="160" fill="#E5E5E5"/>
<g clip-path="url(#clip0)">
<rect width="1440" height="2933" transform="translate(-320 -1713)" fill="white"/>
<g clip-path="url(#clip1)">
<path opacity="0.24" d="M80.0274 159.237C101.256 160.591 123.089 160.856 143.181 153.867C148.681 151.954 154.069 149.464 158.513 145.705C168.905 136.915 172.678 121.141 167.391 108.602C164.563 101.903 159.409 95.9165 158.975 88.6715C158.597 82.3565 161.895 76.5031 164.283 70.6427C170.748 54.7889 170.371 35.3265 159.909 21.7909C148.716 7.27978 129.075 2.48936 110.84 0.891384C97.0151 -0.261883 83.1198 -0.298132 69.2892 0.782988C63.8869 1.1851 58.3866 1.75856 53.4389 3.96145C45.928 7.30775 40.4768 14.0703 36.3787 21.1965C32.6321 27.7121 29.7777 34.7015 27.8923 41.9771C26.4517 47.5333 25.567 53.2748 23.3222 58.5583C19.7136 67.0726 12.8741 73.7163 8.0103 81.5802C-1.64397 97.1648 -4.48325 126.166 10.3705 139.946C27.4902 155.828 58.1034 157.835 80.0274 159.237Z" fill="#0072A3"/>
<path d="M132.009 43.1138C133.621 40.2325 134.74 36.652 133.289 33.6728C133.147 33.2944 132.862 32.9869 132.495 32.8161C132.289 32.7567 132.072 32.7424 131.859 32.7742C128.341 33.1238 125.995 36.568 124.75 39.8759C123.506 43.1837 122.75 46.8692 120.261 49.3798C119.173 50.4742 117.813 51.2785 116.764 52.4254C114.502 54.9325 114.183 58.597 114.079 61.9747C113.967 65.5588 114.124 72.0696 119.198 71.3458C121.873 70.9611 125.373 67.6044 126.471 65.1882C127.744 62.3908 127.212 58.8697 127.296 55.8906C127.457 50.719 129.551 47.4916 132.009 43.1138Z" fill="#0072A3"/>
<path d="M132.009 43.1138C133.621 40.2325 134.74 36.652 133.289 33.6728C133.147 33.2944 132.862 32.9869 132.495 32.8161C132.289 32.7567 132.072 32.7424 131.859 32.7742C128.341 33.1238 125.995 36.568 124.75 39.8759C123.506 43.1837 122.75 46.8692 120.261 49.3798C119.173 50.4742 117.813 51.2785 116.764 52.4254C114.502 54.9325 114.183 58.597 114.079 61.9747C113.967 65.5588 114.124 72.0696 119.198 71.3458C121.873 70.9611 125.373 67.6044 126.471 65.1882C127.744 62.3908 127.212 58.8697 127.296 55.8906C127.457 50.719 129.551 47.4916 132.009 43.1138Z" fill="url(#paint0_linear)"/>
<path d="M135.36 56.6144C137.538 56.4046 140.255 56.9326 140.902 59.0271C141.283 60.2754 140.734 61.6076 140.101 62.751C137.57 67.3386 133.611 71.0171 131.101 75.6187C130.546 76.5286 130.189 77.5447 130.052 78.6014C129.894 80.5525 130.996 82.3498 131.874 84.1016C134.049 88.4409 134.832 94.165 131.618 97.8015C130.048 99.5743 127.73 100.599 126.352 102.532C124.807 104.693 124.74 107.543 123.968 110.089C123.195 112.634 120.961 115.253 118.373 114.673C118.687 107.895 118.57 101.103 118.023 94.3398C117.324 85.8954 115.523 76.9754 119.009 68.9751C121.866 62.3769 128.066 57.3207 135.36 56.6144Z" fill="#0072A3"/>
<path d="M135.36 56.6144C137.538 56.4046 140.255 56.9326 140.902 59.0271C141.283 60.2754 140.734 61.6076 140.101 62.751C137.57 67.3386 133.611 71.0171 131.101 75.6187C130.546 76.5286 130.189 77.5447 130.052 78.6014C129.894 80.5525 130.996 82.3498 131.874 84.1016C134.049 88.4409 134.832 94.165 131.618 97.8015C130.048 99.5743 127.73 100.599 126.352 102.532C124.807 104.693 124.74 107.543 123.968 110.089C123.195 112.634 120.961 115.253 118.373 114.673C118.687 107.895 118.57 101.103 118.023 94.3398C117.324 85.8954 115.523 76.9754 119.009 68.9751C121.866 62.3769 128.066 57.3207 135.36 56.6144Z" fill="url(#paint1_linear)"/>
<path d="M109.389 22.2947H70.8803C65.334 22.2947 60.8379 26.7908 60.8379 32.3371V122.467C60.8379 128.013 65.334 132.509 70.8803 132.509H109.389C114.935 132.509 119.431 128.013 119.431 122.467V32.3371C119.431 26.7908 114.935 22.2947 109.389 22.2947Z" fill="#0072A3"/>
<path d="M109.389 22.2947H70.8803C65.334 22.2947 60.8379 26.7908 60.8379 32.3371V122.467C60.8379 128.013 65.334 132.509 70.8803 132.509H109.389C114.935 132.509 119.431 128.013 119.431 122.467V32.3371C119.431 26.7908 114.935 22.2947 109.389 22.2947Z" fill="url(#paint2_linear)"/>
<path d="M43.4845 136.618C41.2221 136.807 38.3409 137.586 38.1556 139.849C37.9702 142.111 40.6592 143.345 42.8621 143.755C48.107 144.758 53.4744 144.804 58.8103 144.842C77.0629 144.947 95.3154 144.842 113.568 144.527C118.439 144.443 123.838 144.129 127.257 140.663C127.827 140.087 128.348 139.349 128.275 138.541C128.132 137.013 126.177 136.523 124.631 136.426C97.2945 134.702 70.7899 134.324 43.4845 136.618Z" fill="url(#paint3_linear)"/>
<path d="M106.619 22.2947H68.1108C62.5645 22.2947 58.0684 26.7908 58.0684 32.3371V122.467C58.0684 128.013 62.5645 132.509 68.1108 132.509H106.619C112.166 132.509 116.662 128.013 116.662 122.467V32.3371C116.662 26.7908 112.166 22.2947 106.619 22.2947Z" fill="#0072A3"/>
<path d="M104.753 29.2845H70.9819C66.1173 29.2845 62.1738 33.2281 62.1738 38.0926V117.138C62.1738 122.003 66.1173 125.946 70.9819 125.946H104.753C109.617 125.946 113.561 122.003 113.561 117.138V38.0926C113.561 33.2281 109.617 29.2845 104.753 29.2845Z" fill="white"/>
<path d="M99.8193 85.5317H76.8392C73.8942 85.5317 71.5068 87.9191 71.5068 90.8641V90.8676C71.5068 93.8126 73.8942 96.2 76.8392 96.2H99.8193C102.764 96.2 105.152 93.8126 105.152 90.8676V90.8641C105.152 87.9191 102.764 85.5317 99.8193 85.5317Z" fill="#0072A3"/>
<path d="M79.1119 91.8257C79.1141 91.8664 79.1141 91.9073 79.1119 91.948C79.1142 91.9771 79.1142 92.0064 79.1119 92.0355C79.1065 92.0574 79.0982 92.0786 79.0874 92.0984C79.0739 92.1194 79.0587 92.1393 79.0419 92.1578C79.0042 92.1901 78.9632 92.2182 78.9195 92.2418C78.8478 92.2816 78.773 92.3155 78.6958 92.3432C78.2546 92.4924 77.7767 92.4924 77.3356 92.3432C77.136 92.2688 76.9564 92.1491 76.8111 91.9935C76.6523 91.8261 76.5329 91.6254 76.4614 91.4061C76.3006 90.8617 76.3006 90.2825 76.4614 89.7382C76.5332 89.5096 76.6524 89.2987 76.8111 89.1192C76.9611 88.9511 77.1477 88.8195 77.3565 88.7346C77.5795 88.6481 77.8167 88.6042 78.0559 88.6052C78.1567 88.6057 78.2574 88.6151 78.3566 88.6332C78.4467 88.6487 78.5355 88.671 78.6223 88.6997C78.6987 88.7252 78.7725 88.758 78.8426 88.7976C78.8931 88.8211 78.9392 88.853 78.979 88.892C79.0007 88.91 79.0196 88.9312 79.0349 88.9549C79.0445 88.9762 79.0516 88.9985 79.0559 89.0213C79.0583 89.0539 79.0583 89.0867 79.0559 89.1192C79.0559 89.1542 79.0559 89.1997 79.0559 89.2521C79.0559 89.3046 79.0559 89.3605 79.0559 89.4025C79.0534 89.4359 79.0463 89.4689 79.0349 89.5004C79.0279 89.5206 79.0159 89.5386 79 89.5528C78.9941 89.5588 78.987 89.5634 78.9791 89.5664C78.9713 89.5695 78.9629 89.5708 78.9545 89.5703C78.9132 89.5653 78.8743 89.5482 78.8426 89.5214C78.789 89.4789 78.7317 89.4415 78.6713 89.4095C78.5913 89.3629 78.507 89.3242 78.4195 89.2941C78.3062 89.2596 78.1883 89.2431 78.0699 89.2451C77.9316 89.243 77.7949 89.2741 77.6712 89.3361C77.553 89.3975 77.4512 89.4862 77.374 89.5948C77.2875 89.7185 77.2246 89.8572 77.1887 90.0039C77.1419 90.1807 77.1195 90.363 77.1223 90.5459C77.1193 90.7382 77.1429 90.93 77.1922 91.1158C77.229 91.2602 77.2944 91.3958 77.3845 91.5144C77.4653 91.6153 77.5698 91.6946 77.6887 91.7452C77.8147 91.7985 77.9505 91.8247 78.0873 91.8222C78.2055 91.8251 78.3235 91.8098 78.437 91.7767C78.525 91.7478 78.6104 91.7115 78.6923 91.6683L78.8636 91.5669C78.8945 91.5408 78.932 91.5238 78.972 91.5179C78.9867 91.5129 79.0027 91.5129 79.0175 91.5179C79.0319 91.5293 79.0418 91.5454 79.0454 91.5634C79.0486 91.596 79.0486 91.6288 79.0454 91.6613C79.1119 91.6998 79.1119 91.7557 79.1119 91.8257Z" fill="white"/>
<path d="M82.9857 90.4795C82.9898 90.7611 82.9509 91.0418 82.8703 91.3117C82.8004 91.5421 82.6811 91.7545 82.5206 91.9341C82.3658 92.108 82.1715 92.2422 81.9542 92.3257C81.706 92.418 81.4427 92.4631 81.1779 92.4586C80.9191 92.4636 80.6613 92.4246 80.4156 92.3432C80.2079 92.2752 80.0212 92.1548 79.8736 91.9935C79.7227 91.8218 79.6116 91.6188 79.5484 91.3991C79.4708 91.1203 79.4342 90.8317 79.4401 90.5424C79.4364 90.2654 79.4753 89.9894 79.5554 89.7242C79.6276 89.4968 79.7467 89.2872 79.9051 89.1088C80.0622 88.9375 80.2558 88.8036 80.4716 88.7172C80.7221 88.6246 80.9878 88.5795 81.2548 88.5843C81.5088 88.5787 81.7619 88.6165 82.0031 88.6962C82.2109 88.7641 82.3976 88.8846 82.5451 89.0458C82.6983 89.2157 82.8117 89.4176 82.8773 89.6368C82.955 89.9107 82.9916 90.1947 82.9857 90.4795ZM82.1884 90.5214C82.1907 90.3409 82.1755 90.1605 82.143 89.9829C82.1169 89.8367 82.0635 89.6968 81.9856 89.5703C81.9131 89.4559 81.8102 89.3639 81.6884 89.3046C81.5442 89.2369 81.386 89.2046 81.2268 89.2102C81.0643 89.2048 80.903 89.2409 80.7583 89.3151C80.6349 89.3827 80.5304 89.4801 80.4541 89.5983C80.3741 89.724 80.3195 89.8642 80.2932 90.0109C80.2605 90.1744 80.2441 90.3407 80.2443 90.5074C80.2438 90.6925 80.259 90.8774 80.2897 91.0599C80.3158 91.2072 80.3692 91.3483 80.4471 91.476C80.5191 91.5896 80.6206 91.6814 80.7408 91.7417C80.8872 91.8061 81.046 91.8371 81.2059 91.8327C81.3685 91.8385 81.5298 91.8024 81.6744 91.7278C81.7978 91.6601 81.9024 91.5628 81.9786 91.4445C82.0592 91.3174 82.1149 91.1763 82.143 91.0284C82.1745 90.8613 82.1897 90.6915 82.1884 90.5214Z" fill="white"/>
<path d="M86.71 92.1265C86.7103 92.1647 86.7031 92.2026 86.6887 92.238C86.6743 92.2734 86.653 92.3056 86.6261 92.3328C86.5978 92.3545 86.5658 92.3711 86.5317 92.3817C86.4966 92.3929 86.4601 92.3988 86.4233 92.3992H86.1051C86.0461 92.4005 85.9873 92.3934 85.9303 92.3782C85.8802 92.3636 85.8337 92.3386 85.7939 92.3048C85.7463 92.2633 85.705 92.215 85.6715 92.1615C85.6331 92.0985 85.5911 92.0216 85.5422 91.9237L84.612 90.1754C84.5596 90.0705 84.5036 89.9586 84.4477 89.8257C84.3918 89.6928 84.3428 89.5879 84.2973 89.476C84.2973 89.6159 84.2973 89.7558 84.3148 89.8921C84.3323 90.0285 84.3148 90.1719 84.3148 90.3187V92.2768C84.3143 92.2946 84.3082 92.3117 84.2973 92.3258C84.2847 92.345 84.2664 92.3597 84.2449 92.3678C84.2108 92.3791 84.1756 92.3873 84.14 92.3922H83.9687H83.8008C83.765 92.3882 83.7298 92.3799 83.6959 92.3678C83.6744 92.3597 83.6561 92.345 83.6435 92.3258C83.6384 92.3099 83.6384 92.2928 83.6435 92.2768V88.9131C83.6408 88.8754 83.6466 88.8376 83.6606 88.8025C83.6745 88.7674 83.6961 88.7359 83.7239 88.7103C83.7788 88.6648 83.8485 88.6412 83.9197 88.6438H84.3253C84.3868 88.6356 84.4491 88.6356 84.5106 88.6438C84.5583 88.6569 84.6032 88.6782 84.6435 88.7068C84.6884 88.7385 84.7265 88.7789 84.7554 88.8256C84.7947 88.8867 84.8309 88.9497 84.8638 89.0145L85.5911 90.3817L85.717 90.6264C85.759 90.7068 85.7974 90.7873 85.8359 90.8677L85.9513 91.102L86.0562 91.3327C86.0562 91.1964 86.0562 91.0565 86.0562 90.9097C86.0562 90.7628 86.0562 90.6264 86.0562 90.4936V88.7452C86.0562 88.7263 86.0623 88.7079 86.0736 88.6928C86.0903 88.6748 86.1105 88.6605 86.1331 88.6508C86.167 88.6386 86.2022 88.6304 86.238 88.6263H86.4093H86.5737C86.6083 88.6304 86.6424 88.6386 86.6751 88.6508C86.6952 88.6612 86.713 88.6755 86.7275 88.6928C86.7331 88.7098 86.7331 88.7282 86.7275 88.7452L86.71 92.1265Z" fill="white"/>
<path d="M89.6226 88.9654C89.6226 89.0214 89.6226 89.0704 89.6226 89.1123C89.6201 89.1439 89.6118 89.1747 89.5982 89.2032C89.5911 89.2234 89.5791 89.2414 89.5632 89.2557C89.5573 89.2616 89.5502 89.2663 89.5423 89.2693C89.5345 89.2723 89.5261 89.2736 89.5177 89.2732H88.2939V90.2802H89.4408C89.4567 90.2751 89.4738 90.2751 89.4898 90.2802C89.5039 90.2946 89.5157 90.3111 89.5247 90.3292C89.5362 90.3597 89.5444 90.3913 89.5492 90.4236C89.5492 90.462 89.5492 90.5075 89.5492 90.5669C89.5492 90.6264 89.5492 90.6718 89.5492 90.7103C89.5444 90.7425 89.5362 90.7742 89.5247 90.8047C89.5173 90.8257 89.5053 90.8447 89.4898 90.8606C89.4738 90.8657 89.4567 90.8657 89.4408 90.8606H88.2939V92.2593C88.2947 92.2688 88.2936 92.2783 88.2906 92.2873C88.2876 92.2964 88.2828 92.3047 88.2764 92.3118C88.261 92.3326 88.2387 92.3475 88.2135 92.3537C88.1759 92.3657 88.1373 92.3739 88.0981 92.3782H87.9128H87.731C87.6906 92.3739 87.6508 92.3657 87.6121 92.3537C87.5877 92.3456 87.566 92.3311 87.5491 92.3118C87.5378 92.2966 87.5316 92.2782 87.5316 92.2593V88.8675C87.5279 88.8342 87.5319 88.8004 87.5434 88.7688C87.555 88.7373 87.5737 88.7088 87.5981 88.6857C87.6413 88.6475 87.6977 88.6274 87.7554 88.6298H89.5038C89.5185 88.6247 89.5345 88.6247 89.5492 88.6298C89.5651 88.644 89.5772 88.6621 89.5842 88.6822C89.5977 88.7133 89.6059 88.7464 89.6087 88.7801C89.6191 88.8571 89.6226 88.906 89.6226 88.9654Z" fill="white"/>
<path d="M91.0005 92.2873C91.0005 92.3062 90.9944 92.3246 90.9831 92.3398C90.9659 92.358 90.9442 92.3713 90.9201 92.3782C90.8826 92.3902 90.8439 92.3984 90.8047 92.4027H90.6194H90.4376C90.3972 92.3987 90.3574 92.3905 90.3187 92.3782C90.2947 92.3713 90.2729 92.358 90.2558 92.3398C90.2444 92.3246 90.2383 92.3062 90.2383 92.2873V88.7522C90.2388 88.7344 90.2449 88.7173 90.2558 88.7032C90.2729 88.685 90.2947 88.6717 90.3187 88.6648C90.3575 88.6532 90.3973 88.645 90.4376 88.6403C90.4981 88.6363 90.5589 88.6363 90.6194 88.6403C90.6811 88.6362 90.743 88.6362 90.8047 88.6403C90.8439 88.6445 90.8826 88.6527 90.9201 88.6648C90.9442 88.6717 90.9659 88.685 90.9831 88.7032C90.9939 88.7173 91 88.7344 91.0005 88.7522V92.2873Z" fill="white"/>
<path d="M94.5951 92.2943C94.6007 92.3113 94.6007 92.3297 94.5951 92.3467C94.5827 92.3653 94.5641 92.379 94.5427 92.3852C94.5001 92.3944 94.4568 92.4002 94.4133 92.4027C94.3376 92.4069 94.2617 92.4069 94.186 92.4027C94.122 92.4069 94.0577 92.4069 93.9937 92.4027C93.9544 92.401 93.9156 92.3939 93.8783 92.3817C93.8554 92.3745 93.8348 92.3612 93.8188 92.3432C93.8074 92.3244 93.7981 92.3045 93.7909 92.2838L93.4412 91.4481C93.3992 91.3536 93.3608 91.2697 93.3223 91.1963C93.2879 91.1289 93.2443 91.0665 93.1929 91.011C93.1471 90.9628 93.0909 90.9257 93.0286 90.9026C92.9611 90.8745 92.8883 90.8614 92.8153 90.8641H92.581V92.2873C92.5814 92.297 92.5797 92.3067 92.5761 92.3157C92.5725 92.3247 92.567 92.3329 92.56 92.3397C92.5442 92.3595 92.5219 92.3731 92.4971 92.3782C92.4596 92.3902 92.4209 92.3984 92.3817 92.4027H92.1964H92.0146C91.9754 92.3984 91.9367 92.3902 91.8992 92.3782C91.8743 92.3731 91.8521 92.3595 91.8362 92.3397C91.8249 92.3246 91.8188 92.3062 91.8188 92.2873V88.892C91.815 88.8586 91.819 88.8248 91.8306 88.7932C91.8421 88.7617 91.8608 88.7332 91.8852 88.7102C91.9295 88.6714 91.9872 88.6513 92.046 88.6542H93.2559H93.4307C93.5703 88.6731 93.7068 88.7107 93.8363 88.7661C93.9495 88.8142 94.0527 88.8829 94.1405 88.9689C94.2258 89.0525 94.2915 89.1541 94.3329 89.2661C94.3795 89.3925 94.4021 89.5265 94.3993 89.6613C94.4018 89.7794 94.3864 89.8973 94.3538 90.0109C94.3229 90.1101 94.2756 90.2035 94.214 90.2872C94.1491 90.3693 94.0711 90.4402 93.9832 90.497C93.8874 90.559 93.784 90.6084 93.6755 90.6438C93.7318 90.6697 93.7847 90.7026 93.8328 90.7417C93.8846 90.783 93.9315 90.8299 93.9727 90.8816C94.0187 90.9398 94.0596 91.0018 94.0951 91.0669C94.1335 91.1403 94.1685 91.2173 94.207 91.3082L94.5217 92.0425C94.5433 92.095 94.562 92.1487 94.5776 92.2033C94.5881 92.2326 94.5939 92.2632 94.5951 92.2943ZM93.6125 89.7557C93.6161 89.6459 93.5869 89.5375 93.5286 89.4445C93.4626 89.3536 93.3656 89.2901 93.2559 89.2661L93.123 89.2416H92.9202H92.5705V90.2907H92.9552C93.051 90.2919 93.1464 90.2789 93.2384 90.2522C93.3141 90.232 93.3853 90.1976 93.4482 90.1508C93.5018 90.104 93.5438 90.0454 93.5706 89.9795C93.5997 89.9085 93.6139 89.8323 93.6125 89.7557Z" fill="white"/>
<path d="M99.5076 92.2873C99.5132 92.3043 99.5132 92.3227 99.5076 92.3397C99.4925 92.3587 99.4716 92.3722 99.4482 92.3782C99.413 92.3899 99.3766 92.3981 99.3398 92.4027H99.1615H98.9901C98.9521 92.3985 98.9146 92.3903 98.8782 92.3782C98.8557 92.3722 98.836 92.3586 98.8223 92.3397C98.816 92.3326 98.8112 92.3243 98.8081 92.3153C98.8051 92.3063 98.804 92.2968 98.8048 92.2873V89.2452L97.7208 92.2873C97.7144 92.3105 97.7009 92.3313 97.6824 92.3467C97.6634 92.3662 97.6391 92.3796 97.6124 92.3852C97.5751 92.3975 97.5363 92.4045 97.497 92.4062H97.3327H97.1649C97.1254 92.4036 97.0866 92.3954 97.0495 92.3817C97.0234 92.3747 96.9994 92.3615 96.9795 92.3432C96.9618 92.3307 96.9493 92.312 96.9446 92.2908L95.8956 89.2487V92.2908C95.8956 92.3097 95.8895 92.3281 95.8781 92.3432C95.8638 92.363 95.8426 92.3767 95.8187 92.3817C95.7834 92.3934 95.7471 92.4016 95.7103 92.4062H95.5354H95.3606C95.3226 92.4016 95.2851 92.3934 95.2487 92.3817C95.2262 92.3757 95.2064 92.3621 95.1927 92.3432C95.1814 92.3281 95.1753 92.3097 95.1753 92.2908V88.9585C95.1708 88.8767 95.1984 88.7965 95.2522 88.7347C95.2801 88.7083 95.3131 88.6879 95.3492 88.6747C95.3853 88.6615 95.4236 88.6557 95.462 88.6578H95.9585C96.0348 88.6567 96.111 88.6637 96.1858 88.6788C96.2456 88.6913 96.3026 88.715 96.3536 88.7487C96.4009 88.7859 96.4402 88.8323 96.469 88.8851C96.5021 88.95 96.5291 89.0179 96.5495 89.0879L97.3572 91.3152L98.1964 89.0914C98.2169 89.0209 98.2451 88.9529 98.2803 88.8886C98.3054 88.8372 98.3398 88.791 98.3817 88.7522C98.4231 88.7169 98.4722 88.6917 98.5251 88.6788C98.5857 88.6639 98.648 88.6568 98.7104 88.6578H99.2244C99.2685 88.652 99.3132 88.652 99.3573 88.6578C99.3921 88.6696 99.4234 88.69 99.4482 88.7172C99.4741 88.7451 99.4932 88.7786 99.5041 88.8151C99.5176 88.8557 99.5235 88.8983 99.5216 88.941L99.5076 92.2873Z" fill="white"/>
<path d="M48.1279 87.9164C46.7572 90.2801 45.5718 92.9166 45.8061 95.637C45.9582 97.0988 46.508 98.4909 47.3957 99.6621C48.2834 100.833 49.4751 101.739 50.8413 102.281C52.149 101.232 52.2924 99.326 52.3309 97.6511C52.4148 93.7663 52.9323 89.5703 52.5302 85.7065C52.4288 84.7205 53.5792 80.0419 52.1595 80.5734C51.3028 80.9056 48.6069 87.0912 48.1279 87.9164Z" fill="#0072A3"/>
<path opacity="0.26" d="M48.1279 87.9164C46.7572 90.2801 45.5718 92.9166 45.8061 95.637C45.9582 97.0988 46.508 98.4909 47.3957 99.6621C48.2834 100.833 49.4751 101.739 50.8413 102.281C52.149 101.232 52.2924 99.326 52.3309 97.6511C52.4148 93.7663 52.9323 89.5703 52.5302 85.7065C52.4288 84.7205 53.5792 80.0419 52.1595 80.5734C51.3028 80.9056 48.6069 87.0912 48.1279 87.9164Z" fill="url(#paint4_linear)"/>
<path opacity="0.26" d="M68.0872 105.886C68.1167 104.92 68.3353 103.97 68.7306 103.088C70.0523 100.578 73.507 100.291 75.8253 98.6651C77.689 97.3469 78.7625 95.1335 79.1786 92.8887C79.5947 90.6438 79.4269 88.343 79.2555 86.0597C79.2101 85.4128 79.1402 84.717 78.7066 84.2344C77.759 83.1854 76.0421 83.9337 74.8602 84.731L71.7692 86.8709C71.1118 87.322 70.2132 87.7696 69.5873 87.2765C69.1747 86.9548 69.1047 86.3674 69.0663 85.8429L68.4788 77.6467C68.3145 75.3844 67.9264 72.7514 65.9403 71.657C63.9542 70.5625 61.3946 71.7339 60.1393 73.5941C58.884 75.4543 58.6567 77.7901 58.4959 80.0245C57.6599 91.7584 57.8354 103.542 59.0204 115.246C59.0658 115.708 59.1498 116.229 59.5309 116.491C59.8313 116.649 60.1734 116.71 60.51 116.666C62.6884 116.596 66.5976 117.414 67.6571 115.138C68.7166 112.862 67.8634 108.421 68.0872 105.886Z" fill="url(#paint5_linear)"/>
<path d="M78.3177 90.1963C78.4452 89.2723 78.4239 88.3338 78.2548 87.4165C78.2399 87.2722 78.1947 87.1328 78.1219 87.0074C77.8597 86.6262 77.2338 86.7766 76.9261 87.1227C76.6184 87.4689 76.4925 87.9445 76.1988 88.3011C75.9575 88.5948 75.6218 88.7942 75.3526 89.0634C74.9244 89.5531 74.6379 90.1503 74.5239 90.7907C74.4772 90.9506 74.4594 91.1176 74.4714 91.2838C74.5173 91.5194 74.6179 91.741 74.7651 91.9306C75.2407 92.6545 76.0484 93.651 76.9435 92.9796C77.7443 92.3468 78.1674 91.1509 78.3177 90.1963Z" fill="url(#paint6_linear)"/>
<path d="M65.5586 103.088L63.4606 138.055L59.6492 138.614L57.9009 112.071L56.3204 138.552L52.5475 138.674C52.5475 138.674 50.7992 111.928 51.1803 109.97C51.5615 108.012 51.1803 101.763 51.1803 101.763L65.5586 103.088Z" fill="url(#paint7_linear)"/>
<path d="M66.1738 99.6757C68.0201 98.5603 69.8068 93.8118 69.0131 92.6614C68.055 91.2628 66.6284 81.6854 65.3661 80.584C64.1038 79.4825 62.5093 78.6888 60.8519 78.7517C58.8903 78.8252 56.7259 77.909 54.9076 78.6503C53.8586 79.0699 53.0194 79.8322 52.1837 80.584C50.8725 81.7554 49.8514 101.536 51.32 103.686C53.2012 106.435 57.072 106.526 60.3484 106.337C61.4778 106.27 62.6562 106.194 63.6457 105.638C66.1109 104.183 66.4221 102.592 66.1738 99.6757Z" fill="#0072A3"/>
<path d="M65.825 72.0906C65.825 72.0906 65.825 72.1221 65.825 72.1361C65.8984 72.5951 66.046 73.0392 66.2621 73.4508C66.3495 73.6291 66.4474 73.8424 66.3495 74.0173C66.2516 74.1921 65.9999 74.2306 65.8355 74.3669C65.2865 74.9019 65.874 76.0943 65.3425 76.7517C64.9928 77.1608 64.4404 77.2727 63.9438 77.451C63.5697 77.5909 63.0906 77.8776 62.9997 78.3042C62.9088 78.7308 63.0941 79.2762 63.0662 79.7343C63.0277 80.3148 62.6885 80.9686 62.1081 81.0211C61.8984 81.0294 61.6901 80.9836 61.5032 80.8882C60.865 80.5193 60.3495 79.9709 60.0206 79.3112C58.9226 77.416 58.2373 75.1956 58.5765 73.0172C58.9157 70.8388 60.4437 68.8003 62.5696 68.2723C63.7515 67.9785 64.776 68.3527 65.3215 69.4681C65.5646 70.0084 65.7295 70.5806 65.811 71.1675C65.8312 71.4748 65.8358 71.7829 65.825 72.0906Z" fill="url(#paint8_linear)"/>
<path d="M65.7096 68.2233C65.4124 69.2932 64.5137 70.0905 63.5626 70.6709C62.9158 71.059 62.3493 71.3388 61.9786 72.0136C61.5969 72.7202 61.3469 73.4904 61.2409 74.2865C61.2409 74.4019 61.1919 74.5382 61.0835 74.5732C60.9751 74.6082 60.8387 74.4648 60.7933 74.3354C60.7024 74.0627 60.6674 73.734 60.4261 73.5801C60.3338 73.5283 60.2283 73.5046 60.1226 73.5121C60.017 73.5195 59.9158 73.5578 59.8317 73.6221C59.6644 73.755 59.5533 73.946 59.5205 74.1571C59.4763 74.4139 59.5136 74.678 59.6271 74.9125C59.7406 75.147 59.9246 75.3402 60.1534 75.4648C60.2784 75.5168 60.3959 75.585 60.5031 75.6676C60.9646 76.0977 60.5205 76.5838 60.3387 76.9859C60.118 77.5515 60.0446 78.1639 60.1254 78.7657C60.2058 79.6084 60.4226 80.4511 60.3003 81.2903C60.2102 81.9721 59.8577 82.5918 59.3177 83.0176C59.0458 83.2237 58.7254 83.3564 58.3874 83.4029C58.0494 83.4495 57.705 83.4083 57.3875 83.2834C56.9295 83.0841 56.5658 82.6924 56.0868 82.5526C54.9818 82.2239 53.8524 83.3638 52.7265 83.1015C52.0901 82.9512 51.6425 82.4022 51.3034 81.8288C50.9935 81.3728 50.7991 80.8484 50.7369 80.3007C50.6845 79.3916 51.2299 78.5524 51.7474 77.8181C52.4817 76.7446 53.2195 75.6222 53.4643 74.3424C53.6531 73.3354 53.5272 72.2829 53.772 71.2898C54.0412 70.1954 54.8455 69.4086 55.2336 68.3981C55.5833 67.4575 56.0413 66.5379 57.0204 66.0938C57.933 65.6742 58.9995 65.8525 59.9995 65.7441C61.3982 65.5903 62.4997 64.6112 63.9368 65.1567C65.1256 65.5973 66.0662 66.9435 65.7096 68.2233Z" fill="#606161"/>
<path d="M73.8038 91.1438C74.0735 91.003 74.3836 90.9597 74.6815 91.0214C74.846 91.0921 74.9929 91.1984 75.1116 91.3326C75.7201 91.9569 76.1959 92.6979 76.5102 93.511C76.6932 93.891 76.7341 94.3239 76.6256 94.7314C76.4087 95.1556 76.0516 95.4916 75.6151 95.6825C72.6954 97.3609 69.1987 99.7561 65.8454 99.4309C65.6111 99.4064 65.6916 98.7071 65.5167 98.5497C65.3241 98.328 65.2207 98.0426 65.2265 97.749C65.0764 96.6846 65.0447 95.6069 65.1321 94.5356C65.224 93.4565 65.6731 92.4389 66.4084 91.6438C66.6941 91.3202 67.0884 91.1125 67.5168 91.0599C68.1672 91.0214 68.1182 91.5179 68.5064 91.7592C68.9854 92.0424 69.6952 92.0424 70.2547 92.0285C71.4789 91.9341 72.6786 91.6351 73.8038 91.1438Z" fill="#0072A3"/>
<path opacity="0.26" d="M62.1494 88.8151C62.1494 88.8151 63.2403 97.4623 66.1566 99.6757C66.1566 99.6757 67.1601 105.033 62.5445 105.97C62.5445 105.97 61.2368 106.508 59.0479 106.319C59.0479 106.319 63.5376 107.68 62.6914 98.6791C61.8452 89.6787 62.1494 88.8151 62.1494 88.8151Z" fill="url(#paint9_linear)"/>
<path d="M66.2056 140.447C66.2702 140.502 66.3227 140.57 66.36 140.646C66.3973 140.723 66.4185 140.806 66.4224 140.891C66.4028 141.013 66.3409 141.124 66.2476 141.206C65.9097 141.482 65.4941 141.645 65.0587 141.674C63.6587 141.882 62.2309 141.803 60.8627 141.44C60.5185 141.378 60.2006 141.215 59.9501 140.971C59.6997 140.606 59.5836 140.165 59.6214 139.723L59.5795 138.202C59.5675 138.084 59.5807 137.965 59.6179 137.852C59.7333 137.576 60.09 137.503 60.3907 137.485C61.1109 137.432 61.8335 137.419 62.5551 137.447C62.8104 137.447 63.1391 137.408 63.3419 137.569C63.5447 137.73 63.6146 138.048 63.751 138.216C64.4258 139.104 65.4539 139.629 66.2056 140.447Z" fill="#606161"/>
<path d="M58.982 140.454C59.0436 140.507 59.094 140.573 59.13 140.646C59.166 140.719 59.187 140.799 59.1918 140.88C59.174 140.999 59.113 141.108 59.0204 141.185C58.6948 141.452 58.2939 141.611 57.8735 141.639C56.5192 141.842 55.1378 141.765 53.8139 141.415C53.4805 141.355 53.1726 141.197 52.9292 140.961C52.6896 140.606 52.5774 140.181 52.6111 139.754L52.5726 138.286C52.559 138.168 52.5721 138.048 52.6111 137.936C52.7229 137.67 53.0656 137.604 53.3558 137.586C54.054 137.537 54.7543 137.524 55.4538 137.548C55.7021 137.548 56.0203 137.513 56.2161 137.67C56.4119 137.828 56.4784 138.132 56.6112 138.296C57.2756 139.142 58.2547 139.663 58.982 140.454Z" fill="#606161"/>
<path opacity="0.26" d="M44.2922 111.753C44.2712 113.043 44.2467 114.355 43.8551 115.578C43.7949 115.838 43.6835 116.083 43.5274 116.299C43.3713 116.516 43.1736 116.698 42.946 116.837C42.2257 117.187 40.7081 116.837 39.9214 116.302C39.8783 116.198 39.841 116.092 39.8095 115.984C39.5822 115.043 39.722 114.05 39.8654 113.089C40.2151 110.914 40.5333 108.729 41.2641 106.651C41.6802 105.491 42.2921 104.302 43.3306 103.7C43.4155 103.72 43.4969 103.753 43.5719 103.798C44.1838 104.169 44.2712 105.012 44.2922 105.721C44.3446 107.732 44.3131 109.732 44.2922 111.753Z" fill="url(#paint10_linear)"/>
<path d="M62.0341 102.791C63.1128 102.784 64.1861 102.943 65.2161 103.263C65.5022 103.344 65.7571 103.51 65.9469 103.739C66.0796 103.956 66.1598 104.202 66.1812 104.456C66.8805 108.91 66.0623 113.452 66.1497 117.96C66.1812 119.687 66.349 121.404 66.4819 123.124C66.5045 123.226 66.5053 123.331 66.4842 123.433C66.4631 123.535 66.4206 123.631 66.3595 123.715C66.2379 123.814 66.0864 123.87 65.9294 123.873C64.866 123.977 63.7953 123.988 62.73 123.904C58.534 123.677 52.9778 124.355 48.8378 123.74C48.2189 118.495 49.7259 112.071 50.5441 106.854C50.7085 105.805 50.5861 104.372 51.0127 103.403C51.4393 102.434 52.4883 102.599 53.4394 102.602C56.3043 102.612 59.1692 102.675 62.0341 102.791Z" fill="#606161"/>
<path d="M87.8153 75.8879C97.3881 75.8879 105.148 68.1277 105.148 58.555C105.148 48.9823 97.3881 41.222 87.8153 41.222C78.2426 41.222 70.4824 48.9823 70.4824 58.555C70.4824 68.1277 78.2426 75.8879 87.8153 75.8879Z" fill="#0072A3"/>
<path d="M92.8505 63.2371H81.1367L82.2696 53.0338H91.34L92.8505 63.2371Z" fill="white"/>
<path d="M93.3433 66.7861C95.5738 66.7861 97.382 64.978 97.382 62.7475C97.382 60.517 95.5738 58.7089 93.3433 58.7089C91.1129 58.7089 89.3047 60.517 89.3047 62.7475C89.3047 64.978 91.1129 66.7861 93.3433 66.7861Z" fill="#0072A3"/>
<path d="M93.8814 67.1708C96.1119 67.1708 97.92 65.3626 97.92 63.1321C97.92 60.9017 96.1119 59.0935 93.8814 59.0935C91.6509 59.0935 89.8428 60.9017 89.8428 63.1321C89.8428 65.3626 91.6509 67.1708 93.8814 67.1708Z" fill="white"/>
<path d="M93.2525 65.5133C93.1081 65.5124 92.9699 65.4546 92.8678 65.3525L91.0985 63.5762C90.996 63.4737 90.9385 63.3347 90.9385 63.1898C90.9385 63.0449 90.996 62.9059 91.0985 62.8034C91.201 62.701 91.34 62.6434 91.4849 62.6434C91.6298 62.6434 91.7688 62.701 91.8713 62.8034L93.2245 64.1601L95.9938 60.9852C96.0918 60.8962 96.2188 60.8459 96.3512 60.8436C96.4836 60.8413 96.6122 60.8873 96.7132 60.9728C96.8142 61.0584 96.8806 61.1778 96.9001 61.3088C96.9196 61.4397 96.8908 61.5732 96.819 61.6845L93.6721 65.3C93.6225 65.3568 93.5619 65.4028 93.494 65.4353C93.4261 65.4678 93.3522 65.486 93.2769 65.4889L93.2525 65.5133Z" fill="#0072A3"/>
</g>
</g>
<defs>
<linearGradient id="paint0_linear" x1="124.394" y1="46.8622" x2="110.648" y2="107.791" gradientUnits="userSpaceOnUse">
<stop stop-color="#010101" stop-opacity="0"/>
<stop offset="0.95" stop-color="#010101"/>
</linearGradient>
<linearGradient id="paint1_linear" x1="9603.86" y1="14158.9" x2="6237.93" y2="15216.9" gradientUnits="userSpaceOnUse">
<stop stop-color="#010101" stop-opacity="0"/>
<stop offset="0.95" stop-color="#010101"/>
</linearGradient>
<linearGradient id="paint2_linear" x1="14604.3" y1="24185.7" x2="41500.2" y2="27363.2" gradientUnits="userSpaceOnUse">
<stop stop-color="#010101" stop-opacity="0"/>
<stop offset="0.95" stop-color="#010101"/>
</linearGradient>
<linearGradient id="paint3_linear" x1="23666.2" y1="3289.31" x2="23643.4" y2="10762.6" gradientUnits="userSpaceOnUse">
<stop stop-color="#010101" stop-opacity="0"/>
<stop offset="0.95" stop-color="#010101"/>
</linearGradient>
<linearGradient id="paint4_linear" x1="1121.78" y1="5737.27" x2="1305.57" y2="5766.07" gradientUnits="userSpaceOnUse">
<stop stop-color="#010101" stop-opacity="0"/>
<stop offset="0.95" stop-color="#010101"/>
</linearGradient>
<linearGradient id="paint5_linear" x1="20511.6" y1="11327.5" x2="15018.5" y2="12407.8" gradientUnits="userSpaceOnUse">
<stop stop-color="#010101" stop-opacity="0"/>
<stop offset="0.95" stop-color="#010101"/>
</linearGradient>
<linearGradient id="paint6_linear" x1="78.4016" y1="89.9865" x2="74.4644" y2="89.9865" gradientUnits="userSpaceOnUse">
<stop stop-color="#E4C5D5"/>
<stop offset="0.42" stop-color="#E9D3CF"/>
<stop offset="1" stop-color="#EFE8CA"/>
</linearGradient>
<linearGradient id="paint7_linear" x1="2475.95" y1="13054.5" x2="3071" y2="13054.5" gradientUnits="userSpaceOnUse">
<stop stop-color="#E4C5D5"/>
<stop offset="0.42" stop-color="#E9D3CF"/>
<stop offset="1" stop-color="#EFE8CA"/>
</linearGradient>
<linearGradient id="paint8_linear" x1="6619.59" y1="2396.67" x2="6441.42" y2="2380.63" gradientUnits="userSpaceOnUse">
<stop stop-color="#E4C5D5"/>
<stop offset="0.42" stop-color="#E9D3CF"/>
<stop offset="1" stop-color="#EFE8CA"/>
</linearGradient>
<linearGradient id="paint9_linear" x1="6027.38" y1="5436.78" x2="6576.37" y2="5183.94" gradientUnits="userSpaceOnUse">
<stop stop-color="#010101" stop-opacity="0"/>
<stop offset="0.95" stop-color="#010101"/>
</linearGradient>
<linearGradient id="paint10_linear" x1="666.135" y1="4388.73" x2="727.455" y2="4388.73" gradientUnits="userSpaceOnUse">
<stop stop-color="#010101" stop-opacity="0"/>
<stop offset="0.95" stop-color="#010101"/>
</linearGradient>
<clipPath id="clip0">
<rect width="1440" height="2933" fill="white" transform="translate(-320 -1713)"/>
</clipPath>
<clipPath id="clip1">
<rect width="169.77" height="160" fill="white"/>
</clipPath>
</defs>
</svg>
