<svg width="30" height="30" viewBox="0 0 30 30" fill="none" xmlns="http://www.w3.org/2000/svg">
<rect width="30" height="30" fill="#E5E5E5"/>
<g clip-path="url(#clip0)">
<rect width="1440" height="4373" transform="translate(-1275 -823)" fill="white"/>
<g filter="url(#filter0_dd)">
<rect x="-1165" y="-430" width="1220" height="495" fill="white"/>
</g>
<path d="M21.0628 0H8.93716C4.00919 0 0 4.00919 0 8.93716V21.0628C0 25.9908 4.00919 30 8.93716 30H21.0628C25.9908 30 30 25.9908 30 21.0628V8.93716C29.9999 4.00919 25.9908 0 21.0628 0ZM26.982 21.0628C26.982 24.3319 24.3319 26.982 21.0628 26.982H8.93716C5.66813 26.982 3.018 24.3319 3.018 21.0628V8.93716C3.018 5.66807 5.66813 3.018 8.93716 3.018H21.0628C24.3319 3.018 26.982 5.66807 26.982 8.93716V21.0628Z" fill="url(#paint0_linear)"/>
<path d="M15.0003 7.24094C10.7219 7.24094 7.24121 10.7216 7.24121 15C7.24121 19.2783 10.7219 22.759 15.0003 22.759C19.2786 22.759 22.7594 19.2783 22.7594 15C22.7594 10.7216 19.2786 7.24094 15.0003 7.24094ZM15.0003 19.7411C12.3818 19.7411 10.2592 17.6184 10.2592 15C10.2592 12.3816 12.3819 10.2589 15.0003 10.2589C17.6187 10.2589 19.7414 12.3816 19.7414 15C19.7414 17.6184 17.6187 19.7411 15.0003 19.7411Z" fill="url(#paint1_linear)"/>
<path d="M22.7743 9.15841C23.8011 9.15841 24.6335 8.326 24.6335 7.29918C24.6335 6.27235 23.8011 5.43994 22.7743 5.43994C21.7474 5.43994 20.915 6.27235 20.915 7.29918C20.915 8.326 21.7474 9.15841 22.7743 9.15841Z" fill="url(#paint2_linear)"/>
</g>
<defs>
<filter id="filter0_dd" x="-1185" y="-449" width="1260" height="535" filterUnits="userSpaceOnUse" color-interpolation-filters="sRGB">
<feFlood flood-opacity="0" result="BackgroundImageFix"/>
<feColorMatrix in="SourceAlpha" type="matrix" values="0 0 0 0 0 0 0 0 0 0 0 0 0 0 0 0 0 0 127 0"/>
<feOffset dy="2"/>
<feGaussianBlur stdDeviation="4"/>
<feColorMatrix type="matrix" values="0 0 0 0 0 0 0 0 0 0 0 0 0 0 0 0 0 0 0.1 0"/>
<feBlend mode="normal" in2="BackgroundImageFix" result="effect1_dropShadow"/>
<feColorMatrix in="SourceAlpha" type="matrix" values="0 0 0 0 0 0 0 0 0 0 0 0 0 0 0 0 0 0 127 0"/>
<feOffset dy="1"/>
<feGaussianBlur stdDeviation="10"/>
<feColorMatrix type="matrix" values="0 0 0 0 0 0 0 0 0 0 0 0 0 0 0 0 0 0 0.05 0"/>
<feBlend mode="normal" in2="effect1_dropShadow" result="effect2_dropShadow"/>
<feBlend mode="normal" in="SourceGraphic" in2="effect2_dropShadow" result="shape"/>
</filter>
<linearGradient id="paint0_linear" x1="15" y1="29.9127" x2="15" y2="0.233015" gradientUnits="userSpaceOnUse">
<stop stop-color="#E09B3D"/>
<stop offset="0.3" stop-color="#C74C4D"/>
<stop offset="0.6" stop-color="#C21975"/>
<stop offset="1" stop-color="#7024C4"/>
</linearGradient>
<linearGradient id="paint1_linear" x1="15.0003" y1="29.9127" x2="15.0003" y2="0.233018" gradientUnits="userSpaceOnUse">
<stop stop-color="#E09B3D"/>
<stop offset="0.3" stop-color="#C74C4D"/>
<stop offset="0.6" stop-color="#C21975"/>
<stop offset="1" stop-color="#7024C4"/>
</linearGradient>
<linearGradient id="paint2_linear" x1="22.7743" y1="29.9127" x2="22.7743" y2="0.233" gradientUnits="userSpaceOnUse">
<stop stop-color="#E09B3D"/>
<stop offset="0.3" stop-color="#C74C4D"/>
<stop offset="0.6" stop-color="#C21975"/>
<stop offset="1" stop-color="#7024C4"/>
</linearGradient>
<clipPath id="clip0">
<rect width="1440" height="4373" fill="white" transform="translate(-1275 -823)"/>
</clipPath>
</defs>
</svg>
