<svg width="200" height="144" viewBox="0 0 200 144" fill="none" xmlns="http://www.w3.org/2000/svg">
<rect width="200" height="144" fill="#E5E5E5"/>
<g clip-path="url(#clip0)">
<rect width="1440" height="2933" transform="translate(-896 -1727)" fill="white"/>
<g clip-path="url(#clip1)">
<path opacity="0.24" d="M197.884 109.771C195.215 117.157 189.935 122.986 183.206 127.418C172.524 134.429 158.195 137.879 144.845 138.29C123.062 138.954 101.149 134.097 79.6031 137.129C66.5792 138.965 53.9749 143.654 40.8076 143.719C28.7772 143.772 15.4197 138.279 11.3451 128.211C10.9526 127.248 10.65 126.251 10.4412 125.232C9.56598 120.946 10.3981 116.503 10.2977 112.114C10.0287 99.7351 2.45682 88.4883 0.491215 76.2272C-2.91989 55.023 11.736 33.7259 31.8978 23.0827C53.0029 11.9753 78.7387 12.5003 101.881 7.09298C125.275 1.6071 156.043 -4.95024 178.64 5.66437C183.195 7.80729 187.485 10.8181 189.806 15.0218C191.675 18.3969 192.127 22.2684 192.561 26.0436C194.698 44.9156 196.836 63.7816 198.974 82.6417C200.021 91.7134 201.015 101.114 197.884 109.771Z" fill="#0072A3"/>
<path opacity="0.24" d="M183.206 127.418C172.524 134.429 158.195 137.879 144.844 138.29C123.061 138.954 101.149 134.097 79.6028 137.129C66.5789 138.965 53.9746 143.654 40.8072 143.719C28.7769 143.772 15.4194 138.279 11.3447 128.211C22.0372 118.439 49.1037 116.878 61.1555 119.382C66.6542 120.525 71.9986 122.297 77.5188 123.332C84.4845 124.632 91.6331 124.739 98.7172 124.375C109.076 123.847 119.367 122.339 129.532 120.275C144.79 117.178 161.337 112.975 175.311 119.804C177.98 121.104 180.516 122.847 182.148 125.311C182.582 125.97 182.937 126.677 183.206 127.418Z" fill="#0072A3"/>
<path d="M32.0199 127.322C29.771 128.393 27.2996 130.536 28.1139 132.893C28.7057 134.608 30.7287 135.293 32.4934 135.729C37.6513 137 43.0352 138.076 48.2433 137.022C51.6831 136.329 54.8611 134.74 58.1574 133.533C61.8114 132.195 65.6213 131.327 69.4955 130.947C70.6039 130.84 71.9633 130.59 72.2897 129.518C72.6842 128.257 71.2423 127.232 70.0084 126.757C63.9287 124.404 57.2751 124.582 50.894 123.964C44.4131 123.353 37.8875 124.514 32.0199 127.322Z" fill="url(#paint0_linear)"/>
<path d="M154.189 49.0336C154.186 50.0358 153.784 50.996 153.071 51.7036C152.359 52.4113 151.393 52.8087 150.387 52.8087H55.0335C54.0286 52.8068 53.0653 52.4084 52.3547 51.7009C51.6441 50.9933 51.2441 50.0342 51.2422 49.0336C51.2431 48.0326 51.6429 47.073 52.3537 46.3652C53.0645 45.6574 54.0283 45.2594 55.0335 45.2584H150.387C150.885 45.257 151.38 45.3536 151.841 45.5427C152.302 45.7318 152.721 46.0097 153.075 46.3604C153.428 46.711 153.708 47.1277 153.899 47.5864C154.09 48.0451 154.189 48.5369 154.189 49.0336Z" fill="#0072A3"/>
<path d="M86.4941 53.7087C89.111 53.7087 91.2324 51.5964 91.2324 48.9907C91.2324 46.385 89.111 44.2727 86.4941 44.2727C83.8772 44.2727 81.7559 46.385 81.7559 48.9907C81.7559 51.5964 83.8772 53.7087 86.4941 53.7087Z" fill="#0072A3"/>
<path d="M149.454 53.7087C152.071 53.7087 154.192 51.5964 154.192 48.9907C154.192 46.385 152.071 44.2727 149.454 44.2727C146.837 44.2727 144.716 46.385 144.716 48.9907C144.716 51.5964 146.837 53.7087 149.454 53.7087Z" fill="#0072A3"/>
<path d="M149.454 53.7087C152.071 53.7087 154.192 51.5964 154.192 48.9907C154.192 46.385 152.071 44.2727 149.454 44.2727C146.837 44.2727 144.716 46.385 144.716 48.9907C144.716 51.5964 146.837 53.7087 149.454 53.7087Z" fill="url(#paint1_linear)"/>
<path d="M165.62 8.04309H131.079C129.367 8.04309 127.979 9.42465 127.979 11.1289V33.6796C127.979 35.3838 129.367 36.7654 131.079 36.7654H165.62C167.332 36.7654 168.719 35.3838 168.719 33.6796V11.1289C168.719 9.42465 167.332 8.04309 165.62 8.04309Z" fill="#0072A3"/>
<path d="M143.769 35.3511L148.665 41.9549L151.667 35.194L143.769 35.3511Z" fill="#0072A3"/>
<path d="M148.593 25.6937C147.215 25.6937 145.867 25.2867 144.721 24.5242C143.575 23.7617 142.682 22.6779 142.155 21.4098C141.627 20.1418 141.489 18.7465 141.758 17.4004C142.027 16.0542 142.691 14.8177 143.665 13.8472C144.64 12.8767 145.882 12.2158 147.234 11.948C148.586 11.6803 149.987 11.8177 151.26 12.3429C152.534 12.8682 153.622 13.7576 154.388 14.8988C155.154 16.04 155.563 17.3817 155.563 18.7542C155.561 20.5941 154.826 22.3581 153.519 23.6591C152.213 24.9601 150.441 25.6918 148.593 25.6937ZM148.593 12.5826C147.368 12.584 146.17 12.9472 145.152 13.6262C144.133 14.3052 143.34 15.2695 142.872 16.3974C142.404 17.5252 142.282 18.7659 142.522 19.9626C142.762 21.1593 143.353 22.2583 144.22 23.1207C145.087 23.9831 146.192 24.5702 147.394 24.8077C148.596 25.0453 149.842 24.9227 150.974 24.4553C152.106 23.988 153.074 23.197 153.755 22.1822C154.435 21.1675 154.799 19.9745 154.799 18.7542C154.797 17.1167 154.142 15.547 152.979 14.3898C151.815 13.2326 150.238 12.5826 148.593 12.5826Z" fill="white"/>
<path d="M147.664 21.4792L145.207 19.397L145.906 18.5791L147.556 19.9756L151.764 15.2255L152.574 15.9362L147.664 21.4792Z" fill="white"/>
<path d="M138.55 32.6938C138.254 32.813 137.936 32.8689 137.617 32.8581C137.38 32.8724 137.143 32.8356 136.921 32.7502C136.7 32.6648 136.499 32.5329 136.334 32.3633C136.169 32.1938 136.042 31.9907 135.962 31.7679C135.883 31.5451 135.853 31.3078 135.874 31.0724C135.86 30.8272 135.898 30.5818 135.985 30.3522C136.073 30.1226 136.208 29.914 136.382 29.7398C136.556 29.5657 136.765 29.4299 136.995 29.3413C137.225 29.2528 137.471 29.2135 137.717 29.2259C138.006 29.2132 138.293 29.267 138.557 29.383L138.445 29.7402C138.22 29.6395 137.975 29.5895 137.728 29.5937C136.903 29.5937 136.351 30.1223 136.351 31.0474C136.351 31.9081 136.849 32.476 137.71 32.476C137.965 32.478 138.218 32.4282 138.453 32.3295L138.55 32.6938Z" fill="white"/>
<path d="M142.026 31.0117C142.026 32.2224 141.287 32.8653 140.387 32.8653C139.487 32.8653 138.798 32.151 138.798 31.0795C138.798 29.9616 139.497 29.233 140.441 29.233C141.384 29.233 142.026 29.9688 142.026 31.0117ZM139.286 31.0688C139.286 31.8224 139.695 32.4974 140.412 32.4974C141.129 32.4974 141.545 31.8331 141.545 31.0367C141.545 30.3224 141.187 29.608 140.419 29.608C139.652 29.608 139.286 30.2973 139.286 31.0688Z" fill="white"/>
<path d="M145.591 31.2617C145.565 30.7724 145.533 30.1902 145.54 29.7437H145.522C145.404 30.1545 145.257 30.5938 145.078 31.0795L144.454 32.7867H144.095L143.521 31.1116C143.356 30.6152 143.212 30.1616 143.116 29.7437C143.116 30.183 143.076 30.7723 143.047 31.2974L142.951 32.8081H142.517L142.764 29.2902H143.345L143.948 30.9902C144.095 31.4224 144.213 31.8117 144.306 32.176H144.324C144.414 31.8188 144.536 31.4331 144.683 30.9902L145.314 29.2902H145.895L146.114 32.8081H145.669L145.591 31.2617Z" fill="white"/>
<path d="M146.825 29.3331C147.114 29.2848 147.407 29.2621 147.7 29.2652C148.055 29.2391 148.406 29.3419 148.69 29.5545C148.792 29.6476 148.873 29.7616 148.926 29.8886C148.979 30.0156 149.004 30.1527 148.999 30.2902C149.006 30.4276 148.986 30.5651 148.939 30.6945C148.892 30.824 148.82 30.9428 148.726 31.0438C148.582 31.1764 148.412 31.2789 148.227 31.3451C148.043 31.4114 147.846 31.4401 147.65 31.4296C147.53 31.4322 147.409 31.4214 147.291 31.3974V32.826H146.836L146.825 29.3331ZM147.281 31.0296C147.404 31.0563 147.531 31.0683 147.657 31.0653C148.206 31.0653 148.543 30.7974 148.543 30.3117C148.543 29.8259 148.213 29.6224 147.711 29.6224C147.567 29.6185 147.422 29.6317 147.281 29.6617V31.0296Z" fill="white"/>
<path d="M149.608 29.2902H150.064V32.426H151.574V32.8081H149.608V29.2902Z" fill="white"/>
<path d="M153.909 31.1581H152.539V32.426H154.07V32.8081H152.083V29.2902H153.973V29.6723H152.539V30.7831H153.912L153.909 31.1581Z" fill="white"/>
<path d="M155.408 29.6759H154.332V29.2902H156.947V29.6759H155.871V32.8081H155.408V29.6759Z" fill="white"/>
<path d="M159.167 31.1581H157.793V32.426H159.325V32.8081H157.338V29.2902H159.246V29.6723H157.793V30.7831H159.167V31.1581Z" fill="white"/>
<path d="M159.913 29.3366C160.235 29.2885 160.56 29.2646 160.885 29.2652C161.402 29.2235 161.915 29.3793 162.32 29.7009C162.488 29.8641 162.62 30.0614 162.705 30.2796C162.791 30.4977 162.828 30.7315 162.815 30.9652C162.827 31.2154 162.789 31.4655 162.702 31.7006C162.615 31.9356 162.482 32.1508 162.309 32.3331C161.874 32.698 161.313 32.8788 160.745 32.8367C160.469 32.8383 160.192 32.8252 159.917 32.7974L159.913 29.3366ZM160.369 32.4474C160.522 32.4682 160.677 32.4765 160.831 32.4724C161.807 32.4724 162.334 31.9296 162.334 30.9795C162.334 30.1509 161.868 29.6223 160.899 29.6223C160.72 29.6192 160.541 29.636 160.365 29.6723L160.369 32.4474Z" fill="white"/>
<path d="M142.621 58.9731C142.844 59.0062 143.07 59.0194 143.295 59.0124H144.013C144.245 59.0191 144.477 59.012 144.709 58.991C144.679 59.2901 144.666 59.5905 144.669 59.891V62.8233C144.665 63.105 144.681 63.3866 144.716 63.6661H143.489C143.523 63.3865 143.538 63.1049 143.536 62.8233V59.966H143.31C143.081 59.9657 142.852 59.9788 142.625 60.0053L142.621 58.9731Z" fill="#0072A3"/>
<path d="M146.975 63.2483C146.795 63.0733 146.656 62.8612 146.567 62.6269C146.417 62.2159 146.342 61.7818 146.344 61.3447C146.335 60.8066 146.458 60.2745 146.703 59.7946C146.872 59.5159 147.113 59.2872 147.4 59.1321C147.688 58.977 148.012 58.9012 148.338 58.9125C148.845 58.8984 149.336 59.0846 149.705 59.4303C149.884 59.6067 150.023 59.8184 150.114 60.0518C150.263 60.4652 150.337 60.9018 150.333 61.3411C150.342 61.8803 150.219 62.4135 149.974 62.8947C149.803 63.173 149.561 63.4007 149.272 63.5546C148.983 63.7084 148.659 63.7827 148.331 63.7698C148.082 63.7776 147.833 63.7355 147.6 63.6459C147.367 63.5564 147.155 63.4212 146.975 63.2483ZM147.499 61.3018C147.499 62.3019 147.786 62.8162 148.342 62.8162C148.898 62.8162 149.174 62.3126 149.174 61.3161C149.174 60.3197 148.88 59.8589 148.335 59.8589C147.79 59.8589 147.517 60.3875 147.517 61.3018H147.499Z" fill="#0072A3"/>
<path d="M151.323 63.2483C151.145 63.0714 151.006 62.8599 150.914 62.6269C150.767 62.2153 150.693 61.7815 150.695 61.3447C150.684 60.8065 150.807 60.2739 151.054 59.7947C151.222 59.5154 151.463 59.2863 151.75 59.1311C152.038 58.976 152.362 58.9005 152.689 58.9125C152.94 58.9052 153.189 58.9472 153.423 59.0361C153.657 59.1249 153.871 59.2589 154.052 59.4304C154.232 59.6068 154.372 59.8184 154.465 60.0518C154.614 60.4653 154.688 60.9018 154.684 61.3411C154.694 61.8805 154.571 62.4142 154.325 62.8948C154.155 63.1727 153.913 63.4003 153.625 63.5542C153.337 63.708 153.012 63.7824 152.686 63.7698C152.435 63.7786 152.185 63.737 151.951 63.6474C151.717 63.5578 151.503 63.4221 151.323 63.2483ZM151.846 61.3019C151.846 62.3019 152.133 62.8162 152.689 62.8162C153.245 62.8162 153.521 62.3126 153.521 61.3161C153.521 60.3197 153.231 59.859 152.686 59.859C152.141 59.859 151.846 60.3875 151.846 61.3019Z" fill="#0072A3"/>
<path d="M155.386 61.2269C155.267 61.0937 155.176 60.9382 155.118 60.7696C155.061 60.6009 155.037 60.4225 155.049 60.2447C155.039 60.0638 155.066 59.8828 155.128 59.7123C155.189 59.5418 155.284 59.3852 155.408 59.2518C155.645 59.036 155.958 58.9218 156.279 58.934C156.438 58.927 156.597 58.9514 156.747 59.006C156.897 59.0606 157.034 59.1441 157.151 59.2518C157.39 59.5229 157.511 59.8775 157.488 60.2376C157.499 60.4192 157.473 60.6011 157.411 60.7724C157.35 60.9436 157.254 61.1007 157.129 61.234C156.895 61.4498 156.584 61.5642 156.265 61.5519C156.104 61.5581 155.944 61.5326 155.793 61.4768C155.642 61.4211 155.504 61.3361 155.386 61.2269ZM159.332 58.8768L159.629 59.1018L155.967 63.8341L155.673 63.6091L159.332 58.8768ZM155.831 60.2376C155.831 60.7055 155.978 60.9519 156.265 60.9519C156.552 60.9519 156.692 60.7126 156.692 60.2376C156.692 59.7626 156.545 59.5233 156.265 59.5233C155.985 59.5233 155.831 59.7661 155.831 60.2269V60.2376ZM158.17 63.452C157.949 63.1697 157.829 62.8222 157.829 62.4644C157.829 62.1067 157.949 61.7592 158.17 61.4769C158.408 61.2598 158.722 61.1455 159.045 61.159C159.809 61.159 160.254 61.6376 160.254 62.4627C160.264 62.6442 160.237 62.826 160.176 62.9971C160.114 63.1683 160.019 63.3254 159.895 63.4591C159.652 63.6668 159.342 63.781 159.021 63.781C158.701 63.781 158.391 63.6668 158.148 63.4591L158.17 63.452ZM158.614 62.4519C158.614 62.9305 158.758 63.1662 159.045 63.1662C159.332 63.1662 159.479 62.9269 159.479 62.4519C159.479 61.9769 159.332 61.7626 159.052 61.7626C158.772 61.7626 158.614 61.9841 158.614 62.4377V62.4519Z" fill="#0072A3"/>
<path d="M80.4611 62.2447C80.4736 62.3776 80.5289 62.5029 80.6189 62.6018C80.7047 62.6831 80.8061 62.7462 80.9171 62.7874C81.028 62.8285 81.1462 62.8468 81.2645 62.8411C81.7057 62.8411 81.9819 62.6232 81.9819 62.2804C81.9886 62.1792 81.9631 62.0785 81.909 61.9925C81.8549 61.9066 81.775 61.8399 81.6806 61.8018C81.5115 61.7476 81.3345 61.7222 81.1569 61.7268C80.9257 61.7263 80.6946 61.7383 80.4647 61.7625V60.7982C80.6623 60.8215 80.8611 60.8334 81.0601 60.8339C81.5945 60.8339 81.8599 60.6553 81.8599 60.2946C81.8599 59.9946 81.6447 59.8196 81.2753 59.8196C81.1963 59.808 81.1158 59.8122 81.0385 59.8318C80.9611 59.8515 80.8885 59.8862 80.8247 59.9341C80.761 59.9819 80.7074 60.0419 80.6672 60.1105C80.6269 60.1792 80.6007 60.2551 80.5902 60.3339L79.3671 60.1553C79.4296 59.8892 79.5592 59.6433 79.7437 59.441C79.9469 59.244 80.1898 59.0921 80.4562 58.9955C80.7227 58.8988 81.0068 58.8595 81.2896 58.8803C81.8113 58.8502 82.3247 59.0202 82.7244 59.3553C82.8292 59.4593 82.9113 59.5837 82.9656 59.7207C83.0199 59.8578 83.0452 60.0045 83.04 60.1517C83.04 60.7446 82.7208 61.1125 82.0752 61.2625C82.3391 61.2859 82.5895 61.3893 82.7925 61.5589C82.907 61.6645 82.9981 61.7927 83.0599 61.9354C83.1216 62.0781 83.1528 62.2321 83.1512 62.3875C83.1577 62.654 83.0786 62.9155 82.9252 63.134C82.7873 63.3149 82.606 63.4586 82.398 63.5518C82.0268 63.7016 81.6291 63.7757 81.2287 63.7697C80.7723 63.7835 80.3205 63.6763 79.9194 63.459C79.6574 63.286 79.4557 63.0365 79.342 62.7447C79.3006 62.649 79.2682 62.5498 79.2451 62.4482L80.4611 62.2447Z" fill="#0072A3"/>
<path d="M84.2335 63.2483C84.0537 63.0724 83.9131 62.8606 83.821 62.6269C83.6741 62.2153 83.6001 61.7815 83.6022 61.3447C83.5914 60.8065 83.7147 60.2739 83.9609 59.7947C84.1294 59.5154 84.37 59.2863 84.6577 59.1311C84.9454 58.976 85.2696 58.9005 85.5965 58.9125C85.8468 58.9052 86.096 58.9472 86.3299 59.0361C86.5638 59.1249 86.7778 59.2589 86.9595 59.4304C87.1388 59.6068 87.2793 59.8184 87.372 60.0518C87.5212 60.4653 87.5953 60.9018 87.5908 61.3411C87.6016 61.8805 87.4784 62.4142 87.2321 62.8948C87.072 63.1314 86.8625 63.331 86.618 63.4798C86.3734 63.6286 86.0995 63.7232 85.815 63.7571C85.5304 63.791 85.2418 63.7634 84.9689 63.6762C84.696 63.589 84.4452 63.4443 84.2335 63.2519V63.2483ZM84.7536 61.3019C84.7536 62.3019 85.0405 62.8162 85.5965 62.8162C86.1525 62.8162 86.4287 62.3126 86.4287 61.3161C86.4287 60.3197 86.1381 59.859 85.5929 59.859C85.0477 59.859 84.7464 60.3875 84.7464 61.3019H84.7536Z" fill="#0072A3"/>
<path d="M88.2943 61.2269C88.1755 61.0937 88.0845 60.9382 88.0266 60.7696C87.9687 60.6009 87.9451 60.4225 87.9572 60.2447C87.9476 60.0638 87.9743 59.8828 88.0359 59.7123C88.0975 59.5418 88.1927 59.3852 88.3159 59.2518C88.5594 59.0464 88.8683 58.9337 89.1875 58.9337C89.5067 58.9337 89.8155 59.0464 90.0591 59.2518C90.2983 59.5229 90.4196 59.8775 90.3962 60.2376C90.4072 60.4192 90.381 60.6011 90.3194 60.7724C90.2577 60.9436 90.1618 61.1007 90.0376 61.234C89.7949 61.4415 89.4857 61.5555 89.1659 61.5555C88.8462 61.5555 88.5369 61.4415 88.2943 61.234V61.2269ZM92.2399 58.8768L92.5376 59.1018L88.8754 63.8341L88.5813 63.6091L92.2399 58.8768ZM88.7391 60.2376C88.7391 60.7055 88.8862 60.9519 89.1731 60.9519C89.4601 60.9519 89.6 60.7126 89.6 60.2376C89.6 59.7626 89.4529 59.5233 89.1731 59.5233C88.8933 59.5233 88.7391 59.7661 88.7391 60.2269V60.2376ZM91.0777 63.452C90.8581 63.1692 90.739 62.8219 90.739 62.4644C90.739 62.107 90.8581 61.7597 91.0777 61.4769C91.3175 61.2603 91.6331 61.1461 91.9565 61.159C92.7205 61.159 93.1653 61.6376 93.1653 62.4627C93.1756 62.6442 93.1492 62.826 93.0875 62.9971C93.0259 63.1683 92.9304 63.3254 92.8066 63.4591C92.5634 63.6668 92.2536 63.781 91.9332 63.781C91.6128 63.781 91.303 63.6668 91.0598 63.4591L91.0777 63.452ZM91.5225 62.4519C91.5225 62.9305 91.666 63.1662 91.9529 63.1662C92.2399 63.1662 92.3869 62.9269 92.3869 62.4519C92.3869 61.9769 92.2399 61.7626 91.9601 61.7626C91.6803 61.7626 91.5225 61.9841 91.5225 62.4377V62.4519Z" fill="#0072A3"/>
<path d="M142.621 58.9731C142.844 59.0062 143.07 59.0194 143.295 59.0124H144.013C144.245 59.0191 144.477 59.012 144.709 58.991C144.679 59.2901 144.666 59.5905 144.669 59.891V62.8233C144.665 63.105 144.681 63.3866 144.716 63.6661H143.489C143.523 63.3865 143.538 63.1049 143.536 62.8233V59.966H143.31C143.081 59.9657 142.852 59.9788 142.625 60.0053L142.621 58.9731Z" fill="url(#paint2_linear)"/>
<path d="M146.975 63.2483C146.795 63.0733 146.656 62.8612 146.567 62.6269C146.417 62.2159 146.342 61.7818 146.344 61.3447C146.335 60.8066 146.458 60.2745 146.703 59.7946C146.872 59.5159 147.113 59.2872 147.4 59.1321C147.688 58.977 148.012 58.9012 148.338 58.9125C148.845 58.8984 149.336 59.0846 149.705 59.4303C149.884 59.6067 150.023 59.8184 150.114 60.0518C150.263 60.4652 150.337 60.9018 150.333 61.3411C150.342 61.8803 150.219 62.4135 149.974 62.8947C149.803 63.173 149.561 63.4007 149.272 63.5546C148.983 63.7084 148.659 63.7827 148.331 63.7698C148.082 63.7776 147.833 63.7355 147.6 63.6459C147.367 63.5564 147.155 63.4212 146.975 63.2483ZM147.499 61.3018C147.499 62.3019 147.786 62.8162 148.342 62.8162C148.898 62.8162 149.174 62.3126 149.174 61.3161C149.174 60.3197 148.88 59.8589 148.335 59.8589C147.79 59.8589 147.517 60.3875 147.517 61.3018H147.499Z" fill="url(#paint3_linear)"/>
<path d="M151.323 63.2483C151.145 63.0714 151.006 62.8599 150.914 62.6269C150.767 62.2153 150.693 61.7815 150.695 61.3447C150.684 60.8065 150.807 60.2739 151.054 59.7947C151.222 59.5154 151.463 59.2863 151.75 59.1311C152.038 58.976 152.362 58.9005 152.689 58.9125C152.94 58.9052 153.189 58.9472 153.423 59.0361C153.657 59.1249 153.871 59.2589 154.052 59.4304C154.232 59.6068 154.372 59.8184 154.465 60.0518C154.614 60.4653 154.688 60.9018 154.684 61.3411C154.694 61.8805 154.571 62.4142 154.325 62.8948C154.155 63.1727 153.913 63.4003 153.625 63.5542C153.337 63.708 153.012 63.7824 152.686 63.7698C152.435 63.7786 152.185 63.737 151.951 63.6474C151.717 63.5578 151.503 63.4221 151.323 63.2483ZM151.846 61.3019C151.846 62.3019 152.133 62.8162 152.689 62.8162C153.245 62.8162 153.521 62.3126 153.521 61.3161C153.521 60.3197 153.231 59.859 152.686 59.859C152.141 59.859 151.846 60.3875 151.846 61.3019Z" fill="url(#paint4_linear)"/>
<path d="M155.386 61.2269C155.267 61.0937 155.176 60.9382 155.118 60.7696C155.061 60.6009 155.037 60.4225 155.049 60.2447C155.039 60.0638 155.066 59.8828 155.128 59.7123C155.189 59.5418 155.284 59.3852 155.408 59.2518C155.645 59.036 155.958 58.9218 156.279 58.934C156.438 58.927 156.597 58.9514 156.747 59.006C156.897 59.0606 157.034 59.1441 157.151 59.2518C157.39 59.5229 157.511 59.8775 157.488 60.2376C157.499 60.4192 157.473 60.6011 157.411 60.7724C157.35 60.9436 157.254 61.1007 157.129 61.234C156.895 61.4498 156.584 61.5642 156.265 61.5519C156.104 61.5581 155.944 61.5326 155.793 61.4768C155.642 61.4211 155.504 61.3361 155.386 61.2269ZM159.332 58.8768L159.629 59.1018L155.967 63.8341L155.673 63.6091L159.332 58.8768ZM155.831 60.2376C155.831 60.7055 155.978 60.9519 156.265 60.9519C156.552 60.9519 156.692 60.7126 156.692 60.2376C156.692 59.7626 156.545 59.5233 156.265 59.5233C155.985 59.5233 155.831 59.7661 155.831 60.2269V60.2376ZM158.17 63.452C157.949 63.1697 157.829 62.8222 157.829 62.4644C157.829 62.1067 157.949 61.7592 158.17 61.4769C158.408 61.2598 158.722 61.1455 159.045 61.159C159.809 61.159 160.254 61.6376 160.254 62.4627C160.264 62.6442 160.237 62.826 160.176 62.9971C160.114 63.1683 160.019 63.3254 159.895 63.4591C159.652 63.6668 159.342 63.781 159.021 63.781C158.701 63.781 158.391 63.6668 158.148 63.4591L158.17 63.452ZM158.614 62.4519C158.614 62.9305 158.758 63.1662 159.045 63.1662C159.332 63.1662 159.479 62.9269 159.479 62.4519C159.479 61.9769 159.332 61.7626 159.052 61.7626C158.772 61.7626 158.614 61.9841 158.614 62.4377V62.4519Z" fill="url(#paint5_linear)"/>
<path d="M80.4611 62.2447C80.4736 62.3776 80.5289 62.5029 80.6189 62.6018C80.7047 62.6831 80.8061 62.7462 80.9171 62.7874C81.028 62.8285 81.1462 62.8468 81.2645 62.8411C81.7057 62.8411 81.9819 62.6232 81.9819 62.2804C81.9886 62.1792 81.9631 62.0785 81.909 61.9925C81.8549 61.9066 81.775 61.8399 81.6806 61.8018C81.5115 61.7476 81.3345 61.7222 81.1569 61.7268C80.9257 61.7263 80.6946 61.7383 80.4647 61.7625V60.7982C80.6623 60.8215 80.8611 60.8334 81.0601 60.8339C81.5945 60.8339 81.8599 60.6553 81.8599 60.2946C81.8599 59.9946 81.6447 59.8196 81.2753 59.8196C81.1963 59.808 81.1158 59.8122 81.0385 59.8318C80.9611 59.8515 80.8885 59.8862 80.8247 59.9341C80.761 59.9819 80.7074 60.0419 80.6672 60.1105C80.6269 60.1792 80.6007 60.2551 80.5902 60.3339L79.3671 60.1553C79.4296 59.8892 79.5592 59.6433 79.7437 59.441C79.9469 59.244 80.1898 59.0921 80.4562 58.9955C80.7227 58.8988 81.0068 58.8595 81.2896 58.8803C81.8113 58.8502 82.3247 59.0202 82.7244 59.3553C82.8292 59.4593 82.9113 59.5837 82.9656 59.7207C83.0199 59.8578 83.0452 60.0045 83.04 60.1517C83.04 60.7446 82.7208 61.1125 82.0752 61.2625C82.3391 61.2859 82.5895 61.3893 82.7925 61.5589C82.907 61.6645 82.9981 61.7927 83.0599 61.9354C83.1216 62.0781 83.1528 62.2321 83.1512 62.3875C83.1577 62.654 83.0786 62.9155 82.9252 63.134C82.7873 63.3149 82.606 63.4586 82.398 63.5518C82.0268 63.7016 81.6291 63.7757 81.2287 63.7697C80.7723 63.7835 80.3205 63.6763 79.9194 63.459C79.6574 63.286 79.4557 63.0365 79.342 62.7447C79.3006 62.649 79.2682 62.5498 79.2451 62.4482L80.4611 62.2447Z" fill="url(#paint6_linear)"/>
<path d="M84.2335 63.2483C84.0537 63.0724 83.9131 62.8606 83.821 62.6269C83.6741 62.2153 83.6001 61.7815 83.6022 61.3447C83.5914 60.8065 83.7147 60.2739 83.9609 59.7947C84.1294 59.5154 84.37 59.2863 84.6577 59.1311C84.9454 58.976 85.2696 58.9005 85.5965 58.9125C85.8468 58.9052 86.096 58.9472 86.3299 59.0361C86.5638 59.1249 86.7778 59.2589 86.9595 59.4304C87.1388 59.6068 87.2793 59.8184 87.372 60.0518C87.5212 60.4653 87.5953 60.9018 87.5908 61.3411C87.6016 61.8805 87.4784 62.4142 87.2321 62.8948C87.072 63.1314 86.8625 63.331 86.618 63.4798C86.3734 63.6286 86.0995 63.7232 85.815 63.7571C85.5304 63.791 85.2418 63.7634 84.9689 63.6762C84.696 63.589 84.4452 63.4443 84.2335 63.2519V63.2483ZM84.7536 61.3019C84.7536 62.3019 85.0405 62.8162 85.5965 62.8162C86.1525 62.8162 86.4287 62.3126 86.4287 61.3161C86.4287 60.3197 86.1381 59.859 85.5929 59.859C85.0477 59.859 84.7464 60.3875 84.7464 61.3019H84.7536Z" fill="url(#paint7_linear)"/>
<path d="M88.2943 61.2269C88.1755 61.0937 88.0845 60.9382 88.0266 60.7696C87.9687 60.6009 87.9451 60.4225 87.9572 60.2447C87.9476 60.0638 87.9743 59.8828 88.0359 59.7123C88.0975 59.5418 88.1927 59.3852 88.3159 59.2518C88.5594 59.0464 88.8683 58.9337 89.1875 58.9337C89.5067 58.9337 89.8155 59.0464 90.0591 59.2518C90.2983 59.5229 90.4196 59.8775 90.3962 60.2376C90.4072 60.4192 90.381 60.6011 90.3194 60.7724C90.2577 60.9436 90.1618 61.1007 90.0376 61.234C89.7949 61.4415 89.4857 61.5555 89.1659 61.5555C88.8462 61.5555 88.5369 61.4415 88.2943 61.234V61.2269ZM92.2399 58.8768L92.5376 59.1018L88.8754 63.8341L88.5813 63.6091L92.2399 58.8768ZM88.7391 60.2376C88.7391 60.7055 88.8862 60.9519 89.1731 60.9519C89.4601 60.9519 89.6 60.7126 89.6 60.2376C89.6 59.7626 89.4529 59.5233 89.1731 59.5233C88.8933 59.5233 88.7391 59.7661 88.7391 60.2269V60.2376ZM91.0777 63.452C90.8581 63.1692 90.739 62.8219 90.739 62.4644C90.739 62.107 90.8581 61.7597 91.0777 61.4769C91.3175 61.2603 91.6331 61.1461 91.9565 61.159C92.7205 61.159 93.1653 61.6376 93.1653 62.4627C93.1756 62.6442 93.1492 62.826 93.0875 62.9971C93.0259 63.1683 92.9304 63.3254 92.8066 63.4591C92.5634 63.6668 92.2536 63.781 91.9332 63.781C91.6128 63.781 91.303 63.6668 91.0598 63.4591L91.0777 63.452ZM91.5225 62.4519C91.5225 62.9305 91.666 63.1662 91.9529 63.1662C92.2399 63.1662 92.3869 62.9269 92.3869 62.4519C92.3869 61.9769 92.2399 61.7626 91.9601 61.7626C91.6803 61.7626 91.5225 61.9841 91.5225 62.4377V62.4519Z" fill="url(#paint8_linear)"/>
<path d="M83.7177 52.8088H55.0228C54.0178 52.8069 53.0546 52.4085 52.344 51.701C51.6334 50.9934 51.2333 50.0343 51.2314 49.0337C51.2324 48.0327 51.6321 47.0731 52.3429 46.3653C53.0537 45.6575 54.0175 45.2595 55.0228 45.2585H83.5993C83.0147 45.7053 82.5432 46.2821 82.2225 46.9427C81.9018 47.6034 81.7407 48.3296 81.7522 49.0633C81.7637 49.797 81.9475 50.5178 82.2887 51.1682C82.63 51.8185 83.1194 52.3804 83.7177 52.8088Z" fill="url(#paint9_linear)"/>
<path d="M91.2243 48.9907C91.2267 49.6112 91.1061 50.226 90.8695 50.8001C90.6329 51.3741 90.2849 51.896 89.8454 52.3359C89.406 52.7758 88.8837 53.125 88.3085 53.3637C87.7332 53.6023 87.1164 53.7256 86.4933 53.7266C85.4951 53.729 84.5224 53.4136 83.717 52.8266C83.1187 52.3982 82.6294 51.8363 82.2881 51.186C81.9468 50.5356 81.7631 49.8148 81.7516 49.0811C81.74 48.3474 81.9011 47.6212 82.2218 46.9605C82.5426 46.2999 83.0141 45.7231 83.5987 45.2763C84.4243 44.6317 85.4441 44.2831 86.4933 44.287C87.7462 44.2889 88.9474 44.7848 89.834 45.6664C90.7206 46.5479 91.2205 47.7432 91.2243 48.9907Z" fill="url(#paint10_linear)"/>
<path d="M51.7041 123.175L51.8225 125.782C51.631 126.298 51.3195 126.761 50.9136 127.133C50.5077 127.506 50.019 127.777 49.4874 127.925C48.9842 128.056 48.4573 128.07 47.9478 127.965C47.4383 127.861 46.9599 127.64 46.5498 127.322L46.7363 122.957" fill="#C8A59C"/>
<path d="M41.5176 125.554L41.636 128.161C41.4447 128.677 41.1333 129.14 40.7274 129.512C40.3215 129.885 39.8326 130.156 39.3009 130.304C38.7979 130.436 38.2711 130.451 37.7615 130.347C37.2519 130.243 36.7734 130.023 36.3633 129.704L36.5462 125.336" fill="#C8A59C"/>
<path d="M53.9501 80.1881L52.0383 123.761C51.3702 124.251 50.5684 124.527 49.7391 124.554C48.1358 124.647 47.8453 124.761 46.6903 123.714L41.6328 78.2916L54.0505 76.8987L53.9501 80.1881Z" fill="#606161"/>
<path d="M53.9501 80.1881L52.0383 123.761C51.3702 124.251 50.5684 124.527 49.7391 124.554C48.1358 124.647 47.8453 124.761 46.6903 123.714L41.6328 78.2916L54.0505 76.8987L53.9501 80.1881Z" fill="url(#paint11_linear)"/>
<path d="M46.8985 84.3383L41.8768 126.482C41.8768 126.482 41.1595 127.222 39.1939 127.247C36.9557 127.275 36.7548 126.972 36.2526 125.847L35.2842 77.5095L46.7801 79.4596L46.8985 84.3383Z" fill="#606161"/>
<path d="M46.8985 84.3383L41.8768 126.482C41.8768 126.482 41.1595 127.222 39.1939 127.247C36.9557 127.275 36.7548 126.972 36.2526 125.847L35.2842 77.5095L46.7801 79.4596L46.8985 84.3383Z" fill="url(#paint12_linear)"/>
<path d="M48.4769 80.1274C46.9068 80.6529 45.2903 81.0296 43.649 81.2524C41.4969 81.4738 39.1977 80.4274 37.4832 80.3417C35.2055 80.2238 35.1445 80.1524 35.1445 78.6738C35.1445 77.9309 54.0617 76.1487 54.0617 76.1487C54.0617 76.1487 53.9756 77.5094 53.9792 78.7666C53.9792 79.7131 53.5738 79.6595 51.8521 79.7559C50.1305 79.8524 49.8148 79.3345 48.4769 80.1274Z" fill="url(#paint13_linear)"/>
<path d="M41.012 46.8621C41.012 46.8621 37.8376 47.68 35.5743 49.3229C34.1754 50.3372 35.1439 78.6738 35.1439 78.6738C35.2802 78.6523 41.3599 81.106 47.2388 80.1024C52.2604 79.2452 54.0538 76.9058 54.0538 76.9058C54.0538 76.9058 54.5058 49.7157 53.5337 48.5978C53.0961 48.0978 48.3364 46.3478 48.3364 46.3478C48.3364 46.3478 46.2524 49.4407 41.012 46.8621Z" fill="#0072A3"/>
<path d="M49.0899 60.4733H41.4068C40.2836 60.4733 39.373 61.3799 39.373 62.4983V74.1237C39.373 75.2421 40.2836 76.1487 41.4068 76.1487H49.0899C50.2131 76.1487 51.1236 75.2421 51.1236 74.1237V62.4983C51.1236 61.3799 50.2131 60.4733 49.0899 60.4733Z" fill="#F2FBFF"/>
<path d="M40.0581 75.1023V61.5305C40.0581 61.393 40.0853 61.257 40.1381 61.13C40.191 61.003 40.2684 60.8877 40.366 60.7905C40.4635 60.6933 40.5794 60.6163 40.7069 60.5637C40.8344 60.5111 40.9711 60.484 41.1091 60.484H40.424C40.1453 60.484 39.878 60.5943 39.6809 60.7905C39.4838 60.9868 39.373 61.2529 39.373 61.5305V75.1023C39.373 75.3798 39.4838 75.646 39.6809 75.8422C39.878 76.0385 40.1453 76.1487 40.424 76.1487H41.1091C40.9711 76.1487 40.8344 76.1217 40.7069 76.0691C40.5794 76.0165 40.4635 75.9394 40.366 75.8422C40.2684 75.7451 40.191 75.6297 40.1381 75.5028C40.0853 75.3758 40.0581 75.2397 40.0581 75.1023Z" fill="#D2E8EC"/>
<path d="M51.0302 34.4402C50.9827 33.6134 50.7985 32.8001 50.485 32.033C50.485 32.033 52.2784 31.1187 51.9197 34.4045C51.561 37.6903 51.9592 37.9761 50.6177 39.7618L50.3271 39.0475C50.6715 37.3618 51.1701 36.5403 51.0302 34.4402Z" fill="#606161"/>
<path d="M42.063 40.5656L41.0264 46.8622C41.0264 46.8622 43.3507 50.2516 46.2883 49.748C49.2259 49.2444 48.4978 47.8729 48.4978 47.8729L48.1176 42.5549C48.1176 42.5549 45.449 43.0121 42.063 40.5656Z" fill="#C8A59C"/>
<path d="M41.6826 42.7763L42.0413 40.5656C45.4417 43.0228 47.1992 41.9763 47.1992 41.9763L48.0206 44.8335C47.5589 45.3126 46.9381 45.6083 46.2738 45.6657C44.6525 45.7871 43.0062 44.5192 41.6826 42.7763Z" fill="#B58B81"/>
<path d="M41.1345 46.105L38.0605 47.5336C38.0605 47.5336 42.9136 52.6373 44.3914 52.5337C44.3914 52.5337 45.7866 49.9515 47.0994 49.5444L41.1345 46.105Z" fill="#F2FBFF"/>
<path d="M53.1826 48.4158C53.1826 48.4158 55.7974 48.7051 57.2752 58.4518C58.6454 67.4771 60.1016 70.9736 57.3075 72.3808C53.4444 74.313 51.8339 73.7773 51.8339 73.7773C51.8339 73.7773 50.5103 71.0879 51.2708 69.2557C51.2708 69.2557 52.2356 68.8985 54.1044 68.0449L54.047 61.1519C54.047 61.1519 49.5957 47.03 53.1826 48.4158Z" fill="#0072A3"/>
<path d="M48.2761 46.98C48.0212 47.8953 47.6243 48.7654 47.0996 49.5586C47.3866 49.6694 49.2697 50.9873 49.3019 51.8623C49.3019 51.8623 51.1707 47.6479 50.3995 46.9836C49.7527 46.6544 49.0882 46.3611 48.4088 46.105L48.2761 46.98Z" fill="#F2FBFF"/>
<path d="M36.8263 48.5764C36.8263 48.5764 32.0629 50.1086 31.5213 57.6803C31.0335 64.5626 29.7924 69.5913 30.8039 71.6343C32.1167 74.2986 41.2991 74.7415 41.2991 74.7415C41.5205 73.4146 41.4644 72.0564 41.1341 70.7521L36.1125 68.7556C36.1125 68.7556 36.9088 49.7586 36.8263 48.5764Z" fill="#0072A3"/>
<path d="M54.036 53.6373L55.0081 67.2556C55.0941 68.4485 52.96 69.1735 52.96 69.1735C52.96 69.1735 53.3796 62.5269 53.3186 62.209C53.2577 61.8912 53.8639 54.6124 54.036 53.6373Z" fill="url(#paint14_linear)"/>
<path d="M39.3872 35.9797C39.6383 39.4762 43.236 45.6478 46.7439 45.3978C50.2519 45.1478 51.2669 37.9226 51.0302 34.4404C50.7935 30.9581 48.8099 28.9688 45.2912 29.2152C43.608 29.3342 42.041 30.1133 40.9341 31.3815C39.8272 32.6498 39.2709 34.3035 39.3872 35.9797Z" fill="#C8A59C"/>
<path d="M42.3284 29.4152C42.3284 29.4152 43.4044 27.5616 46.6864 27.9223C49.9684 28.283 50.7431 30.5974 51.6112 30.2402C52.4792 29.8831 54.0646 31.251 52.9849 32.8082C51.9053 34.3653 50.1513 34.7868 47.9956 33.7546C45.8399 32.7224 43.1533 32.6153 42.6153 33.2475C42.0773 33.8796 43.3327 40.312 43.3327 40.312C43.3327 40.312 43.3327 40.6084 42.7373 40.3548C42.1418 40.1012 42.5185 36.2154 41.3025 36.0047C40.0866 35.794 39.979 38.4798 40.9438 39.2905C41.6899 39.9191 41.8405 42.0691 41.8405 42.0691C41.8405 42.0691 37.9847 39.5012 38.2537 35.0368C38.5227 30.5724 40.2121 28.9723 42.3284 29.4152Z" fill="#606161"/>
<path d="M50.8972 70.1986C50.4444 69.7487 49.8331 69.4924 49.1935 69.4843C48.1676 69.5021 47.3032 69.8593 45.8218 69.9628C44.3404 70.0664 45.3304 71.4307 45.3986 72.3629C45.4667 73.2951 45.2515 74.4487 45.5672 74.7237C45.8828 74.9987 51.1914 74.3237 51.7437 73.6915C52.002 73.3987 51.8262 70.7271 50.8972 70.1986Z" fill="#C8A59C"/>
<path d="M52.3359 69.5056C52.3359 69.5056 52.5368 73.3414 52.9277 73.6129L51.0231 74.0415C50.6459 73.4289 50.4078 72.7417 50.3254 72.0279C50.2429 71.3141 50.3183 70.591 50.5461 69.9092L52.3359 69.5056Z" fill="#F2FBFF"/>
<path d="M51.4824 70.9164C51.6825 70.9164 51.8447 70.7549 51.8447 70.5557C51.8447 70.3565 51.6825 70.1949 51.4824 70.1949C51.2823 70.1949 51.1201 70.3565 51.1201 70.5557C51.1201 70.7549 51.2823 70.9164 51.4824 70.9164Z" fill="#D2E8EC"/>
<path d="M47.6476 74.1915C47.5615 73.5272 47.8772 72.8879 47.9704 71.7485C48.0637 70.6092 47.3248 70.3199 46.2416 70.2021C45.9474 70.1699 45.7143 70.1306 45.5242 70.1021C44.5163 70.3449 45.3197 71.5628 45.3771 72.4164C45.4345 73.27 45.2408 74.4593 45.535 74.7272C45.6569 74.8379 46.5823 74.7879 47.6584 74.6486C47.6745 74.4964 47.6709 74.3428 47.6476 74.1915Z" fill="#B58B81"/>
<path d="M52.3359 69.5056C52.3359 69.5056 52.5368 73.3414 52.9277 73.6129L51.0231 74.0415C50.6459 73.4289 50.4078 72.7417 50.3254 72.0279C50.2429 71.3141 50.3183 70.591 50.5461 69.9092L52.3359 69.5056Z" fill="#F2FBFF"/>
<path d="M51.4824 70.9164C51.6825 70.9164 51.8447 70.7549 51.8447 70.5557C51.8447 70.3565 51.6825 70.1949 51.4824 70.1949C51.2823 70.1949 51.1201 70.3565 51.1201 70.5557C51.1201 70.7549 51.2823 70.9164 51.4824 70.9164Z" fill="#D2E8EC"/>
<path d="M36.8261 54.9802L35.3662 68.2878L37.0807 69.0771L36.8261 54.9802Z" fill="url(#paint15_linear)"/>
<path d="M39.3554 74.5665L35.0225 73.8522L35.1444 78.6595C35.1444 78.6595 35.6215 74.3986 37.2607 75.0879C38.8999 75.7772 39.3554 74.5665 39.3554 74.5665Z" fill="url(#paint16_linear)"/>
<path d="M55.0474 67.7699L52.2461 69.4199L54.1507 68.7556L55.0474 67.7699Z" fill="url(#paint17_linear)"/>
<path d="M48.3153 41.7905C48.3153 41.7905 48.2185 41.7048 47.4796 41.7548C46.6086 41.7983 45.7354 41.7371 44.8791 41.5726C44.3124 41.4298 44.0398 41.5155 44.0936 42.287C44.1474 43.0584 44.7536 43.7156 46.2457 43.7941C47.9136 43.8834 48.613 43.2584 48.7565 42.512C48.8318 41.9405 48.5198 41.7762 48.3153 41.7905Z" fill="#C8A59C"/>
<path d="M41.8942 70.8699C42.5192 70.7379 43.135 70.5661 43.7379 70.3556C44.5306 70.0592 44.7781 70.2306 45.9438 70.3556C47.1095 70.4807 47.9022 70.7735 47.8018 71.9343C47.7014 73.095 47.3642 73.7486 47.4431 74.4343C47.522 75.1201 47.3176 75.6951 46.3025 75.7201C45.2874 75.7451 41.8799 74.7094 41.8799 74.7094" fill="#C8A59C"/>
<path d="M40.7859 70.5557H42.5542C42.5542 70.5557 43.3146 73.095 42.3247 74.8415L40.3555 74.7701C40.3555 74.7701 41.0334 72.3164 40.7859 70.5557Z" fill="#F2FBFF"/>
<path d="M41.6794 71.7986C41.8933 71.7986 42.0668 71.6163 42.0668 71.3914C42.0668 71.1665 41.8933 70.9843 41.6794 70.9843C41.4654 70.9843 41.292 71.1665 41.292 71.3914C41.292 71.6163 41.4654 71.7986 41.6794 71.7986Z" fill="#D2E8EC"/>
<path d="M53.1326 56.4052L50.1806 56.9731L50.0371 56.0695L52.9927 55.498L53.1326 56.4052Z" fill="#F2FBFF"/>
<path d="M43.3256 129.465C44.3783 129.973 45.3119 130.696 46.066 131.586C46.5036 132.104 46.8946 132.761 46.7439 133.418C46.6803 133.659 46.5604 133.882 46.394 134.068C46.2276 134.254 46.0193 134.399 45.7862 134.49C45.3215 134.667 44.8184 134.721 44.3264 134.647C43.4598 134.512 42.6153 134.262 41.8156 133.904C40.2589 133.29 38.6914 132.643 37.3427 131.658C36.7043 131.19 36.0802 130.568 36.0264 129.779C36.0264 129.475 36.1376 129.104 36.4389 129.065C36.5678 129.051 36.6982 129.068 36.8191 129.115C37.7077 129.375 38.6348 129.48 39.5594 129.425C39.9048 129.42 40.2428 129.324 40.5386 129.147C40.8184 128.972 41.0085 128.6 41.3636 128.568C41.8873 128.49 42.8522 129.236 43.3256 129.465Z" fill="#0072A3"/>
<path d="M46.2525 126.875C46.2525 126.697 46.274 126.465 46.4498 126.425C46.5345 126.412 46.621 126.43 46.6937 126.475C47.3644 126.811 47.8953 127.411 48.6127 127.636C49.7138 127.993 50.9441 127.279 51.4821 126.254C51.5178 126.161 51.5851 126.084 51.6722 126.036C51.7697 126.009 51.8737 126.021 51.9628 126.068C53.1638 126.485 54.3316 126.991 55.4564 127.582C56.0805 127.94 56.7405 128.454 56.7441 129.165C56.7263 129.426 56.6384 129.678 56.4895 129.894C56.3406 130.11 56.1362 130.283 55.8976 130.393C55.4168 130.606 54.8958 130.715 54.3696 130.711C52.504 130.785 50.6411 130.509 48.8781 129.897C48.1213 129.632 46.9699 129.311 46.3673 128.747C45.9333 128.315 46.2704 127.461 46.2525 126.875Z" fill="#0072A3"/>
<path d="M43.3256 129.465C44.3783 129.973 45.3119 130.696 46.066 131.586C46.5036 132.104 46.8946 132.761 46.7439 133.418C46.6803 133.659 46.5604 133.882 46.394 134.068C46.2276 134.254 46.0193 134.399 45.7862 134.49C45.3215 134.667 44.8184 134.721 44.3264 134.647C43.4598 134.512 42.6153 134.262 41.8156 133.904C40.2589 133.29 38.6914 132.643 37.3427 131.658C36.7043 131.19 36.0802 130.568 36.0264 129.779C36.0264 129.475 36.1376 129.104 36.4389 129.065C36.5678 129.051 36.6982 129.068 36.8191 129.115C37.7077 129.375 38.6348 129.48 39.5594 129.425C39.9048 129.42 40.2428 129.324 40.5386 129.147C40.8184 128.972 41.0085 128.6 41.3636 128.568C41.8873 128.49 42.8522 129.236 43.3256 129.465Z" fill="url(#paint18_linear)"/>
<path d="M46.2525 126.875C46.2525 126.697 46.274 126.465 46.4498 126.425C46.5345 126.412 46.621 126.43 46.6937 126.475C47.3644 126.811 47.8953 127.411 48.6127 127.636C49.7138 127.993 50.9441 127.279 51.4821 126.254C51.5178 126.161 51.5851 126.084 51.6722 126.036C51.7697 126.009 51.8737 126.021 51.9628 126.068C53.1638 126.485 54.3316 126.991 55.4564 127.582C56.0805 127.94 56.7405 128.454 56.7441 129.165C56.7263 129.426 56.6384 129.678 56.4895 129.894C56.3406 130.11 56.1362 130.283 55.8976 130.393C55.4168 130.606 54.8958 130.715 54.3696 130.711C52.504 130.785 50.6411 130.509 48.8781 129.897C48.1213 129.632 46.9699 129.311 46.3673 128.747C45.9333 128.315 46.2704 127.461 46.2525 126.875Z" fill="url(#paint19_linear)"/>
</g>
</g>
<defs>
<linearGradient id="paint0_linear" x1="47.4399" y1="110.682" x2="60.7068" y2="208.393" gradientUnits="userSpaceOnUse">
<stop stop-color="#010101" stop-opacity="0"/>
<stop offset="0.95" stop-color="#010101"/>
</linearGradient>
<linearGradient id="paint1_linear" x1="4092.45" y1="1098.74" x2="4096.58" y2="2195.39" gradientUnits="userSpaceOnUse">
<stop stop-color="#010101" stop-opacity="0"/>
<stop offset="0.95" stop-color="#010101"/>
</linearGradient>
<linearGradient id="paint2_linear" x1="985.868" y1="905.027" x2="1021.42" y2="1518.72" gradientUnits="userSpaceOnUse">
<stop stop-color="#010101" stop-opacity="0"/>
<stop offset="0.95" stop-color="#010101"/>
</linearGradient>
<linearGradient id="paint3_linear" x1="1803.77" y1="933.387" x2="1823.83" y2="1570.4" gradientUnits="userSpaceOnUse">
<stop stop-color="#010101" stop-opacity="0"/>
<stop offset="0.95" stop-color="#010101"/>
</linearGradient>
<linearGradient id="paint4_linear" x1="1856.67" y1="931.897" x2="1876.73" y2="1568.92" gradientUnits="userSpaceOnUse">
<stop stop-color="#010101" stop-opacity="0"/>
<stop offset="0.95" stop-color="#010101"/>
</linearGradient>
<linearGradient id="paint5_linear" x1="2454.71" y1="947.57" x2="2470.7" y2="1597.61" gradientUnits="userSpaceOnUse">
<stop stop-color="#010101" stop-opacity="0"/>
<stop offset="0.95" stop-color="#010101"/>
</linearGradient>
<linearGradient id="paint6_linear" x1="971.446" y1="963.558" x2="992.24" y2="1605.28" gradientUnits="userSpaceOnUse">
<stop stop-color="#010101" stop-opacity="0"/>
<stop offset="0.95" stop-color="#010101"/>
</linearGradient>
<linearGradient id="paint7_linear" x1="1043.73" y1="955.362" x2="1063.85" y2="1592.43" gradientUnits="userSpaceOnUse">
<stop stop-color="#010101" stop-opacity="0"/>
<stop offset="0.95" stop-color="#010101"/>
</linearGradient>
<linearGradient id="paint8_linear" x1="1414.7" y1="971.564" x2="1430.69" y2="1621.61" gradientUnits="userSpaceOnUse">
<stop stop-color="#010101" stop-opacity="0"/>
<stop offset="0.95" stop-color="#010101"/>
</linearGradient>
<linearGradient id="paint9_linear" x1="6227.51" y1="1144.87" x2="6234.41" y2="2533.81" gradientUnits="userSpaceOnUse">
<stop stop-color="#010101" stop-opacity="0"/>
<stop offset="0.95" stop-color="#010101"/>
</linearGradient>
<linearGradient id="paint10_linear" x1="2399.04" y1="1376.31" x2="2375.15" y2="2536.72" gradientUnits="userSpaceOnUse">
<stop stop-color="#010101" stop-opacity="0"/>
<stop offset="0.95" stop-color="#010101"/>
</linearGradient>
<linearGradient id="paint11_linear" x1="1967.25" y1="17564.5" x2="-2128.54" y2="13528.1" gradientUnits="userSpaceOnUse">
<stop stop-color="#010101" stop-opacity="0"/>
<stop offset="0.95" stop-color="#010101"/>
</linearGradient>
<linearGradient id="paint12_linear" x1="1256.64" y1="16359.1" x2="2550.28" y2="16336" gradientUnits="userSpaceOnUse">
<stop stop-color="#010101" stop-opacity="0"/>
<stop offset="0.95" stop-color="#010101"/>
</linearGradient>
<linearGradient id="paint13_linear" x1="2435.35" y1="1457.56" x2="2435.95" y2="1325.83" gradientUnits="userSpaceOnUse">
<stop stop-color="#010101" stop-opacity="0"/>
<stop offset="0.95" stop-color="#010101"/>
</linearGradient>
<linearGradient id="paint14_linear" x1="355.285" y1="3355.39" x2="436.983" y2="3355.35" gradientUnits="userSpaceOnUse">
<stop stop-color="#010101" stop-opacity="0"/>
<stop offset="0.95" stop-color="#010101"/>
</linearGradient>
<linearGradient id="paint15_linear" x1="217.106" y1="2505.72" x2="166.43" y2="2505.36" gradientUnits="userSpaceOnUse">
<stop stop-color="#010101" stop-opacity="0"/>
<stop offset="0.95" stop-color="#010101"/>
</linearGradient>
<linearGradient id="paint16_linear" x1="496.09" y1="1308.65" x2="496.09" y2="1116.03" gradientUnits="userSpaceOnUse">
<stop stop-color="#010101" stop-opacity="0"/>
<stop offset="0.95" stop-color="#010101"/>
</linearGradient>
<linearGradient id="paint17_linear" x1="469.056" y1="377.352" x2="479.768" y2="481.826" gradientUnits="userSpaceOnUse">
<stop stop-color="#010101" stop-opacity="0"/>
<stop offset="0.95" stop-color="#010101"/>
</linearGradient>
<linearGradient id="paint18_linear" x1="1312" y1="2399.21" x2="1307.58" y2="2923.09" gradientUnits="userSpaceOnUse">
<stop stop-color="#010101" stop-opacity="0"/>
<stop offset="0.95" stop-color="#010101"/>
</linearGradient>
<linearGradient id="paint19_linear" x1="1602.16" y1="1813.52" x2="1599.51" y2="2216.09" gradientUnits="userSpaceOnUse">
<stop stop-color="#010101" stop-opacity="0"/>
<stop offset="0.95" stop-color="#010101"/>
</linearGradient>
<clipPath id="clip0">
<rect width="1440" height="2933" fill="white" transform="translate(-896 -1727)"/>
</clipPath>
<clipPath id="clip1">
<rect width="200" height="143.719" fill="white"/>
</clipPath>
</defs>
</svg>
