<svg width="200" height="167" viewBox="0 0 200 167" fill="none" xmlns="http://www.w3.org/2000/svg">
<rect width="200" height="167" fill="#E5E5E5"/>
<g clip-path="url(#clip0)">
<rect width="1440" height="2933" transform="translate(-896 -1324)" fill="white"/>
<g clip-path="url(#clip1)">
<path opacity="0.24" d="M199.497 71.8969C196.897 88.3844 186.066 103.179 186.14 119.882C186.161 127.646 188.57 135.545 186.703 143.078C186.253 144.871 185.575 146.599 184.688 148.221C181.525 154.009 175.872 158.454 169.699 161.053C161.829 164.372 153.13 165.127 144.597 165.658C118.797 167.247 92.9212 167.207 67.1255 165.537C62.2873 165.226 57.3853 164.829 52.8198 163.189C46.71 160.972 41.631 156.622 36.7042 152.369C36.4775 152.167 36.2367 151.972 35.9958 151.77C19.99 137.914 3.14121 122.114 0.385617 101.167C-2.21413 81.29 8.69136 62.3975 19.402 45.446C28.3524 31.2572 37.9722 16.6398 52.4833 8.21719C67.7453 -0.672955 86.5705 -1.43092 103.968 1.62573C117.289 3.96338 130.1 8.35533 142.929 12.5171C152.138 15.4993 162.41 16.1581 171.324 19.4308C191.049 26.674 202.61 52.1296 199.497 71.8969Z" fill="#0072A3"/>
<path opacity="0.42" d="M184.675 148.221C181.512 154.009 175.859 158.454 169.685 161.053C161.815 164.372 153.116 165.127 144.584 165.658C118.783 167.247 92.9078 167.207 67.1121 165.537C62.2739 165.226 57.3719 164.829 52.8064 163.189C46.6966 160.972 41.6176 156.622 36.6908 152.369C36.4641 152.167 36.2233 151.972 35.9824 151.77C37.0626 150.723 38.3706 149.939 39.8041 149.482C50.7309 145.706 64.8595 145.993 76.3246 145.278C101.762 143.67 127.292 144.403 152.73 145.947C163.384 146.592 174.035 147.382 184.675 148.221Z" fill="#0072A3"/>
<path d="M49.672 157.016C59.2351 163.214 71.5857 161.737 82.9658 161.372C96.3471 160.944 109.739 162.371 123.124 161.925C136.509 161.478 150.262 158.974 161.376 151.494C159.793 150.187 157.579 150.049 155.529 149.967C134.238 149.149 112.842 147.622 91.5372 147.619C85.2964 147.619 79.222 148.405 73.045 149.213C68.6105 149.794 64.0096 150.07 59.6885 151.285C58.587 151.604 48.8432 156.449 49.672 157.016Z" fill="url(#paint0_linear)"/>
<path d="M140.372 82.2321H109.115C106.701 82.2321 104.744 84.1889 104.744 86.6028V112.359C104.744 114.773 106.701 116.73 109.115 116.73H140.372C142.786 116.73 144.743 114.773 144.743 112.359V86.6028C144.743 84.1889 142.786 82.2321 140.372 82.2321Z" fill="#0072A3"/>
<path d="M140.372 82.2321H109.115C106.701 82.2321 104.744 84.1889 104.744 86.6028V112.359C104.744 114.773 106.701 116.73 109.115 116.73H140.372C142.786 116.73 144.743 114.773 144.743 112.359V86.6028C144.743 84.1889 142.786 82.2321 140.372 82.2321Z" fill="url(#paint1_linear)"/>
<path d="M142.058 88.1081V109.292C142.056 109.549 142.01 109.805 141.923 110.047L141.71 99.4209L135.179 94.2568L127.199 103.243L124.947 102.463L128.889 97.5047L121.451 92.1033L107.283 102.407V88.1081C107.283 87.4759 107.534 86.8696 107.981 86.4225C108.428 85.9755 109.035 85.7244 109.667 85.7244H139.681C139.993 85.7248 140.303 85.7869 140.591 85.9069C140.88 86.0269 141.142 86.2027 141.363 86.424C141.584 86.6453 141.758 86.908 141.878 87.1969C141.997 87.4859 142.058 87.7955 142.058 88.1081Z" fill="#0072A3"/>
<path d="M86.7587 56.5179H58.9974C57.5361 56.5179 56.3516 57.7025 56.3516 59.1637V104.238C56.3516 105.699 57.5361 106.884 58.9974 106.884H86.7587C88.2199 106.884 89.4045 105.699 89.4045 104.238V59.1637C89.4045 57.7025 88.2199 56.5179 86.7587 56.5179Z" fill="#0072A3"/>
<path d="M86.7587 56.5179H58.9974C57.5361 56.5179 56.3516 57.7025 56.3516 59.1637V104.238C56.3516 105.699 57.5361 106.884 58.9974 106.884H86.7587C88.2199 106.884 89.4045 105.699 89.4045 104.238V59.1637C89.4045 57.7025 88.2199 56.5179 86.7587 56.5179Z" fill="url(#paint2_linear)"/>
<path d="M84.4705 62.6419H62.9924C62.4956 62.6419 62.0928 63.0447 62.0928 63.5415C62.0928 64.0384 62.4956 64.4412 62.9924 64.4412H84.4705C84.9673 64.4412 85.3701 64.0384 85.3701 63.5415C85.3701 63.0447 84.9673 62.6419 84.4705 62.6419Z" fill="url(#paint3_linear)"/>
<path d="M84.4705 68.7693H62.9924C62.4956 68.7693 62.0928 69.1721 62.0928 69.669C62.0928 70.1658 62.4956 70.5686 62.9924 70.5686H84.4705C84.9673 70.5686 85.3701 70.1658 85.3701 69.669C85.3701 69.1721 84.9673 68.7693 84.4705 68.7693Z" fill="url(#paint4_linear)"/>
<path d="M84.4705 74.8969H62.9924C62.4956 74.8969 62.0928 75.2996 62.0928 75.7965C62.0928 76.2933 62.4956 76.6961 62.9924 76.6961H84.4705C84.9673 76.6961 85.3701 76.2933 85.3701 75.7965C85.3701 75.2996 84.9673 74.8969 84.4705 74.8969Z" fill="url(#paint5_linear)"/>
<path d="M84.4705 81.0243H62.9924C62.4956 81.0243 62.0928 81.4271 62.0928 81.9239C62.0928 82.4208 62.4956 82.8236 62.9924 82.8236H84.4705C84.9673 82.8236 85.3701 82.4208 85.3701 81.9239C85.3701 81.4271 84.9673 81.0243 84.4705 81.0243Z" fill="url(#paint6_linear)"/>
<path d="M84.4705 87.1553H62.9924C62.4956 87.1553 62.0928 87.5581 62.0928 88.055C62.0928 88.5518 62.4956 88.9546 62.9924 88.9546H84.4705C84.9673 88.9546 85.3701 88.5518 85.3701 88.055C85.3701 87.5581 84.9673 87.1553 84.4705 87.1553Z" fill="url(#paint7_linear)"/>
<path d="M81.5767 46.0127C80.8302 46.2795 80.1803 46.7629 79.7101 47.4011C79.2323 48.021 78.8855 48.7315 78.6906 49.4896C78.4958 50.2476 78.457 51.0373 78.5767 51.8108C78.7502 52.891 79.2284 53.8969 79.5543 54.9418C79.8801 55.9867 80.0537 57.1519 79.6145 58.1543C79.5732 58.2174 79.5459 58.2886 79.5343 58.3631C79.5227 58.4376 79.5271 58.5137 79.5472 58.5864C79.5948 58.6541 79.6625 58.7051 79.7406 58.7324C79.8187 58.7597 79.9034 58.7619 79.9828 58.7387C80.67 58.6112 80.9852 57.832 81.1835 57.1626C81.4775 57.322 81.481 57.9489 81.8069 57.8709C81.8789 57.8427 81.9406 57.7933 81.984 57.7293C82.2226 57.4233 82.3656 57.0536 82.3949 56.6667C82.5697 56.7295 82.7265 56.8341 82.8518 56.9713C83.0706 56.845 83.2517 56.6625 83.3762 56.4426C83.5008 56.2228 83.5643 55.9736 83.5601 55.721C83.5885 55.2216 83.4716 54.7257 83.4503 54.2263C83.3937 52.8096 84.0985 51.5203 84.5483 50.1886C84.9025 49.126 85.2142 47.4259 84.3854 46.4802C83.7797 45.8002 82.363 45.7612 81.5767 46.0127Z" fill="#606161"/>
<path d="M81.5767 46.0127C80.8302 46.2795 80.1803 46.7629 79.7101 47.4011C79.2323 48.021 78.8855 48.7315 78.6906 49.4896C78.4958 50.2476 78.457 51.0373 78.5767 51.8108C78.7502 52.891 79.2284 53.8969 79.5543 54.9418C79.8801 55.9867 80.0537 57.1519 79.6145 58.1543C79.5732 58.2174 79.5459 58.2886 79.5343 58.3631C79.5227 58.4376 79.5271 58.5137 79.5472 58.5864C79.5948 58.6541 79.6625 58.7051 79.7406 58.7324C79.8187 58.7597 79.9034 58.7619 79.9828 58.7387C80.67 58.6112 80.9852 57.832 81.1835 57.1626C81.4775 57.322 81.481 57.9489 81.8069 57.8709C81.8789 57.8427 81.9406 57.7933 81.984 57.7293C82.2226 57.4233 82.3656 57.0536 82.3949 56.6667C82.5697 56.7295 82.7265 56.8341 82.8518 56.9713C83.0706 56.845 83.2517 56.6625 83.3762 56.4426C83.5008 56.2228 83.5643 55.9736 83.5601 55.721C83.5885 55.2216 83.4716 54.7257 83.4503 54.2263C83.3937 52.8096 84.0985 51.5203 84.5483 50.1886C84.9025 49.126 85.2142 47.4259 84.3854 46.4802C83.7797 45.8002 82.363 45.7612 81.5767 46.0127Z" fill="url(#paint8_linear)"/>
<path d="M88.9057 60.6089C92.458 60.6089 95.3378 57.0155 95.3378 52.5829C95.3378 48.1503 92.458 44.557 88.9057 44.557C85.3534 44.557 82.4736 48.1503 82.4736 52.5829C82.4736 57.0155 85.3534 60.6089 88.9057 60.6089Z" fill="#606161"/>
<path d="M88.9057 60.6089C92.458 60.6089 95.3378 57.0155 95.3378 52.5829C95.3378 48.1503 92.458 44.557 88.9057 44.557C85.3534 44.557 82.4736 48.1503 82.4736 52.5829C82.4736 57.0155 85.3534 60.6089 88.9057 60.6089Z" fill="url(#paint9_linear)"/>
<path d="M95.6307 50.9572C95.6922 52.1221 95.6792 53.2898 95.5917 54.453C95.5143 55.17 95.6045 55.8952 95.8553 56.5713C96.1061 57.2474 96.5105 57.856 97.0368 58.3491C96.7067 58.3893 96.3724 58.3797 96.0451 58.3208C95.8817 58.29 95.7273 58.2232 95.5931 58.1252C95.4589 58.0271 95.3483 57.9003 95.2694 57.7541C95.4254 58.0282 95.6404 58.2642 95.899 58.445C96.1575 58.6257 96.453 58.7466 96.7641 58.7989C96.084 59.0929 94.2847 59.7198 94.1714 58.5722C94.1254 58.133 94.3095 57.6266 94.345 57.1838C94.391 56.5852 94.4016 55.9831 94.43 55.3845L94.6602 50.564" fill="#606161"/>
<path d="M111.219 67.7883C111.219 67.7883 111.304 65.394 111.615 64.8804C111.892 64.4235 112.324 63.1909 112.653 63.244C113.238 63.3361 112.26 65.8934 113.819 64.9264C114.063 64.7741 115.377 64.1189 116.298 64.381C116.482 64.4338 116.653 64.5249 116.799 64.6483C116.946 64.7718 117.065 64.9248 117.148 65.0973C117.231 65.2699 117.277 65.4581 117.283 65.6496C117.288 65.8411 117.253 66.0316 117.18 66.2086C116.903 66.7186 115.512 67.6253 114.7 68.0008C113.889 68.3762 113.036 68.9819 112.667 69.5876" fill="#F5C7C8"/>
<path d="M95.9533 65.7659C95.9533 65.7659 97.9261 67.7281 98.6629 68.9536C99.3996 70.1791 102.782 75.2227 103.119 75.3821C103.455 75.5415 111.346 67.2853 111.346 67.2853C111.346 67.2853 112.349 67.8025 112.689 69.5805C112.689 69.5805 108.924 79.728 104.744 82.225C100.565 84.7221 95.8223 74.2345 95.8223 74.2345" fill="#F5C7C8"/>
<path d="M87.2054 141.608L86.6352 145.543C86.1075 145.366 85.0414 145.476 83.9009 145.48C83.1515 145.449 82.4302 145.186 81.8359 144.729L82.5443 141.066L83.8159 122.96L90.673 123.952L87.2054 141.608Z" fill="#F5C7C8"/>
<path d="M80.546 150.566C80.5439 150.687 80.5668 150.808 80.6133 150.92C80.6968 151.064 80.8197 151.18 80.9675 151.256C82.3835 152.107 83.912 152.754 85.5082 153.18C86.1616 153.379 86.8446 153.464 87.527 153.431C87.8663 153.411 88.198 153.322 88.5022 153.17C88.8065 153.019 89.0771 152.808 89.298 152.549C89.8505 151.841 89.8541 150.835 89.5353 150.003C89.1697 149.188 88.6678 148.442 88.0512 147.796L86.7797 146.308C86.5802 146.036 86.3271 145.807 86.0359 145.635C85.0265 145.118 82.3382 145.094 81.3925 145.862C80.213 146.85 80.4893 149.223 80.546 150.566Z" fill="#0072A3"/>
<path d="M95.3897 150.679C95.3881 150.8 95.4097 150.92 95.4535 151.033C95.539 151.174 95.6615 151.29 95.8077 151.366C97.2241 152.219 98.754 152.868 100.352 153.293C101.005 153.493 101.688 153.578 102.371 153.545C102.71 153.523 103.041 153.434 103.345 153.283C103.65 153.131 103.92 152.92 104.142 152.663C104.691 151.954 104.694 150.948 104.379 150.116C104.013 149.302 103.511 148.555 102.895 147.909L101.623 146.422C101.422 146.15 101.169 145.92 100.88 145.745C99.8702 145.232 97.1819 145.207 96.2362 145.975C95.0568 146.964 95.333 149.337 95.3897 150.679Z" fill="#0072A3"/>
<path d="M80.546 150.566C80.5439 150.687 80.5668 150.808 80.6133 150.92C80.6968 151.064 80.8197 151.18 80.9675 151.256C82.3835 152.107 83.912 152.754 85.5082 153.18C86.1616 153.379 86.8446 153.464 87.527 153.431C87.8663 153.411 88.198 153.322 88.5022 153.17C88.8065 153.019 89.0771 152.808 89.298 152.549C89.8505 151.841 89.8541 150.835 89.5353 150.003C89.1697 149.188 88.6678 148.442 88.0512 147.796L86.7797 146.308C86.5802 146.036 86.3271 145.807 86.0359 145.635C85.0265 145.118 82.3382 145.094 81.3925 145.862C80.213 146.85 80.4893 149.223 80.546 150.566Z" fill="url(#paint10_linear)"/>
<path d="M95.3897 150.679C95.3881 150.8 95.4097 150.92 95.4535 151.033C95.539 151.174 95.6615 151.29 95.8077 151.366C97.2241 152.219 98.754 152.868 100.352 153.293C101.005 153.493 101.688 153.578 102.371 153.545C102.71 153.523 103.041 153.434 103.345 153.283C103.65 153.131 103.92 152.92 104.142 152.663C104.691 151.954 104.694 150.948 104.379 150.116C104.013 149.302 103.511 148.555 102.895 147.909L101.623 146.422C101.422 146.15 101.169 145.92 100.88 145.745C99.8702 145.232 97.1819 145.207 96.2362 145.975C95.0568 146.964 95.333 149.337 95.3897 150.679Z" fill="url(#paint11_linear)"/>
<path d="M100.427 141.467L100.561 145.164C99.7389 145.169 98.9221 145.298 98.1385 145.547C97.4053 145.704 96.6413 145.629 95.9531 145.331L95.7371 141.608L94.3203 124.848L101.075 125.51L100.427 141.467Z" fill="#F5C7C8"/>
<path d="M86.3905 57.9347L86.1143 63.7611C86.4198 64.2055 86.8379 64.5607 87.3258 64.7904C87.8137 65.02 88.354 65.1158 88.8911 65.0681C91.7034 64.7528 91.5794 63.9205 91.5794 63.9205C91.5794 63.9205 91.5794 59.7127 91.6927 58.7706" fill="#F5C7C8"/>
<path d="M87.0603 59.8332L86.4121 58.6573L91.6931 59.2594C91.6506 59.6136 91.6258 60.4566 91.6081 61.3527C90.7855 61.5931 89.9091 61.5764 89.0963 61.3048C88.2835 61.0333 87.5731 60.5198 87.0603 59.8332Z" fill="#DBB4AF"/>
<path d="M82.2248 100.104C82.2248 100.104 81.3783 116.139 80.252 129.12C80.252 129.12 95.7548 131.351 102.088 128.868C102.088 128.868 100.728 103.012 100.441 99.3005L82.2248 100.104Z" fill="#606161"/>
<path d="M102.088 128.865C98.5742 130.246 92.2271 130.172 87.2791 129.828C83.3228 129.559 80.252 129.12 80.252 129.12C81.3783 116.146 82.2248 100.105 82.2248 100.105L84.5447 100.005L100.444 99.297C100.731 103.012 102.088 128.865 102.088 128.865Z" fill="url(#paint12_linear)"/>
<path d="M88.2177 129.81C87.9095 129.81 87.5908 129.81 87.2791 129.828C83.3228 129.559 80.252 129.12 80.252 129.12C81.3783 116.146 82.2248 100.104 82.2248 100.104L84.5447 100.005C84.5832 100.014 84.6201 100.028 84.6545 100.048C88.7206 101.918 88.2602 107.015 88.3204 110.822C88.4196 117.159 87.2543 123.538 88.2177 129.81Z" fill="url(#paint13_linear)"/>
<path d="M82.4266 64.8768C82.4266 64.8768 83.1881 64.9122 86.2235 64.3562C89.057 63.8355 90.1196 64.0941 92.1845 64.4872C95.9354 65.1956 96.3604 65.4329 96.9235 65.904C98.2801 67.0763 100.582 98.5425 100.582 98.5425C100.582 98.5425 102.885 102.322 90.9625 103.54C86.5493 103.99 82.292 100.933 82.292 100.933L82.4266 64.8768Z" fill="#0072A3"/>
<path d="M98.1457 94.9617C96.8848 95.8011 95.2697 95.8472 93.7608 95.8259C90.9804 95.7657 88.1505 95.5355 85.5153 94.6252C85.5401 95.0927 85.5649 95.5744 85.6003 96.042C85.6412 97.3852 85.8337 98.7195 86.1741 100.019C86.5598 101.188 87.0617 102.316 87.6723 103.384C86.1294 102.976 84.6254 102.434 83.1776 101.762C82.8739 101.657 82.6103 101.46 82.4232 101.199C82.2907 100.927 82.2332 100.625 82.2567 100.324C82.1717 92.9782 82.0915 85.6418 82.0159 78.3148C81.9947 76.5438 82.0159 74.61 83.0466 73.1507C83.2144 72.8683 83.4441 72.6275 83.7183 72.4466C83.9925 72.2656 84.3041 72.1491 84.6298 72.1059C86.5566 71.9996 85.5295 74.911 85.4799 75.9417C85.3595 78.1802 85.2886 80.4116 85.2638 82.6501C85.2284 85.3584 85.2567 88.0668 85.3488 90.7752C86.9808 91.3346 88.7051 91.5751 90.4279 91.4835C93.3996 91.3065 96.311 90.2262 99.2826 90.5024C99.3522 90.4947 99.4226 90.5021 99.489 90.5242C99.5554 90.5462 99.6163 90.5824 99.6675 90.6301C99.7186 90.6779 99.7588 90.7362 99.7853 90.8009C99.8118 90.8657 99.824 90.9355 99.821 91.0054C99.9428 91.7557 99.8502 92.5251 99.5538 93.2251C99.2574 93.9251 98.7693 94.527 98.1457 94.9617Z" fill="url(#paint14_linear)"/>
<path d="M76.7178 84.9842C76.7178 86.8791 77.7449 88.6677 79.144 89.9428C80.543 91.2179 82.2892 92.0679 84.0389 92.7763C87.9562 94.3985 92.3552 95.578 96.4001 94.3029C96.9916 94.1152 97.6751 93.7114 97.6149 93.0951C96.0657 92.8509 94.5033 92.6983 92.9361 92.6382C92.9749 92.4049 92.9445 92.1653 92.8487 91.949C92.7529 91.7328 92.5958 91.5493 92.397 91.4212C92.1981 91.2932 91.9661 91.2261 91.7296 91.2284C91.493 91.2307 91.2624 91.3021 91.066 91.4339C90.8665 91.6147 90.6466 91.7717 90.4107 91.9015C90.2251 91.944 90.0329 91.9486 89.8454 91.9152C89.658 91.8817 89.4792 91.8108 89.3198 91.7067C87.6448 90.8991 86.0229 89.9858 84.4639 88.9723C83.2455 88.1789 81.9385 87.0916 81.9633 85.6394C81.9633 84.9877 82.236 84.251 81.8287 83.748C81.6836 83.5876 81.5062 83.4596 81.3081 83.3726C80.4474 82.9299 78.8287 82.2498 77.837 82.5686C76.9374 82.8661 76.7213 84.1589 76.7178 84.9842Z" fill="#F5C7C8"/>
<path d="M84.1943 48.4991C84.1943 48.4991 84.4246 55.9619 86.5957 58.5156C88.8873 61.2109 90.1908 61.5403 92.9711 60.4388C95.3336 59.5002 95.6169 53.0327 95.6948 51.1732C95.8967 46.3385 88.4871 42.1768 84.1943 48.4991Z" fill="#F5C7C8"/>
<path d="M84.7718 63.0598L84.7222 64.427C84.7176 64.5356 84.7446 64.6433 84.7999 64.7369C84.8552 64.8306 84.9365 64.9062 85.0339 64.9547C85.0339 64.9547 87.159 65.6631 90.8815 65.8756L93.6017 65.192C93.6975 65.1496 93.7796 65.0815 93.839 64.9952C93.8984 64.9089 93.9327 64.8078 93.9382 64.7032L93.9771 64.0267C93.9845 63.8809 93.9363 63.7377 93.8423 63.626C93.7484 63.5143 93.6155 63.4423 93.4706 63.4246L85.4093 62.5143C85.331 62.505 85.2516 62.512 85.1762 62.5348C85.1007 62.5577 85.0308 62.596 84.9709 62.6473C84.911 62.6985 84.8624 62.7616 84.8281 62.8326C84.7938 62.9037 84.7746 62.981 84.7718 63.0598Z" fill="#0072A3"/>
<path d="M85.0546 53.2382C85.0546 53.2382 84.9342 52.1154 83.8291 52.6006C82.724 53.0859 83.7618 55.0445 84.1833 55.5758C84.6048 56.1071 85.4407 55.9477 85.4407 55.9477" fill="#F5C7C8"/>
<path d="M95.5528 46.1544C95.9468 46.5857 96.2476 47.0935 96.4365 47.6463C96.6254 48.199 96.6984 48.7847 96.6508 49.3669C96.5056 50.8084 95.4891 51.8887 93.9767 51.6975C93.9767 51.6975 94.7311 50.1851 93.7642 49.4484C93.7642 49.4484 93.4985 51.2193 91.6922 51.3752L90.534 51.2937C90.534 51.2937 90.9377 49.6786 90.534 49.2358C90.1302 48.7931 89.5635 51.4956 88.5151 51.7152C88.0775 51.8216 87.63 51.8822 87.1798 51.8958C86.9389 51.9383 86.1172 50.4791 86.1172 50.4436C86.1846 50.7112 86.2203 50.9859 86.2235 51.2618C86.3024 51.7303 86.3485 52.2037 86.3616 52.6786C86.3935 53.8261 86.397 54.9773 86.3616 56.1284C86.3945 56.9802 86.2322 57.8283 85.887 58.6077C85.4903 59.3586 84.6473 59.9394 83.8185 59.7694C84.5269 59.355 84.8138 58.4802 84.8811 57.6656C84.9578 56.6109 84.8838 55.5506 84.6615 54.5168C84.5127 53.688 84.6155 52.5263 84.1869 51.7683C82.8764 49.4625 84.1656 46.5971 86.4006 45.4991C88.8268 44.302 92.3332 43.8203 94.6992 45.4212C95.0144 45.6275 95.3013 45.874 95.5528 46.1544Z" fill="#606161"/>
<path d="M95.5528 46.1544C95.9468 46.5857 96.2476 47.0935 96.4365 47.6463C96.6254 48.199 96.6984 48.7847 96.6508 49.3669C96.5056 50.8084 95.4891 51.8887 93.9767 51.6975C93.9767 51.6975 94.7311 50.1851 93.7642 49.4484C93.7642 49.4484 93.4985 51.2193 91.6922 51.3752L90.534 51.2937C90.534 51.2937 90.9377 49.6786 90.534 49.2358C90.1302 48.7931 89.5635 51.4956 88.5151 51.7152C88.0775 51.8216 87.63 51.8822 87.1798 51.8958C86.9389 51.9383 86.1172 50.4791 86.1172 50.4436C86.1846 50.7112 86.2203 50.9859 86.2235 51.2618C86.3024 51.7303 86.3485 52.2037 86.3616 52.6786C86.3935 53.8261 86.397 54.9773 86.3616 56.1284C86.3945 56.9802 86.2322 57.8283 85.887 58.6077C85.4903 59.3586 84.6473 59.9394 83.8185 59.7694C84.5269 59.355 84.8138 58.4802 84.8811 57.6656C84.9578 56.6109 84.8838 55.5506 84.6615 54.5168C84.5127 53.688 84.6155 52.5263 84.1869 51.7683C82.8764 49.4625 84.1656 46.5971 86.4006 45.4991C88.8268 44.302 92.3332 43.8203 94.6992 45.4212C95.0144 45.6275 95.3013 45.874 95.5528 46.1544Z" fill="url(#paint15_linear)"/>
<path d="M82.4271 64.8768C82.4271 64.8768 81.1024 66.9665 78.7364 74.4081C77.858 77.1707 76.1934 83.3513 76.1934 83.3513C76.1934 83.3513 79.6892 84.5485 82.1579 84.5485C83.263 78.1377 85.9158 75.6583 86.4082 72.7009C86.9005 69.7434 83.9111 64.3066 82.4271 64.8768Z" fill="#0072A3"/>
<path d="M103.027 73.9228C103.146 74.0974 103.232 74.2917 103.282 74.4966C103.305 74.6881 103.295 74.882 103.254 75.0704C102.831 77.5949 102.185 80.0769 101.323 82.4871C100.052 81.0704 98.2774 80.0928 97.3778 78.421C97.0248 77.6949 96.7642 76.9275 96.6021 76.1365C96.1308 74.439 95.8143 72.7023 95.6564 70.9476C95.6033 70.0515 95.4687 66.4919 96.6517 66.1555C97.7143 65.8544 99.6056 68.7517 100.133 69.46C101.192 70.8768 102.11 72.3998 103.027 73.9228Z" fill="#0072A3"/>
<path d="M97.6152 73.7599C98.1926 75.3219 98.3484 77.0078 98.4511 78.6725C98.4102 79.0526 98.4664 79.4369 98.6145 79.7893C98.7625 80.1418 98.9976 80.4509 99.2976 80.6878L101.228 82.4871C101.402 82.4304 101.487 82.2356 101.547 82.0656C101.866 81.1695 102.174 80.2699 102.464 79.3667C102.85 78.166 102.542 78.1695 101.568 77.4824C100.083 76.4328 98.752 75.1797 97.6152 73.7599Z" fill="url(#paint16_linear)"/>
<path d="M150.867 66.2369H116.33C115.613 66.236 114.926 65.9505 114.419 65.4431C113.913 64.9357 113.628 64.248 113.628 63.5309V28.8699C113.628 28.1529 113.913 27.4651 114.419 26.9578C114.926 26.4504 115.613 26.1649 116.33 26.1639H130.767C131.485 26.1639 132.173 26.449 132.681 26.9565C133.188 27.464 133.473 28.1523 133.473 28.8699C133.473 29.5876 133.188 30.2759 132.681 30.7834C132.173 31.2909 131.485 31.576 130.767 31.576H121.742C121.025 31.576 120.336 31.861 119.829 32.3685C119.321 32.876 119.036 33.5643 119.036 34.282V58.1189C119.036 58.8366 119.321 59.5248 119.829 60.0323C120.336 60.5398 121.025 60.8249 121.742 60.8249H145.455C146.173 60.8249 146.861 60.5398 147.369 60.0323C147.876 59.5248 148.161 58.8366 148.161 58.1189V49.9725C148.161 49.2549 148.446 48.5666 148.954 48.0591C149.461 47.5516 150.15 47.2665 150.867 47.2665C151.585 47.2665 152.273 47.5516 152.781 48.0591C153.288 48.5666 153.573 49.2549 153.573 49.9725V63.5167C153.575 63.8733 153.507 64.2267 153.371 64.5566C153.236 64.8866 153.037 65.1866 152.786 65.4393C152.534 65.6921 152.235 65.8927 151.906 66.0296C151.577 66.1665 151.224 66.2369 150.867 66.2369Z" fill="#0072A3"/>
<path d="M151.077 66.2369H115.983C115.664 66.2369 115.348 66.1741 115.054 66.0519C114.759 65.9298 114.491 65.7509 114.265 65.5252C114.04 65.2996 113.861 65.0318 113.739 64.737C113.617 64.4422 113.554 64.1262 113.554 63.8072V28.5937C113.554 27.9493 113.81 27.3313 114.265 26.8756C114.721 26.4199 115.339 26.1639 115.983 26.1639H130.969C131.614 26.1639 132.232 26.4199 132.687 26.8756C133.143 27.3313 133.399 27.9493 133.399 28.5937V29.1533C133.399 29.7977 133.143 30.4157 132.687 30.8714C132.232 31.327 131.614 31.583 130.969 31.583H121.406C120.762 31.583 120.144 31.839 119.688 32.2947C119.232 32.7504 118.976 33.3684 118.976 34.0128V58.4022C118.976 58.7213 119.039 59.0373 119.161 59.3321C119.283 59.6269 119.462 59.8947 119.688 60.1203C119.914 60.3459 120.181 60.5249 120.476 60.647C120.771 60.7691 121.087 60.832 121.406 60.832H145.657C145.977 60.832 146.292 60.7691 146.587 60.647C146.882 60.5249 147.15 60.3459 147.376 60.1203C147.601 59.8947 147.78 59.6269 147.902 59.3321C148.024 59.0373 148.087 58.7213 148.087 58.4022V49.6963C148.087 49.0519 148.343 48.4338 148.799 47.9782C149.254 47.5225 149.872 47.2665 150.517 47.2665H151.077C151.721 47.2665 152.339 47.5225 152.795 47.9782C153.25 48.4338 153.506 49.0519 153.506 49.6963V63.793C153.508 64.1133 153.447 64.4307 153.325 64.7272C153.204 65.0236 153.025 65.2931 152.8 65.5202C152.574 65.7474 152.305 65.9276 152.01 66.0506C151.714 66.1736 151.397 66.2369 151.077 66.2369Z" fill="url(#paint17_linear)"/>
<path d="M129.984 54.3255L126.796 53.7128C126.796 53.7128 136.359 33.694 155.237 36.6161L155.131 38.2666C155.131 38.2666 138.47 37.1226 129.984 54.3255Z" fill="#0072A3"/>
<path d="M129.984 54.3255L126.796 53.7128C126.796 53.7128 136.359 33.694 155.237 36.6161L155.131 38.2666C155.131 38.2666 138.47 37.1226 129.984 54.3255Z" fill="url(#paint18_linear)"/>
<path d="M149.602 66.2369H115.065C114.348 66.2369 113.659 65.9518 113.152 65.4443C112.644 64.9369 112.359 64.2486 112.359 63.5309V28.8699C112.359 28.1523 112.644 27.464 113.152 26.9565C113.659 26.449 114.348 26.1639 115.065 26.1639H129.502C130.219 26.1649 130.907 26.4504 131.413 26.9578C131.92 27.4651 132.205 28.1529 132.205 28.8699C132.205 29.587 131.92 30.2748 131.413 30.7821C130.907 31.2895 130.219 31.575 129.502 31.576H120.477C119.76 31.576 119.071 31.861 118.564 32.3685C118.056 32.876 117.771 33.5643 117.771 34.282V58.1189C117.771 58.8366 118.056 59.5248 118.564 60.0323C119.071 60.5398 119.76 60.8249 120.477 60.8249H144.19C144.908 60.8249 145.596 60.5398 146.104 60.0323C146.611 59.5248 146.896 58.8366 146.896 58.1189V49.9725C146.896 49.2549 147.181 48.5666 147.689 48.0591C148.196 47.5516 148.885 47.2665 149.602 47.2665C150.319 47.2675 151.007 47.553 151.514 48.0604C152.02 48.5677 152.305 49.2555 152.305 49.9725V63.5167C152.307 63.873 152.238 64.2261 152.103 64.5558C151.968 64.8855 151.77 65.1853 151.519 65.4381C151.267 65.6908 150.969 65.8915 150.64 66.0286C150.311 66.1656 149.959 66.2364 149.602 66.2369Z" fill="#0072A3"/>
<path d="M125.772 52.1048C125.772 52.1048 130.26 28.406 154.214 25.6114L154.72 20.8724L166.306 31.6326L155.135 42.7188L155.22 36.6267C155.22 36.6267 139.561 32.3942 126.778 53.7234L125.772 52.1048Z" fill="#0072A3"/>
<path d="M155.146 42.7081L158.935 44.0434L168.583 33.6303L166.32 31.622L155.146 42.7081Z" fill="#0072A3"/>
<path d="M155.146 42.7081L158.935 44.0434L168.583 33.6303L166.32 31.622L155.146 42.7081Z" fill="url(#paint19_linear)"/>
<path d="M109.682 72.12H89.5711C88.0864 72.12 86.8828 73.3236 86.8828 74.8083V90.1624C86.8828 91.6471 88.0864 92.8507 89.5711 92.8507H109.682C111.167 92.8507 112.37 91.6471 112.37 90.1624V74.8083C112.37 73.3236 111.167 72.12 109.682 72.12Z" fill="#0072A3"/>
<path d="M109.674 72.0102H89.5633C88.0786 72.0102 86.875 73.2138 86.875 74.6985V90.0526C86.875 91.5373 88.0786 92.7409 89.5633 92.7409H109.674C111.159 92.7409 112.362 91.5373 112.362 90.0526V74.6985C112.362 73.2138 111.159 72.0102 109.674 72.0102Z" fill="url(#paint20_linear)"/>
<path d="M86.6316 143.875C86.4201 143.741 86.1735 143.673 85.9232 143.68C85.0838 143.641 84.2196 143.815 83.412 143.578C83.0578 143.478 82.732 143.301 82.3743 143.223C82.1967 143.177 82.0096 143.181 81.8343 143.236C81.659 143.29 81.5025 143.393 81.3825 143.532C81.2569 143.767 81.2039 144.035 81.2302 144.3V145.232C81.2221 145.345 81.2377 145.458 81.2763 145.565C81.3554 145.709 81.4798 145.824 81.6305 145.89C82.3568 146.273 83.165 146.473 83.9858 146.475C84.7509 146.514 86.3731 146.571 86.8548 145.795C87.1098 145.377 87.0425 144.18 86.6316 143.875Z" fill="#0072A3"/>
<path d="M99.2692 144.435C98.1429 144.456 97.0201 144.456 95.8938 144.435C95.7821 144.425 95.6697 144.444 95.5679 144.491C95.4904 144.54 95.4288 144.61 95.3908 144.693C95.1252 145.2 95.2385 145.816 95.3696 146.372C95.3803 146.463 95.4172 146.55 95.4758 146.62C95.5751 146.702 95.7015 146.744 95.83 146.737C97.4805 146.907 99.2338 147.056 100.718 146.319C100.877 146.259 101.009 146.143 101.09 145.993C101.13 145.871 101.139 145.741 101.115 145.614C100.909 143.797 100.782 144.41 99.2692 144.435Z" fill="#0072A3"/>
<path d="M86.4785 64.4057C86.5387 64.5048 86.5683 64.6194 86.5635 64.7351C86.5246 64.9406 86.2695 65.0043 86.0606 65.0291C85.6214 65.0787 85.0972 65.0964 84.8209 64.7493C84.7255 64.6119 84.6592 64.4564 84.6261 64.2924C84.5276 63.9778 84.4951 63.6462 84.5305 63.3184C84.5495 63.1557 84.6082 63.0002 84.7015 62.8655C84.7947 62.7309 84.9197 62.6212 85.0653 62.5463C85.4655 62.3727 86.3085 62.5179 86.4254 62.9217C86.5423 63.3255 86.2377 63.8638 86.4785 64.4057Z" fill="url(#paint21_linear)"/>
<path d="M97.4023 77.5958L103.7 81.081L97.5157 85.356L97.4023 77.5958Z" fill="#0072A3"/>
</g>
</g>
<defs>
<linearGradient id="paint0_linear" x1="105.092" y1="187.093" x2="107.118" y2="22.4628" gradientUnits="userSpaceOnUse">
<stop offset="0.15" stop-color="#010101" stop-opacity="0"/>
<stop offset="0.95" stop-color="#010101"/>
</linearGradient>
<linearGradient id="paint1_linear" x1="14808.2" y1="6219.78" x2="13471.3" y2="16579.7" gradientUnits="userSpaceOnUse">
<stop offset="0.15" stop-color="#010101" stop-opacity="0"/>
<stop offset="0.95" stop-color="#010101"/>
</linearGradient>
<linearGradient id="paint2_linear" x1="34.8629" y1="80.8224" x2="151.922" y2="83.5213" gradientUnits="userSpaceOnUse">
<stop stop-color="white" stop-opacity="0"/>
<stop offset="0.12" stop-color="white" stop-opacity="0.22"/>
<stop offset="0.27" stop-color="white" stop-opacity="0.45"/>
<stop offset="0.41" stop-color="white" stop-opacity="0.65"/>
<stop offset="0.54" stop-color="white" stop-opacity="0.8"/>
<stop offset="0.66" stop-color="white" stop-opacity="0.91"/>
<stop offset="0.76" stop-color="white" stop-opacity="0.98"/>
<stop offset="0.84" stop-color="white"/>
</linearGradient>
<linearGradient id="paint3_linear" x1="4887.25" y1="363.537" x2="4887.63" y2="432.176" gradientUnits="userSpaceOnUse">
<stop stop-color="white" stop-opacity="0"/>
<stop offset="0.12" stop-color="white" stop-opacity="0.22"/>
<stop offset="0.27" stop-color="white" stop-opacity="0.45"/>
<stop offset="0.41" stop-color="white" stop-opacity="0.65"/>
<stop offset="0.54" stop-color="white" stop-opacity="0.8"/>
<stop offset="0.66" stop-color="white" stop-opacity="0.91"/>
<stop offset="0.76" stop-color="white" stop-opacity="0.98"/>
<stop offset="0.84" stop-color="white"/>
</linearGradient>
<linearGradient id="paint4_linear" x1="4887.25" y1="400.792" x2="4887.63" y2="469.431" gradientUnits="userSpaceOnUse">
<stop stop-color="white" stop-opacity="0"/>
<stop offset="0.12" stop-color="white" stop-opacity="0.22"/>
<stop offset="0.27" stop-color="white" stop-opacity="0.45"/>
<stop offset="0.41" stop-color="white" stop-opacity="0.65"/>
<stop offset="0.54" stop-color="white" stop-opacity="0.8"/>
<stop offset="0.66" stop-color="white" stop-opacity="0.91"/>
<stop offset="0.76" stop-color="white" stop-opacity="0.98"/>
<stop offset="0.84" stop-color="white"/>
</linearGradient>
<linearGradient id="paint5_linear" x1="4887.25" y1="438.045" x2="4887.63" y2="506.684" gradientUnits="userSpaceOnUse">
<stop stop-color="white" stop-opacity="0"/>
<stop offset="0.12" stop-color="white" stop-opacity="0.22"/>
<stop offset="0.27" stop-color="white" stop-opacity="0.45"/>
<stop offset="0.41" stop-color="white" stop-opacity="0.65"/>
<stop offset="0.54" stop-color="white" stop-opacity="0.8"/>
<stop offset="0.66" stop-color="white" stop-opacity="0.91"/>
<stop offset="0.76" stop-color="white" stop-opacity="0.98"/>
<stop offset="0.84" stop-color="white"/>
</linearGradient>
<linearGradient id="paint6_linear" x1="4887.25" y1="475.318" x2="4887.63" y2="543.957" gradientUnits="userSpaceOnUse">
<stop stop-color="white" stop-opacity="0"/>
<stop offset="0.12" stop-color="white" stop-opacity="0.22"/>
<stop offset="0.27" stop-color="white" stop-opacity="0.45"/>
<stop offset="0.41" stop-color="white" stop-opacity="0.65"/>
<stop offset="0.54" stop-color="white" stop-opacity="0.8"/>
<stop offset="0.66" stop-color="white" stop-opacity="0.91"/>
<stop offset="0.76" stop-color="white" stop-opacity="0.98"/>
<stop offset="0.84" stop-color="white"/>
</linearGradient>
<linearGradient id="paint7_linear" x1="4887.25" y1="512.577" x2="4887.63" y2="581.216" gradientUnits="userSpaceOnUse">
<stop stop-color="white" stop-opacity="0"/>
<stop offset="0.12" stop-color="white" stop-opacity="0.22"/>
<stop offset="0.27" stop-color="white" stop-opacity="0.45"/>
<stop offset="0.41" stop-color="white" stop-opacity="0.65"/>
<stop offset="0.54" stop-color="white" stop-opacity="0.8"/>
<stop offset="0.66" stop-color="white" stop-opacity="0.91"/>
<stop offset="0.76" stop-color="white" stop-opacity="0.98"/>
<stop offset="0.84" stop-color="white"/>
</linearGradient>
<linearGradient id="paint8_linear" x1="79.703" y1="52.5546" x2="85.9226" y2="51.453" gradientUnits="userSpaceOnUse">
<stop stop-color="#010101" stop-opacity="0"/>
<stop offset="0.95" stop-color="#010101"/>
</linearGradient>
<linearGradient id="paint9_linear" x1="3302.63" y1="2457.63" x2="3169.08" y2="2748.6" gradientUnits="userSpaceOnUse">
<stop stop-color="#010101" stop-opacity="0"/>
<stop offset="0.95" stop-color="#010101"/>
</linearGradient>
<linearGradient id="paint10_linear" x1="2406.96" y1="2848.08" x2="2260.16" y2="4429.87" gradientUnits="userSpaceOnUse">
<stop stop-color="#010101" stop-opacity="0"/>
<stop offset="0.95" stop-color="#010101"/>
</linearGradient>
<linearGradient id="paint11_linear" x1="2805.74" y1="2884.11" x2="2658.88" y2="4466" gradientUnits="userSpaceOnUse">
<stop stop-color="#010101" stop-opacity="0"/>
<stop offset="0.95" stop-color="#010101"/>
</linearGradient>
<linearGradient id="paint12_linear" x1="5651" y1="11034.9" x2="6319.73" y2="8560.12" gradientUnits="userSpaceOnUse">
<stop stop-color="#010101" stop-opacity="0"/>
<stop offset="0.95" stop-color="#010101"/>
</linearGradient>
<linearGradient id="paint13_linear" x1="1913.48" y1="9886.04" x2="2097.5" y2="9886.04" gradientUnits="userSpaceOnUse">
<stop stop-color="#010101" stop-opacity="0"/>
<stop offset="0.95" stop-color="#010101"/>
</linearGradient>
<linearGradient id="paint14_linear" x1="5692.47" y1="7320.91" x2="2483.08" y2="7831.46" gradientUnits="userSpaceOnUse">
<stop stop-color="#010101" stop-opacity="0"/>
<stop offset="0.95" stop-color="#010101"/>
</linearGradient>
<linearGradient id="paint15_linear" x1="3209.9" y1="2170.64" x2="3551.4" y2="2499.8" gradientUnits="userSpaceOnUse">
<stop stop-color="#010101" stop-opacity="0"/>
<stop offset="0.95" stop-color="#010101"/>
</linearGradient>
<linearGradient id="paint16_linear" x1="1546.95" y1="1987.2" x2="1222.72" y2="2102.66" gradientUnits="userSpaceOnUse">
<stop stop-color="#010101" stop-opacity="0"/>
<stop offset="0.95" stop-color="#010101"/>
</linearGradient>
<linearGradient id="paint17_linear" x1="17950.4" y1="2385.26" x2="4654.78" y2="16842.6" gradientUnits="userSpaceOnUse">
<stop stop-color="#010101" stop-opacity="0"/>
<stop offset="0.95" stop-color="#010101"/>
</linearGradient>
<linearGradient id="paint18_linear" x1="11090.7" y1="2772.45" x2="12738" y2="-1070.76" gradientUnits="userSpaceOnUse">
<stop stop-color="#010101" stop-opacity="0"/>
<stop offset="0.95" stop-color="#010101"/>
</linearGradient>
<linearGradient id="paint19_linear" x1="5893.68" y1="1384.56" x2="7360.17" y2="1280.4" gradientUnits="userSpaceOnUse">
<stop stop-color="#010101" stop-opacity="0"/>
<stop offset="0.95" stop-color="#010101"/>
</linearGradient>
<linearGradient id="paint20_linear" x1="7144.34" y1="3398.46" x2="7289.03" y2="6344.18" gradientUnits="userSpaceOnUse">
<stop stop-color="white" stop-opacity="0"/>
<stop offset="0.12" stop-color="white" stop-opacity="0.22"/>
<stop offset="0.27" stop-color="white" stop-opacity="0.45"/>
<stop offset="0.41" stop-color="white" stop-opacity="0.65"/>
<stop offset="0.54" stop-color="white" stop-opacity="0.8"/>
<stop offset="0.66" stop-color="white" stop-opacity="0.91"/>
<stop offset="0.76" stop-color="white" stop-opacity="0.98"/>
<stop offset="0.84" stop-color="white"/>
</linearGradient>
<linearGradient id="paint21_linear" x1="599.708" y1="515.799" x2="525.788" y2="567.494" gradientUnits="userSpaceOnUse">
<stop stop-color="#010101" stop-opacity="0"/>
<stop offset="0.95" stop-color="#010101"/>
</linearGradient>
<clipPath id="clip0">
<rect width="1440" height="2933" fill="white" transform="translate(-896 -1324)"/>
</clipPath>
<clipPath id="clip1">
<rect width="200" height="166.816" fill="white"/>
</clipPath>
</defs>
</svg>
