<svg width="30" height="30" viewBox="0 0 30 30" fill="none" xmlns="http://www.w3.org/2000/svg">
<rect width="30" height="30" fill="#E5E5E5"/>
<g clip-path="url(#clip0)">
<rect width="1440" height="4373" transform="translate(-1107 -823)" fill="white"/>
<g filter="url(#filter0_dd)">
<rect x="-997" y="-430" width="1220" height="495" fill="white"/>
</g>
<g clip-path="url(#clip1)">
<path d="M25.9582 0H4.04354C1.81094 0 0.000976562 1.80989 0.000976562 4.04256V25.9573C0.000976562 28.19 1.81087 29.9999 4.04354 29.9999H14.8517L14.8701 19.2795H12.085C11.7231 19.2795 11.4293 18.9869 11.4279 18.6249L11.4145 15.1693C11.4131 14.8054 11.7078 14.5096 12.0717 14.5096H14.8518V11.1706C14.8518 7.29576 17.2183 5.18587 20.675 5.18587H23.5114C23.8743 5.18587 24.1686 5.48008 24.1686 5.84305V8.75684C24.1686 9.11967 23.8745 9.4138 23.5118 9.41402L21.7711 9.41483C19.8913 9.41483 19.5273 10.3081 19.5273 11.619V14.5097H23.6579C24.0515 14.5097 24.3568 14.8534 24.3104 15.2442L23.9009 18.6998C23.8617 19.0305 23.5813 19.2797 23.2483 19.2797H19.5457L19.5273 30H25.9583C28.1909 30 30.0008 28.1901 30.0008 25.9575V4.04256C30.0007 1.80989 28.1908 0 25.9582 0Z" fill="#475993"/>
</g>
</g>
<defs>
<filter id="filter0_dd" x="-1017" y="-449" width="1260" height="535" filterUnits="userSpaceOnUse" color-interpolation-filters="sRGB">
<feFlood flood-opacity="0" result="BackgroundImageFix"/>
<feColorMatrix in="SourceAlpha" type="matrix" values="0 0 0 0 0 0 0 0 0 0 0 0 0 0 0 0 0 0 127 0"/>
<feOffset dy="2"/>
<feGaussianBlur stdDeviation="4"/>
<feColorMatrix type="matrix" values="0 0 0 0 0 0 0 0 0 0 0 0 0 0 0 0 0 0 0.1 0"/>
<feBlend mode="normal" in2="BackgroundImageFix" result="effect1_dropShadow"/>
<feColorMatrix in="SourceAlpha" type="matrix" values="0 0 0 0 0 0 0 0 0 0 0 0 0 0 0 0 0 0 127 0"/>
<feOffset dy="1"/>
<feGaussianBlur stdDeviation="10"/>
<feColorMatrix type="matrix" values="0 0 0 0 0 0 0 0 0 0 0 0 0 0 0 0 0 0 0.05 0"/>
<feBlend mode="normal" in2="effect1_dropShadow" result="effect2_dropShadow"/>
<feBlend mode="normal" in="SourceGraphic" in2="effect2_dropShadow" result="shape"/>
</filter>
<clipPath id="clip0">
<rect width="1440" height="4373" fill="white" transform="translate(-1107 -823)"/>
</clipPath>
<clipPath id="clip1">
<rect width="30" height="30" fill="white"/>
</clipPath>
</defs>
</svg>
