<svg width="28" height="20" viewBox="0 0 28 20" fill="none" xmlns="http://www.w3.org/2000/svg">
<rect width="28" height="20" fill="#E5E5E5"/>
<g clip-path="url(#clip0)">
<rect width="1440" height="4373" transform="translate(-136 -830)" fill="white"/>
<g filter="url(#filter0_dd)">
<rect x="-26" y="-437" width="1220" height="495" fill="white"/>
</g>
<path d="M27.4166 0.19577L25.5015 19.4268H2.499L0.956055 0.567958L14.0003 7.87121L27.4166 0.19577Z" fill="#F2F2F2"/>
<path d="M26.7669 -3.42679L14.0002 8.56595L1.2334 -3.42679H14.0002H26.7669Z" fill="#F2F2F2"/>
<path d="M2.49875 2.1109V19.4268H0.414394C-0.366484 19.4268 -1 18.7933 -1 18.0124V-0.439453L1.28516 -0.377168L2.49875 2.1109Z" fill="#F14336"/>
<path d="M28.9997 -0.43942V18.0124C28.9997 18.7933 28.3662 19.4268 27.5846 19.4268H25.501V2.11093L26.6548 -0.615143L28.9997 -0.43942Z" fill="#D32E2A"/>
<path d="M29 -2.01239V-0.439445L25.5012 2.11091L14 10.4938L2.49875 2.11091L-1 -0.439445V-2.01239C-1 -2.79327 -0.366484 -3.42679 0.414394 -3.42679H1.23324L14 5.87843L26.7668 -3.42679H27.5848C28.3665 -3.42679 29 -2.79333 29 -2.01239Z" fill="#F14336"/>
<path d="M2.49875 2.11089L-1 1.56843V-0.439453L2.49875 2.11089Z" fill="#D32E2A"/>
</g>
<defs>
<filter id="filter0_dd" x="-46" y="-456" width="1260" height="535" filterUnits="userSpaceOnUse" color-interpolation-filters="sRGB">
<feFlood flood-opacity="0" result="BackgroundImageFix"/>
<feColorMatrix in="SourceAlpha" type="matrix" values="0 0 0 0 0 0 0 0 0 0 0 0 0 0 0 0 0 0 127 0"/>
<feOffset dy="2"/>
<feGaussianBlur stdDeviation="4"/>
<feColorMatrix type="matrix" values="0 0 0 0 0 0 0 0 0 0 0 0 0 0 0 0 0 0 0.1 0"/>
<feBlend mode="normal" in2="BackgroundImageFix" result="effect1_dropShadow"/>
<feColorMatrix in="SourceAlpha" type="matrix" values="0 0 0 0 0 0 0 0 0 0 0 0 0 0 0 0 0 0 127 0"/>
<feOffset dy="1"/>
<feGaussianBlur stdDeviation="10"/>
<feColorMatrix type="matrix" values="0 0 0 0 0 0 0 0 0 0 0 0 0 0 0 0 0 0 0.05 0"/>
<feBlend mode="normal" in2="effect1_dropShadow" result="effect2_dropShadow"/>
<feBlend mode="normal" in="SourceGraphic" in2="effect2_dropShadow" result="shape"/>
</filter>
<clipPath id="clip0">
<rect width="1440" height="4373" fill="white" transform="translate(-136 -830)"/>
</clipPath>
</defs>
</svg>
