<svg width="30" height="28" viewBox="0 0 30 28" fill="none" xmlns="http://www.w3.org/2000/svg">
<rect width="30" height="28" fill="#E5E5E5"/>
<g clip-path="url(#clip0)">
<rect width="1440" height="2725" transform="translate(-1086 -648)" fill="white"/>
<g clip-path="url(#clip1)">
<path d="M29.6403 23.3977L17.4563 1.76876C16.4174 -0.120205 13.5839 -0.120205 12.5449 1.76876L0.360915 23.3977C-0.678002 25.2867 0.644286 27.648 2.81662 27.648H27.0902C29.3569 27.5535 30.6792 25.2867 29.6403 23.3977Z" fill="#E24C4B"/>
<path d="M15.0004 3.18549L27.1844 24.8145H2.81641L15.0004 3.18549Z" fill="white"/>
<path d="M13.0169 13.1027L13.7725 18.1086C13.867 18.6753 14.3392 19.1475 15.0004 19.1475C15.5671 19.1475 16.1338 18.6753 16.2283 18.1086L16.9839 13.1027C17.1727 11.8749 16.2283 10.836 15.0004 10.836C13.7725 10.8359 12.9224 11.8749 13.0169 13.1027Z" fill="#3F4448"/>
<path d="M15.0006 22.4532C15.6266 22.4532 16.134 21.9458 16.134 21.3198C16.134 20.6939 15.6266 20.1864 15.0006 20.1864C14.3746 20.1864 13.8672 20.6939 13.8672 21.3198C13.8672 21.9458 14.3746 22.4532 15.0006 22.4532Z" fill="#3F4448"/>
</g>
</g>
<defs>
<clipPath id="clip0">
<rect width="1440" height="2725" fill="white" transform="translate(-1086 -648)"/>
</clipPath>
<clipPath id="clip1">
<rect width="30" height="30" fill="white" transform="translate(0 -1)"/>
</clipPath>
</defs>
</svg>
