<svg width="230" height="230" viewBox="0 0 230 230" fill="none" xmlns="http://www.w3.org/2000/svg">
<rect x="0.5" y="0.5" width="229" height="229" rx="4.5" fill="#FCFCFC" stroke="#B9B9B9" stroke-dasharray="5 5"/>
<path d="M136.342 93.2168V102.505C136.342 103.737 135.852 104.918 134.981 105.789C134.11 106.66 132.929 107.149 131.697 107.149H99.1877C97.956 107.149 96.7747 106.66 95.9037 105.789C95.0328 104.918 94.5435 103.737 94.5435 102.505V93.2168" stroke="black" stroke-width="2" stroke-linecap="round" stroke-linejoin="round"/>
<path d="M127.053 76.9621L115.443 65.3516L103.832 76.9621" stroke="black" stroke-width="2" stroke-linecap="round" stroke-linejoin="round"/>
<path d="M115.442 65.3516V93.2169" stroke="black" stroke-width="2" stroke-linecap="round" stroke-linejoin="round"/>
<path d="M35.0563 165.5V154.108H38.8803C40.0963 154.108 41.131 154.332 41.9843 154.78C42.8377 155.217 43.4883 155.863 43.9363 156.716C44.3843 157.559 44.6083 158.583 44.6083 159.788C44.6083 161.004 44.379 162.039 43.9203 162.892C43.4723 163.735 42.8217 164.38 41.9683 164.828C41.115 165.276 40.0857 165.5 38.8803 165.5H35.0563ZM36.3683 164.38H38.8003C40.2723 164.38 41.3763 163.996 42.1123 163.228C42.859 162.46 43.2323 161.313 43.2323 159.788C43.2323 156.748 41.755 155.228 38.8003 155.228H36.3683V164.38ZM46.8338 165.5V159.708C46.8338 159.335 46.8232 158.961 46.8018 158.588C46.7912 158.204 46.7592 157.825 46.7058 157.452H47.9378L48.1138 159.436L47.9378 159.388C48.0872 158.684 48.4072 158.156 48.8978 157.804C49.3992 157.441 49.9592 157.26 50.5778 157.26C50.7165 157.26 50.8445 157.271 50.9618 157.292C51.0898 157.303 51.2072 157.324 51.3138 157.356L51.2818 158.54C51.0365 158.455 50.7538 158.412 50.4338 158.412C49.8792 158.412 49.4312 158.535 49.0898 158.78C48.7592 159.025 48.5138 159.34 48.3538 159.724C48.2045 160.097 48.1298 160.492 48.1298 160.908V165.5H46.8338ZM55.5624 165.612C54.8478 165.612 54.2184 165.447 53.6744 165.116C53.1411 164.775 52.7251 164.295 52.4264 163.676C52.1384 163.047 51.9944 162.311 51.9944 161.468C51.9944 160.625 52.1438 159.889 52.4424 159.26C52.7411 158.631 53.1571 158.14 53.6904 157.788C54.2344 157.436 54.8584 157.26 55.5624 157.26C56.2984 157.26 56.9224 157.441 57.4344 157.804C57.9464 158.167 58.2931 158.684 58.4744 159.356L58.2824 159.484V157.452H59.5624V165.5H58.2824V163.42L58.4744 163.516C58.2931 164.188 57.9464 164.705 57.4344 165.068C56.9224 165.431 56.2984 165.612 55.5624 165.612ZM55.8184 164.54C56.6078 164.54 57.2158 164.273 57.6424 163.74C58.0691 163.196 58.2824 162.428 58.2824 161.436C58.2824 160.444 58.0638 159.681 57.6264 159.148C57.1998 158.615 56.5971 158.348 55.8184 158.348C55.0291 158.348 54.4104 158.625 53.9624 159.18C53.5251 159.724 53.3064 160.487 53.3064 161.468C53.3064 162.449 53.5251 163.207 53.9624 163.74C54.4104 164.273 55.0291 164.54 55.8184 164.54ZM65.6042 169.068C64.3882 169.068 63.3322 168.791 62.4362 168.236L62.6602 167.18C63.1615 167.468 63.6362 167.676 64.0842 167.804C64.5322 167.932 65.0389 167.996 65.6042 167.996C66.3722 167.996 66.9535 167.788 67.3482 167.372C67.7535 166.967 67.9562 166.359 67.9562 165.548V163.372L68.1322 163.164C68.0042 163.591 67.8015 163.964 67.5242 164.284C67.2575 164.593 66.9269 164.833 66.5322 165.004C66.1375 165.175 65.6895 165.26 65.1882 165.26C64.4735 165.26 63.8442 165.095 63.3002 164.764C62.7669 164.423 62.3455 163.953 62.0362 163.356C61.7375 162.759 61.5882 162.06 61.5882 161.26C61.5882 160.46 61.7375 159.761 62.0362 159.164C62.3455 158.567 62.7669 158.103 63.3002 157.772C63.8442 157.431 64.4735 157.26 65.1882 157.26C65.9349 157.26 66.5642 157.447 67.0762 157.82C67.5989 158.183 67.9509 158.695 68.1322 159.356L67.9402 159.18V157.452H69.2362V165.436C69.2362 166.641 68.9269 167.548 68.3082 168.156C67.7002 168.764 66.7989 169.068 65.6042 169.068ZM65.4442 164.172C66.2229 164.172 66.8309 163.916 67.2682 163.404C67.7162 162.881 67.9402 162.167 67.9402 161.26C67.9402 160.353 67.7162 159.644 67.2682 159.132C66.8309 158.609 66.2229 158.348 65.4442 158.348C64.6549 158.348 64.0309 158.609 63.5722 159.132C63.1242 159.644 62.9002 160.353 62.9002 161.26C62.9002 162.177 63.1242 162.892 63.5722 163.404C64.0309 163.916 64.6549 164.172 65.4442 164.172ZM78.9843 165.612C78.2697 165.612 77.6403 165.447 77.0963 165.116C76.563 164.775 76.147 164.295 75.8483 163.676C75.5603 163.047 75.4163 162.311 75.4163 161.468C75.4163 160.625 75.5657 159.889 75.8643 159.26C76.163 158.631 76.579 158.14 77.1123 157.788C77.6563 157.436 78.2803 157.26 78.9843 157.26C79.7203 157.26 80.3443 157.441 80.8563 157.804C81.3683 158.167 81.715 158.684 81.8963 159.356L81.7043 159.484V157.452H82.9843V165.5H81.7043V163.42L81.8963 163.516C81.715 164.188 81.3683 164.705 80.8563 165.068C80.3443 165.431 79.7203 165.612 78.9843 165.612ZM79.2403 164.54C80.0297 164.54 80.6377 164.273 81.0643 163.74C81.491 163.196 81.7043 162.428 81.7043 161.436C81.7043 160.444 81.4857 159.681 81.0483 159.148C80.6217 158.615 80.019 158.348 79.2403 158.348C78.451 158.348 77.8323 158.625 77.3843 159.18C76.947 159.724 76.7283 160.487 76.7283 161.468C76.7283 162.449 76.947 163.207 77.3843 163.74C77.8323 164.273 78.451 164.54 79.2403 164.54ZM85.4901 165.5V159.708C85.4901 159.335 85.4794 158.961 85.4581 158.588C85.4474 158.204 85.4154 157.825 85.3621 157.452H86.5941L86.7381 159.116L86.5781 159.244C86.8021 158.593 87.1754 158.103 87.6981 157.772C88.2207 157.431 88.8234 157.26 89.5061 157.26C91.4367 157.26 92.4021 158.321 92.4021 160.444V165.5H91.1061V160.508C91.1061 159.761 90.9567 159.217 90.6581 158.876C90.3594 158.524 89.8901 158.348 89.2501 158.348C88.5034 158.348 87.9061 158.577 87.4581 159.036C87.0101 159.495 86.7861 160.113 86.7861 160.892V165.5H85.4901ZM101.937 165.5H100.657V163.34L100.849 163.516C100.668 164.188 100.321 164.705 99.8094 165.068C99.2974 165.431 98.6734 165.612 97.9374 165.612C97.2334 165.612 96.6094 165.441 96.0654 165.1C95.5321 164.748 95.1161 164.257 94.8174 163.628C94.5188 162.988 94.3694 162.247 94.3694 161.404C94.3694 160.561 94.5134 159.831 94.8014 159.212C95.1001 158.593 95.5161 158.113 96.0494 157.772C96.5934 157.431 97.2228 157.26 97.9374 157.26C98.6734 157.26 99.2974 157.447 99.8094 157.82C100.321 158.183 100.668 158.695 100.849 159.356L100.641 159.516V153.724H101.937V165.5ZM98.1934 164.54C98.9721 164.54 99.5748 164.273 100.001 163.74C100.439 163.196 100.657 162.428 100.657 161.436C100.657 160.455 100.444 159.697 100.017 159.164C99.5908 158.62 98.9828 158.348 98.1934 158.348C97.4041 158.348 96.7854 158.615 96.3374 159.148C95.9001 159.681 95.6814 160.433 95.6814 161.404C95.6814 162.396 95.9001 163.169 96.3374 163.724C96.7854 164.268 97.4041 164.54 98.1934 164.54ZM115.703 165.5H114.423V163.34L114.615 163.516C114.434 164.188 114.087 164.705 113.575 165.068C113.063 165.431 112.439 165.612 111.703 165.612C110.999 165.612 110.375 165.441 109.831 165.1C109.298 164.748 108.882 164.257 108.583 163.628C108.284 162.988 108.135 162.247 108.135 161.404C108.135 160.561 108.279 159.831 108.567 159.212C108.866 158.593 109.282 158.113 109.815 157.772C110.359 157.431 110.988 157.26 111.703 157.26C112.439 157.26 113.063 157.447 113.575 157.82C114.087 158.183 114.434 158.695 114.615 159.356L114.407 159.516V153.724H115.703V165.5ZM111.959 164.54C112.738 164.54 113.34 164.273 113.767 163.74C114.204 163.196 114.423 162.428 114.423 161.436C114.423 160.455 114.21 159.697 113.783 159.164C113.356 158.62 112.748 158.348 111.959 158.348C111.17 158.348 110.551 158.615 110.103 159.148C109.666 159.681 109.447 160.433 109.447 161.404C109.447 162.396 109.666 163.169 110.103 163.724C110.551 164.268 111.17 164.54 111.959 164.54ZM118.209 165.5V159.708C118.209 159.335 118.198 158.961 118.177 158.588C118.166 158.204 118.134 157.825 118.081 157.452H119.313L119.489 159.436L119.313 159.388C119.462 158.684 119.782 158.156 120.273 157.804C120.774 157.441 121.334 157.26 121.953 157.26C122.091 157.26 122.219 157.271 122.337 157.292C122.465 157.303 122.582 157.324 122.689 157.356L122.657 158.54C122.411 158.455 122.129 158.412 121.809 158.412C121.254 158.412 120.806 158.535 120.465 158.78C120.134 159.025 119.889 159.34 119.729 159.724C119.579 160.097 119.505 160.492 119.505 160.908V165.5H118.209ZM127.177 165.612C126.409 165.612 125.737 165.441 125.161 165.1C124.596 164.759 124.153 164.279 123.833 163.66C123.524 163.031 123.369 162.289 123.369 161.436C123.369 160.593 123.524 159.857 123.833 159.228C124.153 158.599 124.596 158.113 125.161 157.772C125.737 157.431 126.409 157.26 127.177 157.26C127.945 157.26 128.612 157.431 129.177 157.772C129.753 158.113 130.196 158.599 130.505 159.228C130.825 159.857 130.985 160.593 130.985 161.436C130.985 162.289 130.825 163.031 130.505 163.66C130.196 164.279 129.753 164.759 129.177 165.1C128.612 165.441 127.945 165.612 127.177 165.612ZM127.177 164.54C127.967 164.54 128.575 164.279 129.001 163.756C129.439 163.223 129.657 162.449 129.657 161.436C129.657 160.444 129.439 159.681 129.001 159.148C128.564 158.615 127.956 158.348 127.177 158.348C126.399 158.348 125.785 158.615 125.337 159.148C124.9 159.681 124.681 160.444 124.681 161.436C124.681 162.449 124.895 163.223 125.321 163.756C125.759 164.279 126.377 164.54 127.177 164.54ZM133.006 168.956V159.708C133.006 159.335 132.995 158.961 132.974 158.588C132.963 158.204 132.931 157.825 132.878 157.452H134.11L134.254 159.116L134.126 159.356C134.307 158.684 134.654 158.167 135.166 157.804C135.678 157.441 136.296 157.26 137.022 157.26C137.726 157.26 138.344 157.436 138.878 157.788C139.422 158.14 139.843 158.631 140.142 159.26C140.451 159.889 140.606 160.625 140.606 161.468C140.606 162.311 140.451 163.047 140.142 163.676C139.843 164.295 139.427 164.775 138.894 165.116C138.36 165.447 137.736 165.612 137.022 165.612C136.296 165.612 135.678 165.431 135.166 165.068C134.654 164.705 134.307 164.188 134.126 163.516L134.302 163.356V168.956H133.006ZM136.782 164.54C137.56 164.54 138.168 164.273 138.606 163.74C139.043 163.207 139.262 162.449 139.262 161.468C139.262 160.487 139.043 159.724 138.606 159.18C138.168 158.625 137.56 158.348 136.782 158.348C135.982 158.348 135.368 158.615 134.942 159.148C134.515 159.681 134.302 160.444 134.302 161.436C134.302 162.428 134.515 163.196 134.942 163.74C135.368 164.273 135.982 164.54 136.782 164.54ZM150.099 165.612C149.331 165.612 148.659 165.441 148.083 165.1C147.518 164.759 147.075 164.279 146.755 163.66C146.446 163.031 146.291 162.289 146.291 161.436C146.291 160.593 146.446 159.857 146.755 159.228C147.075 158.599 147.518 158.113 148.083 157.772C148.659 157.431 149.331 157.26 150.099 157.26C150.867 157.26 151.534 157.431 152.099 157.772C152.675 158.113 153.118 158.599 153.427 159.228C153.747 159.857 153.907 160.593 153.907 161.436C153.907 162.289 153.747 163.031 153.427 163.66C153.118 164.279 152.675 164.759 152.099 165.1C151.534 165.441 150.867 165.612 150.099 165.612ZM150.099 164.54C150.889 164.54 151.497 164.279 151.923 163.756C152.361 163.223 152.579 162.449 152.579 161.436C152.579 160.444 152.361 159.681 151.923 159.148C151.486 158.615 150.878 158.348 150.099 158.348C149.321 158.348 148.707 158.615 148.259 159.148C147.822 159.681 147.603 160.444 147.603 161.436C147.603 162.449 147.817 163.223 148.243 163.756C148.681 164.279 149.299 164.54 150.099 164.54ZM155.928 165.5V159.708C155.928 159.335 155.917 158.961 155.896 158.588C155.885 158.204 155.853 157.825 155.8 157.452H157.032L157.208 159.436L157.032 159.388C157.181 158.684 157.501 158.156 157.992 157.804C158.493 157.441 159.053 157.26 159.672 157.26C159.81 157.26 159.938 157.271 160.056 157.292C160.184 157.303 160.301 157.324 160.408 157.356L160.376 158.54C160.13 158.455 159.848 158.412 159.528 158.412C158.973 158.412 158.525 158.535 158.184 158.78C157.853 159.025 157.608 159.34 157.448 159.724C157.298 160.097 157.224 160.492 157.224 160.908V165.5H155.928ZM169.272 165.612C168.483 165.612 167.8 165.441 167.224 165.1C166.648 164.759 166.2 164.279 165.88 163.66C165.571 163.041 165.416 162.311 165.416 161.468C165.416 160.636 165.576 159.905 165.896 159.276C166.216 158.636 166.67 158.14 167.256 157.788C167.843 157.436 168.536 157.26 169.336 157.26C169.88 157.26 170.403 157.356 170.904 157.548C171.416 157.729 171.838 157.985 172.168 158.316L171.736 159.276C171.342 158.967 170.952 158.737 170.568 158.588C170.195 158.428 169.806 158.348 169.4 158.348C168.59 158.348 167.944 158.62 167.464 159.164C166.995 159.708 166.76 160.476 166.76 161.468C166.76 162.449 166.995 163.207 167.464 163.74C167.934 164.273 168.579 164.54 169.4 164.54C169.795 164.54 170.184 164.465 170.568 164.316C170.952 164.156 171.342 163.921 171.736 163.612L172.168 164.572C171.827 164.892 171.395 165.148 170.872 165.34C170.36 165.521 169.827 165.612 169.272 165.612ZM173.818 165.5V153.724H175.114V165.5H173.818ZM177.631 165.5V157.452H178.927V165.5H177.631ZM177.503 154.044H179.087V155.516H177.503V154.044ZM184.819 165.612C184.03 165.612 183.347 165.441 182.771 165.1C182.195 164.759 181.747 164.279 181.427 163.66C181.118 163.041 180.963 162.311 180.963 161.468C180.963 160.636 181.123 159.905 181.443 159.276C181.763 158.636 182.217 158.14 182.803 157.788C183.39 157.436 184.083 157.26 184.883 157.26C185.427 157.26 185.95 157.356 186.451 157.548C186.963 157.729 187.385 157.985 187.715 158.316L187.283 159.276C186.889 158.967 186.499 158.737 186.115 158.588C185.742 158.428 185.353 158.348 184.947 158.348C184.137 158.348 183.491 158.62 183.011 159.164C182.542 159.708 182.307 160.476 182.307 161.468C182.307 162.449 182.542 163.207 183.011 163.74C183.481 164.273 184.126 164.54 184.947 164.54C185.342 164.54 185.731 164.465 186.115 164.316C186.499 164.156 186.889 163.921 187.283 163.612L187.715 164.572C187.374 164.892 186.942 165.148 186.419 165.34C185.907 165.521 185.374 165.612 184.819 165.612ZM194.789 165.5L190.405 161.388L194.453 157.468H196.101L191.621 161.756L191.669 160.94L196.485 165.5H194.789ZM189.365 165.5V153.724H190.661V165.5H189.365ZM59.7369 178.476V177.452H64.9049V178.476H59.7369ZM64.8729 184.348V185.452C64.6916 185.505 64.5102 185.543 64.3289 185.564C64.1582 185.596 63.9662 185.612 63.7529 185.612C63.0062 185.612 62.4089 185.399 61.9609 184.972C61.5236 184.545 61.3049 183.905 61.3049 183.052V175.388L62.6009 174.924V182.876C62.6009 183.303 62.6596 183.633 62.7769 183.868C62.9049 184.103 63.0756 184.268 63.2889 184.364C63.5022 184.449 63.7422 184.492 64.0089 184.492C64.1689 184.492 64.3129 184.481 64.4409 184.46C64.5689 184.439 64.7129 184.401 64.8729 184.348ZM69.7946 185.612C69.0266 185.612 68.3546 185.441 67.7786 185.1C67.2133 184.759 66.7706 184.279 66.4506 183.66C66.1413 183.031 65.9866 182.289 65.9866 181.436C65.9866 180.593 66.1413 179.857 66.4506 179.228C66.7706 178.599 67.2133 178.113 67.7786 177.772C68.3546 177.431 69.0266 177.26 69.7946 177.26C70.5626 177.26 71.2293 177.431 71.7946 177.772C72.3706 178.113 72.8133 178.599 73.1226 179.228C73.4426 179.857 73.6026 180.593 73.6026 181.436C73.6026 182.289 73.4426 183.031 73.1226 183.66C72.8133 184.279 72.3706 184.759 71.7946 185.1C71.2293 185.441 70.5626 185.612 69.7946 185.612ZM69.7946 184.54C70.584 184.54 71.192 184.279 71.6186 183.756C72.056 183.223 72.2746 182.449 72.2746 181.436C72.2746 180.444 72.056 179.681 71.6186 179.148C71.1813 178.615 70.5733 178.348 69.7946 178.348C69.016 178.348 68.4026 178.615 67.9546 179.148C67.5173 179.681 67.2986 180.444 67.2986 181.436C67.2986 182.449 67.512 183.223 67.9386 183.756C68.376 184.279 68.9946 184.54 69.7946 184.54ZM82.6428 185.612C81.6828 185.612 80.9574 185.345 80.4668 184.812C79.9868 184.279 79.7468 183.489 79.7468 182.444V177.452H81.0428V182.412C81.0428 183.137 81.1921 183.671 81.4908 184.012C81.7894 184.353 82.2428 184.524 82.8508 184.524C83.5654 184.524 84.1414 184.295 84.5788 183.836C85.0161 183.377 85.2348 182.764 85.2348 181.996V177.452H86.5308V185.5H85.2668V183.756L85.4588 183.66C85.2454 184.3 84.8828 184.785 84.3708 185.116C83.8694 185.447 83.2934 185.612 82.6428 185.612ZM89.0291 188.956V179.708C89.0291 179.335 89.0185 178.961 88.9971 178.588C88.9865 178.204 88.9545 177.825 88.9011 177.452H90.1331L90.2771 179.116L90.1491 179.356C90.3305 178.684 90.6771 178.167 91.1891 177.804C91.7011 177.441 92.3198 177.26 93.0451 177.26C93.7491 177.26 94.3678 177.436 94.9011 177.788C95.4451 178.14 95.8665 178.631 96.1651 179.26C96.4745 179.889 96.6291 180.625 96.6291 181.468C96.6291 182.311 96.4745 183.047 96.1651 183.676C95.8665 184.295 95.4505 184.775 94.9171 185.116C94.3838 185.447 93.7598 185.612 93.0451 185.612C92.3198 185.612 91.7011 185.431 91.1891 185.068C90.6771 184.705 90.3305 184.188 90.1491 183.516L90.3251 183.356V188.956H89.0291ZM92.8051 184.54C93.5838 184.54 94.1918 184.273 94.6291 183.74C95.0665 183.207 95.2851 182.449 95.2851 181.468C95.2851 180.487 95.0665 179.724 94.6291 179.18C94.1918 178.625 93.5838 178.348 92.8051 178.348C92.0051 178.348 91.3918 178.615 90.9651 179.148C90.5385 179.681 90.3251 180.444 90.3251 181.436C90.3251 182.428 90.5385 183.196 90.9651 183.74C91.3918 184.273 92.0051 184.54 92.8051 184.54ZM98.6229 185.5V173.724H99.9189V185.5H98.6229ZM105.763 185.612C104.995 185.612 104.323 185.441 103.747 185.1C103.182 184.759 102.739 184.279 102.419 183.66C102.11 183.031 101.955 182.289 101.955 181.436C101.955 180.593 102.11 179.857 102.419 179.228C102.739 178.599 103.182 178.113 103.747 177.772C104.323 177.431 104.995 177.26 105.763 177.26C106.531 177.26 107.198 177.431 107.763 177.772C108.339 178.113 108.782 178.599 109.091 179.228C109.411 179.857 109.571 180.593 109.571 181.436C109.571 182.289 109.411 183.031 109.091 183.66C108.782 184.279 108.339 184.759 107.763 185.1C107.198 185.441 106.531 185.612 105.763 185.612ZM105.763 184.54C106.553 184.54 107.161 184.279 107.587 183.756C108.025 183.223 108.243 182.449 108.243 181.436C108.243 180.444 108.025 179.681 107.587 179.148C107.15 178.615 106.542 178.348 105.763 178.348C104.985 178.348 104.371 178.615 103.923 179.148C103.486 179.681 103.267 180.444 103.267 181.436C103.267 182.449 103.481 183.223 103.907 183.756C104.345 184.279 104.963 184.54 105.763 184.54ZM114.68 185.612C113.965 185.612 113.336 185.447 112.792 185.116C112.258 184.775 111.842 184.295 111.544 183.676C111.256 183.047 111.112 182.311 111.112 181.468C111.112 180.625 111.261 179.889 111.56 179.26C111.858 178.631 112.274 178.14 112.808 177.788C113.352 177.436 113.976 177.26 114.68 177.26C115.416 177.26 116.04 177.441 116.552 177.804C117.064 178.167 117.41 178.684 117.592 179.356L117.4 179.484V177.452H118.68V185.5H117.4V183.42L117.592 183.516C117.41 184.188 117.064 184.705 116.552 185.068C116.04 185.431 115.416 185.612 114.68 185.612ZM114.936 184.54C115.725 184.54 116.333 184.273 116.76 183.74C117.186 183.196 117.4 182.428 117.4 181.436C117.4 180.444 117.181 179.681 116.744 179.148C116.317 178.615 115.714 178.348 114.936 178.348C114.146 178.348 113.528 178.625 113.08 179.18C112.642 179.724 112.424 180.487 112.424 181.468C112.424 182.449 112.642 183.207 113.08 183.74C113.528 184.273 114.146 184.54 114.936 184.54ZM128.273 185.5H126.993V183.34L127.185 183.516C127.004 184.188 126.657 184.705 126.145 185.068C125.633 185.431 125.009 185.612 124.273 185.612C123.569 185.612 122.945 185.441 122.401 185.1C121.868 184.748 121.452 184.257 121.153 183.628C120.855 182.988 120.705 182.247 120.705 181.404C120.705 180.561 120.849 179.831 121.137 179.212C121.436 178.593 121.852 178.113 122.385 177.772C122.929 177.431 123.559 177.26 124.273 177.26C125.009 177.26 125.633 177.447 126.145 177.82C126.657 178.183 127.004 178.695 127.185 179.356L126.977 179.516V173.724H128.273V185.5ZM124.529 184.54C125.308 184.54 125.911 184.273 126.337 183.74C126.775 183.196 126.993 182.428 126.993 181.436C126.993 180.455 126.78 179.697 126.353 179.164C125.927 178.62 125.319 178.348 124.529 178.348C123.74 178.348 123.121 178.615 122.673 179.148C122.236 179.681 122.017 180.433 122.017 181.404C122.017 182.396 122.236 183.169 122.673 183.724C123.121 184.268 123.74 184.54 124.529 184.54ZM135.111 185.5V174.108H136.423V184.38H142.135V185.5H135.111ZM146.982 185.612C146.214 185.612 145.542 185.441 144.966 185.1C144.401 184.759 143.958 184.279 143.638 183.66C143.329 183.031 143.174 182.289 143.174 181.436C143.174 180.593 143.329 179.857 143.638 179.228C143.958 178.599 144.401 178.113 144.966 177.772C145.542 177.431 146.214 177.26 146.982 177.26C147.75 177.26 148.417 177.431 148.982 177.772C149.558 178.113 150.001 178.599 150.31 179.228C150.63 179.857 150.79 180.593 150.79 181.436C150.79 182.289 150.63 183.031 150.31 183.66C150.001 184.279 149.558 184.759 148.982 185.1C148.417 185.441 147.75 185.612 146.982 185.612ZM146.982 184.54C147.771 184.54 148.379 184.279 148.806 183.756C149.243 183.223 149.462 182.449 149.462 181.436C149.462 180.444 149.243 179.681 148.806 179.148C148.369 178.615 147.761 178.348 146.982 178.348C146.203 178.348 145.59 178.615 145.142 179.148C144.705 179.681 144.486 180.444 144.486 181.436C144.486 182.449 144.699 183.223 145.126 183.756C145.563 184.279 146.182 184.54 146.982 184.54ZM156.346 189.068C155.13 189.068 154.074 188.791 153.178 188.236L153.402 187.18C153.904 187.468 154.378 187.676 154.826 187.804C155.274 187.932 155.781 187.996 156.346 187.996C157.114 187.996 157.696 187.788 158.09 187.372C158.496 186.967 158.698 186.359 158.698 185.548V183.372L158.874 183.164C158.746 183.591 158.544 183.964 158.266 184.284C158 184.593 157.669 184.833 157.274 185.004C156.88 185.175 156.432 185.26 155.93 185.26C155.216 185.26 154.586 185.095 154.042 184.764C153.509 184.423 153.088 183.953 152.778 183.356C152.48 182.759 152.33 182.06 152.33 181.26C152.33 180.46 152.48 179.761 152.778 179.164C153.088 178.567 153.509 178.103 154.042 177.772C154.586 177.431 155.216 177.26 155.93 177.26C156.677 177.26 157.306 177.447 157.818 177.82C158.341 178.183 158.693 178.695 158.874 179.356L158.682 179.18V177.452H159.978V185.436C159.978 186.641 159.669 187.548 159.05 188.156C158.442 188.764 157.541 189.068 156.346 189.068ZM156.186 184.172C156.965 184.172 157.573 183.916 158.01 183.404C158.458 182.881 158.682 182.167 158.682 181.26C158.682 180.353 158.458 179.644 158.01 179.132C157.573 178.609 156.965 178.348 156.186 178.348C155.397 178.348 154.773 178.609 154.314 179.132C153.866 179.644 153.642 180.353 153.642 181.26C153.642 182.177 153.866 182.892 154.314 183.404C154.773 183.916 155.397 184.172 156.186 184.172ZM165.795 185.612C165.027 185.612 164.355 185.441 163.779 185.1C163.213 184.759 162.771 184.279 162.451 183.66C162.141 183.031 161.987 182.289 161.987 181.436C161.987 180.593 162.141 179.857 162.451 179.228C162.771 178.599 163.213 178.113 163.779 177.772C164.355 177.431 165.027 177.26 165.795 177.26C166.563 177.26 167.229 177.431 167.795 177.772C168.371 178.113 168.813 178.599 169.123 179.228C169.443 179.857 169.603 180.593 169.603 181.436C169.603 182.289 169.443 183.031 169.123 183.66C168.813 184.279 168.371 184.759 167.795 185.1C167.229 185.441 166.563 185.612 165.795 185.612ZM165.795 184.54C166.584 184.54 167.192 184.279 167.619 183.756C168.056 183.223 168.275 182.449 168.275 181.436C168.275 180.444 168.056 179.681 167.619 179.148C167.181 178.615 166.573 178.348 165.795 178.348C165.016 178.348 164.403 178.615 163.955 179.148C163.517 179.681 163.299 180.444 163.299 181.436C163.299 182.449 163.512 183.223 163.939 183.756C164.376 184.279 164.995 184.54 165.795 184.54Z" fill="#414141"/>
</svg>
