<svg width="127" height="127" viewBox="0 0 127 127" fill="none" xmlns="http://www.w3.org/2000/svg">
<rect width="127" height="127" fill="#E5E5E5"/>
<g id="MacBook Pro" clip-path="url(#clip0)">
<rect width="1440" height="914" transform="translate(-190 -362)" fill="#F9FAFC"/>
<g id="user_avatar" clip-path="url(#clip1)">
<path id="Vector" opacity="0.18" d="M126.2 63.0998C126.202 74.3589 123.191 85.4135 117.48 95.1164C111.768 104.819 103.565 112.817 93.7195 118.28C91.8412 119.331 89.9085 120.283 87.9295 121.13C75.4531 126.472 61.5869 127.649 48.3884 124.488C35.1898 121.326 23.362 113.994 14.6598 103.579C5.9577 93.1643 0.844846 80.2215 0.07986 66.6711C-0.685125 53.1208 2.93851 39.6848 10.4132 28.3566C17.8878 17.0284 28.8152 8.41164 41.5741 3.78469C54.3329 -0.84226 68.2435 -1.23286 81.2419 2.67086C94.2403 6.57457 105.634 14.5646 113.733 25.4555C121.831 36.3464 126.203 49.5579 126.2 63.1298V63.0998Z" fill="#0072A3"/>
<path id="Vector_2" d="M70.9896 82.05C76.3339 86.5894 82.0659 90.6516 88.1196 94.19C88.9339 94.7424 89.8586 95.1109 90.8296 95.27C91.6864 95.2903 92.5331 95.0813 93.2821 94.6646C94.031 94.248 94.6551 93.6387 95.0896 92.9C95.9333 91.4076 96.4991 89.7745 96.7596 88.08L99.3596 76.18C99.4251 75.3957 99.7819 74.6644 100.36 74.13C101.36 73.42 102.82 74.13 103.61 75.13C106.97 79.2 104.61 85.32 105.44 90.54C106.08 94.54 114.83 98.9 113.65 100.8C111.59 104.08 108.15 108.27 104.89 110.35C100.27 113.29 90.7396 116.53 85.3196 115.72C79.6696 114.87 75.2596 110.3 72.4696 105.32C69.2916 99.6311 67.6671 93.2058 67.7596 86.69" fill="url(#paint0_linear)"/>
<path id="Vector_3" d="M97.8101 60.5698H93.6201V78.5098H97.8101V60.5698Z" fill="#3E3E54"/>
<path id="Vector_4" d="M73.4796 80.51C71.9296 83.51 68.6096 85.23 65.3796 86.33C62.2996 87.33 58.9696 88.09 55.8196 87.33C54.2975 86.9221 52.886 86.1786 51.6886 85.1543C50.4912 84.1299 49.5383 82.8506 48.8996 81.41C48.1528 79.3927 47.7309 77.2696 47.6496 75.12C47.1796 69.67 46.8796 64.12 48.1996 58.8C49.5981 53.8164 51.948 49.1506 55.1196 45.06L55.5496 44.46C56.7996 44.04 56.7896 36.1 58.1696 35.88C59.7296 35.62 68.2296 38.01 64.1696 42.76C65.1696 45.24 64.5496 48.32 64.8696 50.95C65.2396 54.02 66.6096 56.86 67.9596 59.64L71.4196 66.75C72.5558 68.8819 73.4449 71.1365 74.0696 73.47C74.692 75.8144 74.4835 78.3019 73.4796 80.51Z" fill="#3E3E54"/>
<path id="Vector_5" d="M93.9898 117.11C93.938 117.509 93.8441 117.901 93.7098 118.28C91.8316 119.331 89.8988 120.283 87.9198 121.13C76.4126 126.049 63.7035 127.44 51.4046 125.126C39.1058 122.811 27.7716 116.896 18.8398 108.13C19.3298 105.5 19.3698 102.79 19.8398 100.13C21.5998 90.8398 29.3398 83.2498 38.4098 80.6298C43.8098 79.0798 49.5498 79.9198 55.1298 79.2998C57.9198 78.9898 60.7799 78.6898 63.4698 79.4598C66.4698 80.3098 68.8998 82.3898 71.0798 84.5698C73.9581 87.4694 76.5193 90.6675 78.7198 94.1098C80.5598 96.9698 82.1498 100.03 84.4098 102.58C86.2698 104.69 88.5499 106.41 90.4698 108.46L90.8798 108.91C92.9098 111.17 94.4598 114.13 93.9898 117.11Z" fill="#0072A3"/>
<path id="Vector_6" d="M64.3104 59.6202C64.2004 63.3902 62.5404 67.3502 59.2504 69.2002C56.3404 70.8402 52.2504 70.8702 50.4904 73.7002C49.4104 75.4102 49.5904 77.5802 49.6804 79.6002C49.9774 82.4132 49.5542 85.2557 48.4504 87.8602C47.2004 90.3802 44.5804 92.4002 41.7704 92.1802C40.6868 92.0298 39.6508 91.6382 38.7387 91.0342C37.8266 90.4302 37.0617 89.6292 36.5004 88.6902C35.39 86.8092 34.6183 84.7479 34.2204 82.6002C32.1199 73.6413 31.3117 64.4279 31.8204 55.2402C32.0004 52.0802 32.3604 48.8402 33.8204 46.0602C35.0838 43.9289 36.7277 42.0477 38.6704 40.5102C43.6704 36.2602 55.0804 30.2002 59.9604 38.1902C61.2904 40.3602 60.6904 43.3902 61.2104 45.8102C62.2504 50.4802 64.4504 54.7102 64.3104 59.6202Z" fill="#CDAB8D"/>
<path id="Vector_7" d="M58.8902 41.2402C56.1797 44.6672 52.3553 47.0376 48.0802 47.9402C47.3444 48.1013 46.6248 48.3289 45.9302 48.6202C40.6202 50.8602 37.3702 53.6802 36.9902 59.8102C36.7802 63.2202 37.5002 66.6102 38.0702 69.9802C38.7633 73.4084 38.9252 76.9228 38.5502 80.4002C38.1486 83.9076 36.4681 87.144 33.8302 89.4902C32.419 90.582 30.8333 91.4273 29.1402 91.9902C26.1089 93.1891 22.8221 93.5952 19.5902 93.1702C17.979 92.9498 16.4329 92.3902 15.0539 91.5283C13.6749 90.6664 12.4943 89.5219 11.5902 88.1702C11.1745 87.5805 10.8913 86.9079 10.7601 86.1984C10.6289 85.489 10.6528 84.7595 10.8302 84.0602C11.1495 83.2068 11.6591 82.4373 12.3202 81.8102C15.0202 78.8902 18.3202 76.1002 19.0302 72.1902C19.2863 69.9666 19.0367 67.7138 18.3002 65.6002C16.8702 60.7102 14.8602 55.8102 14.9902 50.7102C15.1502 43.8802 19.2502 37.5302 24.7702 33.4902C27.2302 31.7102 30.1302 30.2702 33.1502 30.4902C33.9142 30.6256 34.6961 30.6256 35.4602 30.4902C36.0026 30.2841 36.5038 29.9827 36.9402 29.6002C41.6795 26.0275 47.3426 23.8864 53.2602 23.4302C59.1502 22.9902 65.8002 24.7302 68.8002 29.8202C69.8665 31.633 70.3743 33.7201 70.2602 35.8202C70.2177 37.3262 69.7191 38.7838 68.8302 40.0002C67.6437 41.3701 66.0302 42.3001 64.2502 42.6402L64.6802 41.7002C64.6769 41.2054 64.5015 40.7271 64.1839 40.3475C63.8664 39.968 63.4267 39.7108 62.9402 39.6202C61.9525 39.4623 60.9411 39.6646 60.0902 40.1902C59.6192 40.4496 59.2098 40.8078 58.8902 41.2402Z" fill="#3E3E54"/>
<path id="Vector_8" d="M104.92 110.36C101.486 113.4 97.7305 116.056 93.7197 118.28C91.8414 119.332 89.9087 120.283 87.9297 121.13C88.0597 116.13 89.2697 110.71 90.2297 108.98L90.5097 108.45C93.3197 102.74 92.1097 94.0002 91.0197 88.0302C90.1497 83.3302 88.5697 78.6802 88.7497 73.9002C88.7167 72.6649 89.0659 71.4495 89.7497 70.4202C90.9997 68.7602 93.3497 68.5202 95.4297 68.4202C96.8308 68.2355 98.2558 68.4253 99.5597 68.9702C101.79 70.1502 102.36 73.0202 102.68 75.5302C102.96 77.7302 103.25 79.9302 103.53 82.1302C103.726 83.0319 103.685 83.9692 103.41 84.8502C103.13 85.5102 102.59 86.0302 102.3 86.6902C101.926 87.7809 101.891 88.9592 102.2 90.0702C103.046 95.0102 103.9 99.9568 104.76 104.91C105.176 106.698 105.231 108.551 104.92 110.36Z" fill="#CDAB8D"/>
<path id="Vector_9" d="M93.6201 82H97.8101V97.85C97.8101 98.1245 97.7561 98.3962 97.651 98.6498C97.546 98.9034 97.392 99.1338 97.198 99.3279C97.0039 99.5219 96.7735 99.6759 96.5199 99.7809C96.2663 99.8859 95.9946 99.94 95.7201 99.94C95.1658 99.94 94.6342 99.7198 94.2423 99.3279C93.8503 98.9359 93.6301 98.4043 93.6301 97.85V82H93.6201Z" fill="#3E3E54"/>
<path id="Vector_10" d="M109.91 47.0801H81.8496V66.5501H109.91V47.0801Z" fill="white"/>
<path id="1" d="M95.38 60.5098H94.3111V53.4236L92.1674 54.211V53.2455L95.2134 52.1018H95.38V60.5098Z" fill="#0072A3"/>
</g>
</g>
<defs>
<linearGradient id="paint0_linear" x1="83.0796" y1="57.42" x2="116.29" y2="222.06" gradientUnits="userSpaceOnUse">
<stop stop-opacity="0"/>
<stop offset="0.99"/>
</linearGradient>
<clipPath id="clip0">
<rect width="1440" height="914" fill="white" transform="translate(-190 -362)"/>
</clipPath>
<clipPath id="clip1">
<rect width="445.99" height="126.2" fill="white"/>
</clipPath>
</defs>
</svg>
