<svg width="128" height="127" viewBox="0 0 128 127" fill="none" xmlns="http://www.w3.org/2000/svg">
<rect width="128" height="127" fill="#E5E5E5"/>
<g id="MacBook Pro" clip-path="url(#clip0)">
<rect width="1440" height="914" transform="translate(-350 -362)" fill="#F9FAFC"/>
<g id="user_avatar" clip-path="url(#clip1)">
<path id="Vector" opacity="0.18" d="M64.0902 126.2C98.9394 126.2 127.19 97.9492 127.19 63.1C127.19 28.2508 98.9394 0 64.0902 0C29.2411 0 0.990234 28.2508 0.990234 63.1C0.990234 97.9492 29.2411 126.2 64.0902 126.2Z" fill="#0072A3"/>
<path id="Vector_2" d="M103.99 88.5899C103.99 86.5099 104.18 84.1299 102.68 82.6899C102.37 83.0799 103.19 83.5399 103.54 83.1799C103.678 82.9707 103.762 82.7307 103.785 82.4812C103.807 82.2317 103.768 81.9805 103.67 81.7499L102.4 76.5699C102.048 75.4527 101.915 74.2776 102.01 73.1099C102.064 72.5282 102.28 71.9734 102.634 71.5084C102.987 71.0434 103.464 70.6871 104.01 70.4799C104.56 70.3299 105.14 70.3899 105.7 70.2599C107.87 69.7599 108.43 66.5899 107.12 64.7799C105.81 62.9699 103.45 62.2899 101.24 61.9599C95.3378 61.0908 89.3099 61.8802 83.8302 64.2399C83.6702 66.3299 85.9702 68.0499 85.7402 70.1399C85.5602 71.8399 83.7402 72.9299 82.0202 73.0099C80.3208 72.9275 78.6397 72.6215 77.0202 72.0999C73.3846 71.3149 69.591 71.7654 66.2402 73.3799C66.5102 75.8999 68.3302 77.9699 70.2402 79.5899C72.1502 81.2099 74.3902 82.5899 75.8902 84.6499C79.1802 89.1199 78.8902 96.2399 83.6302 99.0599C86.6302 100.83 90.9802 100.26 93.2202 102.95C94.3302 104.27 94.6302 106.1 95.6502 107.49C96.5554 108.617 97.8685 109.341 99.3044 109.506C100.74 109.671 102.183 109.262 103.32 108.37C103.249 108.89 103.058 109.385 102.761 109.818C102.464 110.25 102.07 110.607 101.61 110.86L102.52 112.12C102.69 112.36 107.73 107.88 108.18 107.42C110.52 105.05 110.25 104.7 108.39 102.12C105.538 98.1845 103.998 93.4503 103.99 88.5899Z" fill="url(#paint0_linear)"/>
<path id="Vector_3" d="M23.4199 110.81C25.4199 101.28 25.5999 95.5398 27.5599 86.0098C27.7675 84.3168 28.3779 82.6983 29.3399 81.2898C30.6573 79.9109 32.3336 78.9273 34.1799 78.4498C52.7917 72.0362 72.9013 71.3637 91.8999 76.5198C93.1699 76.77 94.3584 77.3299 95.3599 78.1498C96.5699 79.3198 96.9299 81.1498 97.1999 82.7798C98.7407 92.3083 99.5697 101.938 99.6799 111.59C99.7516 112.4 99.6317 113.215 99.3299 113.97C98.9599 114.7 89.3299 126.23 60.0699 125.88C45.3299 125.7 26.5099 115.88 23.4199 110.81Z" fill="#0072A3"/>
<path id="Vector_4" d="M53.89 74.3998C53.5962 75.2025 53.467 76.0561 53.51 76.9098C53.6933 77.7931 54.0917 78.6175 54.67 79.3098L57.26 83.0398C57.8098 83.9617 58.5495 84.756 59.43 85.3698C60.2998 85.8484 61.29 86.0638 62.28 85.9898C63.6307 85.8839 64.9435 85.4922 66.1314 84.8405C67.3192 84.1888 68.355 83.2921 69.17 82.2098C70.7866 80.0268 71.8379 77.4777 72.23 74.7898C72.3588 74.2947 72.3588 73.7749 72.23 73.2798C72.0583 72.9238 71.847 72.5884 71.6 72.2798C69.89 69.7398 70.93 65.7198 68.53 63.8298C67.6972 63.2656 66.7462 62.8996 65.75 62.7598C63.693 62.2188 61.5537 62.0628 59.44 62.2998C57.44 62.6298 54.68 63.8998 54.38 66.1398C54.25 67.1398 54.71 68.4898 54.66 69.5698C54.5845 71.2035 54.3262 72.8236 53.89 74.3998Z" fill="#CDAB8D"/>
<path id="Vector_5" d="M55.2998 68.8098C55.2998 68.8098 55.9298 75.2798 60.1098 75.2798C64.2898 75.2798 70.3698 70.5398 70.5998 68.2798C70.8298 66.0198 55.2998 68.8098 55.2998 68.8098Z" fill="url(#paint1_linear)"/>
<path id="Vector_6" d="M49.8002 63.2098C50.1358 64.4114 50.6662 65.5499 51.3702 66.5798C53.0102 68.7498 55.8602 69.5798 58.5502 69.9998C61.1178 70.4895 63.7519 70.5199 66.3302 70.0898C68.9237 69.6416 71.2773 68.2966 72.9802 66.2898C74.0988 64.7208 74.916 62.9575 75.3902 61.0898C76.3796 57.8594 77.1118 54.5557 77.5802 51.2098C78.1167 48.4741 77.9967 45.6502 77.2302 42.9698C75.5102 38.0498 70.1402 35.1598 64.9502 34.7998C59.7602 34.4398 54.6602 36.1298 49.7502 37.8798C48.0002 38.5098 45.6302 39.3398 45.4102 41.4998C45.2302 43.3398 46.0202 45.8598 46.2602 47.7298C46.948 52.9902 48.1333 58.1734 49.8002 63.2098Z" fill="#CDAB8D"/>
<path id="Vector_7" d="M79.1496 51.5201C79.9653 50.4354 80.5166 49.1753 80.7596 47.8401C81.1805 46.0945 81.468 44.3193 81.6196 42.5301C81.8696 39.5301 81.3496 35.8601 78.6196 34.5901C78.2576 34.4554 77.9199 34.2629 77.6196 34.0201C77.3167 33.6724 77.1007 33.2576 76.9896 32.8101C75.9896 29.7401 72.9896 27.8101 70.2096 26.1501C68.6432 25.1534 66.965 24.3444 65.2096 23.7401C60.5196 22.3201 55.4996 23.7401 50.8096 25.1201C46.1196 26.5001 41.0396 27.8301 36.4096 26.2301C36.1143 26.9553 36.0318 27.7496 36.1717 28.52C36.3116 29.2904 36.6681 30.005 37.1996 30.5801C36.9543 30.6854 36.7337 30.8407 36.5518 31.0361C36.3699 31.2315 36.2307 31.4627 36.1432 31.7149C36.0557 31.9671 36.0217 32.2347 36.0435 32.5008C36.0653 32.7669 36.1422 33.0254 36.2696 33.2601C36.8366 34.1883 37.6643 34.9291 38.6496 35.3901C37.7296 35.3901 37.1296 36.5001 37.3096 37.3901C37.5762 38.2818 38.1321 39.0593 38.8896 39.6001C40.003 40.5718 41.2011 41.4419 42.4696 42.2001C41.6068 45.1131 41.7018 48.2261 42.7404 51.0811C43.7791 53.9361 45.7067 56.3824 48.2396 58.0601C48.7313 52.9788 48.4379 47.8521 47.3696 42.8601L52.1896 40.2801C51.9035 40.416 51.6495 40.6111 51.4444 40.8525C51.2393 41.0938 51.0877 41.3758 50.9996 41.6801C54.7096 41.1901 58.4296 40.6801 62.1696 40.5601C64.0296 40.4901 65.8996 40.5001 67.7596 40.5101C68.9814 40.4212 70.2066 40.6305 71.3296 41.1201C72.45 41.8279 73.3099 42.8808 73.7796 44.1201C74.8496 46.4901 74.7796 48.7101 75.2396 51.1201C75.6996 53.5001 77.6996 53.2201 79.1496 51.5201Z" fill="#3E3E54"/>
<path id="Vector_8" d="M44.7802 53.5002C44.5981 53.7547 44.4726 54.0452 44.4122 54.3522C44.3519 54.6593 44.358 54.9757 44.4302 55.2802C44.5784 55.886 44.8738 56.4459 45.2902 56.9102C46.1293 57.9005 47.2597 58.6005 48.5202 58.9102L47.2102 55.0902C47.0602 54.6302 46.8802 53.3502 46.5302 53.0402C46.1802 52.7302 45.1002 53.0902 44.7802 53.5002Z" fill="#CDAB8D"/>
<path id="Vector_9" d="M78.2203 52.0601C78.44 51.8922 78.7088 51.8013 78.9853 51.8013C79.2618 51.8013 79.5306 51.8922 79.7503 52.0601C79.8765 52.2453 79.9584 52.4571 79.9897 52.6791C80.0209 52.901 80.0006 53.1272 79.9303 53.3401C79.8555 53.8424 79.7072 54.3309 79.4903 54.7901C79.1652 55.3574 78.7574 55.873 78.2803 56.3201C77.7003 56.9563 77.0257 57.4993 76.2803 57.9301L77.2803 54.4401C77.5503 53.4401 77.3203 52.6001 78.2203 52.0601Z" fill="#CDAB8D"/>
<path id="Vector_10" d="M97.5699 60.5698H93.3799V78.5098H97.5699V60.5698Z" fill="#3E3E54"/>
<path id="Vector_11" d="M90.7799 88.0302C89.9099 83.3202 88.3299 78.6802 88.5099 73.9002C88.4769 72.6649 88.8262 71.4495 89.5099 70.4202C90.7599 68.7602 93.1199 68.5202 95.1899 68.4202C96.591 68.2355 98.016 68.4253 99.3199 68.9702C101.55 70.1402 102.12 73.0202 102.45 75.5202L103.3 82.1402C103.488 83.0398 103.443 83.9726 103.17 84.8502C102.9 85.5102 102.36 86.0402 102.06 86.6902C101.691 87.7818 101.656 88.9586 101.96 90.0702L104.52 104.91C105.019 106.853 105.04 108.888 104.58 110.84C103.69 113.56 101.11 115.29 98.6899 116.84C97.0122 118.095 95.0631 118.937 92.9999 119.3C85.6199 120.03 87.9999 112.56 89.9999 109.01C93.1499 103.28 91.8999 94.1902 90.7799 88.0302Z" fill="#CDAB8D"/>
<path id="Vector_12" d="M93.3799 82H97.5699V97.85C97.5699 98.4043 97.3497 98.9359 96.9577 99.3279C96.5658 99.7198 96.0342 99.94 95.4799 99.94C94.9256 99.94 94.394 99.7198 94.002 99.3279C93.6101 98.9359 93.3899 98.4043 93.3899 97.85V82H93.3799Z" fill="#3E3E54"/>
<path id="Vector_13" d="M109.66 47.0801H81.5996V66.5501H109.66V47.0801Z" fill="white"/>
<path id="2" d="M97.2885 60.5098H91.8057V59.7454L94.7023 56.527C95.1314 56.0405 95.4264 55.6458 95.5873 55.3431C95.7521 55.0366 95.8344 54.7205 95.8344 54.3949C95.8344 53.9581 95.7023 53.5999 95.4379 53.3202C95.1735 53.0405 94.821 52.9006 94.3804 52.9006C93.8517 52.9006 93.4398 53.052 93.1448 53.3547C92.8536 53.6535 92.708 54.0711 92.708 54.6075H91.6448C91.6448 53.8374 91.892 53.2148 92.3862 52.7397C92.8843 52.2646 93.549 52.0271 94.3804 52.0271C95.1582 52.0271 95.7731 52.2321 96.2252 52.642C96.6773 53.0482 96.9034 53.5903 96.9034 54.2684C96.9034 55.0922 96.3785 56.073 95.3287 57.2109L93.0873 59.642H97.2885V60.5098Z" fill="#0072A3"/>
</g>
</g>
<defs>
<linearGradient id="paint0_linear" x1="12195.2" y1="6096.34" x2="7743.64" y2="19376" gradientUnits="userSpaceOnUse">
<stop stop-opacity="0"/>
<stop offset="0.99"/>
</linearGradient>
<linearGradient id="paint1_linear" x1="3506.63" y1="1621.99" x2="3547.8" y2="1260.08" gradientUnits="userSpaceOnUse">
<stop stop-opacity="0"/>
<stop offset="0.99"/>
</linearGradient>
<clipPath id="clip0">
<rect width="1440" height="914" fill="white" transform="translate(-350 -362)"/>
</clipPath>
<clipPath id="clip1">
<rect width="445.99" height="126.2" fill="white" transform="translate(-160)"/>
</clipPath>
</defs>
</svg>
