<svg width="127" height="127" viewBox="0 0 127 127" fill="none" xmlns="http://www.w3.org/2000/svg">
<rect width="127" height="127" fill="#E5E5E5"/>
<g clip-path="url(#clip0)">
<rect width="1440" height="914" transform="translate(-509 -362)" fill="#F9FAFC"/>
<g clip-path="url(#clip1)">
<path opacity="0.18" d="M126.99 63.1C126.99 75.58 123.289 87.7797 116.356 98.1565C109.422 108.533 99.5674 116.621 88.0374 121.397C76.5074 126.173 63.8201 127.422 51.5799 124.988C39.3397 122.553 28.0963 116.543 19.2716 107.718C10.4469 98.8937 4.43724 87.6504 2.00251 75.4102C-0.432213 63.17 0.817384 50.4827 5.59327 38.9527C10.3692 27.4226 18.4568 17.5678 28.8336 10.6343C39.2103 3.70075 51.4101 0 63.8901 0C80.6236 0.00530129 96.6702 6.65501 108.503 18.4874C120.335 30.3198 126.985 46.3665 126.99 63.1Z" fill="#0072A3"/>
<path d="M104.88 100.25C104.14 102.55 101.32 103.36 98.8802 103.51C95.2545 103.737 91.6184 103.283 88.1602 102.17C87.7402 101.67 86.8802 102.8 86.7102 103.43C85.0015 109.887 83.8671 116.483 83.3202 123.14C67.8919 128.118 51.1422 126.99 36.5202 119.99C36.6402 115.557 36.9068 111.13 37.3202 106.71C37.4971 105.849 37.3549 104.953 36.9202 104.19C36.3802 103.5 35.0902 102.87 34.9202 103.72C33.577 104.553 32.1131 105.174 30.5802 105.56C29.8116 105.802 28.9986 105.869 28.2007 105.756C27.4028 105.644 26.6402 105.353 25.969 104.908C25.2978 104.462 24.7348 103.871 24.3215 103.179C23.9081 102.488 23.6548 101.712 23.5802 100.91C23.3353 99.3326 23.3353 97.7271 23.5802 96.1498C24.7802 86.1498 27.5802 76.3498 30.5002 66.6698C30.905 64.9698 31.5803 63.3458 32.5002 61.8598C34.8302 58.4698 39.1902 57.2398 43.2302 56.5398C55.4802 54.4298 67.2302 56.6598 79.6702 56.9998C83.5702 57.1098 88.0002 57.4998 90.3802 60.5998C90.9153 61.3454 91.3742 62.1427 91.7502 62.9798C92.9502 65.5098 94.1602 67.9798 95.3602 70.5298C98.3602 76.7598 101.36 83.0298 103.21 89.6798C103.925 92.2201 104.466 94.8061 104.83 97.4198C105.057 98.3478 105.074 99.3145 104.88 100.25Z" fill="#0072A3"/>
<path d="M88.6997 70.9102H35.1797V107.26H88.6997V70.9102Z" fill="white"/>
<path d="M37.0404 80.33C37.5412 80.344 38.016 80.5562 38.3604 80.92C38.5189 81.1517 38.611 81.4222 38.6269 81.7025C38.6427 81.9827 38.5817 82.2619 38.4504 82.51C38.1792 83.0046 37.8039 83.4345 37.3504 83.77C36.3143 84.6355 35.1878 85.3866 33.9904 86.01C34.9802 85.0547 36.1269 84.2767 37.3804 83.71C37.811 83.4807 38.2926 83.3638 38.7804 83.37C39.0255 83.3792 39.2617 83.4638 39.4568 83.6124C39.6519 83.761 39.7964 83.9662 39.8704 84.2C39.8855 84.4477 39.8468 84.6956 39.7571 84.9269C39.6673 85.1582 39.5286 85.3674 39.3504 85.54C37.9872 87.2034 36.2405 88.5109 34.2604 89.35C35.2741 88.575 36.4746 88.0817 37.7404 87.92C38.2695 87.8217 38.8162 87.8952 39.3004 88.13C39.5361 88.256 39.7179 88.4636 39.8118 88.7139C39.9056 88.9642 39.9052 89.2401 39.8104 89.49C39.6586 89.7286 39.4487 89.9247 39.2004 90.06C37.9443 90.8505 36.6382 91.5586 35.2904 92.18C36.3915 91.8495 37.5492 91.7507 38.6904 91.89C38.8656 91.8956 39.0356 91.9511 39.1804 92.05C39.2606 92.1303 39.3213 92.228 39.3577 92.3355C39.3941 92.443 39.4053 92.5575 39.3904 92.67C39.3204 93.67 38.2904 94.32 37.3904 94.77C36.528 95.2673 35.5555 95.5422 34.5604 95.57C34.0647 95.5689 33.5845 95.3974 33.2003 95.0842C32.8161 94.7711 32.5514 94.3353 32.4504 93.85C32.4749 93.5121 32.4342 93.1726 32.3304 92.85C32.2114 92.6727 32.0665 92.5142 31.9004 92.38C31.599 92.0336 31.4458 91.5826 31.4738 91.1243C31.5019 90.666 31.709 90.2371 32.0504 89.93C31.6962 89.8636 31.3718 89.6876 31.123 89.4268C30.8742 89.1661 30.7136 88.8338 30.6639 88.4768C30.6142 88.1199 30.6778 87.7563 30.8459 87.4375C31.0139 87.1187 31.2778 86.8607 31.6004 86.7C31.1403 85.714 30.9505 84.6235 31.0504 83.54C31.4304 81.55 35.2504 80.15 37.0404 80.33Z" fill="#CDAB8D"/>
<path d="M85.9902 80.22C85.4368 80.1678 84.8785 80.2118 84.3402 80.35C84.0713 80.4215 83.8249 80.5599 83.6238 80.7522C83.4227 80.9445 83.2736 81.1845 83.1902 81.45C82.9702 82.45 83.9301 83.22 84.7701 83.76L86.6902 84.98C85.9867 84.9914 85.2837 84.9378 84.5902 84.82C83.8902 84.82 83.0601 85.17 82.9801 85.87C82.9001 86.57 83.5501 87.04 84.1401 87.34C84.8279 87.683 85.5574 87.9351 86.3102 88.09C85.121 88.1476 83.9565 88.4506 82.8901 88.98C82.7291 89.0374 82.5941 89.151 82.5101 89.3C82.3701 89.64 82.7701 89.94 83.1101 90.08C83.9663 90.4292 84.8636 90.6678 85.7802 90.79C84.7399 90.9619 83.7558 91.3802 82.9102 92.01C82.9133 92.2017 82.9716 92.3885 83.0779 92.5481C83.1843 92.7077 83.3344 92.8333 83.5101 92.91C83.8635 93.0496 84.2402 93.1209 84.6202 93.12L87.6202 93.31C88.4179 93.4057 89.226 93.3651 90.0101 93.19C90.4015 93.0915 90.7613 92.8946 91.0553 92.6181C91.3493 92.3416 91.5678 91.9946 91.6902 91.61C91.8502 90.91 91.3702 90.03 90.6902 90.07C90.9225 89.9101 91.1165 89.7007 91.2582 89.4569C91.4 89.2131 91.486 88.941 91.5101 88.66C91.5239 88.3762 91.4533 88.0947 91.3074 87.8509C91.1615 87.6071 90.9467 87.412 90.6902 87.29C90.8255 87.279 90.9571 87.2405 91.077 87.177C91.197 87.1135 91.3028 87.0262 91.3879 86.9205C91.4731 86.8148 91.5358 86.6928 91.5723 86.5621C91.6088 86.4313 91.6182 86.2945 91.6001 86.16C91.5766 86.0253 91.5257 85.8968 91.4506 85.7826C91.3755 85.6684 91.2777 85.5707 91.1634 85.4957C91.0491 85.4208 90.9206 85.37 90.7859 85.3467C90.6511 85.3233 90.5131 85.3279 90.3802 85.36C91.0133 84.7004 91.371 83.8242 91.3802 82.91C91.4802 79.71 88.1402 80.29 85.9902 80.22Z" fill="#CDAB8D"/>
<path d="M53.6698 58.8999C54.3553 60.3957 55.3114 61.7518 56.4898 62.8999C57.6505 64.3751 59.2629 65.4289 61.0798 65.8999C62.8115 66.069 64.5456 65.6035 65.9598 64.59C67.171 63.8773 68.1984 62.891 68.9598 61.7099C69.3296 61.1204 69.5753 60.4616 69.6819 59.7738C69.7885 59.0861 69.7538 58.3838 69.5798 57.7099C68.9698 55.6399 67.4799 53.5999 67.2799 51.4599C67.0799 49.3199 67.6399 47.0499 65.7499 46.0099C64.7385 45.5184 63.6011 45.3474 62.4898 45.52C60.2398 45.78 56.5698 46.3299 56.6098 48.5999C56.7298 55.1599 53.5098 58.5199 53.6698 58.8999Z" fill="#CDAB8D"/>
<path d="M56.5195 52.0499C56.5195 52.0499 58.9995 58.9699 63.3795 58.2599C67.7595 57.5499 67.7595 53.8799 67.7595 53.8799L67.2895 49.8799L56.5195 52.0499Z" fill="url(#paint0_linear)"/>
<path d="M77.0804 40.56C76.8758 41.132 76.5603 41.6579 76.1518 42.1075C75.7434 42.5572 75.2501 42.9216 74.7004 43.18C74.4025 43.3216 74.0797 43.4032 73.7504 43.42C73.2575 45.3805 72.4102 47.2343 71.2504 48.89C69.5798 51.3198 67.098 53.0748 64.2504 53.84C62.8334 54.2076 61.3506 54.2427 59.9177 53.9426C58.4849 53.6425 57.1408 53.0153 55.9904 52.11C53.9904 50.42 52.8304 47.89 51.9904 45.38C51.9004 45.11 51.8204 44.83 51.7304 44.56C51.6048 44.6684 51.4585 44.7501 51.3004 44.8C50.8257 44.9598 50.3171 44.9903 49.8267 44.8883C49.3364 44.7864 48.882 44.5557 48.5104 44.22C48.2868 44.0007 48.0858 43.7595 47.9104 43.5C47.3279 42.7874 46.9387 41.9367 46.7804 41.03C46.7428 40.7395 46.7772 40.4442 46.8804 40.17C47.1089 39.8495 47.4347 39.6111 47.8094 39.4905C48.1841 39.3698 48.5877 39.3731 48.9604 39.5C49.4862 39.5973 49.9906 39.7869 50.4504 40.06C49.9387 38.0274 49.6503 35.9451 49.5904 33.85C49.5904 31.03 53.3404 27.69 55.5904 26.47C58.0716 25.3294 60.8438 24.9803 63.5304 25.47C65.0371 25.6135 66.4995 26.059 67.8304 26.78C69.6001 28.0118 71.0475 29.6512 72.0504 31.56C72.8743 32.7984 73.5237 34.1444 73.9804 35.56C74.1974 36.312 74.3217 37.0878 74.3504 37.87C74.7674 37.3756 75.3046 36.9968 75.9104 36.77C76.0898 36.6967 76.2909 36.6967 76.4704 36.77C76.614 36.8558 76.7261 36.9855 76.7904 37.14C77.3226 38.2005 77.4265 39.4251 77.0804 40.56Z" fill="#CDAB8D"/>
<path d="M48.5196 27.3401C48.7947 25.6808 49.6314 24.1664 50.8896 23.0502C51.7915 22.431 52.8137 22.0085 53.8896 21.8101C58.7739 20.6311 63.8402 20.407 68.8096 21.1501C70.4751 21.2556 72.0597 21.9056 73.3196 23.0001C74.9796 24.7501 74.3196 27.4901 74.5596 29.9001C75.2996 38.5801 73.6896 37.6601 73.4396 39.9001C72.5996 37.4801 71.9196 31.5301 69.6196 30.4201C68.349 29.9143 66.9859 29.6826 65.6196 29.7401C63.3896 29.6901 56.8896 29.3501 54.1096 32.1101C50.9396 35.2601 51.6196 41.6001 51.6296 42.1701C51.6296 43.3801 48.1896 35.8402 48.0296 34.3802C47.7817 32.0229 47.9475 29.6404 48.5196 27.3401Z" fill="#3E3E54"/>
<path d="M59.8517 85.8389H60.6506C61.1525 85.8313 61.5471 85.6991 61.8344 85.4424C62.1218 85.1857 62.2655 84.8389 62.2655 84.4022C62.2655 83.4213 61.777 82.9309 60.8 82.9309C60.3402 82.9309 59.9724 83.0631 59.6965 83.3275C59.4245 83.588 59.2885 83.9347 59.2885 84.3677H58.2253C58.2253 83.7049 58.4667 83.1551 58.9494 82.7183C59.436 82.2777 60.0529 82.0574 60.8 82.0574C61.5892 82.0574 62.208 82.2662 62.6563 82.6838C63.1046 83.1014 63.3287 83.6819 63.3287 84.4252C63.3287 84.7891 63.2099 85.1416 62.9724 85.4826C62.7387 85.8236 62.4187 86.0784 62.0126 86.247C62.4724 86.3926 62.8268 86.6339 63.0758 86.9711C63.3287 87.3083 63.4551 87.7201 63.4551 88.2067C63.4551 88.9577 63.2099 89.5535 62.7195 89.9941C62.2291 90.4347 61.5912 90.655 60.8057 90.655C60.0203 90.655 59.3804 90.4423 58.8862 90.0171C58.3958 89.5918 58.1506 89.0305 58.1506 88.3332H59.2195C59.2195 88.7738 59.3632 89.1263 59.6506 89.3906C59.9379 89.655 60.323 89.7872 60.8057 89.7872C61.3191 89.7872 61.7118 89.6531 61.9839 89.3849C62.2559 89.1167 62.3919 88.7316 62.3919 88.2297C62.3919 87.7431 62.2425 87.3696 61.9436 87.109C61.6448 86.8485 61.2138 86.7144 60.6506 86.7067H59.8517V85.8389Z" fill="#0072A3"/>
</g>
</g>
<defs>
<linearGradient id="paint0_linear" x1="4416.96" y1="1550.53" x2="4402.96" y2="1270.58" gradientUnits="userSpaceOnUse">
<stop stop-opacity="0"/>
<stop offset="0.99"/>
</linearGradient>
<clipPath id="clip0">
<rect width="1440" height="914" fill="white" transform="translate(-509 -362)"/>
</clipPath>
<clipPath id="clip1">
<rect width="445.99" height="126.2" fill="white" transform="translate(-319)"/>
</clipPath>
</defs>
</svg>
